<svg id="Laag_1" data-name="Laag 1" xmlns="http://www.w3.org/2000/svg" viewBox="0 0 227.56 324.26"><defs><style>.cls-1{fill:#f94646;}.cls-2{fill:#1b1b1b;}</style></defs><path class="cls-1" d="M113.36,75.41a37.6,37.6,0,0,1,9.1-11.15,21.31,21.31,0,0,1,13.12-5.21,17.67,17.67,0,0,1,13,5.13,9.36,9.36,0,0,1,2.43,4.6A33.26,33.26,0,0,1,152,82.07a90.48,90.48,0,0,1-8.29,26.41c-2.32,4.9-5,9.64-7.73,14.33a54,54,0,0,1-5.29,7.39c-3.27,3.92-6.71,7.71-10.14,11.5a82,82,0,0,0-6.55,7.62,11.37,11.37,0,0,1-2,2,1.34,1.34,0,0,1-1.76,0,17.43,17.43,0,0,1-2.44-2.26,183.29,183.29,0,0,1-19.78-28.77,81.48,81.48,0,0,1-10.12-33.2,30.57,30.57,0,0,1,.61-9.53C80,71,83.47,66.51,90.5,64.92a18.38,18.38,0,0,1,16.19,3.58,33.63,33.63,0,0,1,3.55,3.2C111.22,72.7,112.06,73.85,113.36,75.41Z"/><path class="cls-2" d="M196.05,109.05c.92,3.88-.31,7.64-.72,11.42a95.25,95.25,0,0,1-2.06,10.83,66.71,66.71,0,0,1-8.74,21.17c-2.75,4.31-5.7,8.49-8.51,12.77-4.21,6.41-8.42,12.82-12.55,19.29-.92,1.44-2.08,2.83-2.35,4.87,5.66,1.78,11.2,2.47,16.85.22a32,32,0,0,0,14.66-11.2c3.94-5.55,5.79-11.61,4.08-18.56-1.41-5.73-1.2-5.79,4-8.34.28-.14.55-.32.84-.45,12-5.2,18.34-15,21.48-27.15a23.54,23.54,0,0,0-.26-12.35c-.6-2.15-1.4-4.24-2.11-6.36a.58.58,0,0,0,.87,0c4.15,5.86,4.95,12.37,3.47,19.21a50.64,50.64,0,0,1-6.35,15.45,33.51,33.51,0,0,1-12.44,11.7c-1.24.71-2.54,1.35-3.85,1.94-5.17,2.33-4.57,1.6-3.62,6.63,1.36,7.28-.54,13.68-4.56,19.51a33.39,33.39,0,0,1-14.71,11.92,22.47,22.47,0,0,1-13.62,1.18c-.62-.13-1.24-.33-1.86-.47-4.34-1-4.4-1-5.94,2.93a54.22,54.22,0,0,0-2.42,7.26,32.2,32.2,0,0,0-.73,9.48q.7,11,2.16,21.94a95.86,95.86,0,0,0,4.71,19c3.08,8.75,7,17.14,10.57,25.69,4.22,10.15,12,16.3,21.7,20.49,1.44.62,2.93,1.13,4.47,1.72-.53,1.18-1.37.49-2,.49a12.45,12.45,0,0,1-1.88-.36c-.71-.13-1.31.13-1.36.86a1.36,1.36,0,0,0,.68,1.1c1.48.58,3,1,4.53,1.5,1.22.4,2.44.79,3.64,1.2.08,0,.06.27.11.41.16.43,0,.66-.43.62a25.2,25.2,0,0,1-3.79-.36c-4.81-1.14-9.63-2.28-14.4-3.6-5.38-1.5-10.63-3.48-16.21-4.19-.45-.06-.94-.39-.69-1a.9.9,0,0,1,.69-.42,36,36,0,0,1,8.53,1.13c4,.94,8,2.06,12.06,3.1,1.08.28,2.16.58,3.26.8.54.11.82-.34.91-.79a.94.94,0,0,0-.23-.83,9.51,9.51,0,0,0-1.69-.84,47.57,47.57,0,0,1-6.83-3.46A30.15,30.15,0,0,1,171,282c-3.66-8.68-7.53-17.28-10.6-26.2A93.89,93.89,0,0,1,155,231.51c-.24-3.51-.15-7.12-1-10.48-1.67-6.67-.35-13.34-.67-20-.06-1.13,0-2.16,1.45-2.53.39-.1.6-1.07.8-1.67,2.21-6.57,5.66-12.51,9.39-18.29s7.43-11.19,11.16-16.77c.8-1.2,1.6-2.39,2.45-3.56a79.63,79.63,0,0,0,13.83-31.32C193.67,121,194.79,115,196,109l0,.31Z"/><path class="cls-2" d="M52.64,310.58c3.93-3.74,7.82-7.53,11.81-11.21,9.34-8.6,15.21-19.26,18.47-31.4,4-14.91,6.22-30,4.44-45.53a70.06,70.06,0,0,1-.32-7.67,15.61,15.61,0,0,0-1.68-6.9,51.12,51.12,0,0,0-8.6-12.63,55.6,55.6,0,0,0-4.47-4.35A69.94,69.94,0,0,1,56.9,172a241.64,241.64,0,0,1-21.83-50.46c-.38-1.22-.89-2.41-.47-3.72a2.72,2.72,0,0,0,.25.11l-.07-.27c3,8.92,6.77,17.55,10.49,26.19,3.34,7.77,6.93,15.43,10.95,22.88,4.74,8.8,10.44,16.8,18.13,23.31a46.83,46.83,0,0,1,9,10.57c.67,1,1,2.34,2.44,3.21,1.16-1.21-.18-3,.81-4.16a2.09,2.09,0,0,1,1.38,1.88c1.06,9.36,2.21,18.71,2.8,28.12.52,8.2-.56,16.28-2,24.31a119.42,119.42,0,0,1-5.51,20.82A61.73,61.73,0,0,1,67,299.37a150.94,150.94,0,0,1-13.89,11.74C53.26,310.66,53.1,310.47,52.64,310.58Z"/><path class="cls-2" d="M137.72,6.6c-3.66-3.36-8.12-4.43-12.87-4.15-15.14.89-26.24,8.15-33.25,21.61A26.68,26.68,0,0,0,89,31.74a23.85,23.85,0,0,1-.55,2.33c-.75,2.55-1.47,2.9-3.71,1.67-2.52-1.38-5-2.86-7.47-4.3-1.52-.89-3-1.77-4.53-2.7-9-5.66-24.41-4.91-33.42,2.48a79.4,79.4,0,0,0-18.92,22.1c-3,5.36-3.56,8-3.49,15.64-1.25-.24-1.29-1.37-1.4-2.22a19.22,19.22,0,0,1,1.37-9.87A66.64,66.64,0,0,1,42.31,26.46c5.1-3.31,11-3.87,17-3.84,6.3,0,11.86,2.16,17.07,5.54,3.06,2,6.24,3.78,9.22,5.58C86.89,32.9,86.77,31.87,87,31,91.24,14.52,101.78,4.52,118.17.63A25.41,25.41,0,0,1,131,1.06c3,.85,5.64,2.27,6.81,5.46Z"/><path class="cls-2" d="M222.61,74.34c-1.4-7.35-4.67-13.89-8.84-20a21.23,21.23,0,0,0-8.22-7.16c-6.06-3-12.28-5.42-19.25-4.68h-.48c-3,0-3.87-.86-4.09-4-.17-2.38-.29-4.78-.56-7.15-.3-2.53-.62-5.08-1.17-7.57-2-9.09-9.56-17.07-18.13-19.24a26.81,26.81,0,0,0-14.64.71,27.22,27.22,0,0,0-7.82,3.5c0-.48-.08-1-.12-1.43a30.71,30.71,0,0,1,19-5.43A23.71,23.71,0,0,1,175.1,9.81c6.15,6.58,8.3,14.54,8.9,23.17.15,2.06.24,4.12.36,6.11,1.74.66,3.34.3,4.91.41a39.92,39.92,0,0,1,21.63,8.12,23.64,23.64,0,0,1,6.42,7.65,54.47,54.47,0,0,1,5.86,14.6,11.36,11.36,0,0,0,2,4.26A2.53,2.53,0,0,0,222.61,74.34Z"/><path class="cls-2" d="M16.16,72.78A57.81,57.81,0,0,0,7,82.46a23.61,23.61,0,0,0-4.29,9c-1.1,5.41.19,10.44,2.48,15.28a54.85,54.85,0,0,0,10.92,15c3,3.06,6,6.18,9.17,9.11A8.73,8.73,0,0,1,28,140.34c-2.65,10.56,1,19.45,8.26,27a52,52,0,0,0,6.23,5.22c3.41,2.58,7.46,3.49,11.57,4.17.76.13,1.53.14,2.32.21-.23,1.09-1,.81-1.56.81a24,24,0,0,1-15.09-5.12c-6.61-5-11.29-11.14-13.4-19.23A26.24,26.24,0,0,1,26,141.1c.16-.78.41-1.54.57-2.32a5.66,5.66,0,0,0-1.75-5.63c-3.8-3.64-7.52-7.38-11.29-11.07a55,55,0,0,1-8.74-11.35,37.92,37.92,0,0,1-3.36-7.39C-1.71,94.09.5,86.06,6.88,79A31.37,31.37,0,0,1,15,72.42Z"/><path class="cls-2" d="M38,112.88c.88-.14,1,.57,1.29,1.11q2,4.08,4,8.18c7.05,14.56,15.72,28.14,24.91,41.42,3.81,5.5,7.52,11.07,11.71,17.26a18.57,18.57,0,0,1-4.59-4.09C61.75,160.27,50,142.66,41.4,123.05c-1.15-2.62-2.19-5.3-3.22-8C37.92,114.4,37.42,113.66,38,112.88Z"/><path class="cls-2" d="M153.27,173.55a82,82,0,0,1,7.33-11.8c3.49-4.77,7.06-9.49,10.54-14.27a161.53,161.53,0,0,0,19.51-35.09c.3-.73.36-1.57,1.16-2a5,5,0,0,1,.48-.2,60.07,60.07,0,0,1-5.44,15.33,147.8,147.8,0,0,1-15.12,25c-6,7.89-11.78,15.94-17.66,23.92Z"/><path class="cls-2" d="M39.42,323.14a5.18,5.18,0,0,1,2.71-3.21,24.52,24.52,0,0,1,7.56-2.83A41.39,41.39,0,0,0,67,308.46c2.22-1.8,4.32-3.76,6.56-5.54,2.61-2.09,5.28-4.09,8-6.05.57-.41,1.2-1.12,2.11-.71,0,.1.13.26.09.29-5.44,5.12-10.75,10.4-16.7,15A38.35,38.35,0,0,1,50.29,319,29.28,29.28,0,0,0,39.42,323.14Z"/><path class="cls-2" d="M143.38,250.09c-.52-3.39-1.17-6.76-1.53-10.16a267.67,267.67,0,0,0-4.47-29.3,38.58,38.58,0,0,1-.41-13.34,5.78,5.78,0,0,1,1.08-2.9c1.28.24.78,1,.68,1.47a27.27,27.27,0,0,0,0,11.86c1.24,5.92,2.54,11.84,3.26,17.87C143,233.72,143.9,241.83,143.38,250.09Z"/><path class="cls-2" d="M108.52,194.33c-.9,5.75.58,10.42,2.17,15.14a83,83,0,0,1,3.89,34.92c-.27,2.77-.57,5.54-.88,8.55-1.52-1-1-2.18-1-3.16,0-4,.11-8,.36-12,.6-9.87-1.34-19.36-4.36-28.66A30,30,0,0,1,107,197.42,3.25,3.25,0,0,1,108.52,194.33Z"/><path class="cls-2" d="M112.4,291.14c2,3.09,3.93,6.21,6,9.26a14,14,0,0,1,2.45,8.6,58,58,0,0,1-2.33,13.66,6.51,6.51,0,0,1-1.06,1.6c.45-5.14.9-10.14,1.3-15.13a12.69,12.69,0,0,0-2-7.74c-2-3.29-3.7-6.7-5.53-10.06Z"/><path class="cls-2" d="M137.91,290.53a29.54,29.54,0,0,0-3.45,6.79,13.1,13.1,0,0,0,0,9.77c1.54,4,2.76,8.08,4.15,12.24-1.83-.61-2.48-2.11-3.09-3.49-1.16-2.61-2.2-5.29-3.16-8a14.08,14.08,0,0,1,.36-10.25,29.62,29.62,0,0,1,4.58-7.77A.62.62,0,0,0,137.91,290.53Z"/><path class="cls-2" d="M148.73,166.88c1.85-7.9,4-15.71,7.46-23.08.2-.42.48-.81.71-1.21a.52.52,0,0,0,.89,0c-2.46,8.18-5.14,16.28-8.11,24.28A.63.63,0,0,0,148.73,166.88Z"/><path class="cls-2" d="M101.2,171.86q-3.8-7.11-7.59-14.22a6.76,6.76,0,0,1-.62-1.75c-.06-.24.13-.73.3-.78a1.12,1.12,0,0,1,.86.28,4.84,4.84,0,0,1,.94,1,51.7,51.7,0,0,1,6.54,13.11c.24.75.52,1.49.79,2.23C102,171.78,101.6,171.82,101.2,171.86Z"/><path class="cls-2" d="M227.11,79.55a46,46,0,0,1,.07,12.35,17.88,17.88,0,0,1-3.69,9.64,8.25,8.25,0,0,1-1.47,1.14l0-.38-.33.18c.54-1.15,1-2.33,1.62-3.46a18.52,18.52,0,0,0,2-6.87c.37-4.13.9-8.26.16-12.4C226.07,80.14,226.57,79.73,227.11,79.55Z"/><path class="cls-2" d="M70.91,151.28l7.49,19c-2.06-2-2.85-4.1-3.81-6.09-2-4.14-3.15-8.61-4.53-13A.49.49,0,0,0,70.91,151.28Z"/><path d="M227.11,79.55c-.54.18-1,.59-1.65.2-.7-1.86-.77-1.88-1.9-.52-.1.12-.16.29-.27.37s-.27.07-.69.16V74.32a2.6,2.6,0,0,1,2.57-.19C226.68,75.63,227,77.55,227.11,79.55Z"/><path d="M104.58,257.61c1.76,4.18,2.11,8.08,1.61,15.58a21.06,21.06,0,0,1-.71-4.36C105.2,265.43,104.93,262,104.58,257.61Z"/><path d="M102.13,161c2.25,1.84,3.66,4.88,5.35,11.54A36,36,0,0,1,102.13,161Z"/><path class="cls-2" d="M138.78,162.65c-1.76,3.66-3,7.61-6.24,11.47,1.23-5,3.44-8.48,5.55-12.05C138.08,162.56,138.29,162.77,138.78,162.65Z"/><path d="M126.88,167.6c.54-3.24,1.39-4.7,5.47-9.32-.35,2.18-1.69,3.56-2.55,5.15S128.52,166.65,126.88,167.6Z"/><path d="M70.91,151.28a.49.49,0,0,1-.85-.09,24.3,24.3,0,0,1-1.14-8.49c.27.88.56,1.76.82,2.64s.58,1.81.77,2.73S71.31,150.15,70.91,151.28Z"/><path d="M133.38,251.87c1.2,3.08,1.32,6.33,1.49,9.57-1.62-2.93-1.82-6.18-2.22-9.38l.3-.33Z"/><path class="cls-2" d="M133.38,251.87l-.43-.14-.3.33c-.4-3.12-.81-6.23-1.24-9.57C133.2,245.55,133,248.76,133.38,251.87Z"/><path d="M137.26,289.84c.53-1.36,1.7-2.11,2.72-3.16.65,1.11-.26,1.54-.61,2.1a17.47,17.47,0,0,1-1.46,1.76A.63.63,0,0,1,137.26,289.84Z"/><path d="M139.29,7.32c0,.48.09.95.12,1.43-.23.22-.41.53-.67.63s-.94.34-1.24.18c-.59-.31,0-.76.06-1.16a18,18,0,0,0,.15-1.8l.08-.08A2,2,0,0,1,139.29,7.32Z"/><path d="M34.78,117.7l.07.27a2.72,2.72,0,0,1-.25-.11c-1.76-.66-1-2.27-1.65-3.8A5.68,5.68,0,0,1,34.78,117.7Z"/><path d="M112.4,291.14l-1.18.19a2.34,2.34,0,0,1-.19-2.26c.14-.36.58-.45.69-.17C112,289.62,112.18,290.39,112.4,291.14Z"/><path d="M154.07,174.43a14.35,14.35,0,0,1-1,1.54,1,1,0,0,1-.79.35c-.34-.07-.35-.43-.15-.78l1.12-2Z"/><path d="M138.09,162.07a5,5,0,0,1,1.64-2.72c.63,1.44-.38,2.32-.95,3.31C138.29,162.77,138.08,162.56,138.09,162.07Z"/><path d="M204.32,307.33c-.31-.08-.9-.24-1.48-.43-.06,0-.05-.29,0-.43s.05-.33.14-.37a3.26,3.26,0,0,1,2.68.22c.19.06.24.48.36.73a2,2,0,0,1-.44.16C205.25,307.26,204.94,307.27,204.32,307.33Z"/><path d="M101.2,171.86c.4,0,.81-.08,1.22-.1a17.36,17.36,0,0,1,.68,1.68c.06.22-.15.52-.23.78a3.11,3.11,0,0,1-.69-.4A2.57,2.57,0,0,1,101.2,171.86Z"/><path d="M221.5,105.21a.58.58,0,0,1-.87,0c-.35-.66-.77-1.28.3-1.75.34-.15.53-.65.79-1l.33-.18,0,.38C221.18,103.39,221.48,104.33,221.5,105.21Z"/><path d="M148.73,166.88a.63.63,0,0,1,1,0c.43.8-.24,1.42-.36,2.11,0,.19-.39.31-.6.47a2.4,2.4,0,0,1-.28-.8A17.34,17.34,0,0,1,148.73,166.88Z"/><path d="M112.94,256.7a5.49,5.49,0,0,1-.49,4,7.8,7.8,0,0,1-.14-3.82l.29-.31Z"/><path d="M16.16,72.78,15,72.42a3.62,3.62,0,0,1,.67-.53c.35-.19.83-.67,1.11-.12C17,72.14,16.71,72.65,16.16,72.78Z"/><path class="cls-2" d="M112.94,256.7l-.34-.1-.29.31c0-.9,0-1.8.06-2.7,0-.41.16-.52.54-.55.71,0,.66.54.61.86A15.24,15.24,0,0,1,112.94,256.7Z"/><path d="M157.79,142.55a.52.52,0,0,1-.89,0,7.57,7.57,0,0,1,.31-1.18c.07-.19.34-.29.52-.43a2.56,2.56,0,0,1,.28.77A2.74,2.74,0,0,1,157.79,142.55Z"/><path d="M196.05,109.05l-.06.3,0-.31c0-.43-.1-.85-.09-1.27a3.66,3.66,0,0,1,.2-.84,6.58,6.58,0,0,1,.12.86C196.18,108.21,196.1,108.63,196.05,109.05Z"/><path d="M53.15,311.11c-.26.37-.72.72-1,.4s0-.82.5-.94S53.26,310.66,53.15,311.11Z"/></svg>