<svg id="Laag_1" data-name="Laag 1" xmlns="http://www.w3.org/2000/svg" viewBox="0 0 192.74 119.87"><defs><style>.cls-1{fill:#1b1b1b;}</style></defs><path class="cls-1" d="M118.11,119.87a63.1,63.1,0,0,1-16.85-3.23c-8.07-2.53-16.08-5.25-24.13-7.85-7-2.25-14-4.49-21.29-5.61-6.15-1-12.34-1.62-18.53-2.37-3.33-.41-6.68-.63-10-1.12a24.93,24.93,0,0,1-5.06-1.37c-3-1.12-5.89-2.49-8.88-3.58C3.87,91.27-.18,81.77,0,74A28.19,28.19,0,0,1,6.34,56.23,55.31,55.31,0,0,1,19.52,44.47a94.16,94.16,0,0,1,14-7.25c4.71-2,9.41-4,14.17-5.84A250.61,250.61,0,0,0,83.89,13.85,183.34,183.34,0,0,1,103,3.94,42.36,42.36,0,0,1,121.62,0c10.7.35,20.26,3.45,28.52,10.69A235.54,235.54,0,0,1,179,41.41a73.71,73.71,0,0,1,12.06,21.68c3.61,10.32,1.12,19.15-5.69,27.15A45.71,45.71,0,0,1,176,98.41a89,89,0,0,1-14.2,8c-8.64,3.76-17.35,7.34-26.3,10.31A56.81,56.81,0,0,1,118.11,119.87Zm1.61-3.62a49.24,49.24,0,0,0,14.05-2.79c8.78-3,17.34-6.48,25.87-10.07a87.13,87.13,0,0,0,14.26-7.85,42.8,42.8,0,0,0,10-8.91c3.93-4.94,6.1-10.5,5.06-16.93a34.62,34.62,0,0,0-1.46-5.55c-2.91-8.61-7.9-16-13.48-23.05-2.28-2.89-4.83-5.56-7.1-8.45-5.55-7.08-12.08-13.18-18.7-19.23a37,37,0,0,0-21.91-9.73,42.81,42.81,0,0,0-8.1-.48,47.8,47.8,0,0,0-16.44,4.84c-6.19,3-12.18,6.35-18.08,9.86A232.21,232.21,0,0,1,50.16,34.36C43,37.18,35.94,40.08,29,43.24A59,59,0,0,0,8.82,57.63,29.73,29.73,0,0,0,3.5,65.56c-1.21,2.85-2,5.68-.74,8.79C3.4,76,3.52,77.79,4,79.46,5.72,84.94,8.84,89.11,14.51,91c2.87,1,5.63,2.28,8.49,3.29a25.5,25.5,0,0,0,5.09,1.29c3.8.48,7.63.67,11.43,1.17,5.85.79,11.73,1.28,17.53,2.52,8,1.71,15.73,4.15,23.48,6.63,8.82,2.83,17.62,5.68,26.47,8.4A38.91,38.91,0,0,0,119.72,116.25Z"/><path class="cls-1" d="M158.58,50.6c-.42,3.09-1.8,4.47-2.85,6a16.67,16.67,0,0,1-5.24,4.82,57.5,57.5,0,0,1-10.38,4.81,185,185,0,0,1-19.71,5.72c-5.58,1.34-11.15,2.68-16.38,5.12a4.54,4.54,0,0,1-1.34.42c-.25,0-.53-.19-.79-.3.12-.28.17-.7.39-.82,1.65-.94,3.31-1.9,5-2.7a81.53,81.53,0,0,1,11.31-3.77C125,68,131.43,66.06,137.78,64c6.73-2.21,12.91-5.44,17.87-10.67C156.29,52.62,157,52,158.58,50.6Z"/></svg>