<?xml version="1.0" encoding="utf-8"?>
<!-- Generator: Adobe Illustrator 22.1.0, SVG Export Plug-In . SVG Version: 6.00 Build 0)  -->
<svg version="1.1" id="Laag_1" xmlns="http://www.w3.org/2000/svg" xmlns:xlink="http://www.w3.org/1999/xlink" x="0px" y="0px"
	 viewBox="0 0 174.9 181.7" style="enable-background:new 0 0 174.9 181.7;" xml:space="preserve">
<style type="text/css">
	.st0{fill:#FFFFFF;}
	.st1{fill:#F94646;}
</style>
<path class="st0" d="M173.3,181.7c-2-3.2-1.1-6.1-1.9-8.6c-1-0.5-1.8,0.2-2.8,0.4c-4.1,0.7-8.2,1.1-12.4,1c-7-0.3-14.1,0-21.1-0.1
	c-12-0.2-23.9-0.5-35.9-1.3c-3.5-0.2-7-0.2-10.5-0.2c-12.5-0.1-24.9,0-37.4-0.4c-8.5-0.3-16.9-0.3-25.4-0.3c-4.6,0-9.2,0.5-13.8,0.7
	c-0.6,0-1.3,0-1.5-0.8s0.3-1.4,1.4-1.5c2.5-0.2,5.1-0.5,7.6-0.6c18.2-0.9,36.4-1,54.6-1c6.9,0,13.8-0.1,20.6,0
	c8.6,0.2,17.2,0.5,25.9,0.8c9.3,0.3,18.5,0.6,27.8,0.6c7.5,0,15-0.5,22.2,1.1c1-1.4,0.6-2.7,0.5-3.9c-0.5-5.9-0.8-11.8-0.7-17.7
	c0-9.8,0.1-19.5,0.1-29.3c0.1-17.8-0.7-35.5-1.7-53.2c-0.3-5.9-0.4-11.8-0.6-17.7c-0.1-3.3-0.3-6.7-0.4-10.1
	c-0.2-5.9,0-11.8,0.4-17.7c0.1-1.1,0.1-2.3,0-3.4c-2-0.9-4.1-0.7-6.2-0.5c-13.6,1.1-27.2,0.3-40.7-0.1c-10.7-0.4-21.4-0.5-32.1-0.2
	c-13.7,0.3-27.5,0.4-41.2,0.9c-12.6,0.5-25.2,0.3-37.9,0.7c-2.7,0.1-5.4,0.2-7.9,0.3c-1,1.1-0.8,2.3-0.7,3.4
	c0.2,2.7,0.5,5.4,0.7,8.1C3.3,40,4,49.1,4.7,58.2c0.9,10.7,1.8,21.3,2.6,32c0.4,4.6,0.8,9.2,1,13.9c0.7,12,1.6,23.9,2,35.9
	c0.2,8.5-0.1,16.9-0.8,25.4c-0.1,0.6-0.3,1.2-0.6,1.7c-0.8-3.4-1.2-6.8-1.4-10.3c-1.2-15.1-1.5-30.3-2.3-45.5
	C4.3,93.9,3.1,76.5,2,59.1C1.3,48,0.8,36.8,0.2,25.6c-0.4-7.8-0.5-7.9,7.3-8.3c7.5-0.3,15-0.4,22.5-0.6c12.5-0.3,24.9-0.6,37.4-0.9
	c2.2-0.1,4.5,0,6.7-0.1c1.8,0,3.4-1,4.2-2.5c1.6-2.7,3.6-5.3,5.4-7.9C84.6,4.1,85.5,3,86.5,2c2.7-2.8,4.7-2.7,7.1,0.5
	c2.7,3.6,4.9,7.5,5.2,12c1.2,0.9,2.3,0.5,3.3,0.6c8.9,0.1,17.9,0.2,26.8,0.4c5.9,0.1,11.8,0.5,17.7,0.6c3.8,0.1,7.7-0.2,11.5-0.2
	c3,0,6.1,0,8.9,1.4c0.9,0.4,1.4,0,2-0.7s1.3,0,1.4,0.5c0.1,1.3,0.1,2.6,0.1,3.8c0.1,8.3,0,16.6,0.4,24.9c0.6,12,1.7,23.9,2.4,35.8
	c0.6,9.9,1.1,19.8,1.3,29.7c0.3,13.3,0.3,26.6,0.2,39.8C174.9,161.3,174.4,171.5,173.3,181.7z M93.2,7.9c-1.4,0.2-1.5,1.4-2.2,1.9
	c-1,0.8-2.3,0.7-2.8-0.4s-0.9-2.3-1.4-3.7c-1.3,1.7-2.6,3.1-3.7,4.6s-2.5,2.8-3.1,4.7c7,0.5,14.1,0.2,16.9-0.8
	C95,12.6,94.8,9.8,93.2,7.9z M88.8,3.7C89,4,89.1,4.4,89.3,4.4c0.4,0,1,0,1.2-0.3c0.4-0.5-0.2-0.8-0.5-0.8S89.2,3.6,88.8,3.7z"/>
<path class="st0" d="M80.8,28.3c-0.4,3.3,0.5,5.9,0.7,8.6c0.2,3.7,0.5,7.3,0.8,11c0.8,11,1.6,22,2.5,33c0,0.5,0,1,0,1.4
	c0,0.8-0.3,1.9,0.4,2.2c1.2,0.5,1.5-0.9,1.9-1.6c2.4-3.7,6.2-5.5,10-7.1c1.5-0.6,3-1,4.4-1.5c0.4-1.3-0.5-2.3-0.6-3.3
	c-0.5-2.7-0.2-5.1,2.1-7c0.4-0.3,0.7-0.7,1-1c1.5-1.3,1.9-3.5,0.9-5.2c-0.9-2-1.5-4.2-1.6-6.5c-0.1-2,0.2-3.8,1.9-5.1s3-3.4,4-5.4
	c0.6-1.3,1.8-2.3,3.2-2.6c1.4-0.3,2.8,0.4,2.7,1.8c-0.2,3.4,0.9,6.7,3.1,9.3c0.9,1.2,1.1,2.8,0.4,4.1c-0.6,1.2-0.4,2.6,0.4,3.6
	c1.5,2.1,2.1,4.6,1.8,7.2c1.1,0.3,1.6-0.3,2.1-0.9c2.7-3.2,5.6-6.2,9.4-8c1.2-0.6,1.9-1.8,1.8-3.1c0.5-4.3,2.8-8.1,6.4-10.4
	c1.8,3.4,4.8,5.7,6.4,9.1c0.4,0.9,1.3,0.8,2.1,0.4c1-0.5,2-1.1,2.9-1.7c0.9-0.6,1.8-1.6,2.8-1.8c3.8-0.9,3.9-3.5,3.8-6.6
	c-0.1-3.4,0.1-6.7,0.2-10.1c-0.1-1,0.2-1.9,0.7-2.7c0.2-0.2,0.4-0.3,0.7-0.4c0.3,0.1,0.6,0.2,0.8,0.5c0.5,0.6,0.7,1.4,0.6,2.2
	c0,2.4,0,4.8,0,7.2c0.1,1.1,0.1,2.2,0,3.3c-0.3,2.3,1.2,4.4,0.5,6.9c-0.6,2,0,4.4,0.1,6.7c0.1,2.4,0.1,4.8,0.2,7.2
	c0,2.2,0.1,4.5,0.1,6.7c0,2.4,0,4.8,0,7.2c0,2.2,0,4.5,0,6.7c0,1.4-0.1,2.9-0.4,4.3c-0.3,1.2-0.9,2.6-2.6,1.7
	c-0.6-0.3-0.8,0.1-1.1,0.4c-2.6,1.8-5.6,2.1-8.7,2c-4-0.2-8-0.5-12-0.6c-12.7-0.3-25.5-0.5-38.3-0.6c-4.6,0-9.3,0.2-13.9,0.3
	c-2.2,0-2.2,0-3-2.1c-0.9-2.2-1.4-4.6-1.5-7c-1.1-16.8-1-33.6-1.6-50.3c0-0.9,0.2-1.9,0.5-2.8c0.2-0.8,0.9-1.4,1.7-1.4
	c5.4-0.3,10.8-0.8,16.3-0.9c13.7-0.2,27.5-0.3,41.2-0.4c5.1,0,10.2,0.1,15.4,0.2c1.1,0,2.3-0.1,2.6,1.5c-1.9,0.6-4,0.8-6,0.7
	c-9.3,0-18.6-0.2-27.8-0.1c-11.5,0.1-23,0.2-34.5,0.4C85.9,28.1,83.6,28.6,80.8,28.3z M133.8,57.6c-0.8-0.1-1.7,0.2-2.3,0.7
	c-2.6,1.6-4.9,3.7-6.8,6c-4.5,5.3-10.5,9-17.2,10.7c-2.2,0.6-4.3,1.2-6.5,1.8c-3.2,0.8-6.3,2.2-9.2,4c-1.9,1.2-3.4,3-4.4,5
	c-0.8,1.7-0.4,2.4,1.4,2.3c4.5-0.3,8.9-0.8,13.4-0.9c16.8-0.4,33.6-0.6,50.3-0.2c1.4,0.1,2.9,0.2,4.3,0.5c1.9,0.3,1.9,0.3,2-1.5
	c0.2-9-0.1-17.9-0.5-26.8c-0.1-2.9-0.1-5.8-0.2-8.6c0-0.5-0.3-1-0.8-1c-0.1,0-0.3,0-0.4,0.1c-0.6,0.1-1.2,0.4-1.8,0.7
	c-2.2,1.3-4.1,3-6.7,3.7c-0.5,0.2-0.8,0.5-1,1c-1.1,3-2.5,6-0.2,9.1c0.3,0.5,0.6,1.1,0.9,1.7c1.2,2.5,1.9,5.1,0.8,7.8
	c-0.3,1.1-0.4,2.2-0.2,3.3c0.1,1-0.1,1.9-0.6,2.8c-0.3,0.5-0.4,1.2-1.3,1.2c-0.6-0.1-1.2-0.5-1.5-1.1c-1.5-2-1.6-4.7-0.4-6.8
	c1.2-2,1.1-4.4-0.1-6.4c-0.4-0.7-0.7-1.4-1-2.2c-1.3-2.3-1.2-5.1,0.1-7.3c1.7-3,1.1-5.8-1-8.4c-0.6-0.7-1.2-1.5-1.8-2.2
	c-0.3-0.6-1-0.8-1.5-0.5c-0.2,0.1-0.4,0.3-0.5,0.5c-3,3.9-4.3,8.1-2.1,12.9c0.5,1.2,1,2.3,1.5,3.5c1.4,3.2,0.4,5.9-1.8,8.3
	c-0.5,0.6-1.2,1-1.8,1.6c-2.5,2.3-2.9,3.8-1.5,6.8c0.3,0.7,0.8,1.4,1.2,2c0.2,0.4,0.2,0.6-0.2,0.7c-0.3,0.1-0.6,0.1-0.9,0
	c-3.1-2.5-3.6-7-1.2-10.2c0.7-0.8,1.5-1.6,2.4-2.3c2.2-2,2.5-4.3,1.4-6.9L133.8,57.6z M112.6,40.2c-0.8-0.1-1.6,0.4-1.9,1.1
	c-1.4,2.2-2.3,4.6-4.3,6.2c-1.3,1-1.8,2.8-1.1,4.3c0.6,1.8,1.2,3.7,1.9,5.4c1.2,2.5,0.7,5.6-1.3,7.5c-0.5,0.6-1.1,1.2-1.7,1.7
	c-1.8,1.7-1.7,3.5-0.2,6.1c1,1.8,2.5,0.3,3.8,0.1c0.5-0.1,0.9-0.2,1.4-0.4c4.3-1.1,7.3-3.3,8.1-8.2c0.3-2,0.7-3.7-0.3-5.5
	c-0.8-1.4-1.5-3-0.8-4.5c1-2.3,0.5-4.2-0.9-6.2c-1.2-1.7-1.8-3.8-1.8-5.9c0-0.5,0-0.9-0.1-1.4C113.1,40.5,112.8,40.4,112.6,40.2z
	 M83.8,87.7c0.4,0.2,0.7,0.5,0.9,0.5c0.8-0.2,0.8-0.8,0.8-1.4c0-0.5,0-0.9-0.5-1.2c-0.1,0-0.2,0-0.3,0C84.4,86.3,84.1,87,83.8,87.7z
	 M120.6,65.5l-0.2-0.3c-0.1,0.1-0.2,0.2-0.2,0.3s0.1,0.2,0.2,0.3L120.6,65.5z"/>
<path class="st0" d="M11.4,31.6c3.2,20.1,6.8,39.8,5.8,60.2l5.3-0.7c1.7-0.2,3.5-0.2,5-0.9c0.7-1.1-0.1-2,0-2.9
	c0.2-2.8-0.1-5.2-2.3-7.4c-1.6-1.6-1.9-4-2.3-6.2c-0.3-1.3,0-2.6,0.9-3.6c2.5-2.3,2.2-5,1.4-7.9c-1.4-4.8-0.8-10,1.6-14.4
	c0.6-1.3,1.4-2.5,2.5-3.5c3.4-2.7,6.8-5.3,10.8-7c3.4-1.4,7.2-1.7,10.8-1c3,0.5,5.4,1.9,6.3,5.1c0.6,2.3,2,4.4,3.8,6
	c3.8,3.4,5.3,7.5,3.6,12.5c-0.4,1.1-0.4,2.2,0.1,3.2c1.3,2.7,0.8,5.9-1.3,8c-0.3,0.4-0.6,0.8-0.8,1.3c1.5,4.4,4.5,8.5,3.4,13.7
	c2.4,0.7,4.9,0.3,7.1,1.4c-1.1,1.9-2.9,2.2-4.5,2.6c-1.9,0.5-3.8,0.7-5.7,0.7c-14.4-0.2-28.7,1.4-43,2.5c-4.3,0.3-4.4,0.3-4.8-4
	c-0.6-7-1.1-14-1.7-21c-1-10.8-2.1-21.6-3.1-32.5c-0.1-1.1-0.4-2.2-0.7-3.3C8.8,30,8.8,30,11.4,29.8c9.6-0.5,19.1-1,28.7-1.6
	c8.6-0.7,17.2-1,25.8-0.8c0.5,0.1,1,0.1,1.4-0.1c0.9-0.4,1.7-1,2.6-0.1s0.4,1.8,0.6,2.7c1,8.7,2.1,17.4,2.5,26.2
	c0.2,4.9,0.3,9.9,0.7,14.8c0.3,4.2-0.3,8.3-0.9,12.7c-1-0.5-1.6-1.5-1.7-2.6c-0.9-4.6-1.2-9.2-1.1-13.8c0.2-10.9-0.8-21.7-1.2-32.6
	c-0.1-1.7-0.4-3.4-0.6-5.2L11.4,31.6z M34.5,53.6c0.1,1.3,0,2.5,0.2,3.8c0.5,4.1,3.4,6.8,8,7.7c3.7,0.7,7-1.8,8.5-4.9
	c1.8-3.3,0.6-7.5-2.7-9.3c-0.4-0.2-0.7-0.4-1.1-0.5c-1.5-0.6-3.2-0.6-4.7,0c-2.8,1.1-5.5,2.2-8.3,3.4c-0.2-0.2-0.6-0.5-0.6-0.7
	c1.3-4.3,4.4-6.8,8.5-7.2c6.7-0.6,9.8,2.7,11.5,6c1.2,2.5,1.5,5.3,0.7,7.9c-0.5,1.4,0,2.9,1.2,3.7c1.8,1.6,3.4,3.4,4.8,5.4
	c0.3,0.4,0.6,0.8,1.5,0.4c0.1-1.1,0.5-2.4,0.1-3.4c-1.2-2.9-0.8-5.5,0.1-8.4c0.7-2,0.2-4.3-1.3-5.8c-0.6-0.8-1.2-1.5-1.8-2.2
	c-2.1-1.8-3.5-4.2-4.1-6.8c-0.5-2.2-2-3.2-3.9-3.7c-2.5-0.6-5.1-0.6-7.5,0.1c-5.1,1.3-9,4.6-12.9,7.9c-0.8,0.8-1.3,1.8-1.7,2.8
	c-1.9,4.1-2.1,8.8-0.6,13.1c1,3,1,5.6-1,8.1c-0.8,1.2-1,2.7-0.4,4c0.2,1.2,0.8,2.4,1.8,3.2c0.7-2,1.3-3.8,2.1-5.5
	c0.7-1.8,1.6-3.5,2.6-5.1c1.2-1.3,1.3-3.3,0.4-4.8c-1.5-2.7-1.6-6-0.2-8.8C33.7,53.3,34,53.5,34.5,53.6L34.5,53.6z M31.3,89.9
	c10.5-1.5,20.2-2.4,30-3c-0.5-7.1-5.1-17.9-9.4-22c-0.6,0.5-1.2,1.1-1.7,1.6c-2.6,2.7-5.8,3.2-9.2,2.1c-0.8-0.2-1.5-0.5-2.3-0.7
	c-0.9-0.4-1.9,0.1-2.2,0.9c0,0.1,0,0.1-0.1,0.2c-2,4-3.4,8.3-3.9,12.7C32.4,84.4,32,87.2,31.3,89.9L31.3,89.9z"/>
<path class="st0" d="M105.6,106.1c-5.2,1.1-10.2,0.6-15.1,0.5c-8.6,0-17.3,0.1-25.9,0.2c-14.4,0.2-28.7,0.5-43.1,0.8
	c-0.4,0-0.9,0.1-1.3,0.2c-0.7,0.9-0.4,1.9-0.2,2.8c1.2,9.5,2.4,19,3.6,28.5c0.5,4.1,0.9,8.2,1.3,12.4c0.2,1.4,0.1,2.9-0.3,4.3
	c-0.2,0.6-0.7,1-1.2,1.2c-0.7,0.2-1.2-0.4-1.4-1c-0.4-1.4-0.7-2.8-0.9-4.2c-0.8-10-1.4-20.1-2.2-30.1c-0.4-4.9-0.2-9.9-1.6-14.7
	c-0.4-1.5,0.7-2.4,2.3-1.9c1.4,0.3,2.9,0.3,4.3,0.1c11-0.5,22-1.2,33-1.6c5.1-0.2,10.2-0.2,15.3-0.2c8.9-0.1,17.9-0.2,26.8-0.3
	c1.3,0,2.6,0,3.8,0.2c2.6,0.1,4.8,2.2,4.9,4.8c0.3,1.9,0.5,3.8,0.6,5.7c0.3,10.1,1.3,20.1,1,30.2c-0.1,3.8-0.5,7.6-1.1,11.4
	c-0.2,1-0.6,1.9-1.9,1.4c-0.6-0.2-1.3-0.1-1.8,0.2c-4.1,1.7-8.4,1.6-12.7,1.5c-11.2-0.4-22.3-0.9-33.5-1.4c-9.4-0.5-18.8-0.5-28.2,0
	c-1.1,0.1-2.2,0.1-3.3,0c-0.3-0.1-0.5-0.2-0.6-0.5c-0.1-0.4,0.1-0.8,0.5-1c0.1,0,0.1,0,0.2,0c3-0.4,6-0.9,9-1.2
	c9.9-0.8,19.8-1.2,29.7-1.4c4.3-0.1,8.6-0.4,12.9-0.4c5.3,0,10.5,0.2,15.8,0.3c1.8,0,3.5-0.2,5.2-0.2c2,0,4,1.1,6,0.2
	c0.6-2,0-4.1,0-6.1c0.1-11.7,0.2-23.3,0.2-35C105.7,110.1,105.6,108.2,105.6,106.1z"/>
<path class="st0" d="M158.7,151.2c-0.3-12.9-0.6-25.3-0.8-37.8c-0.1-3.2-0.2-6.4-0.4-9.6c-0.1-0.6,0.1-1.3,0.6-1.7
	c0.1-0.1,0.3-0.2,0.4-0.2c0.1,0,0.2,0.1,0.3,0.2c0.1,0.3,0.2,0.6,0.3,0.9c1.1,13.2,2.7,26.4,3,39.7c0.1,3-0.1,6.1-0.2,9.1
	c1.1,1.4,0,1.7-1,2.2c-3.5,1.5-7.4,2.2-11.2,2.2c-10.2,0.2-20.4,1-30.6,1.6c-0.6,0-1.3,0-1.9-0.1c-0.7-0.1-1.2-0.7-0.9-1.4
	c0.5-1,0.5-2.2,0.2-3.2c-0.6-2.8-0.9-5.7-0.9-8.6c-0.4-13.2-0.8-26.5-1.2-39.9c1.9-0.2,3.9-0.5,5.9-0.7c10.4-0.7,20.7-1.6,31-2.8
	c1.1-0.1,2.2,0,3.3,0.2c0.7,0,1.2,0.5,1.3,1.2c0,0.7-0.6,1.1-1.1,1.5c-0.7,0.5-1.4,0.7-2.2,0.7c-9.9,0.2-19.8,1.3-29.7,1.1
	c-1,0-1.9,0-2.9,0c-3.8,0.2-3.7,0-3.3,3.8c1,10.5,1.9,21,2.8,31.5c0.4,4.1,0.1,8.3-0.7,12.4c-0.3,1.6,0.1,2,1.8,1.8l32.4-3.5
	C154.9,151.4,156.6,151.3,158.7,151.2z"/>
<path class="st1" d="M40.4,124c1.1-1.5,1.8-2.7,2.8-3.8c0.9-1.1,2.2-1.9,3.6-2.2c3.9-1,5.8,0.3,6.1,4.3c0.3,3.3,0,6.7-0.9,10
	c-1.3,4.4-2.5,8.9-4.8,13c-3,5.3-4.6,5.7-8.9,1.2c-5.1-5.2-8.8-11.5-10.7-18.5c-0.7-2.5-0.5-4.8,1.8-6.4c2-1.4,4.7-1.5,6.8-0.3
	C37.5,122,38.8,123,40.4,124z"/>
<path class="st0" d="M84.2,143.1c0.9,1.1-0.2,1.6-0.7,2.2c-0.3,0.4-0.9,0.2-1.2-0.2c-4.4-5.1-6.7-10.8-5.8-17.6
	c0.1-0.8,0.4-1.5,0.9-2.2c0.8-1.4,2.6-1.8,3.9-1c0.4,0.2,0.7,0.5,0.9,0.9c0.6,1,1.2,2,1.7,3.1c1.5-0.7,2.9-1.9,4.6-2.2
	c2.3-0.5,3.7,0.6,3.7,3c0,0.5,0,1-0.1,1.4c-0.9,4.9-3.2,9.4-6.8,12.9c-0.5,0.4-0.8,0.2-1.2-0.1c-0.2-2.4,1-4.3,2.2-6.1
	c1.4-2.1,2.5-4.4,3.3-6.8c0.2-0.6,0.4-1.4-0.2-1.6c-0.6-0.2-1.2-0.1-1.8,0.2c-1.4,0.7-2.6,1.9-3.2,3.4c-0.2,0.5-0.4,0.8-1,0.8
	c-0.5-0.1-0.9-0.5-0.9-0.9c-0.5-1.5-1-3-1.6-4.5c-0.1-0.2-0.6-0.6-0.7-0.6c-0.4,0.2-0.7,0.5-0.9,0.8c-0.3,0.6-0.4,1.2-0.3,1.8
	C79.6,134.6,80.6,139.4,84.2,143.1z"/>
<path class="st0" d="M141,139.3c-0.6,1.6-2,1.6-3.2,1.9s-2.5,0.6-3.7,0.8c-0.5,0-0.8,0.4-0.8,0.9c0,0,0,0,0,0
	c0.1,0.3,0.7,0.6,1.1,0.6c0.9,0,1.9-0.2,2.9-0.3c3.5-0.4,7-0.3,10.5,0.4c0.5,0,0.9,0.2,1.4,0.4c0.4,0.3,0.7,0.6,0.9,1
	c0.1,0.1-0.3,0.5-0.5,0.7c-1.2,0.7-2.7,1.1-4.1,1.2c-1.4,0-2.9,0-4.3,0c-3.8,0-7.6,0-11.5,0c-0.9,0-1.9-0.2-2.8-0.3
	c-0.1-0.1-0.2-0.2-0.3-0.4c0-0.3,0.1-0.8,0.2-0.8c1.3-0.4,2.7-0.8,4.1-1.2c0.6-0.2,1.1-0.5,1.6-0.9c0.1-0.1,0-0.8-0.1-0.8
	c-0.9-0.2-1.8-0.4-2.8-0.5c-0.6,0-1.1-0.5-1.1-1.2c0,0,0-0.1,0-0.1c0.1-0.4,0.4-0.8,0.8-1C133.1,138.8,137,138.2,141,139.3z"/>
<path class="st1" d="M64.5,115.2c0.3,0.1,0.8,0,0.9,0.2c1,1.6,2.6,1.5,4.2,1.6c1.2,0,2.1,0.9,2.1,2.1c0,0.2,0,0.4-0.1,0.5
	c-0.1,0.8-0.4,1.5-0.7,2.3c-1.5,3-3.4,5.7-5.6,8.2c-0.5,0.7-1.6,0.8-2.3,0.3c-0.2-0.2-0.4-0.4-0.5-0.6c-1.7-2.9-2.5-6.2-2.1-9.6
	c0.1-1.4,0.7-2.8,1.6-3.9C62.6,115.5,63.5,115.1,64.5,115.2z"/>
<path class="st0" d="M127.8,130.2l-2.3-0.2c-0.5,0-0.8-0.4-0.8-0.9c0,0,0,0,0,0c0-0.5,0.3-0.9,0.7-1.2c1.2-0.4,2.4-0.8,3.6-1
	c5.3-1.1,10.6-2.2,15.9-3.1c2.2-0.6,4.5-0.3,6.5,0.6c0.3,0.1,0.7,0.4,0.7,0.6c0,0.4-0.2,0.8-0.5,1.2c-1.5,1.2-3.3,2-5.2,2.2
	C140.3,129,134.1,129.6,127.8,130.2z"/>
<path class="st0" d="M126.7,116c-1,0-1.8,0-2.6,0c-1.7,0-2.9-0.6-2.7-1.1c0.4-1.3,1.6-1.4,2.7-1.6c6.9-1.1,13.9-1.9,20.8-2.4
	c0.8-0.1,1.6,0,2.4,0.1c1.1,0.3,3-0.5,3,1.2c0,1.3-1.9,1.5-3,1.8c-1.2,0.4-2.5,0.7-3.7,0.8C137.9,115.2,132.2,115.6,126.7,116z"/>
<path class="st0" d="M149.8,131.7c-0.6,0.6-0.8,0.9-1.1,1c-6.9,2.5-14.1,3.7-21.4,3.6c-0.5,0-0.9-0.3-0.8-0.8
	c0.1-0.3,0.3-0.6,0.6-0.7c7-1.3,13.9-3.4,21-3.6C148.6,131.3,149.2,131.5,149.8,131.7z"/>
<path class="st0" d="M127.8,123c-0.2-0.2-0.8-0.3-0.9-0.7c-0.3-0.7,0.2-1.2,0.8-1.4c1-0.5,2.1-0.6,3.2-0.2c0.3,0.1,0.5,0.3,0.6,0.6
	c0,0.3-0.1,0.6-0.4,0.8C129.9,123,129.5,123.1,127.8,123z"/>
<path class="st0" d="M120.6,65.5l-0.2,0.3c-0.1-0.1-0.2-0.2-0.2-0.3s0.2-0.2,0.2-0.3L120.6,65.5z"/>
</svg>
