<?xml version="1.0" encoding="utf-8"?>
<!-- Generator: Adobe Illustrator 22.1.0, SVG Export Plug-In . SVG Version: 6.00 Build 0)  -->
<svg version="1.1" id="Laag_1" xmlns="http://www.w3.org/2000/svg" xmlns:xlink="http://www.w3.org/1999/xlink" x="0px" y="0px"
	 viewBox="0 0 164.1 243.9" style="enable-background:new 0 0 164.1 243.9;" xml:space="preserve">
<style type="text/css">
	.st0{fill:#FFFFFF;}
	.st1{fill:#F94646;}
</style>
<path class="st0" d="M14.7,49.3c3.4-0.3,6.8-0.7,10.1-1c14.5-1.5,28.9-3.2,43.4-4.2c8.3-0.6,16.5-1.7,24.8-2.3
	c9.1-0.6,18.2-1.2,27.3-1.3c9.7-0.2,19.5-0.4,29.2-1c1.4-0.1,1.8,0.2,1.9,1.4s0,2.6,0,3.8c0,8.5,0.2,17,0,25.4
	c-0.5,14.8-0.6,29.7-2.2,44.5c-1,9-1.5,18.1-2.2,27.2c-0.8,9.7-1.4,19.4-2.4,29.1c-0.7,7.6-0.6,15.3-0.9,23
	c-0.3,8.5-0.2,16.9-1.1,25.5c1.6,1.5,4.1,0.1,5.7,1.8c0,0.9-0.8,0.8-1.3,0.9c-6.1,1.2-12.3,1.9-18.5,2c-4.9,0.1-9.9,0.6-14.8,0.8
	c-12.3,0.4-24.6,0.1-36.9-0.3c-9.1-0.3-18.2-0.7-27.3-0.9c-8.6-0.2-17.2-0.4-25.9-0.6c-1.4,0-2.9-0.6-4,0.8c-0.2,0.2-1,0-1.1-0.6
	c-0.2-1.2-0.4-2.5-0.6-3.8c-1.2-7.6-1.8-15.2-1.8-22.9c0.1-12.6-0.1-25.3,0.4-37.9c0.5-12.1,0.8-24.3,0.7-36.4
	c-0.1-9.3-0.1-18.5-0.7-27.8c-0.3-4.9-0.2-9.9-0.2-14.9c-0.1-7.7-0.1-15.3-0.2-23C16.1,54.2,16.4,51.6,14.7,49.3z M112.5,159.2
	c-0.1,1.9-1.3,3.2-2,4.8s-1.5,3.1-0.8,5.1l5.1-2.5C114.1,164.1,113.3,161.7,112.5,159.2c-0.8-0.3-0.5-0.9-0.4-1.5
	c0.5-1.7,1.2-3.3,1.6-5s-0.2-3.4-1-3.4c-1.5-0.1-2.2,1.1-2.9,2.1c-0.3,0.5-0.6,1.1-0.8,1.7c-1.3,3.2-1.8,6.7-1.2,10.1
	c1-0.4,1.1-1.2,1.4-1.9C109.8,159.6,109.8,159.6,112.5,159.2L112.5,159.2z M90.3,207.3l-1,0.4c0-1-0.7-1.9-1.7-1.9l-7.1-0.9
	c-1.1-0.1-2.2-0.2-3.3-0.4c-2.5-0.6-3.3-2.2-2.4-4.7c0.6-1.8,1.8-3.4,3.4-4.5c1.5-1,3-1.8,4.7-2.4c4.2-1.6,8.5-2.8,12.9-3.6
	c3.5-0.5,7-0.8,10.4-1.2c1.5-0.2,1.8-0.6,1.6-2.2c-0.7-4.1-0.9-8.3-0.6-12.4c0.3-2.5,0.1-5.1-0.7-7.5c-1.4-3.9-0.9-7.9,0.1-11.8
	c1-3.7,3.9-6.1,5.8-9.1c0.5-0.6,1.5-0.8,2.2-0.3c0.6,0.3,0.8,1.1,0.6,1.7c-0.6,1.6-0.6,3.4,0.2,5c2.6-0.6,3.4-2.3,3.4-4.9
	c0.1-3.2,1.2-6.3,2.9-9c0.6-0.9,1.5-1.6,1.5-3c-0.6-0.5-1.1-1-1.6-1.5c-3-3.2-2.5-6.3,1.3-8.7c0.9-0.6,2.2-0.6,2.9-1.6
	c-3.1-3.5-5.8-4-9.9-1.8c-0.7-1-1.4-2-2.2-3c0.1-0.2,0.3-0.4,0.4-0.6c1,0.9,1.9,2.1,3.5,0.7c1.1-0.8,2.5-0.9,3.7-0.3
	c1,0.4,2,0.8,3.2,1.3c0.8-1.7,1.3-3.3,3-4.3s3.8-0.4,5.6-1.1c0.1-2.3,0.5-4.5,1.2-6.6c0.7-2.3,3-3.6,5.3-2.9c0.2,0,0.3,0.1,0.5,0.2
	c1.7,0.6,3.1,1.6,4.2,3c0.7,0.8,0.8,2.1,2.2,2.4c0.4-3.8,0.8-7.6,1-11.4s0.5-7.7,0.7-11.5s0.3-7.3,0.4-11c0.1-3.8,0.3-7.7,0.4-11.5
	s0.4-7.7,0.3-11.5s0.5-7.5-0.2-11.5c-2.8,0.9-5.7,1.5-8.7,1.8c-3,0.2-6.1,0.2-9.1,0.2c-1.9,0-3.8,0-5.8,0c-10.4,0-20.8,0.8-31.1,1.4
	c-11.5,0.7-22.9,1.8-34.4,2.7L45,48.6l-24.8,1.9c-0.9,0.1-1.9-0.3-2.9,0.8c0,0.5,0,1.3,0,2c0.3,5.1,0.7,10.2,0.9,15.3
	c0.5,10.1,0.8,20.1,1.3,30.2c0.7,13.2,1.4,26.5,1.4,39.7c0,7-0.5,14-0.5,21.1c-0.1,19.8-0.1,39.6-0.1,59.5c0,0.2,0,0.3,0,0.5
	c-0.1,0.7,0.5,1.4,1.2,1.4c0.1,0,0.2,0,0.3,0l12.9-0.1c10.9-0.1,21.7-0.9,32.5-0.3c9.1,0.5,18.2,0.3,27.3,0.5
	c11.7,0.2,23.3-0.2,35-1c3.5-0.2,7-0.1,10.5-0.2c0.2,0,0.5-0.3,0.7-0.5c0.1-1.3-0.2-2.6-0.9-3.8c-0.9,0-1.8-0.1-2.8-0.1
	c-11,0.3-22,0.6-33,0.9c-1.8,0.1-3.5,0.1-5.2-0.2c-2.1-0.4-4.4-0.6-5.8-2.8c0.2-0.2,0.6-0.6,0.7-0.5c3.2,1.9,6.8,1.8,10.2,1.6
	c9.4-0.4,18.8-0.6,28.2-0.6c2.1,0,4.1,0,6.2,0c0.7,0.1,1.4-0.4,1.5-1.2c0-0.1,0-0.2,0-0.3c0-0.3,0-0.6,0-1
	c0.2-8.6,0.1-17.2,0.7-25.8c0.2-2.4,0.2-4.8,0.2-7.2c0.1-0.7-0.5-1.4-1.2-1.5c-0.1,0-0.2,0-0.3,0c-5.6-0.1-11.2,0.4-16.7,1.4
	c-0.8,0.1-1.7,0.3-1.8,1.2c-0.2,1.7-1.3,3.3-0.3,5.1c0.4,0.6,0.4,1.3,0.1,1.8c-1.6,2.6-1.2,5.5-1.3,8.4c0,1.1,0.4,2.4-1.2,3.1
	c-0.2-1.5-0.4-2.9-0.4-4.3c0-6,0.1-4.7-5.4-4.4c-0.2,0-0.3,0-0.5,0.1c-0.8,0.2-1,0.7-0.9,1.4c0.6,2.6,1.5,5.2,2.7,7.7
	c0.3,0.6,0.9,1.3-0.1,2c-1.6-1.5-2.2-3.5-3.1-5.4s-0.6-4.3-2.3-5s-3.7-0.1-5.6,0c-0.6,0-1.3,0.1-1.9,0.1c-6.1,0.7-12,2.1-17.7,4.3
	c-2,0.6-3.8,1.7-5.2,3.3c-0.8,1-1.8,2.2-1.4,3.4c0.4,1.4,2,1.3,3.2,1.4c0.8,0,1.6,0.1,2.4,0.2c2.2,0.5,4.4,0.5,6.6,1.3
	C89.9,204.7,90.7,206,90.3,207.3z M118.2,168c1.4-1.6,3.6-1.4,4.9-2.8c1.5-1.8,0.6-4,0.7-6c0.1-5,2.3-9.8,6-13.1
	c1.8-1.6,4.2-2.3,5.5-4.4c0.3-0.4,1.2-0.5,1.8-0.1c0.5,0.3,0.8,1,0.7,1.6c-0.2,1.2-1.1,2.3-1.1,3.6c0.1,2.9-1.3,5.2-2.9,7.4
	c-1.6,2.2-3.3,4.3-5.2,6.3c-1.2,1.3-2.1,2.8-2.7,4.4c-0.2,0.4-0.2,0.9,0.2,1.3c0.3,0.4,0.9,0.5,1.3,0.2c1.6-1.2,3.3-0.9,5-0.1
	c1.5,0.7,2.8,1.2,4.2-0.3c0.7-0.7,1.8-0.5,2.7-0.1c0.7,0.3,1.4,0.8,2.5,0.3c0.4-4.4,0.9-9,1.3-13.6c0.8-8.8,1.3-17.5,2.3-26.2
	c0.6-4.7-0.8-9.1-0.9-13.7c-0.1-0.8-0.3-1.6-0.7-2.3c-0.7-1.6-2-2.9-3.6-3.7c-1.2-0.8-2.8-0.4-3.6,0.8c-0.1,0.2-0.2,0.4-0.3,0.7
	c-0.3,0.9-0.6,1.8-0.7,2.8c-0.1,1.3-0.1,2.6-0.2,3.8s-0.6,1.7-1.9,1.5c-1.6-0.4-3.2-0.3-4.7,0.2c-1.2,0.4-2,1.6-2,2.9
	c0,1.3,0.4,2.5,1.1,3.6c0.3,0.5,0.1,1.2-0.5,1.5c-0.1,0-0.1,0.1-0.2,0.1c-1.5,0.5-2.9,1.3-4.2,2.2c-1.3,1.2-1.4,2.6-0.2,3.7
	c0.8,0.8,1.7,1.4,2.6,2.1c0.8,0.5,1,1.5,0.5,2.3c0,0.1-0.1,0.1-0.2,0.2c-0.3,0.4-0.5,0.8-0.8,1.2c-3,3.8-4.8,8.3-5.3,13.1
	c0,1.1-0.5,2.2-1.2,3c-2.3,2.4-2.8,5.3-2.5,8.4C116.2,163.4,117,165.8,118.2,168z M108.7,177.5c0.1,1,0.2,2.9,0.4,4.8
	c0.6,5.8,0.1,5.6,6.5,4.7c0.3-0.1,0.6-0.2,0.9-0.3c1.2-0.4,1.5-1.2,0.8-2.1c-0.5-0.6-1.1-1.2-1.5-1.8c-1.1-1.7-0.9-2.9,0.7-4.1
	c0.2-0.2,0.5-0.3,0.8-0.5c2.2-1.5,2.3-1.8,1.7-4.2c-0.4-1.5-1-3-0.8-4.7c0.2-0.8-0.4-1.1-1.1-1.1c-2.9,0.1-5,1.9-7.1,3.6
	C108.4,173.1,108.8,174.9,108.7,177.5L108.7,177.5z M140.8,175.2c0.1-0.6,0.2-1.2,0.2-1.9c0.1-0.5,0.1-1,0.1-1.4
	c0-1.1-0.4-2.2-1.2-3c-0.5-0.7-1.3-1-2.1-1c-0.8,0.1-0.7,0.9-1,1.4c-0.8,1.4-1,1.5-2.1,0.7c-1.2-1-2.6-1.8-4.1-2.3
	c-0.7-0.4-1.6-0.1-2,0.6c-0.5,0.9-1.1,0.9-2,0.6c-2.3-0.5-2.4-0.5-3.1,1.4c-0.6,1.5-1.1,3-1.5,4.5c-0.2,0.7,0.1,1.5,0.8,1.7
	c0.3,0.1,0.5,0.1,0.8,0c4.1-0.9,8.3-0.6,12.4-0.9C137.6,175.4,139.2,175.9,140.8,175.2L140.8,175.2z M126.3,158.5
	c0.7-1.1,1.3-2.1,2-3.2s1.5-2.4,2.3-3.6c0.6-0.9,1.2-2.1,2.5-0.9c0.4-0.6,0.8-1.3,1.1-2c0.3-0.7,0.5-1.7-0.2-2.2
	c-0.3-0.2-1.2,0.1-1.7,0.4C128.3,149.5,126,153.9,126.3,158.5L126.3,158.5z M121,168.4c-0.2,0-0.3,0-0.4,0.1
	c-0.6,0.6-0.8,1.4-0.6,2.2c0.1,0.5,0.3,0.6,0.6,0.3c0.5-0.7,1.2-1.4,0.9-2.4C121.3,168.5,121.1,168.5,121,168.4L121,168.4z
	 M117.6,180.1c-0.2,0.2-0.3,0.5-0.5,0.7c-0.2,0.3-0.1,0.7,0.3,0.7c0.6,0.1,0.7-0.3,0.7-0.8C118,180.5,117.8,180.3,117.6,180.1
	L117.6,180.1z"/>
<path class="st0" d="M12,45.6c-2-2.5-4-4.9-6-7.4c-0.3-0.3-0.5-0.8-1.1-0.6c-0.4,0.2-0.7,0.6-0.6,1.1c0.1,2.4,0.3,4.8,0.3,7.2
	C4.7,52.6,4.9,59.3,4.9,66c0.1,7.5,0,15,0,22.5c0.1,17.6,0.2,35.1,0.2,52.7c0,16.9-0.1,33.8-0.4,50.8c-0.2,12.6-0.8,25.2-1.2,37.8
	c-0.5-0.6-1-0.2-1.5,0.1c-0.1-3.7-0.3-7.4-0.3-11c-0.1-6.6-0.2-13.1-0.2-19.7c-0.1-11.4-0.6-22.7-0.3-34.1C1.8,137.7,1.4,110.3,2,83
	c0.3-15.7,0.9-31.3,0.9-47c0-0.8,0.1-1.6,0.1-2.5c1.1-0.4,1.8,0.7,2.9,0.6c8.6-1,17.1-1.8,25.7-2.7c5.1-0.5,10.2-1,15.3-1.4
	c6.2-0.5,12.4-0.9,18.6-1.3c0.6,0,1.3,0,1.9-0.1c3.7-0.8,3,0.2,4.3-3.5c2.3-6.3,4.8-12.5,7.7-18.6c0.9-1.9,1.9-3.7,3.1-5.3
	c1.2-1.6,3.2-1.5,4.5,0c1.3,1.6,2.3,3.5,3,5.4c2.3,5.9,5,11.8,5.6,18.2c0.2,1.5,0.7,1.9,2.3,1.8c5.6-0.5,11.2-0.6,16.8-0.6
	c12.5,0,24.9,0,37.4,0c3.9,0,7.6,1.2,11.4,1.4c0.8,1.3,0.3,2.6,0.2,3.8c-0.8,8.1-0.6,16.3-0.7,24.4c-0.1,11,0,22.1-0.1,33.1
	s-0.7,22-1.5,33c-0.9,11.6-1.6,23.3-2.4,34.9c-1.2,17.6-1.6,35.1-2,52.7c-0.1,7,0.3,14.1-0.5,21.1c0,1.3,0.1,2.6,0.2,3.8
	c0.1,2.4,0.1,4.8,0.1,7.2c0,0.3-0.1,1.1-0.5,0.6c-1.8-2.2-3.4,0.3-5.2,0.1c-2-0.2-4.1,0.6-6.1,0.8c-1.9,0.2-3.8,0.2-5.7,0.4
	c-5.6,0.6-11.2,0.3-16.8,0.2c-2.1,0-4.1-0.2-6.2-0.3c-11.8-0.1-23.7-0.2-35.5-0.2c-9.6,0-19.2,0.2-28.8,0.2
	c-10.2-0.1-20.5-0.1-30.7-0.6c-5.9-0.3-11.8-0.3-17.6-1.4c-1.3-0.2-2.5-0.6-3.5-1.4c-0.5-0.5-0.5-1.4,0.1-1.9
	c0.1-0.1,0.1-0.1,0.2-0.1c0.9-0.5,2.1-1.1,2.6-0.2c1,1.5,2.4,1.4,3.8,1.4c4,0.1,8,0.3,12,0.3c12.6,0,25.3,0.1,37.9,0
	c9.4-0.1,18.8-0.8,28.3-0.9c8.9-0.1,17.9-0.4,26.8,0.2c1,0.1,1.9,0.1,2.9,0.1c10.7,0,21.4,0,32.1,0.5c0.4,0,1,0.2,1.3-0.9
	c-1.4-1.8-2.8-3.5-4.4-5.1c-0.5-0.6-1-1.2-1.5-1.9c-0.1-0.3-0.1-0.6,0.1-0.8c0.2-0.2,0.5-0.3,0.9-0.3c1.1,0.2,2.1,0.9,2.8,1.8
	c1.5,1.4,2.7,3.2,3.5,5.1c0.6,1.9,2.4,3.1,4.4,2.9c0.5,0,1,0,1.4,0c0.8-0.9,0.3-1.9,0.2-2.8c-0.6-9.9-1.3-19.8-1.3-29.7
	c0-11.4-0.3-22.7,0.4-34.1s1.5-22.6,2.3-34c0.8-11.5,1.7-23,2.5-34.4c0.7-9.7,0.8-19.5,1-29.2c0.2-9.9,0.6-19.8,1-29.7
	c0.2-4,0.6-8,0.8-12c0.1-0.8,0-1.5,0-2.3c-1.6-0.3-1.9,1.1-2.5,1.8c-1.5,1.7-2.8,3.5-4.7,4.8c-0.3,0.1-0.6,0.1-0.9-0.1
	c-0.2-0.2-0.2-0.5-0.1-0.8c1.5-2.5,3.4-4.6,5.7-6.4c0.8-0.6,1.6-1,2.4-1.6c0.3-0.3,0.6-0.7,0.7-1.1c0.1-0.6-0.5-0.6-1-0.7
	c-0.5-0.1-1-0.1-1.4-0.1c-12.1,0.1-24.3,0-36.4,0.9c-6,0.5-12.1,0.4-18.2,0.6c-14,0.6-28.1,1.1-42.1,2.2c-6,0.5-12.1,0.7-18.2,1.2
	c-12.7,1-25.5,2-38.2,3c-0.1,0-0.2,0.2-0.4,0.2c-0.4,1.5,1,1.8,1.6,2.7s1.3,1.8,1.9,2.7s1.1,1.9,1.7,2.9
	C12.1,44.7,12.1,45.2,12,45.6z M94,26.8c0.2-0.5,0.4-0.7,0.3-0.8c-1.7-4.7-3.3-9.3-5-13.9c-0.2-0.6-0.4-1.2-0.8-1.7
	c-0.2-0.3-0.5-0.7-1-0.1c-2.7,3.4-3,3.4-6,0.2c-0.1-0.1-0.2-0.2-0.5-0.5c-1.4,2.9-2.8,5.7-4,8.7s-3.2,5.8-3.9,9.4L94,26.8z
	 M85.3,3.2c-0.5-0.1-1,0.2-1.4,0.9c-0.2,0.4-0.2,0.5,0.2,0.7c0.7,0.3,1.9,0,2-0.6S85.7,3.4,85.3,3.2z M83.7,9.1
	c0,0.4,0.3,0.7,0.7,0.7c0.1,0,0.2,0,0.3-0.1c0.2-0.1,0.4-0.4,0.4-0.7c0-0.4-0.3-0.7-0.7-0.7c-0.1,0-0.2,0-0.3,0
	C83.9,8.4,83.8,8.8,83.7,9.1z"/>
<path class="st0" d="M9.6,236.4c0.6-4,3.2-6.6,5.9-9.2c0.3-0.3,0.8-0.4,1.3-0.3c0.7,0.4,0.4,1.1,0.1,1.6c-1.8,3-4,5.6-6.6,7.9
	c-0.1,0.1-0.5-0.1-0.8-0.1L9.6,236.4z"/>
<path class="st0" d="M2.1,229.8c0.5-0.3,1-0.6,1.5-0.1c0.4,1.9-0.2,3.7-0.2,5.5c0,0.2-0.3,0.4-0.6,0.5s-0.5-0.1-0.6-0.4
	c-0.1-0.3-0.1-0.6-0.2-0.9C2,232.9,2,231.4,2.1,229.8z"/>
<path class="st0" d="M12,45.6c0.1-0.5,0.1-0.9,0.1-1.3c0.1,0.2,0.2,0.4,0.4,0.6c0,0.1-0.1,0.2-0.1,0.4l-0.2,0.1L12,45.6z"/>
<path class="st0" d="M12.4,45.3l0.6,0.5c-0.6,0.5-0.6,0.1-0.8-0.4L12.4,45.3z"/>
<path class="st0" d="M9.5,236.3c0.4,0.3,0.3,0.6-0.1,0.7c-0.1,0-0.4-0.1-0.4-0.1c0-0.4,0.2-0.6,0.6-0.5L9.5,236.3z"/>
<path class="st0" d="M90.3,207.3c0.6,1.6,0.8,3.4,2.2,4.6l-1.1,0.5c-1.9-0.7-2.9-2.8-2.2-4.7c0,0,0,0,0,0
	C89.7,207.6,90,207.4,90.3,207.3z"/>
<path class="st0" d="M83.7,9.1c0.1-0.2,0.2-0.6,0.4-0.7c0.4-0.1,0.8,0,0.9,0.4c0,0.1,0,0.2,0,0.3c0,0.3-0.2,0.5-0.4,0.7
	c-0.3,0.2-0.8,0-0.9-0.3C83.7,9.2,83.7,9.1,83.7,9.1z"/>
<path class="st1" d="M42.4,117.5c0.7-1.4,1.4-2.8,2.3-4.1c2.2-2.8,5.4-2.3,6.8,0.9s1.4,6.6,1.1,9.9c-0.2,3-0.8,6-1.3,9
	c-0.2,0.9-0.5,1.8-1,2.7c-0.3,1-1.3,1.5-2.3,1.2c-0.2,0-0.3-0.1-0.4-0.2c-0.7-0.4-1.4-0.8-2-1.3c-4.2-3.5-7.6-7.8-10-12.7
	c-0.6-1.1-1-2.4-1-3.7c-0.1-1.9,1.3-3.4,3.2-3.5c0.5,0,0.9,0,1.3,0.2C40.2,116.4,41.3,117,42.4,117.5z"/>
<path class="st1" d="M45.7,70.5c0.7-1.1,1.4-2.1,2.2-3c2.1-2,4.7-1.4,5.6,1.3c1.1,3,1.4,6.3,0.8,9.4c-0.5,3-1.2,5.9-2,8.8
	c-0.3,0.9-0.7,1.8-1.3,2.5c-0.4,0.8-1.4,1.1-2.2,0.7c-0.1-0.1-0.2-0.1-0.3-0.2c-4.2-3.9-8.6-7.6-10.9-13.1c-0.5-1-0.8-2.1-1-3.2
	c-0.5-2.3,0.9-4.5,3.2-5c0.8-0.2,1.7-0.1,2.4,0.2C43.5,69.4,44.4,70,45.7,70.5z"/>
<path class="st1" d="M82.4,101.7c1.2-0.3,2.4-0.6,3.6-0.7c1.2-0.2,2.4,0.6,2.6,1.8c0,0.3,0,0.5,0,0.8c0,1.9-0.5,3.8-1.5,5.5
	c-2.4,3.7-5,7.4-7.5,11.1c-0.8,1.1-1.9,1-2.7-0.2c-0.4-0.5-0.7-1-1-1.6c-1.3-3.3-2.2-6.7-2.8-10.2c-0.3-2.6-0.1-5.1,0.8-7.6
	c0.5-1.4,1.6-2.4,3-2.9c1.5-0.7,3.3-0.1,4.1,1.4C81.5,100,81.4,101.1,82.4,101.7z"/>
<path class="st0" d="M26.3,216.6c3-0.5,6-0.9,8.9-1.4c5.4-1,10.4-3.3,14.7-6.6c1-0.8,1.9-1.7,2.8-2.6c1.3-1.5,1.4-3.7,0.2-5.3
	c-0.7-1.1-1.7-1.9-2.8-2.6c-1.8-1.1-3.6-2-5.6-2.7c-6.7-2.3-13.5-4.1-20.6-4.1c-0.5,0-1,0-1.4-0.1s-0.6-0.3-0.5-0.6s0.4-0.6,0.6-0.6
	c3.7-0.4,7.4-0.2,11,0.5c3.9,0.8,7.7,2,11.5,3.1c2.3,0.7,4.5,1.8,6.4,3.2c4.9,3.5,5.4,7.9,1,12.1c-4.5,4.4-10.2,7.3-16.5,8.2
	c-2.4,0.3-4.8,0.4-7.2,0.4C28,217.5,26.9,217.6,26.3,216.6z"/>
<path class="st0" d="M21.8,171.3c3.2-0.1,6.4-0.3,9.5-0.3c8.9-0.1,17.8,0,26.8-0.6c4.1-0.2,8.3,0.2,12.4,0.3
	c7.2,0.2,14.3,0.4,21.5,0.6c0.6,0.1,1.2,0.1,1.8,0.3c-0.1,1.3-1,1.3-1.8,1.3c-4.6,0.4-9.2,0.4-13.9,0.1c-7.3-0.4-14.6-1-22-0.8
	c-8,0.2-16,0.2-23.9,0.2c-3.5,0-7-0.3-10.4-0.4L21.8,171.3z"/>
<path class="st0" d="M91,140.2c1-2.6,3.2-4.4,5.9-5c1.9-0.5,1.8-0.7,1.7-2.7c-0.2-2.2-0.2-4.4-0.1-6.6c0.3-3.3,1.8-4.2,5.2-3.2
	c1.7,0.5,1.7,0.5,2.4-1.1c0.3-0.7,0.6-1.5,1-2.1c0.6-0.9,1.4-1.7,2.2-2.4c1.2-1.1,3-1.3,4.4-0.6c0.2,0.1,0.3,0.5,0.4,0.8
	c-0.2,0.2-0.3,0.4-0.4,0.6c-1.4-0.9-3.3-0.5-4.3,0.9c-1.3,1.4-2.1,3.2-2.2,5.1c0.1,0.8-0.2,1.6-0.7,2.2c-0.1,0.1-0.2,0.2-0.4,0.3
	c-1.3-0.2-2.1-1.4-3.2-1.9c-1.4-0.7-2.6-0.2-2.9,1.2c-0.5,2.6-0.4,5.4,0.1,8c0.1,0.6,0.3,1.2,0.4,1.8c-3.7,0.7-6.7,2.1-8.6,5.3
	C91.6,140.7,91.3,140.5,91,140.2z"/>
<path class="st0" d="M92.8,149.8c-1.3,0.5-2.6,1.1-3.9,1.6c-6.5,2.4-9.8,7.1-10.1,14.1c0,1.1-0.1,2.2-0.2,3.3c0,0.1-0.2,0.2-0.3,0.3
	c-2.5-7.8,1.6-16.1,9.2-19c1.3-0.5,2.7-0.9,4-1.3C91.7,149.3,92.2,149.7,92.8,149.8z"/>
<path class="st0" d="M92.8,149.8c-0.6-0.1-1-0.5-1.3-1c-1.4-2.8-2.3-5.6-0.5-8.5l0.9,0.7c-0.9,2.2-0.8,4.7,0.3,6.8
	C92.5,148.4,93.5,148.8,92.8,149.8z"/>
<path class="st0" d="M91.5,212.4l1.1-0.5c0.5,0.2,0.8,0.9,0.5,1.4c0,0,0,0.1-0.1,0.1C92.4,213.5,91.7,213.1,91.5,212.4z"/>
</svg>
