<?xml version="1.0" encoding="utf-8"?>
<!-- Generator: Adobe Illustrator 22.1.0, SVG Export Plug-In . SVG Version: 6.00 Build 0)  -->
<svg version="1.1" id="Laag_1" xmlns="http://www.w3.org/2000/svg" xmlns:xlink="http://www.w3.org/1999/xlink" x="0px" y="0px"
	 viewBox="0 0 192.7 119.9" style="enable-background:new 0 0 192.7 119.9;" xml:space="preserve">
<style type="text/css">
	.st0{fill:#FFFFFF;}
</style>
<path class="st0" d="M118.1,119.9c-5.7-0.3-11.4-1.4-16.8-3.2c-8.1-2.5-16.1-5.2-24.1-7.8c-7-2.2-14-4.5-21.3-5.6
	c-6.2-1-12.3-1.6-18.5-2.4c-3.3-0.4-6.7-0.6-10-1.1c-1.7-0.3-3.4-0.7-5.1-1.4c-3-1.1-5.9-2.5-8.9-3.6C3.9,91.3-0.2,81.8,0,74
	c0-6.5,2.2-12.8,6.3-17.8c3.7-4.6,8.2-8.6,13.2-11.8c4.5-2.8,9.1-5.2,14-7.2c4.7-2,9.4-4,14.2-5.8c12.5-4.9,24.6-10.7,36.2-17.5
	c6.2-3.7,12.6-7,19.1-9.9c5.8-2.7,12.2-4.1,18.6-3.9c10.7,0.3,20.3,3.5,28.5,10.7c10.5,9.4,20.2,19.6,28.9,30.7
	c5.2,6.5,9.3,13.8,12.1,21.7c3.6,10.3,1.1,19.1-5.7,27.1c-2.7,3.1-5.9,5.9-9.4,8.2c-4.5,3.1-9.2,5.8-14.2,8
	c-8.6,3.8-17.4,7.3-26.3,10.3C129.9,118.7,124,119.7,118.1,119.9z M119.7,116.2c4.8-0.2,9.5-1.2,14.1-2.8c8.8-3,17.3-6.5,25.9-10.1
	c5-2.2,9.8-4.8,14.3-7.8c3.8-2.4,7.2-5.4,10-8.9c3.9-4.9,6.1-10.5,5.1-16.9c-0.3-1.9-0.8-3.7-1.5-5.6c-2.9-8.6-7.9-16-13.5-23
	c-2.3-2.9-4.8-5.6-7.1-8.5c-5.6-7.1-12.1-13.2-18.7-19.2c-6-5.6-13.7-9-21.9-9.7c-2.7-0.4-5.4-0.6-8.1-0.5
	c-5.7,0.6-11.3,2.2-16.4,4.8c-6.2,3-12.2,6.4-18.1,9.9C73,24.3,61.8,29.8,50.2,34.4C43,37.2,35.9,40.1,29,43.2
	c-7.7,3.3-14.5,8.2-20.2,14.4c-2.2,2.3-4,5-5.3,7.9c-1.2,2.8-2,5.7-0.7,8.8C3.4,76,3.5,77.8,4,79.5c1.7,5.5,4.8,9.7,10.5,11.5
	c2.9,1,5.6,2.3,8.5,3.3c1.6,0.6,3.4,1,5.1,1.3c3.8,0.5,7.6,0.7,11.4,1.2c5.8,0.8,11.7,1.3,17.5,2.5c8,1.7,15.7,4.2,23.5,6.6
	c8.8,2.8,17.6,5.7,26.5,8.4C111.1,115.7,115.4,116.3,119.7,116.2z"/>
<path class="st0" d="M158.6,50.6c-0.4,3.1-1.8,4.5-2.9,6c-1.4,2-3.2,3.6-5.2,4.8c-3.3,1.9-6.8,3.6-10.4,4.8
	c-6.5,2.3-13,4.2-19.7,5.7c-5.6,1.3-11.2,2.7-16.4,5.1c-0.4,0.2-0.9,0.4-1.3,0.4c-0.2,0-0.5-0.2-0.8-0.3c0.1-0.3,0.2-0.7,0.4-0.8
	c1.7-0.9,3.3-1.9,5-2.7c3.7-1.5,7.5-2.8,11.3-3.8c6.4-1.9,12.8-3.8,19.2-5.9c6.7-2.2,12.9-5.4,17.9-10.7
	C156.3,52.6,157,52,158.6,50.6z"/>
</svg>
