<svg id="Laag_1" data-name="Laag 1" xmlns="http://www.w3.org/2000/svg" viewBox="0 0 148.96 121.81"><defs><style>.cls-1{fill:#1b1b1b;}.cls-2{fill:#f94646;}</style></defs><path class="cls-1" d="M7.27,114.44c2.45-1.84,4.18-4.38,6.19-6.63A181.93,181.93,0,0,1,32,89.86c6.23-5.25,12.5-10.43,18.52-15.92,2.93-2.68,6.24-5,9.38-7.42A5,5,0,0,1,62,70.19,131.5,131.5,0,0,0,48.73,80.45c-7.57,6.64-15.16,13.25-22.68,20-2.14,1.91-4.07,4.06-6.09,6.1-3.36,3.4-6,7.48-10.09,10.18a.64.64,0,0,0-.29.79.9.9,0,0,0,1,.76c2.87-.11,5.74-.44,8.6-.42,10.7.07,21.41.16,32.11.39,17.9.4,35.78-.17,53.65-1,11.17-.48,22.33-1,33.5-.24a15.49,15.49,0,0,0,6.56-1,2,2,0,0,0,1.4-1.21c.21-.79-.42-1.11-.89-1.48-.63-.49-1.3-.94-1.95-1.4A151.36,151.36,0,0,1,125.1,96.7c-11.69-11.38-24-22-36.56-32.45a2.29,2.29,0,0,1,1-3.23c3.4,2.38,6.85,4.7,10.19,7.15s6.64,5,9.88,7.58,6.45,5.24,9.53,8,6.26,5.93,9.37,8.91l9,8.62c2.92,2.8,5.28,6.18,9,9-.22-2-.29-3.47-.54-4.87A248.26,248.26,0,0,1,142.34,64c-.2-15.17-.49-30.34-.77-45.51-.07-3.83-.22-7.66-.34-11.49,0-.64,0-1.28-.07-1.91a1.27,1.27,0,0,0-.45-.74c-.48-.35-.88,0-1.19.32-1.16,1.31-2.31,2.64-3.45,4-2.92,3.39-5.7,6.91-8.79,10.14C116.57,30,105.75,41.06,95,52.16a6,6,0,0,1-2.58,2.06c-.16-1.93.69-3.66,1.09-5.48a7.51,7.51,0,0,0,1.14-.85c7.53-8.29,15.81-15.84,23.73-23.75C125,17.48,131.43,10.58,138,3.79c.46-.49.84-1.08.4-1.66a1.68,1.68,0,0,0-1.3-.38q-8.61.45-17.21,1L77.81,5.32Q56.06,6.65,34.31,7.93c-8.45.49-16.9.87-25.35,1.3a6.8,6.8,0,0,0-1.43.14,1.13,1.13,0,0,0-.69.55,1,1,0,0,0,.14.85c1.52,1.41,3.07,2.79,4.63,4.17C26,27.68,41.17,39.39,55.21,52.47a9.66,9.66,0,0,1,.92,5.13,114.81,114.81,0,0,1-12.51-9.66C32.33,38.27,20.88,28.77,10.23,18.38c-2.29-2.23-4.55-4.49-6.83-6.73-.43-.41-.74-1.07-1.84-.76-.41,2.86.05,5.85.17,8.79.35,8.14.93,16.27,1.48,24.39.51,7.66,1.2,15.3,1.63,22.95Q5.68,81.85,6.2,96.71c.11,3,.65,6,0,9-1,.16-1-.49-1-1.09-.7-9.72-1.42-19.44-2.09-29.16C2.2,63.06,1.25,50.64.61,38.2.16,29.42.14,20.62,0,11.82A44.42,44.42,0,0,1,.43,7.13,126.39,126.39,0,0,0,19.3,6.46C25,6,30.78,5.76,36.51,5.38,52.92,4.28,69.33,3.21,85.73,2,98.32,1.11,110.91.38,123.53.32c4.79,0,9.58.2,14.37.33a3.5,3.5,0,0,1,1.42.18c1.15.55,2-1.68,2.88-.46.56.79.3,2.16.4,3.27,1.16,12.25,1.54,24.55,1.82,36.85.28,12.46.44,24.94,1,37.39.44,8.92,1.45,17.83,2.32,26.73.31,3.17.16,6.4,1.13,9.5a3.87,3.87,0,0,1-.1,1.42c-.15,1.7-.54,2.36-2.17,2.7-2.33.49-4.72.77-7.08,1.09-10.32,1.4-20.74.9-31.1,1.53-14.68.89-29.37,1-44.07.93-12.3-.09-24.58-.57-36.87-1.21a165.23,165.23,0,0,0-17.24-.2c-1.69.09-1.74,0-1.62-2,0-.35.28-.64-.12-.66-2.78-.1-2.25-2-2.11-3.75C6.57,114.37,6.69,114.81,7.27,114.44Z"/><path class="cls-2" d="M93.46,48.74c-.4,1.82-1.25,3.55-1.09,5.48-1,2.23-2.39,4.33-2.87,6.8a2.29,2.29,0,0,0-1,3.23,1.67,1.67,0,0,0-1.67.64c-.7,1.06-1.42,2.1-2.07,3.19-2.51,4.28-6,7.81-9.22,11.48C74,81.31,73,81.31,71,79.89a31.3,31.3,0,0,1-5.4-5.33c-1.22-1.45-2.42-2.91-3.63-4.37a5,5,0,0,0-2.07-3.67Q58,62.07,56.13,57.6a9.66,9.66,0,0,0-.92-5.13c.77-1.14.56-2.47.66-3.72a8.13,8.13,0,0,1,3.52-6,5.34,5.34,0,0,1,6.24-.36,19.41,19.41,0,0,1,2.59,2.13,29.73,29.73,0,0,1,6.39,8.56c1.13-2.21,2-4.11,3-5.89a14.7,14.7,0,0,1,5.62-5.77c4.56-2.44,8.78-.56,9.91,4.45A22.52,22.52,0,0,1,93.46,48.74Z"/><path d="M7.27,114.44c-.58.37-.7-.07-.84-.49a19.15,19.15,0,0,1-1.08-6.57c0-.37.23-1,.89-.7.23.1.53.38.55.59C7,109.66,7.12,112.05,7.27,114.44Z"/></svg>