<svg id="Laag_1" data-name="Laag 1" xmlns="http://www.w3.org/2000/svg" viewBox="0 0 174.93 181.69"><defs><style>.cls-1{fill:#1b1b1b;}.cls-2{fill:#f94646;}</style></defs><path class="cls-1" d="M173.26,181.69c-2-3.23-1.13-6.11-1.89-8.63-1-.5-1.84.23-2.75.37a64,64,0,0,1-12.38,1c-7-.26-14.07,0-21.09-.12-12-.22-23.94-.54-35.89-1.28-3.51-.22-7-.22-10.54-.25-12.47-.14-24.94,0-37.4-.44-8.47-.29-16.93-.3-25.4-.27-4.61,0-9.21.48-13.82.73-.64,0-1.27,0-1.52-.77s.34-1.37,1.4-1.47c2.54-.24,5.08-.49,7.63-.61,18.2-.89,36.42-1,54.64-1,6.87,0,13.75-.1,20.62,0,8.62.16,17.24.49,25.86.77,9.26.3,18.51.62,27.78.58,7.47,0,15-.51,22.23,1.07,1-1.4.64-2.74.52-3.95a166.51,166.51,0,0,1-.67-17.72c0-9.76.09-19.52.15-29.28.1-17.75-.71-35.47-1.69-53.18-.33-5.91-.41-11.83-.62-17.74-.11-3.35-.33-6.7-.36-10.06a163.75,163.75,0,0,1,.45-17.72,32,32,0,0,0,0-3.4c-2-.89-4.15-.67-6.16-.5-13.58,1.14-27.16.34-40.73-.15q-16.07-.59-32.1-.2c-13.74.33-27.48.44-41.2.93-12.62.45-25.24.34-37.86.68-2.7.07-5.4.18-7.93.26-1,1.14-.76,2.31-.69,3.39.16,2.71.47,5.41.69,8.12C3.29,40,4,49.11,4.72,58.18c.86,10.67,1.75,21.34,2.61,32,.38,4.62.76,9.23,1,13.86.71,12,1.55,23.91,2,35.88a250.19,250.19,0,0,1-.76,25.39A7.73,7.73,0,0,1,9,167a57.54,57.54,0,0,1-1.4-10.26c-1.17-15.14-1.51-30.32-2.32-45.47C4.34,93.89,3.06,76.52,2,59.14,1.33,48,.78,36.81.16,25.64c-.45-7.82-.47-7.93,7.3-8.29,7.5-.34,15-.43,22.52-.62q18.68-.46,37.37-.93c2.23-.05,4.47,0,6.71-.1a4.7,4.7,0,0,0,4.24-2.53c1.63-2.73,3.57-5.3,5.44-7.89A30.06,30.06,0,0,1,86.51,2c2.71-2.76,4.73-2.67,7.07.51,2.66,3.63,4.86,7.52,5.23,12,1.15.89,2.29.54,3.34.56,8.95.13,17.9.18,26.85.35,5.9.11,11.8.46,17.71.56,3.83.06,7.66-.2,11.49-.18,3,0,6.08,0,8.91,1.36.87.44,1.38,0,2-.72s1.27-.05,1.35.51a35,35,0,0,1,.1,3.84c.12,8.31,0,16.64.42,24.94.6,12,1.68,23.89,2.39,35.85.59,9.89,1.13,19.79,1.33,29.69.27,13.27.3,26.55.24,39.83A277,277,0,0,1,173.26,181.69ZM93.23,7.93c-1.36.21-1.47,1.36-2.18,1.92-1,.81-2.26.73-2.79-.39s-.87-2.28-1.39-3.7c-1.33,1.66-2.58,3.1-3.68,4.64s-2.54,2.76-3.09,4.7c7,.51,14.08.22,16.91-.75C95,12.56,94.8,9.81,93.23,7.93Zm-4.42-4.2c.18.27.32.64.46.64.4,0,1,0,1.16-.27.4-.5-.23-.81-.54-.84S89.18,3.56,88.81,3.73Z"/><path class="cls-1" d="M80.77,28.26c-.38,3.26.48,5.89.65,8.58.23,3.67.49,7.33.77,11q1.23,16.5,2.47,33a11.54,11.54,0,0,1,0,1.44c0,.78-.35,1.86.42,2.19,1.24.54,1.48-.86,1.93-1.56,2.39-3.73,6.16-5.46,10-7.08,1.47-.61,3-1,4.44-1.5.45-1.34-.46-2.26-.64-3.33-.46-2.66-.21-5.11,2.06-7,.37-.3.7-.66,1-1a4.17,4.17,0,0,0,.87-5.23,18.23,18.23,0,0,1-1.61-6.48c-.12-2,.16-3.77,1.92-5.11S108,42.77,109,40.79a4.68,4.68,0,0,1,3.23-2.62c1.45-.31,2.83.44,2.72,1.85a13.36,13.36,0,0,0,3.11,9.31,3.87,3.87,0,0,1,.41,4.09,3.41,3.41,0,0,0,.36,3.62,10.31,10.31,0,0,1,1.84,7.18c1.1.34,1.59-.29,2.12-.9,2.73-3.16,5.59-6.18,9.42-8a3.38,3.38,0,0,0,1.84-3.08,14.43,14.43,0,0,1,6.42-10.43c1.81,3.43,4.83,5.73,6.37,9.13.42.94,1.34.78,2.05.43a26.37,26.37,0,0,0,2.88-1.72c.93-.61,1.75-1.62,2.76-1.85,3.75-.86,3.86-3.51,3.76-6.56-.1-3.36.1-6.72.16-10.08a4.41,4.41,0,0,1,.72-2.72,1,1,0,0,1,.73-.35,1.43,1.43,0,0,1,.81.45,2.88,2.88,0,0,1,.55,2.24q0,3.6,0,7.21a25,25,0,0,1,0,3.35c-.33,2.34,1.17,4.42.49,6.94-.56,2.05,0,4.42.12,6.65.08,2.4.14,4.8.2,7.2,0,2.23.13,4.47.15,6.71,0,2.4,0,4.8,0,7.2,0,2.24,0,4.49,0,6.73a19.53,19.53,0,0,1-.38,4.26c-.29,1.2-.85,2.61-2.63,1.69-.59-.31-.79.12-1.15.36-2.65,1.78-5.64,2.12-8.72,2-4-.17-8-.47-12-.55C124.6,90.23,111.81,90,99,89.9c-4.63,0-9.27.23-13.9.32-2.21,0-2.16,0-3-2.11a21.21,21.21,0,0,1-1.53-7c-1.13-16.76-1-33.56-1.57-50.34A8,8,0,0,1,79.49,28a1.75,1.75,0,0,1,1.72-1.35c5.42-.3,10.84-.77,16.27-.86,13.74-.23,27.49-.32,41.24-.4,5.12,0,10.23.12,15.35.23,1.07,0,2.32-.09,2.59,1.54a16,16,0,0,1-6,.66c-9.27-.05-18.55-.18-27.82-.14q-17.27.08-34.53.4C85.91,28.12,83.55,28.57,80.77,28.26Zm53,29.31a2.86,2.86,0,0,0-2.27.72,30.27,30.27,0,0,0-6.81,6A32.93,32.93,0,0,1,107.47,75c-2.16.56-4.31,1.16-6.47,1.76a31.81,31.81,0,0,0-9.16,4,12,12,0,0,0-4.38,5c-.8,1.69-.39,2.43,1.4,2.32,4.46-.28,8.92-.77,13.38-.89,16.78-.43,33.57-.55,50.35-.18a38.6,38.6,0,0,1,4.28.46c1.89.27,1.93.29,2-1.54.16-9-.12-17.91-.46-26.85-.11-2.88-.09-5.76-.17-8.64a.92.92,0,0,0-1.26-.94,7.09,7.09,0,0,0-1.78.67c-2.2,1.27-4.14,3-6.7,3.66a1.73,1.73,0,0,0-1,1c-1.09,3-2.49,6-.24,9.1a10.94,10.94,0,0,1,.86,1.71c1.24,2.52,1.86,5.1.77,7.85a7.29,7.29,0,0,0-.25,3.31,4.82,4.82,0,0,1-.56,2.79c-.3.51-.42,1.23-1.27,1.17a1.89,1.89,0,0,1-1.48-1.07,6.25,6.25,0,0,1-.43-6.81,6,6,0,0,0-.1-6.36c-.38-.7-.68-1.45-1-2.16a7.49,7.49,0,0,1,.06-7.35c1.71-3,1.08-5.83-1-8.42-.61-.74-1.19-1.5-1.83-2.22a1.13,1.13,0,0,0-2,0c-3,3.92-4.28,8.13-2.13,12.91.53,1.17,1,2.35,1.52,3.52,1.39,3.22.4,5.93-1.84,8.33-.54.58-1.22,1-1.81,1.58-2.5,2.31-2.85,3.75-1.54,6.77a14.14,14.14,0,0,0,1.21,2c.24.36.24.62-.19.74a1.15,1.15,0,0,1-.86,0A7.43,7.43,0,0,1,132.2,72a21.32,21.32,0,0,1,2.41-2.34c2.22-2,2.51-4.31,1.38-6.94ZM112.58,40.19a1.91,1.91,0,0,0-1.94,1.12c-1.36,2.15-2.34,4.57-4.35,6.25a3.62,3.62,0,0,0-1.13,4.3c.6,1.81,1.16,3.65,1.88,5.42a6.61,6.61,0,0,1-1.31,7.53c-.54.58-1.1,1.16-1.67,1.71-1.82,1.74-1.65,3.47-.21,6.13,1,1.82,2.54.31,3.84.14a11.9,11.9,0,0,0,1.39-.37c4.33-1.08,7.31-3.28,8.06-8.15.31-2,.71-3.71-.32-5.49-.83-1.42-1.54-3-.84-4.54,1-2.34.52-4.21-.88-6.18a9.81,9.81,0,0,1-1.75-5.88,4.73,4.73,0,0,0-.14-1.41C113.14,40.54,112.8,40.38,112.58,40.19ZM83.76,87.69c.36.2.66.51.89.47.75-.16.85-.75.81-1.44,0-.48,0-.94-.47-1.21a.36.36,0,0,0-.31,0C84.36,86.26,84.06,87,83.76,87.69ZM120.6,65.5l-.23-.29c-.08.09-.23.17-.23.27s.13.19.21.29Z"/><path class="cls-1" d="M11.45,31.57c3.15,20.11,6.76,39.75,5.85,60.18l5.3-.68c1.74-.22,3.51-.21,5-.92.66-1.09-.06-2,0-2.91.25-2.78-.15-5.2-2.3-7.37-1.56-1.58-1.92-4-2.31-6.2a3.79,3.79,0,0,1,.89-3.59c2.51-2.34,2.21-5,1.35-7.93a19,19,0,0,1,1.57-14.41,10.45,10.45,0,0,1,2.51-3.46c3.38-2.67,6.78-5.33,10.84-7A19.66,19.66,0,0,1,51,36.24c3,.52,5.43,1.93,6.3,5.11a12.4,12.4,0,0,0,3.76,6c3.76,3.43,5.32,7.5,3.57,12.51a4.22,4.22,0,0,0,.12,3.25,7,7,0,0,1-1.32,8,10.36,10.36,0,0,0-.84,1.27c1.5,4.43,4.47,8.52,3.44,13.7,2.39.71,4.87.32,7.11,1.45-1.09,1.86-2.88,2.19-4.54,2.56a25.65,25.65,0,0,1-5.7.72c-14.4-.15-28.7,1.36-43,2.48-4.29.33-4.38.31-4.77-4-.65-7-1.11-14-1.74-21-1-10.82-2.05-21.64-3.11-32.45a17.65,17.65,0,0,0-.7-3.27C8.81,30,8.78,30,11.38,29.8c9.57-.53,19.14-1,28.7-1.57a242,242,0,0,1,25.83-.79,3.36,3.36,0,0,0,1.42-.06c.87-.38,1.65-1,2.58-.11s.45,1.77.55,2.69c1,8.72,2.12,17.44,2.48,26.23.2,4.94.35,9.9.7,14.83.3,4.19-.31,8.27-.94,12.71A3.07,3.07,0,0,1,71,81.17a64.81,64.81,0,0,1-1.13-13.83c.15-10.88-.77-21.72-1.22-32.57-.08-1.73-.41-3.44-.62-5.16Zm23,22c.07,1.26,0,2.53.21,3.79.53,4.12,3.43,6.75,8,7.65,3.65.71,7-1.85,8.47-4.88a6.85,6.85,0,0,0-3.84-9.78,6.14,6.14,0,0,0-4.65,0c-2.78,1.08-5.53,2.24-8.29,3.37-.2-.22-.61-.5-.57-.65,1.3-4.33,4.36-6.84,8.5-7.25,6.65-.64,9.83,2.68,11.46,6a11,11,0,0,1,.69,7.94,3.1,3.1,0,0,0,1.24,3.66,28,28,0,0,1,4.76,5.36c.27.4.56.75,1.47.45.06-1.06.53-2.44.12-3.45-1.2-2.87-.83-5.55.06-8.38a5.81,5.81,0,0,0-1.26-5.81A20.63,20.63,0,0,0,59,49.34a12.47,12.47,0,0,1-4.14-6.83c-.49-2.19-2-3.19-3.93-3.71a14.5,14.5,0,0,0-7.54.1c-5.12,1.33-9.05,4.59-12.93,7.9a8,8,0,0,0-1.72,2.82,17.42,17.42,0,0,0-.6,13.07c1,3,1,5.63-1,8.14a4,4,0,0,0-.42,4A5.38,5.38,0,0,0,28.52,78c.72-2,1.29-3.78,2.06-5.52a28.4,28.4,0,0,1,2.65-5.07,4,4,0,0,0,.41-4.76,9.52,9.52,0,0,1-.25-8.77C33.68,53.29,34,53.46,34.46,53.57Zm-3.15,36.3c10.46-1.54,20.24-2.39,30-3-.51-7.07-5.13-17.86-9.37-22-.57.54-1.16,1.07-1.72,1.63-2.64,2.65-5.75,3.18-9.24,2.12-.76-.23-1.51-.49-2.26-.74a1.69,1.69,0,0,0-2.27,1.09,37.86,37.86,0,0,0-3.9,12.7A41.72,41.72,0,0,1,31.31,89.87Z"/><path class="cls-1" d="M105.6,106.06c-5.23,1.09-10.15.55-15.07.53-8.63,0-17.26.07-25.88.2-14.37.21-28.74.49-43.11.75a7.54,7.54,0,0,0-1.32.25c-.73.94-.35,1.9-.24,2.81,1.19,9.51,2.43,19,3.6,28.53.51,4.12.91,8.25,1.34,12.38a8.81,8.81,0,0,1-.31,4.27A2.3,2.3,0,0,1,23.37,157c-.67.21-1.19-.39-1.36-1a25.6,25.6,0,0,1-.87-4.21c-.76-10-1.36-20.07-2.2-30.1-.41-4.89-.25-9.86-1.65-14.65-.43-1.46.68-2.4,2.31-1.89a12,12,0,0,0,4.27.11c11-.51,22-1.15,33-1.63,5.11-.22,10.22-.18,15.33-.24q13.42-.15,26.84-.26a28.82,28.82,0,0,1,3.83.19,5.09,5.09,0,0,1,4.88,4.84,52.34,52.34,0,0,1,.58,5.71c.26,10.06,1.29,20.09,1,30.18a92.89,92.89,0,0,1-1.1,11.43c-.16,1-.58,1.93-1.86,1.41a2.15,2.15,0,0,0-1.8.23c-4.1,1.74-8.43,1.65-12.74,1.49-11.16-.4-22.32-.88-33.49-1.36a246.17,246.17,0,0,0-28.23,0,28.63,28.63,0,0,1-3.34,0,.89.89,0,0,1-.61-.5.75.75,0,0,1,.66-1c3-.45,6-.95,9-1.21,9.86-.83,19.76-1.18,29.65-1.41,4.31-.1,8.61-.36,12.92-.35,5.27,0,10.53.25,15.8.34,1.75,0,3.5-.18,5.25-.19,2,0,4,1.08,6,.22.6-2,0-4.09,0-6.14.13-11.67.17-23.34.22-35C105.69,110.05,105.63,108.15,105.6,106.06Z"/><path class="cls-1" d="M158.71,151.19c-.28-12.88-.55-25.33-.84-37.77-.07-3.2-.24-6.38-.35-9.57a2,2,0,0,1,.61-1.73.77.77,0,0,1,.42-.21.36.36,0,0,1,.31.15,3.31,3.31,0,0,1,.29.89c1.11,13.21,2.72,26.38,3,39.65.06,3-.13,6.05-.2,9.07,1.13,1.45,0,1.72-1,2.23a27,27,0,0,1-11.21,2.16c-10.23.22-20.41,1-30.62,1.55a8.06,8.06,0,0,1-1.9-.12c-.72-.13-1.17-.7-.86-1.37a4.37,4.37,0,0,0,.2-3.22,36.7,36.7,0,0,1-.86-8.56c-.37-13.25-.77-26.49-1.16-39.93,1.86-.22,3.89-.53,5.94-.67,10.35-.71,20.69-1.55,31-2.78a11.87,11.87,0,0,1,3.31.18,1.36,1.36,0,0,1,1.28,1.18c0,.7-.55,1.09-1.05,1.5a3.46,3.46,0,0,1-2.25.65c-9.89.23-19.76,1.35-29.67,1.13-1,0-1.92,0-2.88,0-3.8.21-3.72,0-3.35,3.77,1,10.49,1.89,21,2.83,31.49a42.68,42.68,0,0,1-.72,12.4c-.33,1.63.14,2,1.81,1.82l32.37-3.51C154.85,151.41,156.6,151.34,158.71,151.19Z"/><path class="cls-2" d="M40.38,124c1.07-1.48,1.84-2.68,2.76-3.77A6.72,6.72,0,0,1,46.73,118c3.91-1,5.76.31,6.06,4.29a28.1,28.1,0,0,1-.86,9.95c-1.28,4.44-2.45,8.91-4.76,13-3,5.34-4.61,5.7-8.87,1.22A42.85,42.85,0,0,1,27.58,128c-.68-2.54-.49-4.84,1.75-6.42a6.29,6.29,0,0,1,6.81-.28C37.53,122,38.8,123,40.38,124Z"/><path class="cls-1" d="M84.24,143.08c.9,1.08-.21,1.6-.69,2.23-.32.43-.93.16-1.23-.19-4.36-5.06-6.65-10.82-5.83-17.59a5.24,5.24,0,0,1,.87-2.18,2.87,2.87,0,0,1,4.85-.17,23.6,23.6,0,0,1,1.67,3.06c1.54-.71,2.89-1.87,4.6-2.25,2.28-.51,3.69.58,3.7,3a6.8,6.8,0,0,1-.06,1.43,23.76,23.76,0,0,1-6.79,12.89c-.46.44-.8.2-1.17-.09-.2-2.38,1-4.27,2.16-6.15a28.87,28.87,0,0,0,3.29-6.83c.19-.63.44-1.35-.24-1.62a2.5,2.5,0,0,0-1.8.21,6.32,6.32,0,0,0-3.16,3.39c-.19.46-.44.83-1,.75a1.15,1.15,0,0,1-.94-.93c-.52-1.49-1-3-1.55-4.47-.09-.25-.58-.62-.68-.56a1.89,1.89,0,0,0-.87.85,4.07,4.07,0,0,0-.34,1.84C79.55,134.6,80.59,139.36,84.24,143.08Z"/><path class="cls-1" d="M141,139.29c-.65,1.58-2,1.63-3.21,1.94s-2.48.59-3.73.79a.86.86,0,0,0-.79.95c.1.3.72.59,1.12.6.95,0,1.89-.19,2.85-.28a33.1,33.1,0,0,1,10.46.38,4.68,4.68,0,0,1,1.37.35,2.58,2.58,0,0,1,.86,1c.05.12-.28.54-.51.66a8.19,8.19,0,0,1-4.1,1.17c-1.43,0-2.87,0-4.3,0-3.83,0-7.65,0-11.48,0a22,22,0,0,1-2.8-.32.48.48,0,0,1-.26-.38c0-.29.09-.79.25-.84,1.34-.43,2.72-.75,4.07-1.18a6,6,0,0,0,1.63-.85c.11-.07,0-.78-.13-.8-.91-.23-1.84-.36-2.76-.51a1.13,1.13,0,0,1-1.08-1.29,1.4,1.4,0,0,1,.76-1C133.14,138.77,137,138.19,141,139.29Z"/><path class="cls-2" d="M64.51,115.19c.31.07.77,0,.9.23,1,1.55,2.56,1.5,4.15,1.6a2.09,2.09,0,0,1,2,2.65,10.43,10.43,0,0,1-.68,2.27,35.11,35.11,0,0,1-5.62,8.2,1.61,1.61,0,0,1-2.75-.37,15.3,15.3,0,0,1-2.12-9.58A7.2,7.2,0,0,1,62,116.3,2.82,2.82,0,0,1,64.51,115.19Z"/><path class="cls-1" d="M127.84,130.23l-2.26-.16a.87.87,0,0,1-.82-.95,1.53,1.53,0,0,1,.66-1.15,24.11,24.11,0,0,1,3.65-1c5.29-1.08,10.58-2.15,15.88-3.14a9.78,9.78,0,0,1,6.52.59c.27.14.69.43.67.6a1.89,1.89,0,0,1-.52,1.16,9.81,9.81,0,0,1-5.19,2.21C140.28,129,134.11,129.61,127.84,130.23Z"/><path class="cls-1" d="M126.65,116c-1,0-1.79,0-2.59,0-1.66,0-2.93-.56-2.73-1.13.44-1.28,1.64-1.45,2.69-1.62,6.91-1.09,13.85-1.95,20.84-2.39a7.22,7.22,0,0,1,2.37.13c1.08.29,3-.47,3,1.18,0,1.3-1.85,1.46-3,1.85a14.86,14.86,0,0,1-3.72.78C137.86,115.24,132.16,115.61,126.65,116Z"/><path class="cls-1" d="M149.75,131.7c-.59.57-.78.89-1.05,1a58.91,58.91,0,0,1-21.44,3.57c-.51,0-.9-.28-.85-.79a1,1,0,0,1,.62-.66c7-1.29,13.85-3.4,21-3.55A7.63,7.63,0,0,1,149.75,131.7Z"/><path class="cls-1" d="M127.75,123c-.22-.15-.77-.31-.92-.65-.32-.69.18-1.16.77-1.44a3.76,3.76,0,0,1,3.19-.21,1.08,1.08,0,0,1,.61.63,1,1,0,0,1-.39.8C129.85,123,129.49,123.09,127.75,123Z"/><path d="M120.6,65.5l-.25.27c-.08-.1-.22-.2-.21-.29s.15-.18.23-.27Z"/></svg>