<svg id="Layer_1" data-name="Layer 1" xmlns="http://www.w3.org/2000/svg" viewBox="0 0 740.09 669.08"><defs><style>.cls-1{fill:#ff5e47;}.cls-2{fill:#13132d;}.cls-3{fill:#14142e;}.cls-4{fill:#14142d;}.cls-5{fill:#16162f;}.cls-6{fill:#191933;}.cls-7{fill:#1f1f38;}.cls-8{fill:#202038;}.cls-9{fill:#313148;}.cls-10{fill:#38384e;}.cls-11{fill:#404055;}.cls-12{fill:#34344a;}.cls-13{fill:#303047;}.cls-14{fill:#26263e;}.cls-15{fill:#696979;}.cls-16{fill:#4d4d61;}.cls-17{fill:#3a3a50;}.cls-18{fill:#21213a;}.cls-19{fill:#535366;}.cls-20{fill:#2b2b42;}.cls-21{fill:#525265;}.cls-22{fill:#46465a;}.cls-23{fill:#35344b;}.cls-24{fill:#8c8c98;}.cls-25{fill:#525266;}.cls-26{fill:#5d5d6f;}.cls-27{fill:#545366;}.cls-28{fill:#1c1c35;}.cls-29{fill:#b0b0b9;}.cls-30{fill:#3f3f54;}.cls-31{fill:#35354b;}.cls-32{fill:#171730;}.cls-33{fill:#e6e5e8;}.cls-34{fill:#636374;}.cls-35{fill:#7b7b8a;}.cls-36{fill:#7f7f8d;}.cls-37{fill:#282840;}.cls-38{fill:#9f9fa9;}.cls-39{fill:#878793;}.cls-40{fill:#27273f;}.cls-41{fill:#6f6f7f;}.cls-42{fill:#686878;}.cls-43{fill:#6d6e7d;}.cls-44{fill:#787787;}.cls-45{fill:#323248;}.cls-46{fill:#282841;}.cls-47{fill:#e1e0e4;}.cls-48{fill:#565669;}.cls-49{fill:#4c4d60;}.cls-50{fill:#6b6b7c;}.cls-51{fill:#fff;}.cls-52{fill:#ff9483;}.cls-53{fill:#ffc4bc;}.cls-54{fill:#c2c2c9;}.cls-55{fill:#4b4b5e;}.cls-56{fill:#adadb6;}.cls-57{fill:#7e7e8c;}.cls-58{fill:#3b3c51;}.cls-59{fill:#6b6a7b;}.cls-60{fill:#b5b5bd;}.cls-61{fill:#2f2e46;}.cls-62{fill:#181832;}.cls-63{fill:#707080;}.cls-64{fill:#47475c;}.cls-65{fill:#727281;}</style></defs><path class="cls-1" d="M276.46,306.53c2.09,1.33,3.37,3.44,4.72,5.38,5.63,8.16,12.11,15.65,18.25,23.41,1.67,2.11,3.14,4.37,4.76,6.52,1,1.28,2,2,3.81,1,8.1-4.22,15.63-2,22.88,2.4,6.32,3.82,12.05,8.45,17.84,13,1.52,1.2,2.29,1.17,3.76-.06,7.93-6.66,16.13-13,25.68-17.2,5.61-2.46,11.39-4.44,17.78-4.08A15.38,15.38,0,0,1,406,341.1c2.71,2.5,2.95,2.33,5.63.31,9.11-6.85,17.53-14.62,27.26-20.66a7,7,0,0,0,1.21-1.27c1.78,1.26,1.3,2.65.26,4.08-7.27,7.47-15.63,13.64-24.29,19.34-3.5,2.3-4.9,4.78-4.7,8.83.33,6.47.18,12.94-2.22,17.94,1.4-3.38,5-6.63,7.56-10.65,5.85-9.27,11.61-18.62,18.49-27.19,1.11-1.38,1.87-3.68,4.48-2.45a5.64,5.64,0,0,1,.22,4.78c-14.52,19.58-27.94,39.91-41.12,60.41-12.92,20.1-31.68,32-54.44,38.17a9.86,9.86,0,0,1-9.24-2.13,119.4,119.4,0,0,1-31.9-39.27,492.68,492.68,0,0,1-28.41-65.81c-.62-2.27-1.2-4.54.72-6.54,1.86.05,1.89,1.68,2.36,2.85,4.49,11,9,22,13.36,33,2.14,5.45,5.14,10.52,7,16.1a7.26,7.26,0,0,1,.48,1.55c.07.45.1.5.05-.06a3.28,3.28,0,0,0-.09-.37,10.33,10.33,0,0,0-1.09-2.68c-1.86-7.09-.1-13.7,2.91-20,1.15-2.4.87-3.93-.71-6-8.09-10.79-16.84-21.1-23.71-32.77C275.5,309.18,274.45,307.7,276.46,306.53Z"/><path class="cls-2" d="M276.46,316.53c-1.13,1.22-.13,2.41.06,3.6a10.74,10.74,0,0,1-.92,8.77,12.12,12.12,0,0,0-.07,6.1c1,17.16,3.05,34.2,8.23,50.62,6.62,21,17.4,39.43,36.74,51.4a54.6,54.6,0,0,0,25.37,8.58c25.54,1.68,44.47-10.55,60.25-28.85,14-16.23,22.9-35.22,28.11-56A140.75,140.75,0,0,1,439,344.32a13.54,13.54,0,0,0,.27-5.56,7.26,7.26,0,0,1,.86-5.95,3.54,3.54,0,0,0,0-3.33c.9-1.17.79-2.54.79-3.89,0-7.22.44-14.46-.1-21.63-.92-12.1-2.79-24.06-6.78-35.65a147.51,147.51,0,0,0-8-19.42c-1-1.92-1.68-2.14-3.74-1.39a39.5,39.5,0,0,1-17.6,2.49,87.93,87.93,0,0,1-25.89-6.88c-1.05-.4-2.34,0-3.22-.92a1,1,0,0,0-.62-.47,4.52,4.52,0,0,0,.94.86,3,3,0,0,1,1.86,1.57c5,4.69,11.48,6.83,17.54,9.65a10.92,10.92,0,0,1,2.36,1.2c.17.92-.09,1.39-1.11,1.07-4.12.15-7.51-2-11-3.68-9.44-4.47-17.89-10.32-24.23-18.85a31.85,31.85,0,0,1-5.08-8.9c-.29-.91-1.47-2,0-2.71,1.6-.81,2.07.71,2.52,1.77,1.08,2.54,3.06,4.43,4.58,6.65a9.93,9.93,0,0,0,4,3.47c5.8,2.75,11.34,6.34,17.41,8.12,7.43,2.17,15,4.69,22.87,4.6a30.71,30.71,0,0,0,11-2.18c4.72-1.87,9.3-4,13.82-6.28a2.3,2.3,0,0,1,2.4,0,9.59,9.59,0,0,1-4.8,5.33c-2.74,1.51-2.69,1.9-1.17,4.55,5,8.75,8.13,18.24,10.7,28a186.11,186.11,0,0,1,4,21.18c1,6.8.78,13.79.8,20.69,0,2.08-.16,4.19-.26,6.62,1.76-.67,3.35-1.34,5-1.87a7.57,7.57,0,0,1,8.28,2c2.41,2.42,2.09,5.16,1,7.95-2.09,5.45-5.87,9.22-12.27,11.79,1.19-3.09,3-4.62,4.51-6.23a11.28,11.28,0,0,0,3.38-9c-.19-2.36-1.13-3.1-3.23-2.3-3.84,1.46-6.93,3.12-7.52,8.28-1,9.35-2.37,18.76-5,27.82-4.86,16.54-11.35,32.41-21.43,46.6-5.11,7.19-10.48,14.16-17.34,19.84-.81.67-1.67,1.29-3.18,2.45,9.26,3.48,16.85,8.4,26,9.92,5.63.93,11.17,2.26,16.91,2.31,11,.08,21-3.6,30.51-8.47,23.53-12,45.59-26.2,65.12-44.09C554,373.81,569,353.23,578.65,328.89a301.1,301.1,0,0,0,11.29-32.25c3.77-13.85,5.51-28,6.83-42.23A196.77,196.77,0,0,0,595.68,212c-2.31-18.5-5.78-36.79-11.56-54.58-2.87-8.85-5.32-17.84-9-26.4a69.39,69.39,0,0,0-6.38-12.19c-6-8.65-10.68-18.07-16.18-27-4-6.52-7.7-13.23-11.3-20-.56-1.06-1-2.16-1.54-3.24-.78-1-.35-1.69.68-2.15,2.09.09,2.55,1.9,3.35,3.27,8.3,14.33,16.91,28.47,25.44,42.67,4.93,8.21,5.21,8.34,14.42,6.65a13.71,13.71,0,0,1,4.46-.57,2.25,2.25,0,0,1,1.59,1.1,2.11,2.11,0,0,1-.6,1.8,5,5,0,0,1-2.11,1.37,7.23,7.23,0,0,0-2.86.92,6.6,6.6,0,0,1-3.4.58.51.51,0,0,1-.69-.21c.19.64.69,0,1,.24a8,8,0,0,0,4.21-1,3.44,3.44,0,0,1,3.33.32,1.45,1.45,0,0,1,.19,1.35,5.66,5.66,0,0,1-4.63,2.44c-3.69.29-3.53,2.06-2.55,4.88,6.79,19.49,13,39.17,16.32,59.61a264.14,264.14,0,0,1,3.74,35c.51,17.18-.07,34.24-2.83,51.21a197.29,197.29,0,0,1-8.18,32.81c-5.48,15.83-11.77,31.3-20.62,45.58-14,22.62-32.79,40.7-54.29,56.11-3.79,2.72-7.4,5.7-11.48,8-2.06,1.17-3.18,2.7-2,5.19,6,13,11.49,26.2,18.72,38.59a13.18,13.18,0,0,0,1.72,2.09,2,2,0,0,1,.76,1.86c-1.28.66-1,1.5-.43,2.56,2,3.9,3.92,7.88,6,11.77.78,1.46.16,1.82-1.1,2l.12.11c-7.4-7.64-11.56-17.37-16.77-26.4a227.26,227.26,0,0,1-15.36-33.45c-3.66,1.75-3.69,1.76-2.29,5.23q5.71,14.16,11.46,28.3a11,11,0,0,1,.4,1.74c.41,1,.63,1.93-1,1.94-3.4-5.16-5.42-11-8.18-16.49-2.36-4.68-4.5-9.47-6.58-14.28-.87-2-1.75-2.38-3.7-1.26-5.86,3.35-11.84,6.48-18,9.24-9.37,4.2-19,7.47-29.31,8.07a82.4,82.4,0,0,1-20.18-1.62c-7.2-1.37-14.1-3.86-21.62-6.41,1.29,11.54-3.45,20.92-9.09,30a1.72,1.72,0,0,0-.79,1.14.68.68,0,0,1-.23.63,3.6,3.6,0,0,0-.74,1l0,0a1.23,1.23,0,0,0-.82,1.14,33.9,33.9,0,0,1-16.09,15.22c-1.07.41-1.45,0-1.3-1.08,11.61-8.67,18.38-20.66,23-34,1.89-5.47,1.71-11.25,1.16-17.6-26.92,18-53.78,19.72-80.68-.06-5.9,12-10.39,24.08-6.53,37.35,2.87,9.87,8.84,17.11,19.79,19.26,7.43,1.46,14.8,2.38,22.38,1.62,3.34-.34,6.41-1.6,9.66-2.19,1.05-.19,2.46-1.45,2.94.23.41,1.45-1.34,1.64-2.4,2.11A43.09,43.09,0,0,1,344,497.06a62.28,62.28,0,0,1-24.12-2.16c-9.2-2.74-15-8.88-18.23-17.81-3.27-9.11-3.1-18.32-.87-27.54,1.34-5.53,2.62-11.15,6.63-15.58.65-.71.41-1.27-.28-1.86s-.91-1.17-1.45-1.67c-8-7.25-13.54-16.29-18.51-25.75a164.74,164.74,0,0,1-9.05-22c-4.39-12.43-6.05-25.22-6.39-38.32-.2-8.12-.14-16.23.1-24.34.09-3.26-.82-4.93-2.84-5.15a5.89,5.89,0,0,0-5.9,4.57c-.67,4.13-.32,8.15,2.22,11.66a13.77,13.77,0,0,1,2.71,5c-4-.55-6-3.41-7.62-6.26a16.55,16.55,0,0,1-1.11-15.08A10.43,10.43,0,0,1,270,308.34c1,.11,1.94.9,3.45.29,2.3-12.45,4.62-25.2,11.4-36.69-2.89-1.72-6.84-1.69-8.65-5.78,2.27-.24,4.35-.64,6.22.22,5.25,2.41,10.73,1.74,16,.93a84.63,84.63,0,0,0,19.66-5.9c3.12-1.3,5.92-3.38,8.89-5.07a8.84,8.84,0,0,1,1.69-.57c1.08-.27,1.44.18,1.23,1.21a1.26,1.26,0,0,1-.11.69c-.32.28-.32.87-.89.91a15,15,0,0,0-5.41,3.65c-.35.25-.38.84-.92.9-2.34-.51-3.88,1.34-5.69,2.17A78.48,78.48,0,0,1,291,271.9c-2.25.19-3.1.9-4.05,3.07-3.69,8.41-5.84,17.21-7.69,26.13C278.16,306.22,277.06,311.33,276.46,316.53Z"/><path class="cls-3" d="M375.09,161.85c4.64-9.47,13.2-13.89,22.54-17,2.95-1,6.33-.66,9.42-.13a46.75,46.75,0,0,1,23.59,11.23c7.35,6.6,12.29,15,13.34,25.25.32,3.11.49,3.4,3.9,3,7.09-.73,12.46,2.08,17,7.33,3.3,3.85,4.54,8,3.14,12.91-.43,1.52-.93,2.57,1.3,3.42,8.54,3.25,12.46,11.23,10.19,20.39-1.84,7.46-5.35,13.93-11.78,18.51-.49.35-1,.7-1,1.41,6.25,2.31,10.69,6.79,14.5,12.06a49.61,49.61,0,0,1,7.9,16.95,40.62,40.62,0,0,1-.16,21.71,43.73,43.73,0,0,1-7.8,15.55,39,39,0,0,1-15.68,11.61,5.8,5.8,0,0,1-2.21.28c-.88,0-1.94.07-2.06-1.18-.08-.84.55-1.29,1.28-1.65,1.89-.91,3.79-1.79,5.61-2.82,7.68-4.32,12.2-11.12,15.56-19.08,4.4-10.43,3.11-20.5-.79-30.61A41.55,41.55,0,0,0,475,258.06c-4.94-5.49-10.86-8.82-18.27-9.48-3-.27-6.11-.46-9-1.8,3.66-1.57,7.5-1.31,11.16-.63a6.5,6.5,0,0,0,5.39-1.12c8.1-5.75,11.48-13.93,11.73-23.54.08-2.77-1.62-5.12-3.58-7a31.28,31.28,0,0,0-10-6.64c-1.12-.45-2.32-.77-2.37-2.32,1.33-.83,2.59-.33,3.84.16,1.55.6,2.2,0,2.39-1.58a9,9,0,0,0-1.74-6.36c-4-5.77-8.8-10.22-16.53-9.79-2,.11-2.89.8-3,3a25.12,25.12,0,0,1-1.22,6.15c-.33,1.11-1.29,2.31-2.55,2-1.48-.37-1.93-1.58-1.38-3.21,1.07-3.22.43-6.53.34-9.83-.24-8.55-3.38-16-8.14-22.89-2.61-3.75-6.32-6.43-10.15-8.79a56.28,56.28,0,0,0-13-5.91,21.72,21.72,0,0,0-16.5,1.54c-6.45,3.1-12.14,7-16.45,12.76C375.17,162.93,374.73,162.79,375.09,161.85Z"/><path class="cls-4" d="M222.24,244.21c-3.31,4.06-8,6.64-11.2,10.92-8.7,11.69-11.21,24.31-6.39,38.17,2.9,8.3,8.65,14.11,16.1,18.6a48.44,48.44,0,0,0,26.56,7.2c1.63,0,3.31-.34,4.92.22-.37,4.17-1.06,5.29-4.3,5.4-8.27.26-16.49.49-24.28-3.42-6-3-11.8-6.22-16.06-11.26s-7.81-10.72-9.1-17.71a49.68,49.68,0,0,1,.55-21.42,39.62,39.62,0,0,1,11.45-19.54c.76-.72,1.55-1.41,2.46-2.22-2.86-3.13-5.93-5.93-8.44-9.25-6.53-8.62-7.74-20.31-1.76-29.18,7.7-11.42,18.47-17.9,32.77-16.38a21.84,21.84,0,0,1,12.11,5.35.78.78,0,0,1-.11,1.22c-3.44-.92-6.71-2.4-10.31-2.81-5.87-.68-10.9,1.84-15.71,4.44a32.66,32.66,0,0,0-12.76,11.59c-3.77,6.19-3.4,12.63-1.28,19,1.3,3.93,4,7.31,6.61,10.61,2.24,2.86,2.28,2.85,5.26.58a4,4,0,0,1,1.89-1.13C222.23,242.86,222.46,243.32,222.24,244.21Z"/><path class="cls-3" d="M228.69,641.12c-.88-3.49-1.87-7-2.61-10.48-.32-1.54-.76-2.19-2.51-2.34-7.83-.67-12.61-5.52-13.76-13.51q-3-20.52-6-41c-1.26-8.49-1.36-17.1-2.49-25.59-.89-6.75-.85-13.52-1-20.29-.36-18.39,7.56-33.11,20.67-45.25,13.93-12.9,29.37-23.88,45.55-33.77a216.77,216.77,0,0,1,25.17-13c2.06-.92,4.11-1.84,6.14-2.81a4.93,4.93,0,0,1,2.58-.65,2,2,0,0,1,1.9,1.62,1.58,1.58,0,0,1-1,1.81c-2.42,1.2-5,2.12-7.31,3.48-7.11,4.19-14.73,7.37-22.06,11.12-5.63,2.88-10.73,6.59-16,10.09-11.13,7.42-22.07,15.08-32.1,24A66.33,66.33,0,0,0,209.85,502c-4.43,7.95-6.12,16.57-6.48,25.52-.67,16.79,1.57,33.3,4.52,49.78,1.59,8.87,2.85,17.81,3.69,26.8a39.33,39.33,0,0,1,.48,4c-.05,4.11,2.45,5.75,6,6.73,6.41,1.78,12.51.86,18.45-1.8,1.19-.53,2.33-1.18,3.7-1.88a2.8,2.8,0,0,1-1,2.94,15.69,15.69,0,0,1-10.91,4.64,33.68,33.68,0,0,1-14.66-2c.88,3.94,2,4.91,5.1,5.69,5,1.26,9.84.43,14.61-1.12a11.12,11.12,0,0,1,5.18-.9c-1.82,2.68-4.41,4-7,5.23s-3.29,2.81-2.93,5.52,1.18,5.31.94,8C229.81,640.12,230.38,641.14,228.69,641.12Z"/><path class="cls-3" d="M596.57,93.1a29.24,29.24,0,0,1,.27,8.09q-.14,2.25-.33,4.5a23.24,23.24,0,0,0,5,17c9.24,12.27,15.78,26.16,21.12,40.56a197.17,197.17,0,0,1,7.52,24.94,228,228,0,0,1,4.45,28c1.34,13.8,1.23,27.63,1,41.48-.22,15.09-2.41,29.94-4.94,44.74a262.75,262.75,0,0,1-7,28.82,7.77,7.77,0,0,1-.85,1.54c-1.57.16-1.61-1-1.86-2.06,1.44-9.67,3.91-19.14,5.68-28.75,4.65-25.18,4.86-50.55,3.08-76a249.21,249.21,0,0,0-13.21-63,181.42,181.42,0,0,0-10.52-23.94,125.92,125.92,0,0,0-12-18.43,6.78,6.78,0,0,1-1.75-6.21c1.08-4.52-.54-9.35,1.54-13.76.69-1.35.55-2.84.74-4.28S594.44,93.33,596.57,93.1Z"/><path class="cls-3" d="M243.05,190.74c-2.32-10.08,0-19.56,3.28-29.07,1.85-5.38,4.37-10.42,8.15-14.34,7.44-7.73,15.86-14.23,27.16-15.5,12.2-1.36,24.26-1,36.1,2.55a50.11,50.11,0,0,1,25.35,17c.27.34.6.64.87.92,1,0,1.41-.63,1.73-1.29,2.23-4.56,6.27-6.7,10.85-8,6.17-1.72,14.06,3.49,14.68,9.82a66.49,66.49,0,0,1,0,10.37c-.16,2.61-1.81,4.58-4.24,7.31-.08-3.13-.18-5.29-.19-7.44a37.25,37.25,0,0,0-1.18-8,7.91,7.91,0,0,0-11.87-4.71,27.29,27.29,0,0,0-3.29,2.35c-3.16,2.76-3.37,4.14-1.33,7.73,1.77,3.1,1.77,3.1,1.86,7.52-1.39.48-1.85-.68-2.42-1.48-1.66-2.3-3.33-4.6-4.87-7a49.07,49.07,0,0,0-22.49-19.27,69.32,69.32,0,0,0-19.2-4.55c-6.71-.74-13.45-1.54-20.22-.29-13.56,2.51-24,9.53-30.77,21.59-5.22,9.28-6.68,19.49-6.91,30C244.11,188.32,245.44,190,243.05,190.74Z"/><path class="cls-3" d="M393.66,586.9c.63-2.07.44-3.27-1.9-4.15-2.81-1.06-4.48-3.93-6-6.51-4.46-7.49-8.56-15.16-10.81-23.66-1.4-5.27-2.21-10.61-.68-16,.63-2.23,1.38-4.35,3.94-5s4.33.82,5.81,2.57a23.62,23.62,0,0,1,4.53,7.74c.46,1.35,1.06,2.66,1.87,4.67a57.17,57.17,0,0,1,4.61-8.37,12.31,12.31,0,0,1,7.06-5.29c4-1.07,7,.63,8.47,4.62,1,2.73.52,5.38-.07,8-3.07,13.66-7.35,26.89-14.31,39.13A3.89,3.89,0,0,1,393.66,586.9Z"/><path class="cls-3" d="M439.31,532.78c3.65-3,7.19-6.08,11.63-8-.09-.34-.19-.68-.29-1-3.79,0-7.59,0-11.38,0-1.69,0-3.35-.19-3.44-2.47,1.17-.88,2.38-.49,3.54-.3,4.83.82,9.51.1,14.21-1.08,6.81-1.71,13.7-3.08,20.45-5.13a117.15,117.15,0,0,0,31.39-15.24c7.46-5,15-9.86,22.54-14.79l-.12-.11c.5,2.24-.69,3.61-2.3,4.94-4.43,3.62-9.27,6.64-13.94,9.9-10,7-20.22,13.46-31.87,17.35-6.65,2.23-13.33,4.4-20.06,6.38a13.24,13.24,0,0,0-4.23,2.29c-6.62,4.88-9.95,11.46-11.77,19.44-1.9,8.32-4,16.61-5.58,25-1.3,6.91-2.29,13.89-3.52,20.82-.41,2.36-1.11,4.67-1.69,7-1.75,0-1.19-1-1-2,.54-4.75,1-9.51,1.74-14.25.92-5.92,1.36-11.91,2.19-17.85.69-4.89,1.59-9.75,2.48-14.61.81-4.42,1.75-8.81,2.59-13.23.24-1.24.31-2.5-1.62-2.25-.27-.19-.35-.37-.26-.54S439.21,532.78,439.31,532.78Z"/><path class="cls-5" d="M622,330.9a2,2,0,0,0,1,1.89c-.83,6.3-3.34,12.13-5.31,18.08a256.85,256.85,0,0,1-23.92,51.76c-13.41,22.33-30.42,41.4-52.1,56a85.48,85.48,0,0,1-18.23,9.65l-1.2-.93c.17-1.41,1.33-1.92,2.37-2.5,28.2-15.73,49.15-38.67,66-65.88a264,264,0,0,0,28.83-63.95C619.79,333.51,619.53,331.28,622,330.9Z"/><path class="cls-6" d="M243.06,632.15A287.19,287.19,0,0,1,242,602c.1-14.75.11-29.51.17-44.27a62,62,0,0,1,.54-9.91c.39-2.31,1.27-4.73-1.79-6.25-1.1-.55-1.17-2.22-.35-3.22,1-1.25,2.21-.49,3.12.36a5.29,5.29,0,0,0,3.73,1.17c1.9.09,3,1.79,1.9,2.94-4.09,4.19-3.16,9.55-3.51,14.48-1.4,19.54-1.07,39.12-1,58.69a143.78,143.78,0,0,1-.83,16.21C243.61,632.55,243.33,632.57,243.06,632.15Z"/><path class="cls-7" d="M532.54,55.06c-2.89-4.73-5.86-9.41-8.63-14.21-2.12-3.67-2.85-7.53-.73-11.57,1-1.9,1.87-3.7,4.34-4.07,2.72-.41,4.31,1.1,5.51,3.07A109.05,109.05,0,0,1,538.55,38,193.91,193.91,0,0,0,550.1,58.31a18.79,18.79,0,0,1,2.28,4.84c.41.88-.15,1.18-.84,1.41-4.24-2.22-5.61-6.76-8-10.38-4.5-6.9-8-14.4-12-21.64-.81-1.49-1.5-3.89-3.67-3.34-2.45.62-2.4,3.17-2.42,5.27,0,3.16,1.76,5.65,3.1,8.33,1.85,3.71,5,6.79,5.37,11.21C533.73,54.69,533.38,55.22,532.54,55.06Z"/><path class="cls-7" d="M551.31,64.17l1.07-1c1.19,2,2.37,4.07,3.58,6.1,2,3.3,2,3.36,5.64,2.7,9.15-1.62,17.47.79,25.4,5.12.25.14.4.44.6.66.13,1-.49,1.3-1.25,1.54-2.22.29-4-1-6-1.61a52,52,0,0,0-18.18-2.32c-1.67-.31-3,.92-4.58,1C553.65,73.26,550.75,69.6,551.31,64.17Z"/><path class="cls-8" d="M329.93,257l-1.23-1.21c3.33-3.24,6.84-6.32,9.95-9.76,4.56-5,7.12-11.31,10.05-17.33,1.85-.07,1.47,1.08,1.17,2.17-3.48,10-9.71,18-17.56,24.93A10.84,10.84,0,0,1,329.93,257Z"/><path class="cls-9" d="M385.12,294.09c0-1.18-.06-2.38,0-3.56a1.62,1.62,0,0,1,1.76-1.6,1.5,1.5,0,0,1,1.51,1.36c.23,2.66.44,5.33-.59,7.91-.25.61-.64,1-1.3,1a1.37,1.37,0,0,1-1.25-1.08c-.18-1.32-.18-2.66-.25-4Z"/><path class="cls-9" d="M328.12,294.09c0-1.18-.06-2.38,0-3.56a1.62,1.62,0,0,1,1.76-1.6,1.5,1.5,0,0,1,1.51,1.36c.23,2.66.44,5.33-.59,7.91-.25.61-.64,1-1.3,1a1.37,1.37,0,0,1-1.25-1.08c-.18-1.32-.18-2.66-.25-4Z"/><path class="cls-9" d="M331.85,276.69c-.08-1-.17-2-.21-3s.21-1.39.61-1.4.62.44.69,1.1a28.83,28.83,0,0,1,.24,6.68c-.06.52-.19.89-.46.85s-.51-.4-.57-.87c-.16-1.1-.24-2.23-.35-3.35Z"/><path class="cls-9" d="M335.83,276.89c.05-.74.09-1.49.17-2.22s.31-1,.61-1,.4.39.38.88a21.13,21.13,0,0,1-.56,4.91c-.1.38-.24.63-.43.58s-.33-.35-.32-.7c0-.83.07-1.66.12-2.49Z"/><path class="cls-9" d="M321.79,278.19c-.33-1.14-.7-2.28-1-3.42-.25-1-.11-1.66.35-1.78s.83.35,1.08,1.1a34.2,34.2,0,0,1,2,7.67c.06.61,0,1.07-.31,1.11s-.69-.34-.89-.87c-.45-1.24-.83-2.53-1.25-3.8Z"/><path class="cls-9" d="M326.66,277.06c-.23-1.16-.49-2.33-.68-3.5-.16-1,0-1.66.52-1.73s.79.43,1,1.2a33.9,33.9,0,0,1,1.24,7.81c0,.62-.1,1.08-.42,1.08s-.65-.41-.79-.95c-.34-1.27-.6-2.59-.89-3.89Z"/><path class="cls-9" d="M317.53,280.41c-.45-.8-.91-1.6-1.33-2.41s-.35-1.23,0-1.4.68.13,1,.65a26.17,26.17,0,0,1,2.76,5.46c.15.45.18.81-.05.89s-.58-.14-.81-.51c-.55-.86-1.05-1.77-1.58-2.66Z"/><path class="cls-9" d="M384.63,276.69c.08-1,.17-2,.21-3s-.21-1.39-.61-1.4-.62.44-.69,1.1a28.83,28.83,0,0,0-.24,6.68c.06.52.19.89.46.85s.51-.4.57-.87c.16-1.1.24-2.23.35-3.35Z"/><path class="cls-9" d="M380.65,276.89c0-.74-.09-1.49-.18-2.22s-.3-1-.6-1-.4.39-.38.88a21.13,21.13,0,0,0,.56,4.91c.1.38.24.63.43.58s.33-.35.32-.7c0-.83-.07-1.66-.12-2.49Z"/><path class="cls-9" d="M394.69,278.19c.33-1.14.7-2.28,1-3.42.25-1,.11-1.66-.35-1.78s-.83.35-1.08,1.1a34.2,34.2,0,0,0-2,7.67c-.07.61,0,1.07.31,1.11s.69-.34.89-.87c.45-1.24.83-2.53,1.25-3.8Z"/><path class="cls-9" d="M389.82,277.06c.23-1.16.49-2.33.68-3.5.15-1-.05-1.66-.52-1.73s-.79.43-1,1.2a33.9,33.9,0,0,0-1.24,7.81c0,.62.1,1.08.42,1.08s.65-.41.79-.95c.34-1.27.6-2.59.89-3.89Z"/><path class="cls-9" d="M399,280.41c.44-.8.91-1.6,1.32-2.41s.36-1.23,0-1.4-.68.13-1,.65a26.17,26.17,0,0,0-2.76,5.46c-.15.45-.18.81.05.89s.58-.14.81-.51c.55-.86,1-1.77,1.58-2.66Z"/><path class="cls-10" d="M532.54,55.06l1-1.21c4.12,3.37,6.7,7.58,7,13-.76.36-.75,1.11-.89,1.78C537,64.25,534.2,60,532.54,55.06Z"/><path class="cls-11" d="M384.79,480.21a17.16,17.16,0,0,1,3.43-7.63,1.45,1.45,0,0,1,2-.49,1.54,1.54,0,0,1,.65,2.28A14.9,14.9,0,0,1,384.79,480.21Z"/><path class="cls-12" d="M349.87,230.85c-.16-.85-.25-1.73-1.17-2.17a24.92,24.92,0,0,1,2.85-9.16C353.27,224.42,350.7,227.49,349.87,230.85Z"/><path class="cls-13" d="M586.4,78.78l1.2-1c3.91,1.81,5.94,5.1,7.16,9-.28.57-.56,1.14-1.33,1.11C591,84.9,588,82.41,586.4,78.78Z"/><path class="cls-14" d="M593.79,88l1-1.19a.41.41,0,0,1,.22.56,2.44,2.44,0,0,0,.66,1.22c.37,1.5,1.23,2.91.93,4.55-1.22,1.18-.62,2.71-.77,4.09s.42,2.92-.92,4A20.76,20.76,0,0,1,593.79,88Z"/><path class="cls-15" d="M243,653c-.52-6.36.12-12.7.15-19.05.26-.39.52-.36.77,0q-.07,9.48-.14,19C243.52,653.36,243.26,653.38,243,653Z"/><path class="cls-16" d="M431.9,595.77c.36.64.17,1.56,1,2a22.47,22.47,0,0,1-1.73,10c-.26.4-.51.4-.77,0C431.56,603.83,430.4,599.63,431.9,595.77Z"/><path class="cls-17" d="M373.27,492a12.91,12.91,0,0,1,3.71-4.36,1.11,1.11,0,0,1,1.58.3,1.4,1.4,0,0,1-.06,1.23,11.41,11.41,0,0,1-4.36,3.7l-.32-.08a1.62,1.62,0,0,1-.47-.47Z"/><path class="cls-18" d="M399.56,451.39a11,11,0,0,1,.7-7.84C401.72,446.07,401.2,448.42,399.56,451.39Z"/><path class="cls-19" d="M243.05,190.74c1.5-1,.41-2.59,1-3.78,1.65,2.65-.08,5.75,1.27,8.48A4.81,4.81,0,0,1,243.05,190.74Z"/><path class="cls-20" d="M394.88,462.81a11.88,11.88,0,0,1-.09-1.33c.07-1,.61-1.85,1.64-1.59.71.18.79,1.15.59,1.91-.35,1.29-.68,2.59-1.9,3.4A1.83,1.83,0,0,1,394.88,462.81Z"/><path class="cls-21" d="M223.05,242.28c.78-1.53,2.4-1.82,3.74-2.51.35.25.88.29,1,.83a5.66,5.66,0,0,1-3.78,2.59C223.64,242.92,223.12,242.84,223.05,242.28Z"/><path class="cls-22" d="M504.43,462.1c.89-.37.68-1.28,1-1.94a10.34,10.34,0,0,1,1.94,4.42,1,1,0,0,1-.22,1.18C505.3,465.22,504.91,463.62,504.43,462.1Z"/><path class="cls-23" d="M445.24,335.49a6,6,0,0,1,1-2.94c.5-.61,1.07-1.18,1.84-.61s.51,1.33,0,2-1,1.1-1.51,1.65A1,1,0,0,1,445.24,335.49Z"/><path class="cls-24" d="M243,653a3,3,0,0,1,.78-.07v5.54l-1,0C242.18,656.7,242.92,654.81,243,653Z"/><path class="cls-25" d="M228.69,641.12l.86-1.88c1.08,1.64.73,3.44.84,5.66C228.34,643.91,228.45,642.54,228.69,641.12Z"/><path class="cls-26" d="M431,611.31c.19,1.61-.62,3-.93,4.52h-.59c-.12-1.54-.76-3.15.56-4.51C430.39,610.92,430.71,610.92,431,611.31Z"/><path class="cls-27" d="M428.75,620.44c1.24,1.32.55,2.69.52,4.48C427.62,623.24,428.94,621.81,428.75,620.44Z"/><path class="cls-28" d="M367.82,487.42l1.3,1.08c-.79.92-2,.51-2.95.92-.95.25-1.27-.13-1-1.05A5.15,5.15,0,0,1,367.82,487.42Z"/><path class="cls-29" d="M377.76,244.15l-2.71-1.79a1.65,1.65,0,0,1-.36-.81l.35-.29c.93,1.27,2.88.47,3.76,1.85Z"/><path class="cls-30" d="M268.17,324.47A12.84,12.84,0,0,1,267,323c-.42-.79-.95-1.78.48-2,1-.16,1.05.83,1.05,1.56A11.32,11.32,0,0,1,268.17,324.47Z"/><path class="cls-31" d="M439.31,532.78a1.55,1.55,0,0,1,0,.8,2.48,2.48,0,0,1-3.46.64C436.69,532.91,438.28,533.53,439.31,532.78Z"/><path class="cls-32" d="M223.05,242.28l.94.91-1.75,1-1-1C221.56,242.35,222.39,242.49,223.05,242.28Z"/><path class="cls-33" d="M465.6,527.06c-.43-.21-.56-.47-.34-.7a1.92,1.92,0,0,1,1-.65c.52,0,.66.4.33.77A3.68,3.68,0,0,1,465.6,527.06Z"/><path class="cls-34" d="M375.09,161.85l.87.87c0,.94-.74,2-1.41,1.5C373.68,163.61,374,162.46,375.09,161.85Z"/><path class="cls-35" d="M395,465.75c-.18.87-.67,1.79-1.56,1.1s0-1.49.57-2.09C394.54,464.87,394.64,465.44,395,465.75Z"/><path class="cls-36" d="M429.51,615.83a3.87,3.87,0,0,1,.59,0c.11.83.31,1.67-.38,2.37C429,617.45,429.37,616.63,429.51,615.83Z"/><path class="cls-37" d="M431,611.31h-1c.1-.89.19-1.77.29-2.66.24-.34.49-.35.76,0A4.08,4.08,0,0,1,431,611.31Z"/><path class="cls-38" d="M328.93,258.58c.05-.54.43-.76.89-.91a7.44,7.44,0,0,1,0,1.25c-.05.32.06,1-.56.73C329,259.57,329,259,328.93,258.58Z"/><path class="cls-39" d="M445.24,335.49l1.35.06c-.27.7-.78,1.4-1.47,1.2S444.56,335.86,445.24,335.49Z"/><path class="cls-40" d="M372.21,493.71a1.77,1.77,0,0,1,1.06-1.73l.22.38.27.28.38.21a1.72,1.72,0,0,1-1.73,1.13Z"/><path class="cls-41" d="M365.13,488.37c.12.58.6.8,1,1.05-.46.62-1.11,1-1.69.36S364.27,488.55,365.13,488.37Z"/><path class="cls-13" d="M395,465.75c-.62,0-.78-.54-1-1l.88-1.95.24,2.39A.47.47,0,0,1,395,465.75Z"/><path class="cls-42" d="M247.52,200.91c0-.41.08-.82.11-1.22.73.32,1.61.7,1.13,1.65C248.56,201.74,247.77,201.58,247.52,200.91Z"/><path class="cls-43" d="M230.13,238.7a1.25,1.25,0,0,1-1.65.88l.09.09c-.22-.75.29-.88.83-1A.43.43,0,0,1,230.13,238.7Z"/><path class="cls-44" d="M507.12,465.76c.07-.39.14-.78.22-1.18.32.55.9,1.05.25,1.74C507.43,466.14,507.27,466,507.12,465.76Z"/><path class="cls-45" d="M243.88,634h-.39l-.38,0c0-.6,0-1.19-.05-1.78h.82Z"/><path class="cls-46" d="M227.77,240.6l-1-.83a1.77,1.77,0,0,1,1.78-.1l-.09-.09C228.65,240.2,228.29,240.45,227.77,240.6Z"/><path class="cls-47" d="M388.94,256.38c-.09.06-.19.18-.29.18-.34,0-.43-.19-.22-.41a.4.4,0,0,1,.34,0C388.85,256.14,388.89,256.29,388.94,256.38Z"/><path class="cls-48" d="M372.41,494c-.08.46-.41.76-.72.37s.11-.6.52-.64Z"/><path class="cls-13" d="M595.64,88.55a1.35,1.35,0,0,1-.66-1.22A1.11,1.11,0,0,1,595.64,88.55Z"/><path class="cls-49" d="M431.12,608.64l-.76,0c0-.31,0-.62,0-.93h.77Z"/><path class="cls-11" d="M385.21,473.28a1.05,1.05,0,0,1,.82-1.14A1.15,1.15,0,0,1,385.21,473.28Z"/><path class="cls-11" d="M386,472.17a1.07,1.07,0,0,1,.74-1C386.87,471.75,386.54,472,386,472.17Z"/><path class="cls-50" d="M230.13,238.7h-.73c.07-.38.19-.74.67-.6C230.14,238.11,230.11,238.49,230.13,238.7Z"/><path class="cls-11" d="M387,470.51a1.06,1.06,0,0,1,.79-1.14A1.07,1.07,0,0,1,387,470.51Z"/><path class="cls-51" d="M341.57,371.49c6.4-.25,9.11,3.38,9.94,10.31A16.87,16.87,0,0,1,349.07,393c-2.56,4-4.94,8.21-6,13-.22,1-.33,2.69-2.13,2.28-1.46-.34-1.65-1.78-1.6-2.92.11-2.07.08-4.2,1-6.17,1.21-2.57,2.12-5.27,3.4-7.83,1.56-3.1,2.36-6.47,1-10-.67-1.68-1.66-3.13-3.53-2.86a3.87,3.87,0,0,0-3.36,3.71,9.27,9.27,0,0,0,.86,5.69c1,1.77,1.48,3.36-.59,4.64s-3.61.06-4.73-1.28c-4.25-5.11-4.57-9.33-.53-15.12C335.39,372.52,337.92,371.44,341.57,371.49Z"/><path class="cls-51" d="M341.05,416.71c1.52.07,2.38.82,2.38,2.22a2.11,2.11,0,0,1-2.23,2.29,2,2,0,0,1-2.06-2A2.23,2.23,0,0,1,341.05,416.71Z"/><path class="cls-52" d="M299.16,382.46c.87.75.88,1.73.79,3.15a2.85,2.85,0,0,1-1.71-2.25C298.55,383.07,298.62,382.52,299.16,382.46Z"/><path class="cls-53" d="M299.16,382.46l-.92.9c0-.54-.05-1.09-.07-1.63l.15-2.05C299.13,380.44,299.06,381.48,299.16,382.46Z"/><path class="cls-54" d="M588.5,123.72l-3.34.27c-.88.36-1.19,0-1.1-.88.84-.48,1.59-1.22,2.69-1,.54.5,1.34,0,1.89.52a.31.31,0,0,1-.08.44c.23.17.3.33.2.47S588.59,123.72,588.5,123.72Z"/><path class="cls-55" d="M588.29,119.13c.84-.55,1.65-1.13,2.52-1.61a.85.85,0,0,1,1.24.29,4.34,4.34,0,0,1-2.68,2.28Z"/><path class="cls-56" d="M584.06,123.11l1.1.88c-1.47,1-3.13.93-4.79.78-.3-.21-.39-.41-.27-.59s.22-.26.32-.26Z"/><path class="cls-57" d="M580.42,123.92a7.92,7.92,0,0,0,0,.85l-1.74.38c-.47.1-1,0-1.11-.45-.17-.87.61-.8,1.13-.83S579.83,123.9,580.42,123.92Z"/><path class="cls-51" d="M588.64,122.6c-.74.21-1.44.29-1.89-.52l1.68-1C589.45,121.45,588.82,122.06,588.64,122.6Z"/><path class="cls-58" d="M588.5,123.72a1.94,1.94,0,0,1,.06-.68l1.55-.32c.8-.27,1.17,0,1,.86l-2.6,1.14Z"/><path class="cls-59" d="M374,241.42c-.38,0-.65-.4-.42-.59.58-.48,1.08-.18,1.42.43l.06.4A1.23,1.23,0,0,1,374,241.42Z"/><path class="cls-60" d="M374,241.42l1.06.24a5.49,5.49,0,0,0-.05.7C374.39,242.39,374.14,242,374,241.42Z"/><path class="cls-61" d="M561.83,74.22c-1.38.53-3,.83-1.38,2.9a9.56,9.56,0,0,1,2,4c.3,1-.16,1.26-1,1.15A15.5,15.5,0,0,1,557.57,76C558.81,75,559.85,73.46,561.83,74.22Z"/><polygon class="cls-62" points="373.76 492.64 373.49 492.36 373.76 492.36 373.76 492.64"/><path class="cls-63" d="M591.12,123.58l-1-.86a1.75,1.75,0,0,1,2.51-.43l-.77,1.39A2.57,2.57,0,0,1,591.12,123.58Z"/><path class="cls-64" d="M561.38,82.23l1-1.15a5.59,5.59,0,0,1,1.81,2.78c.28,1-.21,1.31-1.14,1.15A5.79,5.79,0,0,1,561.38,82.23Z"/><path class="cls-65" d="M563.1,85a1.62,1.62,0,0,0,1.14-1.15c.1.11.2.21.29.33.42.6,1.07,1.43.38,1.92C563.89,86.83,563.56,85.64,563.1,85Z"/></svg>