<?xml version="1.0" encoding="utf-8"?>
<!-- Generator: Adobe Illustrator 22.1.0, SVG Export Plug-In . SVG Version: 6.00 Build 0)  -->
<svg version="1.1" id="Laag_1" xmlns="http://www.w3.org/2000/svg" xmlns:xlink="http://www.w3.org/1999/xlink" x="0px" y="0px"
	 viewBox="0 0 227.6 324.3" style="enable-background:new 0 0 227.6 324.3;" xml:space="preserve">
<style type="text/css">
	.st0{fill:#F94646;}
	.st1{fill:#FFFDFD;}
</style>
<path class="st0" d="M113.4,75.4c2.3-4.3,5.4-8.1,9.1-11.2c3.7-3.2,8.3-5,13.1-5.2c4.9-0.1,9.6,1.7,13,5.1c1.2,1.3,2.1,2.9,2.4,4.6
	c1.2,4.3,1.6,8.8,1,13.3c-1.4,9.2-4.2,18.1-8.3,26.4c-2.3,4.9-5,9.6-7.7,14.3c-1.6,2.6-3.3,5.1-5.3,7.4c-3.3,3.9-6.7,7.7-10.1,11.5
	c-2.3,2.4-4.5,4.9-6.6,7.6c-0.6,0.7-1.3,1.4-2,2c-0.5,0.4-1.3,0.4-1.8,0c-0.9-0.7-1.7-1.4-2.4-2.3c-7.5-8.9-14.1-18.6-19.8-28.8
	c-5.7-10.2-9.2-21.5-10.1-33.2c-0.3-3.2-0.1-6.4,0.6-9.5c1.5-6.6,5-11,12-12.6c5.7-1.4,11.7-0.1,16.2,3.6c1.3,1,2.4,2.1,3.6,3.2
	C111.2,72.7,112.1,73.8,113.4,75.4z"/>
<path class="st1" d="M196.1,109.1c0.9,3.9-0.3,7.6-0.7,11.4c-0.5,3.6-1.2,7.3-2.1,10.8c-1.7,7.5-4.6,14.7-8.7,21.2
	c-2.8,4.3-5.7,8.5-8.5,12.8c-4.2,6.4-8.4,12.8-12.6,19.3c-0.9,1.4-2.1,2.8-2.4,4.9c5.7,1.8,11.2,2.5,16.9,0.2
	c5.9-2.2,11-6.1,14.7-11.2c3.9-5.6,5.8-11.6,4.1-18.6c-1.4-5.7-1.2-5.8,4-8.3c0.3-0.1,0.6-0.3,0.8-0.4c12-5.2,18.3-15,21.5-27.2
	c1-4.1,0.9-8.3-0.3-12.3c-0.6-2.2-1.4-4.2-2.1-6.4c0.2,0.2,0.6,0.3,0.8,0.1c0,0,0,0,0.1-0.1c4.1,5.9,4.9,12.4,3.5,19.2
	c-1.2,5.5-3.4,10.7-6.4,15.5c-3.1,4.9-7.4,8.9-12.4,11.7c-1.2,0.7-2.5,1.4-3.9,1.9c-5.2,2.3-4.6,1.6-3.6,6.6
	c1.4,7.3-0.5,13.7-4.6,19.5c-3.7,5.3-8.8,9.4-14.7,11.9c-4.3,1.8-9.1,2.2-13.6,1.2c-0.6-0.1-1.2-0.3-1.9-0.5c-4.3-1-4.4-1-5.9,2.9
	c-1,2.4-1.8,4.8-2.4,7.3c-0.7,3.1-1,6.3-0.7,9.5c0.5,7.3,1.2,14.6,2.2,21.9c0.9,6.5,2.5,12.8,4.7,19c3.1,8.8,7,17.1,10.6,25.7
	c4.2,10.1,12,16.3,21.7,20.5c1.4,0.6,2.9,1.1,4.5,1.7c-0.5,1.2-1.4,0.5-2,0.5c-0.6-0.1-1.3-0.2-1.9-0.4c-0.7-0.1-1.3,0.1-1.4,0.9
	c0,0.5,0.3,0.9,0.7,1.1c1.5,0.6,3,1,4.5,1.5c1.2,0.4,2.4,0.8,3.6,1.2c0.1,0,0.1,0.3,0.1,0.4c0.2,0.4,0,0.7-0.4,0.6
	c-1.3,0-2.5-0.1-3.8-0.4c-4.8-1.1-9.6-2.3-14.4-3.6c-5.4-1.5-10.6-3.5-16.2-4.2c-0.4-0.1-0.9-0.4-0.7-1c0.2-0.2,0.4-0.4,0.7-0.4
	c2.9,0,5.7,0.4,8.5,1.1c4,0.9,8,2.1,12.1,3.1c1.1,0.3,2.2,0.6,3.3,0.8c0.5,0.1,0.8-0.3,0.9-0.8c0.1-0.3,0-0.6-0.2-0.8
	c-0.5-0.3-1.1-0.6-1.7-0.8c-2.4-1-4.6-2.1-6.8-3.5c-5.5-3.3-9.9-8.2-12.4-14.1c-3.7-8.7-7.5-17.3-10.6-26.2
	c-2.9-7.8-4.7-16-5.4-24.3c-0.2-3.5-0.1-7.1-1-10.5c-1.7-6.7-0.4-13.3-0.7-20c-0.1-1.1,0-2.2,1.4-2.5c0.4-0.1,0.6-1.1,0.8-1.7
	c2.2-6.6,5.7-12.5,9.4-18.3s7.4-11.2,11.2-16.8c0.8-1.2,1.6-2.4,2.4-3.6c6.8-9.3,11.5-20,13.8-31.3C193.7,121,194.8,115,196.1,109.1
	l-0.1,0.3L196.1,109.1z"/>
<path class="st1" d="M52.6,310.6c3.9-3.7,7.8-7.5,11.8-11.2c9.3-8.6,15.2-19.3,18.5-31.4c4-14.9,6.2-30,4.4-45.5
	c-0.2-2.5-0.4-5.1-0.3-7.7c0-2.4-0.6-4.8-1.7-6.9c-2.2-4.6-5.1-8.9-8.6-12.6c-1.4-1.5-2.9-3-4.5-4.4c-6.2-5.3-11.4-11.7-15.4-18.9
	c-9.2-15.9-16.5-32.9-21.8-50.5c-0.4-1.2-0.9-2.4-0.5-3.7c0.1,0,0.2,0.1,0.2,0.1l-0.1-0.3c3,8.9,6.8,17.6,10.5,26.2
	c3.3,7.8,6.9,15.4,11,22.9c4.7,8.8,10.4,16.8,18.1,23.3c3.5,3.1,6.5,6.6,9,10.6c0.7,1,1,2.3,2.4,3.2c1.2-1.2-0.2-3,0.8-4.2
	c0.8,0.3,1.3,1,1.4,1.9c1.1,9.4,2.2,18.7,2.8,28.1c0.5,8.2-0.6,16.3-2,24.3c-1.2,7.1-3.1,14.1-5.5,20.8c-3.4,9.4-8.9,17.8-16.3,24.6
	c-4.4,4.2-9,8.1-13.9,11.7C53.3,310.7,53.1,310.5,52.6,310.6z"/>
<path class="st1" d="M137.7,6.6c-3.7-3.4-8.1-4.4-12.9-4.2c-15.1,0.9-26.2,8.1-33.2,21.6c-1.3,2.4-2.1,5-2.6,7.7
	c-0.1,0.8-0.3,1.6-0.6,2.3c-0.8,2.5-1.5,2.9-3.7,1.7c-2.5-1.4-5-2.9-7.5-4.3c-1.5-0.9-3-1.8-4.5-2.7c-9-5.7-24.4-4.9-33.4,2.5
	c-7.6,6.1-14,13.6-18.9,22.1c-3,5.4-3.6,8-3.5,15.6c-1.2-0.2-1.3-1.4-1.4-2.2c-0.4-3.4,0.1-6.8,1.4-9.9
	c5.2-12.5,14.1-23.1,25.4-30.4c5.1-3.3,11-3.9,17-3.8c6.3,0,11.9,2.2,17.1,5.5c3.1,2,6.2,3.8,9.2,5.6c1.3-0.8,1.2-1.9,1.4-2.7
	c4.2-16.5,14.8-26.5,31.2-30.4c4.2-1,8.7-0.8,12.8,0.4C134,1.9,136.6,3.3,137.7,6.6L137.7,6.6z"/>
<path class="st1" d="M222.6,74.3c-1.4-7.3-4.7-13.9-8.8-20c-2.1-3.1-4.9-5.5-8.2-7.2c-6.1-3-12.3-5.4-19.2-4.7h-0.5
	c-3,0-3.9-0.9-4.1-4c-0.2-2.4-0.3-4.8-0.6-7.1c-0.3-2.5-0.6-5.1-1.2-7.6c-2-9.1-9.6-17.1-18.1-19.2c-4.9-1.1-9.9-0.9-14.6,0.7
	c-2.8,0.7-5.4,1.9-7.8,3.5c0-0.5-0.1-1-0.1-1.4c5.6-3.9,12.2-5.8,19-5.4c6.4,0.2,12.5,3.1,16.8,7.9c6.1,6.6,8.3,14.5,8.9,23.2
	c0.1,2.1,0.2,4.1,0.4,6.1c1.7,0.7,3.3,0.3,4.9,0.4c7.9,0.5,15.4,3.3,21.6,8.1c2.7,2.1,4.8,4.7,6.4,7.7c2.6,4.6,4.6,9.5,5.9,14.6
	c0.4,1.5,1,3,2,4.3C224.3,73.7,223.4,73.8,222.6,74.3z"/>
<path class="st1" d="M16.2,72.8c-3.4,2.9-6.5,6.1-9.2,9.7c-2.1,2.7-3.5,5.7-4.3,9c-1.1,5.4,0.2,10.4,2.5,15.3
	c2.8,5.6,6.5,10.7,10.9,15c3,3.1,6,6.2,9.2,9.1c2.8,2.3,3.9,6.1,2.7,9.5c-2.6,10.6,1,19.4,8.3,27c1.9,1.9,4,3.6,6.2,5.2
	c3.4,2.6,7.5,3.5,11.6,4.2c0.8,0.1,1.5,0.1,2.3,0.2c-0.2,1.1-1,0.8-1.6,0.8c-5.5,0.1-10.8-1.7-15.1-5.1c-6.6-5-11.3-11.1-13.4-19.2
	c-1.1-4-1.2-8.2-0.3-12.3c0.2-0.8,0.4-1.5,0.6-2.3c0.5-2.1-0.2-4.2-1.8-5.6c-3.8-3.6-7.5-7.4-11.3-11.1c-3.4-3.4-6.3-7.2-8.7-11.3
	c-1.4-2.3-2.5-4.8-3.4-7.4C-1.7,94.1,0.5,86.1,6.9,79c2.3-2.6,5.1-4.9,8.1-6.6L16.2,72.8z"/>
<path class="st1" d="M38,112.9c0.9-0.1,1,0.6,1.3,1.1c1.3,2.7,2.7,5.4,4,8.2c7,14.6,15.7,28.1,24.9,41.4c3.8,5.5,7.5,11.1,11.7,17.3
	c-1.7-1.1-3.3-2.5-4.6-4.1c-13.6-16.5-25.3-34.1-33.9-53.7c-1.2-2.6-2.2-5.3-3.2-8C37.9,114.4,37.4,113.7,38,112.9z"/>
<path class="st1" d="M153.3,173.6c2.1-4.1,4.6-8.1,7.3-11.8c3.5-4.8,7.1-9.5,10.5-14.3c7.9-10.8,14.5-22.6,19.5-35.1
	c0.3-0.7,0.4-1.6,1.2-2c0.2-0.1,0.3-0.1,0.5-0.2c-1.1,5.3-2.9,10.5-5.4,15.3c-4.2,8.8-9.3,17.2-15.1,25c-6,7.9-11.8,15.9-17.7,23.9
	L153.3,173.6z"/>
<path class="st1" d="M39.4,323.1c0.4-1.4,1.4-2.6,2.7-3.2c2.3-1.4,4.9-2.3,7.6-2.8c6.4-1.5,12.3-4.4,17.3-8.6
	c2.2-1.8,4.3-3.8,6.6-5.5c2.6-2.1,5.3-4.1,8-6c0.6-0.4,1.2-1.1,2.1-0.7c0,0.1,0.1,0.3,0.1,0.3c-5.4,5.1-10.8,10.4-16.7,15
	c-4.9,3.8-10.7,6.4-16.8,7.5C46.4,319.6,42.7,321,39.4,323.1z"/>
<path class="st1" d="M143.4,250.1c-0.5-3.4-1.2-6.8-1.5-10.2c-0.9-9.8-2.4-19.6-4.5-29.3c-0.9-4.4-1-8.9-0.4-13.3
	c0.1-1,0.5-2,1.1-2.9c1.3,0.2,0.8,1,0.7,1.5c-0.9,3.9-0.9,8,0,11.9c1.2,5.9,2.5,11.8,3.3,17.9C143,233.7,143.9,241.8,143.4,250.1z"
	/>
<path class="st1" d="M108.5,194.3c-0.9,5.8,0.6,10.4,2.2,15.1c3.8,11.2,5.1,23.1,3.9,34.9c-0.3,2.8-0.6,5.5-0.9,8.6
	c-1.5-1-1-2.2-1-3.2c0-4,0.1-8,0.4-12c0.6-9.9-1.3-19.4-4.4-28.7c-1.3-3.7-1.9-7.7-1.7-11.7C106.9,196.2,107.5,195,108.5,194.3z"/>
<path class="st1" d="M112.4,291.1c2,3.1,3.9,6.2,6,9.3c1.7,2.5,2.6,5.5,2.4,8.6c-0.2,4.6-1,9.2-2.3,13.7c-0.3,0.6-0.6,1.1-1.1,1.6
	c0.4-5.1,0.9-10.1,1.3-15.1c0.2-2.7-0.5-5.4-2-7.7c-2-3.3-3.7-6.7-5.5-10.1L112.4,291.1z"/>
<path class="st1" d="M137.9,290.5c-1.4,2.1-2.6,4.4-3.4,6.8c-1.3,3.1-1.3,6.6,0,9.8c1.5,4,2.8,8.1,4.1,12.2
	c-1.8-0.6-2.5-2.1-3.1-3.5c-1.2-2.6-2.2-5.3-3.2-8c-1.2-3.3-1-7,0.4-10.2c1.1-2.8,2.7-5.4,4.6-7.8
	C137.3,290.2,137.5,290.5,137.9,290.5C137.9,290.5,137.9,290.5,137.9,290.5z"/>
<path class="st1" d="M148.7,166.9c1.9-7.9,4-15.7,7.5-23.1c0.2-0.4,0.5-0.8,0.7-1.2c0.1,0.2,0.5,0.3,0.7,0.2c0.1,0,0.1-0.1,0.2-0.2
	c-2.5,8.2-5.1,16.3-8.1,24.3C149.4,166.6,149.1,166.6,148.7,166.9C148.8,166.8,148.7,166.9,148.7,166.9z"/>
<path class="st1" d="M101.2,171.9c-2.5-4.7-5.1-9.5-7.6-14.2c-0.3-0.6-0.5-1.1-0.6-1.8c-0.1-0.2,0.1-0.7,0.3-0.8
	c0.3,0,0.6,0.1,0.9,0.3c0.4,0.3,0.7,0.6,0.9,1c2.8,4,5,8.5,6.5,13.1c0.2,0.8,0.5,1.5,0.8,2.2C102,171.8,101.6,171.8,101.2,171.9z"/>
<path class="st1" d="M227.1,79.6c0.6,4.1,0.6,8.2,0.1,12.3c-0.3,3.5-1.5,6.9-3.7,9.6c-0.4,0.4-0.9,0.8-1.5,1.1v-0.4l-0.3,0.2
	c0.5-1.2,1-2.3,1.6-3.5c1.1-2.1,1.8-4.5,2-6.9c0.4-4.1,0.9-8.3,0.2-12.4C226.1,80.1,226.6,79.7,227.1,79.6z"/>
<path class="st1" d="M70.9,151.3l7.5,19c-2.1-2-2.8-4.1-3.8-6.1c-2-4.1-3.2-8.6-4.5-13c0.1,0.2,0.4,0.4,0.6,0.3
	C70.8,151.4,70.9,151.4,70.9,151.3z"/>
<path class="st1" d="M227.1,79.6c-0.5,0.2-1,0.6-1.6,0.2c-0.7-1.9-0.8-1.9-1.9-0.5c-0.1,0.1-0.2,0.3-0.3,0.4s-0.3,0.1-0.7,0.2v-5.4
	c0.8-0.5,1.7-0.6,2.6-0.2C226.7,75.6,227,77.6,227.1,79.6z"/>
<path class="st1" d="M104.6,257.6c1.8,4.2,2.1,8.1,1.6,15.6c-0.4-1.4-0.6-2.9-0.7-4.4C105.2,265.4,104.9,262,104.6,257.6z"/>
<path class="st1" d="M102.1,161c2.2,1.8,3.7,4.9,5.3,11.5C105,169,103.2,165.1,102.1,161z"/>
<path class="st1" d="M138.8,162.6c-1.8,3.7-3,7.6-6.2,11.5c1.2-5,3.4-8.5,5.6-12.1C138.1,162.6,138.3,162.8,138.8,162.6z"/>
<path class="st1" d="M126.9,167.6c0.5-3.2,1.4-4.7,5.5-9.3c-0.4,2.2-1.7,3.6-2.6,5.1S128.5,166.6,126.9,167.6z"/>
<path class="st1" d="M70.9,151.3c-0.2,0.2-0.5,0.3-0.7,0.1c-0.1-0.1-0.1-0.1-0.2-0.2c-0.9-2.7-1.3-5.6-1.1-8.5
	c0.3,0.9,0.6,1.8,0.8,2.6s0.6,1.8,0.8,2.7S71.3,150.1,70.9,151.3z"/>
<path class="st1" d="M133.4,251.9c1.2,3.1,1.3,6.3,1.5,9.6c-1.6-2.9-1.8-6.2-2.2-9.4l0.3-0.3L133.4,251.9z"/>
<path class="st1" d="M133.4,251.9l-0.4-0.1l-0.3,0.3c-0.4-3.1-0.8-6.2-1.2-9.6C133.2,245.6,133,248.8,133.4,251.9z"/>
<path class="st1" d="M137.3,289.8c0.5-1.4,1.7-2.1,2.7-3.2c0.6,1.1-0.3,1.5-0.6,2.1c-0.4,0.6-0.9,1.2-1.5,1.8
	C137.6,290.6,137.3,290.3,137.3,289.8C137.3,289.9,137.3,289.9,137.3,289.8z"/>
<path class="st1" d="M139.3,7.3c0,0.5,0.1,1,0.1,1.4c-0.2,0.2-0.4,0.5-0.7,0.6s-0.9,0.3-1.2,0.2c-0.6-0.3,0-0.8,0.1-1.2
	c0.1-0.6,0.1-1.2,0.1-1.8l0.1-0.1C138.4,6.6,138.9,6.8,139.3,7.3z"/>
<path class="st1" d="M34.8,117.7l0.1,0.3c-0.1,0-0.2-0.1-0.2-0.1c-1.8-0.7-1-2.3-1.7-3.8C34,115,34.6,116.3,34.8,117.7z"/>
<path class="st1" d="M112.4,291.1l-1.2,0.2c-0.4-0.7-0.5-1.5-0.2-2.3c0.1-0.4,0.6-0.5,0.7-0.2C112,289.6,112.2,290.4,112.4,291.1z"
	/>
<path class="st1" d="M154.1,174.4c-0.3,0.5-0.6,1-1,1.5c-0.2,0.2-0.5,0.4-0.8,0.4c-0.3-0.1-0.4-0.4-0.1-0.8l1.1-2L154.1,174.4z"/>
<path class="st1" d="M138.1,162.1c0.2-1.1,0.8-2,1.6-2.7c0.6,1.4-0.4,2.3-0.9,3.3C138.3,162.8,138.1,162.6,138.1,162.1z"/>
<path class="st1" d="M204.3,307.3c-0.3-0.1-0.9-0.2-1.5-0.4c-0.1,0-0.1-0.3,0-0.4s0.1-0.3,0.1-0.4c0.9-0.3,1.9-0.2,2.7,0.2
	c0.2,0.1,0.2,0.5,0.4,0.7c-0.1,0.1-0.3,0.1-0.4,0.2C205.2,307.3,204.9,307.3,204.3,307.3z"/>
<path class="st1" d="M101.2,171.9c0.4,0,0.8-0.1,1.2-0.1c0.3,0.5,0.5,1.1,0.7,1.7c0.1,0.2-0.2,0.5-0.2,0.8c-0.2-0.1-0.5-0.2-0.7-0.4
	C101.6,173.3,101.2,172.6,101.2,171.9z"/>
<path class="st1" d="M221.5,105.2c-0.2,0.2-0.6,0.3-0.8,0.1c0,0,0,0-0.1-0.1c-0.4-0.7-0.8-1.3,0.3-1.8c0.3-0.2,0.5-0.7,0.8-1
	l0.3-0.2v0.4C221.2,103.4,221.5,104.3,221.5,105.2z"/>
<path class="st1" d="M148.7,166.9c0.2-0.3,0.6-0.3,0.9-0.1c0,0,0.1,0.1,0.1,0.1c0.4,0.8-0.2,1.4-0.4,2.1c0,0.2-0.4,0.3-0.6,0.5
	c-0.1-0.2-0.2-0.5-0.3-0.8C148.5,168.1,148.6,167.5,148.7,166.9z"/>
<path class="st1" d="M112.9,256.7c0.3,1.3,0.2,2.8-0.5,4c-0.4-1.2-0.4-2.6-0.1-3.8l0.3-0.3L112.9,256.7z"/>
<path class="st1" d="M16.2,72.8L15,72.4c0.2-0.2,0.4-0.4,0.7-0.5c0.4-0.2,0.8-0.7,1.1-0.1C17,72.1,16.7,72.7,16.2,72.8z"/>
<path class="st1" d="M112.9,256.7l-0.3-0.1l-0.3,0.3c0-0.9,0-1.8,0.1-2.7c0-0.4,0.2-0.5,0.5-0.6c0.7,0,0.7,0.5,0.6,0.9
	C113.4,255.3,113.2,256,112.9,256.7z"/>
<path class="st1" d="M157.8,142.6c-0.1,0.2-0.5,0.3-0.7,0.2c-0.1,0-0.1-0.1-0.2-0.2c0.1-0.4,0.2-0.8,0.3-1.2
	c0.1-0.2,0.3-0.3,0.5-0.4c0.1,0.2,0.2,0.5,0.3,0.8C158,142,157.9,142.3,157.8,142.6z"/>
<path class="st1" d="M196.1,109.1l-0.1,0.3L196.1,109.1c-0.1-0.4-0.2-0.9-0.1-1.3c0-0.3,0.1-0.6,0.2-0.8c0.1,0.3,0.1,0.6,0.1,0.9
	C196.2,108.2,196.1,108.6,196.1,109.1z"/>
<path class="st1" d="M53.2,311.1c-0.3,0.4-0.7,0.7-1,0.4s0-0.8,0.5-0.9S53.3,310.7,53.2,311.1z"/>
</svg>
