<svg id="Laag_1" data-name="Laag 1" xmlns="http://www.w3.org/2000/svg" viewBox="0 0 112.87 287.65"><defs><style>.cls-1{fill:#1b1b1b;}</style></defs><path class="cls-1" d="M65,287.65c-8.43-.82-17.09-.42-25.64-1.77A71.41,71.41,0,0,1,26,282.42c-.9-.33-1.77-.75-2.68-1s-2.18,1.47-3,.26-1.8-3-1.65-4.38c.5-4.37-.46-8.6-.84-12.86-1.65-18.32-2.12-36.7-3.09-55.05C13.55,188,13.4,166.53,13.2,145.11c0-5.12-.26-10.24-.37-15.35,0-1.35,0-2.43-1.89-2.62C9.66,127,9,125.6,8.32,124.52,2,114.45-1.08,103.6.34,91.65a63.26,63.26,0,0,1,1.15-7.08C2.73,79.22,9.64,74,16.3,74.88a42.73,42.73,0,0,1,13.74,4c3.49,1.73,7.25,2.44,11,3.25a10.61,10.61,0,0,0,2.87.15c2.37-.12,3.24-1.34,2.88-3.78-.3-2-1.05-4-.4-6.15a1.81,1.81,0,0,0-.87-2c-.78-.56-1.6-1-2.39-1.6a17.78,17.78,0,0,1-6.34-19.23A53.4,53.4,0,0,1,44,34.88a178.06,178.06,0,0,0,9.3-16.2A62.42,62.42,0,0,0,59,3.48,6.73,6.73,0,0,1,60.12.35c.35-.41.82-.51,1.11,0a10.89,10.89,0,0,1,1,2.16c3.94,11.82,7.69,23.7,10.09,36a36.23,36.23,0,0,1,.57,9.07c-.38,7-3.77,12.11-9.63,15.63-3,1.81-6.16,3.48-9.93,2.67a1.66,1.66,0,0,0-2,1c-1.44,2.72-2.54,5.52-2.24,8.69.2,2.12.94,2.5,2.65,1.25a44.43,44.43,0,0,1,14.9-7.46A38.63,38.63,0,0,1,79,67.72c8.78.54,17.44,2.06,26.13,3.36,3.64.54,5.55,2.58,6.4,6.1a38.93,38.93,0,0,1,.57,17.57,22.24,22.24,0,0,1-2.48,6.2c-3.48,6.18-5.12,13.07-7.62,19.63a7.59,7.59,0,0,0-.2,3.31c.76,11.48,1.55,23,2.26,34.44.3,4.78.43,9.58.65,14.37.64,13.89,1.24,27.78,1.93,41.67.51,10.37,1,20.74,1.77,31.1.62,8.61,1.54,17.19,2.36,25.77.27,2.92-.2,3.89-3.11,4.92a4.41,4.41,0,0,0-1.92,1.24c-2.55,2.84-5.92,4.31-9.41,5.49a89.42,89.42,0,0,1-17.78,3.8C74.13,287.22,69.65,287.34,65,287.65ZM56.31,56.29c.27.1.64.36.79.27a8.13,8.13,0,0,0,4-7.14A53.17,53.17,0,0,0,60.58,38a12.82,12.82,0,0,0-.33-1.87c-.16-.45.3-1.31-.83-1.34-1.37,3-2.71,6-4.1,9-1.2,2.59-2.41,5.19-3.71,7.73a17.15,17.15,0,0,0-1.92,9.63c-.29,0-.77.2-.82.12a7.94,7.94,0,0,1-.43-6.91,111.11,111.11,0,0,1,5.38-11.74A40.82,40.82,0,0,0,58.07,30a5.58,5.58,0,0,1,.44-1.83,1.84,1.84,0,0,1,1.16-.66c.21-.05.6.25.76.48A3.43,3.43,0,0,1,61,29.29c1.14,6.45,2.29,12.91,2,19.5-.17,4.4-1.59,8.21-6.07,10a5.68,5.68,0,0,0-3.76,5,2.27,2.27,0,0,0,1.86.31c3.12-.38,5.65-2.07,8.18-3.73,4.79-3.15,7-7.71,7.14-13.35a57.62,57.62,0,0,0-1.09-11.42c-1.69-9.77-4.9-19.15-7.45-28.7a19.68,19.68,0,0,0-1.21-2.6c-1.85,7.87-5.59,14.34-9.08,20.92-2.68,5.07-5.52,10.07-8.23,15.14A38.34,38.34,0,0,0,39,51.91c-1.17,7,1.76,12.72,8.32,16.17.34-.5.72-1,1-1.53,1.12-2,1.11-2,.87-5.15,0-.11.21-.23.33-.34.7,0,1.49.55,2-.45,1.4-2.57,2.87-5.11,4.57-8.1.09,1.66.15,2.74.2,3.83-.43-.09-.64.09-.56.51,0,.07.3.17.42.13C56.69,56.83,56.71,56.57,56.31,56.29Zm4.58,23.28c-1.54.83-3,1.76-4.63,2.46a21.65,21.65,0,0,1-11.65,2c-5.26-.64-10.42-1.52-15.26-3.77a36.66,36.66,0,0,0-11.9-3.44A12.1,12.1,0,0,0,3.8,87.28c-.23,1.58-.26,3.19-.37,4.79a54.53,54.53,0,0,0,7.2,30.84c.19.36.51.82,1.13.53a.66.66,0,0,0,.43-.72c0-3.19.18-6.39.14-9.58a213.94,213.94,0,0,1,.56-23.74A37.68,37.68,0,0,1,14,96.27c.45,11.34.93,22.68,1.57,34,.61,10.85,1.26,21.7,1.47,32.56.13,6.56.14,13.12.43,19.67.68,15,1.53,30,2.24,45,.75,15.65,1.48,31.29,2.07,46.94.09,2.48.94,3.88,3.21,4.58,1.07.33,2.1.76,3.16,1.11a76.44,76.44,0,0,0,21.19,3.57c7.19.25,14.38.6,21.57.2C83.13,283.24,95,281,106,275.22a2.07,2.07,0,0,0,1.27-2.25c-.06-1-.14-1.91-.23-2.87-.64-6.52-1.34-13-1.91-19.56-.46-5.26-.82-10.52-1.11-15.79-.8-14-1.63-28.07-2.26-42.12-.63-13.9-1-27.8-1.54-41.7q-.66-17.49-1.38-35c-.28-6.55-.64-13.09-1-19.64-.13-2.79-.51-5.6.15-8.41,1.27,3.92,1.41,8,2.06,12s.08,8.15,1.71,13a82.19,82.19,0,0,1,6.9-16.17c2-3.9,2.13-8.34,2-12.65a41,41,0,0,0-1.2-7.07,4.12,4.12,0,0,0-4-3.47c-3.18-.29-6.35-.7-9.52-1.08-5.39-.63-10.78-1.32-16.17-1.92-6.85-.76-13.34.75-19.59,3.4A39.87,39.87,0,0,0,51.49,79a1.54,1.54,0,0,0-.59,1.17,1.39,1.39,0,0,0,1.35,1.15,6.32,6.32,0,0,0,2.34-.26c2.1-.75,4.15-1.63,6.22-2.45-.07.11-.22.24-.19.34A3.42,3.42,0,0,0,60.89,79.57Z"/><path d="M60.81,78.61C62,78,63.11,77.07,65,77c-1.43,1.27-2.48,2.36-4.12,2.55a3.85,3.85,0,0,1-.27-.63C60.59,78.85,60.74,78.72,60.81,78.61Z"/><path class="cls-1" d="M37.66,102.19c3.31-2.31,6.09-1.84,8.85-.11a11.42,11.42,0,0,1,4.38,5,54.25,54.25,0,0,1,4.77,14.5c1.32,8.53,2.17,17.11,2.7,25.72A68.85,68.85,0,0,0,60.27,160a18,18,0,0,0,3.61,7.22c.4.48.77,1.16,1.49,1,.91-.16,1.13-1.08,1.26-1.79a24.52,24.52,0,0,0,.47-4.75c-.09-3.83-.24-7.67-.57-11.49-.76-8.75-1.74-17.48-1.85-26.27a46.83,46.83,0,0,1,2.06-15.14c1.22-3.73,2.52-4.31,6.88-3.25.2.34.07.55-.4.58-3.26.21-4.59,2.22-5.17,5.22a65.69,65.69,0,0,0-.7,18.62c.69,7.79,1.56,15.57,2.21,23.36a87.47,87.47,0,0,1,.19,9.58,12.64,12.64,0,0,1-2.43,7.64c-1.1,1.41-2.27,1.51-3.65.28a18.44,18.44,0,0,1-5.33-8.39,44.07,44.07,0,0,1-1.93-9.37c-.39-4.29-.78-8.59-.95-12.9a196.7,196.7,0,0,0-2.19-20A45.06,45.06,0,0,0,49.4,108.4c-1.73-3.94-5.49-7.29-10.21-6A6.39,6.39,0,0,1,37.66,102.19Z"/></svg>