<svg id="Laag_1" data-name="Laag 1" xmlns="http://www.w3.org/2000/svg" viewBox="0 0 164.05 243.91"><defs><style>.cls-1{fill:#1b1b1b;}.cls-2{fill:#f94646;}</style></defs><path class="cls-1" d="M14.74,49.29c3.44-.34,6.75-.65,10.06-1,14.45-1.47,28.88-3.19,43.37-4.25,8.28-.61,16.52-1.74,24.8-2.32,9.07-.64,18.16-1.15,27.26-1.31,9.73-.18,19.46-.44,29.18-1,1.42-.08,1.83.21,1.89,1.41s0,2.56,0,3.84c0,8.47.23,17,0,25.43-.49,14.84-.62,29.7-2.18,44.5-1,9-1.47,18.15-2.19,27.23-.77,9.71-1.43,19.44-2.36,29.14-.74,7.65-.61,15.32-.89,23-.31,8.46-.25,16.94-1.11,25.46,1.55,1.52,4.11.15,5.68,1.81,0,.94-.82.77-1.29.86a104.9,104.9,0,0,1-18.54,2c-4.94.06-9.88.59-14.82.76-12.3.43-24.61.13-36.9-.3-9.09-.31-18.19-.67-27.28-.86-8.62-.18-17.24-.42-25.86-.6-1.36,0-2.85-.63-4,.8-.17.22-1,0-1.07-.59-.23-1.25-.39-2.51-.59-3.77a145.42,145.42,0,0,1-1.78-22.92c.06-12.63-.06-25.28.42-37.89.46-12.15.75-24.29.66-36.44-.07-9.26-.15-18.53-.7-27.79-.29-4.94-.19-9.91-.23-14.87-.07-7.67-.06-15.35-.16-23C16.09,54.16,16.38,51.62,14.74,49.29Zm97.77,109.94c-.05,1.85-1.33,3.19-2,4.77s-1.53,3.14-.78,5.08l5.14-2.51c-.81-2.47-1.6-4.86-2.39-7.25-.74-.41-.52-1-.33-1.61.54-1.66,1.18-3.29,1.6-5s-.18-3.37-1-3.41c-1.48-.08-2.21,1.05-2.89,2.13a9.65,9.65,0,0,0-.83,1.71,19,19,0,0,0-1.25,10.15c1-.37,1.1-1.23,1.37-1.91C109.85,159.63,109.83,159.62,112.51,159.23ZM90.35,207.3l-1,.4a1.91,1.91,0,0,0-1.72-1.95l-7.12-.88a26,26,0,0,1-3.31-.42c-2.51-.64-3.28-2.2-2.39-4.7a8.67,8.67,0,0,1,3.39-4.51,23.62,23.62,0,0,1,4.65-2.42,65.24,65.24,0,0,1,12.86-3.56c3.46-.53,7-.8,10.44-1.24,1.53-.19,1.84-.62,1.58-2.2a50.42,50.42,0,0,1-.56-12.39,17.17,17.17,0,0,0-.68-7.51c-1.39-3.85-.92-7.85.14-11.78,1-3.68,3.88-6.11,5.84-9.14a1.65,1.65,0,0,1,2.19-.31,1.35,1.35,0,0,1,.56,1.67,6.36,6.36,0,0,0,.16,5c2.59-.6,3.42-2.33,3.45-4.86a17.76,17.76,0,0,1,2.92-9c.56-.92,1.48-1.65,1.54-3a21.65,21.65,0,0,1-1.62-1.5c-3-3.19-2.51-6.35,1.26-8.67.94-.57,2.18-.61,2.89-1.6-3.14-3.5-5.83-4-9.92-1.82q-1.08-1.5-2.16-3c.14-.2.28-.4.44-.6,1,.9,1.92,2.12,3.54.74a3.53,3.53,0,0,1,3.66-.26c1,.37,2,.81,3.16,1.29.75-1.66,1.31-3.35,3-4.26s3.76-.37,5.62-1.1a27.61,27.61,0,0,1,1.2-6.64,4.27,4.27,0,0,1,5.76-2.74,9.43,9.43,0,0,1,4.21,3c.67.79.76,2.09,2.18,2.39.35-3.85.75-7.63,1-11.42s.53-7.65.72-11.47.27-7.35.4-11c.14-3.83.29-7.66.42-11.49s.39-7.66.34-11.49.52-7.52-.17-11.48a37.47,37.47,0,0,1-8.69,1.79c-3,.19-6.06.18-9.1.23-1.92,0-3.83,0-5.75,0-10.39,0-20.75.78-31.1,1.4-11.47.7-22.92,1.76-34.38,2.65L45,48.6,20.16,50.48c-.9.07-1.91-.31-2.9.85,0,.49,0,1.27,0,2,.3,5.1.66,10.2.9,15.3.47,10.06.8,20.12,1.31,30.17.67,13.24,1.37,26.49,1.35,39.75,0,7-.5,14-.54,21.08-.11,19.82-.1,39.64-.13,59.46,0,.16,0,.31,0,.47a1.31,1.31,0,0,0,1.5,1.41l12.94-.15c10.85-.14,21.67-.91,32.55-.29,9.08.52,18.21.33,27.31.47,11.67.19,23.32-.19,35-1,3.5-.24,7-.14,10.53-.23.24,0,.46-.3.72-.47a6.44,6.44,0,0,0-.88-3.79c-.88,0-1.83-.14-2.78-.12q-16.51.42-33,.85a27,27,0,0,1-5.25-.18c-2.13-.37-4.42-.63-5.76-2.76.25-.18.63-.56.74-.49,3.2,1.94,6.75,1.78,10.25,1.63,9.41-.4,18.82-.63,28.23-.55,2.07,0,4.15,0,6.22,0a1.34,1.34,0,0,0,1.51-1.41c0-.32,0-.64,0-1,.17-8.61.06-17.23.72-25.83.18-2.39.18-4.78.21-7.18a1.35,1.35,0,0,0-1.46-1.49,81.6,81.6,0,0,0-16.65,1.41c-.75.14-1.7.28-1.83,1.24-.21,1.69-1.32,3.32-.35,5.1a1.81,1.81,0,0,1,.07,1.84c-1.56,2.62-1.2,5.53-1.33,8.37,0,1.07.44,2.42-1.24,3.12-.15-1.47-.41-2.89-.41-4.3,0-6,.06-4.66-5.41-4.35a3.55,3.55,0,0,0-.47.09c-.78.16-1,.67-.86,1.39a35.9,35.9,0,0,0,2.68,7.66c.27.62.91,1.27-.06,2-1.56-1.5-2.17-3.53-3.08-5.35s-.55-4.27-2.26-5-3.72-.05-5.62,0c-.63,0-1.27.07-1.91.13A71.63,71.63,0,0,0,83,194.67a11.63,11.63,0,0,0-5.2,3.29c-.82,1-1.78,2.17-1.43,3.41.41,1.42,2,1.3,3.24,1.44A23.38,23.38,0,0,1,82,203c2.17.5,4.43.49,6.56,1.3A2.53,2.53,0,0,1,90.35,207.3ZM118.19,168c1.45-1.58,3.63-1.38,4.86-2.83,1.53-1.78.56-4,.66-6a18.05,18.05,0,0,1,6-13.13c1.75-1.56,4.17-2.27,5.51-4.41.28-.45,1.16-.49,1.77-.09a1.56,1.56,0,0,1,.69,1.64c-.18,1.25-1.14,2.26-1.09,3.62.1,2.88-1.27,5.25-2.9,7.44a75.8,75.8,0,0,1-5.17,6.27,12.74,12.74,0,0,0-2.74,4.44,1.11,1.11,0,0,0,.17,1.3,1,1,0,0,0,1.29.21c1.65-1.25,3.33-.88,5-.15,1.49.66,2.8,1.21,4.22-.27.67-.7,1.77-.51,2.72-.15.72.26,1.41.82,2.49.27.41-4.43.87-9,1.27-13.55.76-8.75,1.28-17.52,2.32-26.23.56-4.69-.77-9.13-.86-13.7a6.32,6.32,0,0,0-.66-2.29,7.16,7.16,0,0,0-3.58-3.69,2.58,2.58,0,0,0-3.86,1.46,12.13,12.13,0,0,0-.71,2.77c-.15,1.27-.09,2.56-.17,3.83s-.62,1.73-1.9,1.51a8.66,8.66,0,0,0-4.71.18,3,3,0,0,0-2,2.94,7.57,7.57,0,0,0,1.08,3.63,1.1,1.1,0,0,1-.62,1.56,13.6,13.6,0,0,0-4.17,2.25c-1.27,1.22-1.4,2.57-.18,3.74.8.77,1.74,1.4,2.61,2.09a1.66,1.66,0,0,1,.3,2.5,13.84,13.84,0,0,1-.84,1.17,24.76,24.76,0,0,0-5.29,13.12,4.71,4.71,0,0,1-1.24,3c-2.27,2.37-2.76,5.32-2.54,8.45A19.32,19.32,0,0,0,118.19,168Zm-9.46,9.51c.09,1,.24,2.9.45,4.79.63,5.77.07,5.58,6.47,4.67a5,5,0,0,0,.9-.3c1.2-.39,1.53-1.19.83-2.13-.47-.63-1.1-1.16-1.53-1.82-1.13-1.73-.91-2.91.65-4.12.25-.2.54-.34.8-.52,2.2-1.52,2.32-1.78,1.66-4.23-.41-1.53-1-3-.75-4.67.15-.84-.37-1.11-1.1-1.09-2.93.07-5,1.9-7.07,3.62C108.45,173.05,108.79,174.89,108.73,177.54Zm32.08-2.34c.08-.62.16-1.24.23-1.86.05-.47.08-1,.12-1.43a4.2,4.2,0,0,0-1.18-3,2.44,2.44,0,0,0-2.1-1c-.75.07-.73.87-1,1.4-.76,1.41-1,1.52-2.06.66a14.63,14.63,0,0,0-4.14-2.34,1.48,1.48,0,0,0-2,.6c-.47.87-1.11.86-2,.65-2.32-.54-2.36-.5-3.07,1.4-.56,1.48-1.08,3-1.54,4.51a1.33,1.33,0,0,0,1.61,1.72c4.09-.95,8.26-.58,12.38-.95C137.58,175.42,139.19,175.86,140.81,175.2Zm-14.5-16.65c.65-1.08,1.3-2.15,2-3.22s1.48-2.44,2.27-3.63c.6-.91,1.16-2.11,2.53-.88a21.07,21.07,0,0,0,1.09-2c.29-.74.53-1.68-.23-2.17-.34-.22-1.21.1-1.69.41A12.59,12.59,0,0,0,126.31,158.55Zm-5.3,9.87c-.15,0-.34,0-.45.13a2.21,2.21,0,0,0-.59,2.17c.06.46.34.63.55.34.51-.73,1.24-1.41.87-2.45C121.35,168.51,121.14,168.48,121,168.42Zm-3.4,11.68a6.93,6.93,0,0,0-.48.72c-.18.34-.07.66.3.72.55.09.74-.31.65-.76C118,180.53,117.77,180.32,117.61,180.1Z"/><path class="cls-1" d="M12,45.61Q9,41.91,6,38.23c-.27-.33-.5-.82-1.13-.6a1,1,0,0,0-.62,1.11c.08,2.39.29,4.77.34,7.16.15,6.7.3,13.4.35,20.11.06,7.5,0,15,0,22.51.06,17.57.23,35.13.2,52.69,0,16.93-.12,33.85-.4,50.77-.2,12.6-.75,25.19-1.15,37.78-.53-.55-1-.25-1.49.07-.11-3.67-.26-7.35-.32-11-.1-6.56-.16-13.12-.24-19.68-.12-11.35-.56-22.71-.31-34.06C1.8,137.71,1.38,110.35,2,83c.34-15.66.93-31.32.92-47,0-.79.09-1.58.14-2.49,1.14-.44,1.8.74,2.94.6,8.56-1,17.15-1.84,25.73-2.7,5.08-.51,10.17-1,15.26-1.44,6.21-.5,12.42-.89,18.63-1.33a13.57,13.57,0,0,0,1.92-.09c3.73-.82,3,.2,4.31-3.45,2.34-6.29,4.83-12.52,7.74-18.57A33.39,33.39,0,0,1,82.72,1.2c1.21-1.65,3.17-1.55,4.51,0a18,18,0,0,1,3,5.44c2.35,5.94,5,11.77,5.64,18.25.15,1.52.68,1.9,2.26,1.77,5.57-.48,11.16-.57,16.75-.56,12.47,0,24.94,0,37.41,0,3.87,0,7.56,1.19,11.35,1.35.77,1.27.33,2.57.21,3.8-.8,8.13-.65,16.29-.73,24.44-.11,11,0,22.08-.05,33.12s-.67,22-1.48,33c-.86,11.63-1.57,23.28-2.38,34.91-1.23,17.55-1.65,35.12-2,52.7-.11,7,.26,14.07-.47,21.1a32.79,32.79,0,0,0,.19,3.82c.06,2.4.07,4.8.07,7.2,0,.3-.15,1.05-.5.61-1.79-2.23-3.42.27-5.17.13-2-.16-4.09.56-6.15.8-1.91.21-3.83.24-5.74.45-5.58.61-11.17.29-16.76.22-2.07,0-4.14-.25-6.22-.27-11.83-.1-23.66-.21-35.49-.22-9.58,0-19.17.24-28.76.18-10.23-.07-20.46-.14-30.68-.63-5.88-.29-11.82-.3-17.65-1.45A7.64,7.64,0,0,1,.38,240a1.31,1.31,0,0,1,.25-2c.85-.46,2.06-1.07,2.63-.24,1,1.5,2.39,1.36,3.8,1.4,4,.12,8,.31,12,.32,12.63,0,25.27.14,37.9,0,9.42-.12,18.83-.76,28.25-.86,8.94-.09,17.9-.4,26.84.23,1,.07,1.91.09,2.87.09,10.71,0,21.42,0,32.13.47.42,0,1,.2,1.27-.85a45.89,45.89,0,0,0-4.45-5.07,12.32,12.32,0,0,1-1.47-1.88.85.85,0,0,1,.05-.82,1.13,1.13,0,0,1,.86-.32,4.92,4.92,0,0,1,2.77,1.75,15.36,15.36,0,0,1,3.51,5.11,4.1,4.1,0,0,0,4.38,2.88c.47,0,1,0,1.38,0,.8-.91.3-1.88.25-2.79-.61-9.89-1.27-19.78-1.28-29.7,0-11.35-.27-22.72.37-34.07s1.47-22.63,2.27-34c.8-11.48,1.66-23,2.49-34.44.71-9.73.77-19.48,1-29.23.23-9.91.58-19.81,1-29.71.16-4,.55-8,.82-12,.05-.76,0-1.53,0-2.3-1.58-.28-1.86,1.1-2.54,1.84-1.51,1.65-2.78,3.52-4.68,4.77a.9.9,0,0,1-.85-.11.81.81,0,0,1-.07-.79,23,23,0,0,1,5.7-6.4c.75-.59,1.61-1,2.35-1.65a2,2,0,0,0,.68-1.13c.09-.65-.54-.64-1-.69a9.72,9.72,0,0,0-1.43-.06c-12.15.06-24.29,0-36.41.92-6,.45-12.14.38-18.2.65-14,.63-28.08,1.09-42.09,2.24-6,.5-12.12.73-18.17,1.18-12.74,1-25.47,2-38.21,3-.12,0-.23.15-.37.25C6.6,37.44,8,37.79,8.56,38.67s1.33,1.8,1.93,2.74,1.14,1.93,1.7,2.88C12.13,44.72,12.09,45.16,12,45.61ZM94,26.77c.21-.53.36-.71.32-.82q-2.51-7-5-13.92a7.18,7.18,0,0,0-.78-1.71c-.18-.26-.52-.71-1-.05-2.72,3.4-3,3.39-6,.24-.11-.11-.24-.2-.54-.46C79.6,13,78.17,15.79,77,18.72s-3.16,5.79-3.86,9.35ZM85.28,3.15c-.53-.13-1,.25-1.38.91-.24.39-.25.53.18.71.71.28,1.87,0,2-.55S85.71,3.39,85.28,3.15Zm-1.59,5.9a.69.69,0,0,0,1,.62.83.83,0,0,0,.4-.68.7.7,0,0,0-.95-.66C83.91,8.41,83.82,8.82,83.69,9.05Z"/><path class="cls-1" d="M9.59,236.42c.55-4,3.21-6.63,5.94-9.21a1.42,1.42,0,0,1,1.26-.31c.68.39.44,1.07.1,1.62a35.28,35.28,0,0,1-6.61,7.95c-.13.11-.53-.08-.81-.13Z"/><path d="M2.06,229.83c.48-.32,1-.62,1.49-.07.42,1.87-.21,3.68-.22,5.53,0,.18-.34.42-.57.53s-.55-.07-.64-.45a4.85,4.85,0,0,1-.17-.91C2,232.92,2,231.38,2.06,229.83Z"/><path d="M12,45.61c.05-.45.09-.89.15-1.32a5.06,5.06,0,0,1,.35.64c0,.1-.06.25-.09.38l-.18.14Z"/><path d="M12.45,45.31l.59.5c-.55.52-.65.07-.76-.36Z"/><path class="cls-1" d="M9.47,236.34c.37.29.34.55-.1.69-.12,0-.41-.09-.41-.15,0-.41.22-.56.63-.46Z"/><path d="M90.35,207.3c.56,1.62.77,3.41,2.24,4.59l-1.06.54a3.68,3.68,0,0,1-2.16-4.75C89.7,207.57,90,207.43,90.35,207.3Z"/><path d="M83.69,9.05c.13-.23.22-.64.43-.72a.7.7,0,0,1,.95.66.83.83,0,0,1-.4.68A.69.69,0,0,1,83.69,9.05Z"/><path class="cls-2" d="M42.4,117.53a34,34,0,0,1,2.29-4.07c2.15-2.79,5.39-2.32,6.78.91s1.37,6.57,1.14,9.92c-.22,3-.76,6-1.26,9a10.55,10.55,0,0,1-1,2.69,1.84,1.84,0,0,1-2.75,1,11.4,11.4,0,0,1-2-1.28,40.14,40.14,0,0,1-10-12.7,7.9,7.9,0,0,1-1-3.65A3.36,3.36,0,0,1,39.1,116,32.38,32.38,0,0,1,42.4,117.53Z"/><path class="cls-2" d="M45.68,70.54a23.48,23.48,0,0,1,2.25-3c2.12-2,4.67-1.4,5.64,1.31a18.74,18.74,0,0,1,.82,9.41c-.48,3-1.24,5.91-2,8.83a8.82,8.82,0,0,1-1.28,2.52,1.63,1.63,0,0,1-2.48.5c-4.16-3.91-8.6-7.59-10.9-13.05a13.69,13.69,0,0,1-1-3.18,4.19,4.19,0,0,1,5.62-4.81C43.46,69.45,44.44,70,45.68,70.54Z"/><path class="cls-2" d="M82.36,101.74A37,37,0,0,1,86,101a2.25,2.25,0,0,1,2.62,2.62,10.68,10.68,0,0,1-1.51,5.5c-2.45,3.74-5,7.44-7.54,11.11-.76,1.09-1.9,1-2.73-.23a7.17,7.17,0,0,1-1-1.63,45.13,45.13,0,0,1-2.76-10.15,15.57,15.57,0,0,1,.85-7.56,4.87,4.87,0,0,1,3-2.91A3.09,3.09,0,0,1,81,99.15C81.53,100,81.41,101.06,82.36,101.74Z"/><path class="cls-1" d="M26.28,216.59c3-.48,6-.93,8.93-1.43a34.86,34.86,0,0,0,14.72-6.61,16.09,16.09,0,0,0,2.76-2.65,4.11,4.11,0,0,0,.15-5.28A8,8,0,0,0,50,198.06a37.34,37.34,0,0,0-5.58-2.72c-6.66-2.29-13.45-4.08-20.57-4.09-.48,0-1,0-1.44-.07s-.64-.26-.48-.56.37-.57.59-.59a38,38,0,0,1,11,.51c3.9.77,7.73,2,11.55,3.12a21.38,21.38,0,0,1,6.39,3.23c4.9,3.54,5.38,7.93,1,12.06A29.4,29.4,0,0,1,36,217.1a59.07,59.07,0,0,1-7.17.37C28,217.48,26.91,217.56,26.28,216.59Z"/><path class="cls-1" d="M21.79,171.28c3.17-.11,6.35-.29,9.53-.31,8.92-.07,17.84,0,26.77-.56,4.11-.25,8.27.2,12.41.31,7.17.21,14.35.39,21.52.6a15.42,15.42,0,0,1,1.77.26c-.1,1.3-1,1.26-1.76,1.33a100.17,100.17,0,0,1-13.86.12c-7.32-.35-14.63-1-22-.83q-12,.23-23.93.19c-3.47,0-6.95-.28-10.42-.43Z"/><path class="cls-1" d="M91,140.23a8.21,8.21,0,0,1,5.92-5c1.89-.52,1.82-.68,1.74-2.73a56.63,56.63,0,0,1-.11-6.64c.26-3.35,1.75-4.19,5.17-3.18,1.7.51,1.69.52,2.41-1.08a12.69,12.69,0,0,1,1-2.14,13.76,13.76,0,0,1,2.2-2.44,3.84,3.84,0,0,1,4.42-.55c.21.1.28.5.42.76-.16.2-.3.4-.44.6a3.24,3.24,0,0,0-4.28.9,8.4,8.4,0,0,0-2.24,5.14,2.83,2.83,0,0,1-.69,2.19,3.86,3.86,0,0,1-.38.3c-1.33-.19-2.08-1.36-3.2-1.9-1.4-.68-2.62-.22-2.92,1.25a21.79,21.79,0,0,0,.07,8c.1.62.29,1.21.45,1.82-3.65.71-6.72,2.1-8.63,5.34C91.64,140.7,91.33,140.47,91,140.23Z"/><path class="cls-1" d="M92.82,149.76c-1.31.54-2.6,1.13-3.93,1.62-6.53,2.42-9.84,7.15-10.14,14.07,0,1.1-.08,2.21-.15,3.32,0,.1-.22.2-.34.3a15.36,15.36,0,0,1,9.24-19c1.34-.49,2.7-.9,4-1.34A1.77,1.77,0,0,0,92.82,149.76Z"/><path d="M92.82,149.76a1.77,1.77,0,0,1-1.28-1c-1.37-2.78-2.33-5.57-.51-8.52l.91.73a8.19,8.19,0,0,0,.26,6.83C92.47,148.41,93.54,148.82,92.82,149.76Z"/><path class="cls-1" d="M91.53,212.43l1.06-.54a1.07,1.07,0,0,1,.49,1.52A1.4,1.4,0,0,1,91.53,212.43Z"/></svg>