<svg id="Laag_1" data-name="Laag 1" xmlns="http://www.w3.org/2000/svg" viewBox="0 0 122.08 152.54"><defs><style>.cls-1{fill:#1b1b1b;}</style></defs><path class="cls-1" d="M31.59,109.29c-1.31-1.91-1.42-4.19-1.91-6.35-2.46-10.92-4-22-5.63-33.07q-2-13.52-4.42-27c-1.26-7.24-2.73-14.44-4.08-21.67a20.32,20.32,0,0,1-.17-2.36,117,117,0,0,1,21.56-6.74Q66.4,5.5,96.29,1.25C98.5.94,100.68.41,102.88,0A1.62,1.62,0,0,1,105,1.38c2,9.21,3.91,18.44,5.42,27.74,2.28,14,4.53,28.07,7.26,42,1,5.33,1.52,10.76,2.29,16.14.34,2.29-.27,4.84,1.87,6.68.34.29.29,1.24.16,1.82a47.49,47.49,0,0,1-1.5,5.53,96.44,96.44,0,0,1-15.18,27.06,44.39,44.39,0,0,1-4,4.17,9.49,9.49,0,0,1-3.67,2.2,3,3,0,0,1-3.38-1.17,5,5,0,0,1-.94-4.53c.7-2.12,1.4-4.25,2.27-6.3a72.62,72.62,0,0,1,16.36-24q2.74-2.67,5.58-5.25a2.13,2.13,0,0,0,.71-2.49c-5.26-18-7.48-36.61-10-55.12-.59-4.28-1.21-8.55-1.83-12.82-.18-1.21-.74-1.57-2-1.23L77.22,29.34l-50.78,14c-.77.21-1.56.39-2.32.63a1.48,1.48,0,0,0-1.06,1.85c.12.79.24,1.58.4,2.37C26.19,61.78,28.51,75.49,30,89.33c.71,6.83,1.58,13.65,2.38,20.47C32.16,109.52,32.37,108.66,31.59,109.29ZM22.44,42.57l4.07-1.23c14.54-4.33,29-8.82,43.63-12.92,11.22-3.16,22.48-6.13,33.53-9.88,1.83-.63,2-.77,1.7-2.73-.61-4-1.26-7.89-1.92-11.83-.25-1.48-.74-1.8-2.38-1.5-3.3.6-6.58,1.29-9.88,1.9-14,2.6-27.94,5.19-41.81,8.36-10.11,2.31-20.13,5.11-30.46,6.43a2.15,2.15,0,0,0-1.66,1.14C19.32,27.38,20.81,34.74,22.44,42.57Zm73.49,87.52c.08.51-.11,1.29.67,1.47a2,2,0,0,0,1.33-.32,20.69,20.69,0,0,0,4.87-4.56,57.61,57.61,0,0,0,6.79-9.84c3.31-6.19,6.5-12.44,9.71-18.68a6.81,6.81,0,0,0,.64-2.26.69.69,0,0,0-.89-.76,4.55,4.55,0,0,0-2.28,1.66c-3.2,3.56-6.51,7-9.53,10.74a69.82,69.82,0,0,0-10.06,17.88A11.73,11.73,0,0,0,95.93,130.09Z"/><path class="cls-1" d="M30.76,111.06a5,5,0,0,0-.16,1.42c.83,4.94-.62,9.44-2.52,13.89a72.35,72.35,0,0,1-14.6,21.69,16.67,16.67,0,0,1-5,3.71c-4.2,2-7.77.07-8.44-4.51A10.25,10.25,0,0,1,.45,143a34,34,0,0,1,4.62-9.92A88.58,88.58,0,0,1,25,112.59a12,12,0,0,1,4.18-2.25,1.23,1.23,0,0,1,1.59.6Zm-2.55,3c-3.74,2.47-6.81,5.72-10,8.86a84.45,84.45,0,0,0-10,11.56,29.13,29.13,0,0,0-4.74,9.82,5.58,5.58,0,0,0-.2,2.81,2.28,2.28,0,0,0,3.23,1.76,16.82,16.82,0,0,0,5.71-4.24,70.91,70.91,0,0,0,16.84-29.55c.56-.43.81-1.16.4-1.59C28.92,112.83,28.63,113.76,28.21,114.06Z"/><path d="M30.76,111.06l0-.12.86-1.66c.78-.62.57.24.76.52C32.73,111.37,31.47,110.86,30.76,111.06Z"/></svg>