<?xml version="1.0" encoding="utf-8"?>
<!-- Generator: Adobe Illustrator 22.1.0, SVG Export Plug-In . SVG Version: 6.00 Build 0)  -->
<svg version="1.1" id="Laag_1" xmlns="http://www.w3.org/2000/svg" xmlns:xlink="http://www.w3.org/1999/xlink" x="0px" y="0px"
	 viewBox="0 0 122.1 152.5" style="enable-background:new 0 0 122.1 152.5;" xml:space="preserve">
<style type="text/css">
	.st0{fill:#FFFFFF;}
</style>
<path class="st0" d="M31.6,109.3c-1.3-1.9-1.4-4.2-1.9-6.3c-2.5-10.9-4-22-5.6-33.1c-1.3-9-2.8-18-4.4-27
	c-1.3-7.2-2.7-14.4-4.1-21.7c-0.1-0.8-0.2-1.6-0.2-2.4c7-2.9,14.2-5.2,21.6-6.7c19.6-4.4,39.4-8,59.4-10.9c2.2-0.3,4.4-0.8,6.6-1.2
	c0.8-0.3,1.8,0.2,2,1c0,0.1,0.1,0.2,0.1,0.3c2,9.2,3.9,18.4,5.4,27.7c2.3,14,4.5,28.1,7.3,42c1,5.3,1.5,10.8,2.3,16.1
	c0.3,2.3-0.3,4.8,1.9,6.7c0.3,0.3,0.3,1.2,0.2,1.8c-0.4,1.9-0.9,3.7-1.5,5.5c-3.6,9.8-8.7,18.9-15.2,27.1c-1.2,1.5-2.6,2.9-4,4.2
	c-1,1-2.3,1.8-3.7,2.2c-1.3,0.4-2.6-0.1-3.4-1.2c-1-1.3-1.4-3-0.9-4.5c0.7-2.1,1.4-4.2,2.3-6.3c3.8-9,9.3-17.2,16.4-24
	c1.8-1.8,3.7-3.5,5.6-5.2c0.8-0.6,1.1-1.6,0.7-2.5c-5.3-18-7.5-36.6-10-55.1c-0.6-4.3-1.2-8.5-1.8-12.8c-0.2-1.2-0.7-1.6-2-1.2
	l-27.2,7.5l-50.8,14c-0.8,0.2-1.6,0.4-2.3,0.6c-0.8,0.2-1.3,1-1.1,1.8c0,0,0,0,0,0.1c0.1,0.8,0.2,1.6,0.4,2.4
	c2.7,13.6,5,27.3,6.5,41.1c0.7,6.8,1.6,13.7,2.4,20.5C32.2,109.5,32.4,108.7,31.6,109.3z M22.4,42.6l4.1-1.2
	c14.5-4.3,29-8.8,43.6-12.9c11.2-3.2,22.5-6.1,33.5-9.9c1.8-0.6,2-0.8,1.7-2.7c-0.6-4-1.3-7.9-1.9-11.8c-0.2-1.5-0.7-1.8-2.4-1.5
	c-3.3,0.6-6.6,1.3-9.9,1.9c-14,2.6-27.9,5.2-41.8,8.4c-10.1,2.3-20.1,5.1-30.5,6.4c-0.7,0.1-1.3,0.5-1.7,1.1
	C19.3,27.4,20.8,34.7,22.4,42.6z M95.9,130.1c0.1,0.5-0.1,1.3,0.7,1.5c0.5,0.1,0.9-0.1,1.3-0.3c1.9-1.2,3.5-2.8,4.9-4.6
	c2.6-3,4.9-6.3,6.8-9.8c3.3-6.2,6.5-12.4,9.7-18.7c0.3-0.7,0.6-1.5,0.6-2.3c0.1-0.4-0.2-0.7-0.6-0.8c-0.1,0-0.2,0-0.3,0
	c-0.9,0.3-1.7,0.9-2.3,1.7c-3.2,3.6-6.5,7-9.5,10.7c-4.2,5.4-7.6,11.5-10.1,17.9C96.4,126.9,96,128.5,95.9,130.1z"/>
<path class="st0" d="M30.8,111.1c-0.1,0.5-0.2,0.9-0.2,1.4c0.8,4.9-0.6,9.4-2.5,13.9c-3.5,8.1-8.5,15.4-14.6,21.7
	c-1.4,1.5-3.1,2.8-5,3.7c-4.2,2-7.8,0.1-8.4-4.5c-0.2-1.4,0-2.9,0.4-4.3c1-3.5,2.6-6.9,4.6-9.9c5.5-7.9,12.2-14.8,19.9-20.5
	c1.2-1,2.7-1.8,4.2-2.2c0.6-0.3,1.3,0,1.6,0.6L30.8,111.1z M28.2,114.1c-3.7,2.5-6.8,5.7-10,8.9c-3.7,3.5-7,7.4-10,11.6
	c-2.2,2.9-3.8,6.3-4.7,9.8c-0.3,0.9-0.4,1.9-0.2,2.8c0.2,1.2,1.3,2.1,2.6,2c0.2,0,0.5-0.1,0.7-0.2c2.2-1,4.1-2.4,5.7-4.2
	c7.9-8.3,13.7-18.5,16.8-29.6c0.6-0.4,0.8-1.2,0.4-1.6C28.9,112.8,28.6,113.8,28.2,114.1z"/>
<path class="st0" d="M30.8,111.1v-0.1l0.9-1.7c0.8-0.6,0.6,0.2,0.8,0.5C32.7,111.4,31.5,110.9,30.8,111.1z"/>
</svg>
