<svg id="Laag_1" data-name="Laag 1" xmlns="http://www.w3.org/2000/svg" viewBox="0 0 157.61 138.19"><defs><style>.cls-1{fill:#1b1b1b;}</style></defs><path class="cls-1" d="M5.8,96.94c5.37-4.59,11.47-8.08,17.65-11.44.84-.46,1.71-.86,2.54-1.34.37-.22.88-.37.85-1s-.66-.61-1-.59c-6.89.33-13.71,1-19.87,4.55-.14.08-.28.22-.41.22a1.76,1.76,0,0,1-.89-.18c-.51-.32-.25-.82-.15-1.26A3.06,3.06,0,0,1,6,84.14a22.65,22.65,0,0,1,5.62-2.61c6.3-2,12.8-2.64,19.37-2.81,1.44,0,2.88-.06,4.31,0A13.22,13.22,0,0,0,43,76.59c-1.15-1-2.56-.47-3.73-1a2.71,2.71,0,0,1-1.69-3.49c.43-1.69,1.54-2.63,3-2.47a13.51,13.51,0,0,1,1.84.49c.44.12.89.22,1.29.32,1.25-1,1-2.74,2-3.84.42-.49.81-1,1.52-1.06a2.2,2.2,0,0,1,1.89,1.26,4.33,4.33,0,0,1,.45,3.25c-.24,1.25-.6,2.48-.91,3.72-.38.22-.7.57-.35.92.18.18.7,0,1.07,0a6.19,6.19,0,0,0,5.36-3.42c2.89-4.79,6-9.47,7.83-14.79.32-.91.64-1.81.88-2.74.33-1.25-.06-1.82-1.32-1.78-.78,0-1.61.46-2.27-.16a4.13,4.13,0,0,1-1.13-3c-.07-2.15,1.11-4,1.55-6,.11-.38.43-1,.3-1.1-.46-.45-1.06-.28-1.61,0-1.42-.14-2.86-.17-4.25-.43A2.15,2.15,0,0,1,53.31,38a7.83,7.83,0,0,1,3-2.94A16.9,16.9,0,0,1,58.48,34c.56-.25,1.15-.43,1.66-.61.4-1.27-.54-1.84-1.06-2.57a11.76,11.76,0,0,1-1.82-3.85c-.73-2.78.72-4.69,3.56-4.55.31,0,.62.17.93.18a5.19,5.19,0,0,0,.91-.18c0-1.51,0-3.05,0-4.58a5.83,5.83,0,0,1,.46-1.35c.2-.64.52-1.13,1.27-1.16a15.42,15.42,0,0,0,.74,8.65c.94,2.18.84,2.22,3.73,2.71.11,0,.18.25.27.38-.86,1.49-1.81,2.93-2.54,4.48a6.46,6.46,0,0,0-.36,5.5,3.53,3.53,0,0,0,4.21,2.21,7.92,7.92,0,0,0,2.93-1.46c3-2.49,4.09-5.9,4.29-9.66a2.06,2.06,0,0,0-1.11-1.94A3.93,3.93,0,0,0,73,25.52c-1.31.5-2.61,1.05-3.91,1.58-.26-.31-.85-.22-.74-1a30.65,30.65,0,0,0,.41-5.23c-.11-3.61-.82-4.39-4.44-5.5a.73.73,0,0,1,.61-1,3.58,3.58,0,0,1,3.88,1.2c.42.47.68,1.08,1.06,1.59.87,1.18,1.31,1.21,2.09.18s1.48-2.08,2.29-3.06a2.41,2.41,0,0,1,2.6-.8,2.16,2.16,0,0,1,1.56,2.15,13.53,13.53,0,0,0,0,1.91,1.13,1.13,0,0,0,1.48.82A12.65,12.65,0,0,0,82,17.19c1.39-.81,2.9-1.68,4.49-1.36s1.93-.53,2.29-1.6a32.25,32.25,0,0,1,4.8-8.79A6.13,6.13,0,0,1,94.89,4.1c.18-.13.64,0,.9.14s.57.55.51.71a11.43,11.43,0,0,1-1,2.12c-1.92,3.14-3.85,6.26-4.62,9.94a25,25,0,0,0-.62,5.71,1,1,0,0,0,.38.77c.56.27.89-.19,1.06-.61a36.7,36.7,0,0,1,7.45-11.64,1.55,1.55,0,0,0,.56-1.71,13.38,13.38,0,0,1-.69-4.69C98.75,4,98,4,97.41,4.17a.87.87,0,0,1-1.14-.5,1.29,1.29,0,0,1,.6-1.59c1.7-1.13,3.18-.63,3.66,1.26.38,1.52,0,3.21,1.1,4.73,1.69-.27,2.57-1.73,3.83-2.59s2.32-1.69,3.47-2.56a8.59,8.59,0,0,0,.68-.67C114-2.1,116.54.5,118,4.64c.16.45.16,1,.29,1.41a12.46,12.46,0,0,0,.49,1.27c1.38.62,2.53-.39,3.78-.39a31.2,31.2,0,0,1,3.35,0,3.79,3.79,0,0,1,3.7,3.71,20.49,20.49,0,0,1-.54,7.14c-.19.77.34,1.1,1.09,1.06a11.87,11.87,0,0,1,1.88-.07c.91.09,1.17,1.76,2.23,1.21.8-.41,1.32-1.36,2-2s1.56-1.61,2.41-2.34c1.13-1,2.49-1.68,3.95-1s2,.22,2.76-.84a13,13,0,0,1,4.46-4.27,1.71,1.71,0,0,1,2.66,1.87,11.1,11.1,0,0,1-.81,2.24c-.55,1.15-1.18,2.27-1.77,3.39-.14.41-.52,1-.39,1.19.59.58,1.1.21,1.48-.38a3.36,3.36,0,0,1,.94-.08c.1,0,.25.52.18.59-1.11,1.09-2.25,2.15-3.36,3.19.53,1.17,1.44.65,2.14.79,1.72.33,3.47.51,5.16,1,1.43.37,1.84,1.52,1.45,3a4.94,4.94,0,0,1-3.41,3.69c-2.12.7-4.24,1.39-6.39,2-1,.27-1.92.57-2.12,1.65-.61,3.14-3.09,4.26-5.94,5.41a11.78,11.78,0,0,1,3.16,9.69c-.13,1.32.07,2.29,1.94,2.53,2.47.31,3.78,2.32,4.17,4.66.61,3.66-.32,7.32-.38,11,0,1.11-1,1.94-1.94,2.61-3.49,2.49-6.87,5.15-10.49,7.43-2.27,1.44-4.78,2.48-7.11,3.87a7.5,7.5,0,0,1-9.35-1.11,27.33,27.33,0,0,0-12.89-6.87,7.14,7.14,0,0,1-4.36-3.52c-.65-1.08-.87-2.44-2.3-3.42-4.21,1.12-8.64,2.33-13.09,3.47C82,70.54,77.08,71.76,72.12,73c-1.08.27-2.2.3-3.09,1.13-2.22,2.07-4.48,4.09-6.7,6.15a.87.87,0,0,0,.21,1.48c.91.3,1.86.5,2.75.85,2.89,1.17,5.37,1,7.77-1.38a10.08,10.08,0,0,1,6.07-2.6c2-.22,3.87-.26,4.81,2a1.25,1.25,0,0,0,1.6.66,16.1,16.1,0,0,1,5.22-.5c1.18.06,2.44.42,2.81,1.49.64,1.83,1.73,1.92,3.31,1.6a17.64,17.64,0,0,1,3.34-.2c1,0,2.18.17,2.51,1.07.69,1.87,2.12,1.59,3.52,1.61,1.59,0,3.2,0,4.78.11s2.24,1.51,1.33,2.68c-.74.95-1.89,1.65-1.28,3.16A2.52,2.52,0,0,1,110,93c-.75.22-1.55.3-2.61.49,1.62,1.65,3.1,3,4.44,4.56a1.69,1.69,0,0,1-1.15,2.85,10.18,10.18,0,0,1-3.31-.19,49.67,49.67,0,0,1-5.91-1.92c-1.3-.51-2.17-.92-3,.8a2.78,2.78,0,0,1-3.45.92c-2.39-.88-4.77-1.79-7.12-2.78-1-.4-1.62-.6-2.41.44-1.6,2.1-3.74,2.21-6,1-1.55-.81-3.07-1.7-4.54-2.64-1.07-.67-2-1.47-3-2.17a4,4,0,0,0-.92.48c-3.74,3.62-7,2.08-9.63-1.43a17.08,17.08,0,0,1-3.26-7.89c-.13-.94-1-1.17-1.76-.58s-1.24,1-1.85,1.52a1.53,1.53,0,0,0-.45,2.09c.29.57.6,1.13.85,1.71,1.24,3-.56,5.35-3.8,5.07a1.45,1.45,0,0,1-1.36-1.15c-.22-.91-.33-1.84-.47-2.71-1-.59-1.59,0-2.22.47-1.44,1-2.8,2.15-4.31,3-4.32,2.49-7,6.27-9.21,10.65-4.2,8.14-6.87,16.81-9.61,25.48-.14.46-.3.91-.45,1.36a.75.75,0,0,0-1.15-.13c1.38-5.39,2.74-10.79,4.5-16.08a59.42,59.42,0,0,0,1.58-7.43.89.89,0,0,0-.41-.77c-.39-.16-1-.33-1.27-.14a16.91,16.91,0,0,0-2.57,2.13,129.81,129.81,0,0,0-19.3,24.25c-.32.55-.52,1.16-1.2,1.36H3.58C3.9,132.61,5.49,130,7,127.4a88.25,88.25,0,0,1,22.61-25.75,27.76,27.76,0,0,0,6.5-6.91c2.12-3.18,4.67-6.06,7.07-9,.62-.78,1.26-1.48.47-2.5.36-.07.66.62,1.07.11l-1-.13c-.47,1.35-1.82,1.72-2.82,2.43A277.38,277.38,0,0,0,10.78,110c-3,2.85-5.72,6-8.57,9a6.8,6.8,0,0,1-1,1,1.07,1.07,0,0,1-.84.08.5.5,0,0,1-.2-.81c1.39-1.94,2.69-4,4.21-5.78A138.22,138.22,0,0,1,22.11,96.07c3.67-3.08,7.46-6,11.18-9a11.57,11.57,0,0,0,1.6-1.68c.11-.15-.07-.56-.17-.84s-.25-.33-.33-.3a10.06,10.06,0,0,0-1.82.54c-9,4-18,8.08-26.37,13.45C6.07,97.8,5.94,97.37,5.8,96.94Zm23.49,9.76c.43-.29.43-.63,0-.93,0,0-.36.27-.54.42a3.93,3.93,0,0,0-.74.52c-.33.35-.45.79.08,1a.87.87,0,0,0,.73-.25A2.86,2.86,0,0,0,29.29,106.7Zm14-15,.81-1.34a6.62,6.62,0,0,0,3.11-1.93.94.94,0,0,0,0-1.57c-.36-.28-.8-.46-1.19,0-.76,1-1.54,1.94-2.27,2.94-.05.06.31.41.47.62-1.21-.16-1.22-.14-.73,1.17l-.12-.12ZM88.27,40.45,88,40.36l-.12.17a7.32,7.32,0,0,1-5.7.54c-1,1.24-.4,2.34-.36,3.4a7.42,7.42,0,0,1-.51,3.71c-.78,1.59-1.79,3.16-3.72,3.3-1.68.12-2.3-1.41-3-2.63-.05-.07-.19-.09-.41-.19l-.95,1.58a19.1,19.1,0,0,1-1.2,2c-.37.49-.78.16-1.11-.19-.46-.84.13-1.47.43-2.17a16.12,16.12,0,0,0,1.4-7.34,1,1,0,0,0-.73-1c-1-.29-2.69.28-2.83,1a22.59,22.59,0,0,0-.57,8c.26,1.59,1.47,1.19,2.38,1.47.2.22.6.53.56.63-.91,1.94-2.28,2.33-3.71,1.25-.67-.51-.44-1.75-1.66-2-1,3-1.91,5.91-3,8.7s-2.64,5.62-3.9,8.26a1,1,0,0,0,1.51.23c4.52-2.36,9-4.83,13.56-7.1a8,8,0,0,0,3.32-3.31Q82.9,50,88.14,41.47a.55.55,0,0,0,.23-.89c.51-.12.92-.28.36-.85ZM69,69.23c-.83,0-1.6,0-1.92,1L66,70.64c.11.08.21.23.33.24.45.05.87,0,.92-.57.91.17,1.63,0,1.86-1l.14-.32ZM36.46,83.14c-.58.22-1.21.75-1,1.21s1,.36,1.52,0a15.22,15.22,0,0,0,1.5-1c.2-.17.25-.53.37-.81-.27,0-.57-.21-.79-.13C37.51,82.57,37,82.88,36.46,83.14ZM84,18.84a7.66,7.66,0,0,0-3.3,1.82,20.68,20.68,0,0,0-2.28,2.4,1.52,1.52,0,0,0,.4,2.41c.8.58,1.24,0,1.56-.42,1.46-1.83,3.47-3.25,4.16-5.65.38-.08.83-.23.49-.69S84.28,18.61,84,18.84ZM99,86.75c-3.71-.71-6.91.89-10.49,2.08,2.39,1.48,4.33,1.44,6.38,0a30.07,30.07,0,0,1,4.18-2.17l-.22-.09ZM128.13,62a10.19,10.19,0,0,0,6.72,1.68A3.05,3.05,0,0,0,137.71,60c0-.39-.45-.78-.76-1.09s-.45,0-.71.28a6.24,6.24,0,0,1-5.88,2.42A9.55,9.55,0,0,0,128,62a1.38,1.38,0,0,0,.17-.45c0-2.34-2.11-3.35-3.27-4.95-.13-.18-.92,0-1.33.17a3,3,0,0,0,.8,5.74C125.74,62.77,126.85,62,128.13,62Zm3.52-32c.32.43.56.19.79-.1,1.62-1,3.21-2,4.86-3a5.16,5.16,0,0,0,2.53-3.27c.44-1.52.89-3,1.26-4.57.13-.52.44-1.22-.74-1.59C136.72,21,133.49,25,131.65,29.94ZM111.4,42.72c5-3.25,5-3.25,7.11-8.9.4-1,.78-2.09,1.12-3.15a2.15,2.15,0,0,0-.07-1.91,4.66,4.66,0,0,0-1.13.79,61.42,61.42,0,0,0-7.16,11.83,1.12,1.12,0,0,0,.3,1.27l-.18-.15ZM83.58,56.91c1.36,0,2.4-.82,3.51-1.38,1.68-.86,4-1.12,4.84-2.8.68-1.27.24-3.11.39-4.68.11-1.11.4-2.19.54-3.3.09-.73.45-1.51-.32-2.33-2.34,1.7-4.66,3.29-5.84,6.2-1.07,2.65-2.56,5.12-3.86,7.67-.19.34-.66.71-.22,1.06S83.41,57.39,83.58,56.91Zm61.22-3c.31-.3.31-.58,0-.66-.17,0-.55.17-.55.26,0,.34.28.45.66.34-.28,1.7,1.17,3.32.08,5.09s-2.84,1.87-4.41,2.54c-1.21.51-1.4,1.24-.82,2.67,1.62,4,1.48,4.51-2.05,7.06-.26.18-.57.29-.81.49a.47.47,0,0,0-.1.44c.18.19.46.49.64.45a3.93,3.93,0,0,0,1.77-.61,47.22,47.22,0,0,1,6.12-4.5,2.82,2.82,0,0,0,1.12-2.5c.1-1.74.31-3.48.46-5.22a10.14,10.14,0,0,0-.32-4.71C146.28,54.36,145.81,53.65,144.8,53.94ZM107.48,6.72C97.09,15,91.66,25.93,93.54,34.64c4.6-5.43,10.51-8.89,16-12.9a6.36,6.36,0,0,1,1.71-.8c.1,0,.51.42.53.67.09.9-.58,1.43-1.18,1.94-3.29,2.78-6.6,5.53-9.88,8.32a4.45,4.45,0,0,0-.73,1.18c1,.91.84,2.47,2,3.24a65.5,65.5,0,0,1,4.2-5.54c2.78-3,4.71-2.52,6.58,1.58.9-1.24,1.7-2.42,2.59-3.53A24.58,24.58,0,0,1,117.94,26c1.3-1.2,2.8-1.58,4.29-.31.86.74,1.45.44,1.87-.35s1.65-1.18,1-2.37a2.21,2.21,0,0,0-.9-.09,6.94,6.94,0,0,1-6.81-.62c-1.39-.9-3-1.82-4.92-1.07a.61.61,0,0,1-.78-.75c.3-1-.4-1.48-.89-2A13.5,13.5,0,0,1,107.48,6.72Zm5.09,43.54c2.39,3.72,2.38,3.71.11,8a2.71,2.71,0,0,0-.37,1.32c.18,3.05,3.19,6.23,6.34,6a14.62,14.62,0,0,1,10.7,3,8.42,8.42,0,0,0,1.71.82,6.17,6.17,0,0,0,5.52-.43,2.7,2.7,0,0,0,1.67-2.67c0-.55,0-1.51-.95-1-2.92,1.45-5.57.9-8-.94a2.43,2.43,0,0,0-2.63-.28,6.61,6.61,0,0,1-2.32.46c-3.66,0-5.7-3.06-4.62-6.52.44-1.41,1.89-2.13,2.1-3.62-1.55-.61-3-1.36-3.12-3.25-.13-1.61-1.06-1.7-2.32-1.44S113.87,50,112.57,50.26ZM74.44,68.94a4.18,4.18,0,0,0,1.14.09q11.67-2.69,23.33-5.4a3,3,0,0,0,2.27-3.14c0-1.22-1.06-1.37-2-1.68-1.36-.47-2.73-.93-4-1.52a3.38,3.38,0,0,0-3.18.14c-4.28,2.15-8.6,4.22-12.9,6.33A10.39,10.39,0,0,0,74.44,68.94Zm28.08-6.33A8.39,8.39,0,0,0,108.38,71a24.71,24.71,0,0,0,2.77.76A15.69,15.69,0,0,1,119,76.08a11.85,11.85,0,0,0,4.3,3,5.59,5.59,0,0,0,5.07-.32c1.76-1.07,3.46-2.25,5.17-3.4a.45.45,0,0,0,.05-.44c-.15-.22-.43-.59-.58-.56a12.75,12.75,0,0,0-1.76.63c-5.82,2.37-8,1.94-12.3-2.55-2-2.09-4.14-4.09-7.17-4.48-2.51-.32-3.51-2-4.09-4.09-.21-.77-.28-1.57-.46-2.35-.35-1.48-.94-1.77-2.87-1.66-1.22.07-1.62.8-1.74,1.85C102.61,62,102.56,62.29,102.52,62.61ZM122.7,8.87c-.85.08-1.81.11-2.74.28a1.66,1.66,0,0,0-1.53,1.58,29,29,0,0,0,.93,8c.45,1.38,3.94,2.3,4.94,1.4a1.59,1.59,0,0,0,.39-.8q.65-2.52,1.24-5.06a22.32,22.32,0,0,0,.53-2.78,2.06,2.06,0,0,0-1.77-2.41C124.07,8.94,123.43,8.94,122.7,8.87Zm17.68,50.48c3.05-1.56,3.13-1.61,1.75-4.21a12.09,12.09,0,0,1-1.53-8.27,7,7,0,0,0-.45-3.77c-.6-1.61-1.79-3-3.36-3.05-1.91,0-4.08.15-5.76,1.92a16,16,0,0,0,1.93.81c3.84,1,5.35,3.73,5.33,7.51,0,.64,0,1.28-.07,1.92A11.34,11.34,0,0,0,140.38,59.35ZM116,18.28c0-4.48.07-8.41,0-12.33,0-1.43-.54-3.19-2.09-3.37s-2.42,1.28-3.09,2.59a6.79,6.79,0,0,0-.44,1.34C109.06,11.34,110.7,15,116,18.28Zm-6.75,14.36a20.74,20.74,0,0,0-7.38,14.75A2.82,2.82,0,0,0,105,45.8C106.48,41.64,108.94,37.78,109.26,32.64Zm1.64,21.93c-1.23-1.64-3.08-2.29-4.69-3.27a2.18,2.18,0,0,0-2.27,0c-1.82,1-3.64,2-5.43,3-.21.12-.31.51-.39.79s.12.51.52.61a20.54,20.54,0,0,0,7.54.94C107.91,56.4,109.66,56.19,110.9,54.57ZM60.05,85a19.82,19.82,0,0,0,4.7,7.65,2.31,2.31,0,0,0,.79.52,2.75,2.75,0,0,0,2.31.1c1-.49.46-1.36.31-2.08-.71-3.39-2.35-5.82-6.2-5.94C61.66,85.22,61.36,85.15,60.05,85Zm58.83-16.45c.67,1.74,2,2.6,3.06,3.71a5,5,0,0,0,3.69,1.86c1.8,0,3.62.06,5-1.56-1.87-1.16-3.59-2.23-5.31-3.32A7.45,7.45,0,0,0,118.88,68.53Zm17-14.9a12.58,12.58,0,0,0,.4-4.19,4.81,4.81,0,0,0-3.61-4.94,1.86,1.86,0,0,0-1.37,0c-.66.45-.31,1.07.08,1.58.92,1.19.47,2.45,0,3.6-1,2.76-.81,3.13,2.18,3.62C134.3,53.4,135,53.85,135.83,53.63ZM122,35.81c3.58-1.15,5.8-2.8,6-6.33a8.24,8.24,0,0,1,.93-2.19c.5-1.3,1-2.62,1.65-4.5C126.91,26,124.6,29.55,122,35.81ZM64.8,39.48a24.15,24.15,0,0,0-3.55,5.4,8.48,8.48,0,0,0-1,4.14c0,.46.09,1,.64,1.09a1.86,1.86,0,0,0,1.29-.35c2-1.74,2.93-4.15,4.08-6.42C67.26,41.43,67.24,41.42,64.8,39.48Zm15.07,5.67c-.36-1.77-.16-3.57-.92-5.21-.39-.83-.48-2.2-1.57-2.09-.78.07-1.58,1-2.13,1.75a2.47,2.47,0,0,0-.15,1.81c.46,1.84,1.05,3.65,1.58,5.48.23.82.62,1.61,1.55,1.39.49-.12.94-.8,1.21-1.34A7.31,7.31,0,0,0,79.87,45.15ZM63.57,32.62c.24-.16.57-.27.7-.49.67-1.1,1.36-2.22.62-3.56a9.26,9.26,0,0,0-4.31-4.3,2.25,2.25,0,0,0-1.8.05,1.71,1.71,0,0,0-.69,2.08,10.49,10.49,0,0,0,5,6.12A1.35,1.35,0,0,0,63.57,32.62ZM62.92,75.2c-8.38,1.47-8.48,1.51-10.24,4.09,4.36,1.53,4.37,1.54,7.47-1.07C61.09,77.43,62.25,76.82,62.92,75.2ZM56.71,40.33c2.51.1,4.54-.79,6.61-1.53.73-.27.74-.9.56-1.55-.41-1.47-.9-1.83-2.3-1.77a10.65,10.65,0,0,0-5.74,1.91c-.73.5-1.76,1-1.37,2.08.3.87,1.22.84,2,.86Zm56.83,6c4.72-1.06,8.63-.87,13.31-2.93C121.76,42.93,117.72,41.91,113.54,46.29ZM98.66,36.61a18,18,0,0,0-3.37,7.84,32.6,32.6,0,0,0-.45,5.69c0,.4.16,1,.75.92a1.55,1.55,0,0,0,1.53-.91c0-.15.18-.31.15-.44-.5-2.3.54-4.36,1-6.5A16.3,16.3,0,0,0,98.66,36.61Zm-16.6,59c-1.53-4.37-4.17-6.83-8.94-6.92C76.25,92.82,78.07,94.23,82.06,95.59ZM72.41,23.82a2.16,2.16,0,0,0,2.06-.92,18.46,18.46,0,0,0,2.15-6.76.86.86,0,0,0-.51-.64,1.14,1.14,0,0,0-.88.17c-2.35,1.92-3.23,4.63-3.8,7.45C71.34,23.58,71.84,23.9,72.41,23.82Zm62.64,33.1c-.18-.26-.35-.75-.7-1-1.92-1.25-4.25-.91-6.36-1.47-.51-.14-.57.69-.42,1.09a6.36,6.36,0,0,0,3.48,3.71A3,3,0,0,0,135.05,56.92ZM99.3,91.09l5.48.43c2.3.17,3.84-1,5.22-2.83a9,9,0,0,0-4.87,0,56.13,56.13,0,0,0-5.47,1.5C99.28,90.27,99.14,90.53,99.3,91.09Zm39.44-57c-2-.15-3.1,0-4-.37-1.74-.83-3-.32-4.3.78-1.08.92-2.52,1.41-3.64,3.22C130.86,36.76,134.53,36.32,138.74,34.11ZM85.51,38.26a1.93,1.93,0,0,0,1.62-1.21c.16-.55-.45-1.12-1-1.41-1.7-.82-3.39-1.65-5.11-2.42a.86.86,0,0,0-1.17.45A1.5,1.5,0,0,0,79.87,35a37,37,0,0,0,3.18,2.8A2.84,2.84,0,0,0,85.51,38.26Zm.43-13.13C83,24.86,82.08,27,80.64,28.3c-.43.39.09,1.35.7,1.39a7.93,7.93,0,0,0,5.32-1.44c.74-.52.68-1.36.58-2.14C87.1,25,86.21,25.16,85.94,25.13ZM80.57,86.75c1.74,1.14,3,1.24,4.78,0,2.5-1.67,2.67-1.42,3.72-3C86.12,84.69,83.07,84.67,80.57,86.75Zm59-58c4.38,0,6.72-.59,8.69-2.33C145,25.76,141.69,24.9,139.56,28.73Zm-44.82,68c0-.12.09-.26.05-.36-1.05-2.81-3.29-3.55-6-3.43-.23,0-.48.27-.66.47a.48.48,0,0,0,0,.45C89.36,95.23,91.9,96.33,94.74,96.77Zm48.84-74.19a3.45,3.45,0,0,0,2.26-1.65c.75-1.58,1.37-3.22,2-4.86.07-.19-.21-.53-.38-.76,0-.05-.34,0-.45.1a13.74,13.74,0,0,0-4.08,6.28c-.08.22.16.56.3.82C143.24,22.58,143.45,22.56,143.58,22.58ZM123.1,51.93c.5-.11,1-.09,1.06-.25a28.76,28.76,0,0,0,1.1-3,1.52,1.52,0,0,0-.76-.39,4.17,4.17,0,0,0-3,1,1.25,1.25,0,0,0,.12,2A12.61,12.61,0,0,0,123.1,51.93ZM79.25,81.68a10.86,10.86,0,0,0-5.44,2.12.46.46,0,0,0-.12.77c.2.2.61.44.81.37A13.94,13.94,0,0,0,79.25,81.68Zm49.28-29.89c.17,0,.45,0,.47-.1.37-1.32.74-2.66,1-4,0-.09-.47-.4-.75-.45-1.09-.16-1.79.44-2.29,1.91-.33,1-.39,1.88.63,2.48A2.66,2.66,0,0,0,128.53,51.79ZM112.2,64.92c-.52-1.38-1.08-2.81-1.58-4.26-.24-.68-.6-1.17-1.29-.78a1.34,1.34,0,0,0-.37,1.23c.48,1.45.44,3.18,2,4.13a1.55,1.55,0,0,0,.89.07C111.93,65.3,112,65.1,112.2,64.92ZM99.88,93.8c.81,1.55,2.08,1.5,3,2a1.42,1.42,0,0,0,1.75.08c.36-.32-.26-1.38-1-1.81C102.47,93.42,101.24,93.61,99.88,93.8ZM88.05,32.45c-.09-.66-.4-1.21-1.18-1a1.86,1.86,0,0,0-1.09.78c-.24.43.86,1.31,1.61,1.26C88,33.43,88.08,33,88.05,32.45ZM52,83.06c-.69.17-1,.59-.72,1a1.47,1.47,0,0,0,1.12.51.61.61,0,0,0,.58-.93C52.77,83.33,52.26,83.21,52,83.06ZM87.19,22l-.42-.67c-.15.23-.4.46-.41.7s.25.47.39.7Zm61.11-7.51c.1-.11.29-.2.29-.31s-.17-.22-.26-.33l-.33.46ZM86.92,92.58l-.22.28.36,0Z"/><path d="M22.32,132.4a.75.75,0,0,1,1.15.13,10.16,10.16,0,0,1-2.34,5.66Z"/><path d="M5.8,96.94c.14.43.27.86.4,1.29-.09.13-.15.32-.27.36-.4.14-.93.43-1.22.28-.53-.27-.2-.8.07-1.13A6.33,6.33,0,0,1,5.8,96.94Z"/><path d="M3.65,135.72c0,.45,0,.89,0,1.33a.47.47,0,0,1-.25.36c-.07,0-.33-.13-.34-.22-.07-.56-.43-1.25.51-1.46Z"/><path d="M2.86,100l.49-.6.31.43-.74.22Z"/><path d="M2.92,100.05l-.41.41.35-.46Z"/><path d="M88.05,32.45c0,.53-.09,1-.66,1-.75.05-1.85-.83-1.61-1.26a1.86,1.86,0,0,1,1.09-.78C87.65,31.24,88,31.79,88.05,32.45Z"/><path d="M36.46,83.14c.54-.26,1-.57,1.61-.78.22-.08.52.08.79.13-.12.28-.17.64-.37.81a15.22,15.22,0,0,1-1.5,1C36.81,83.93,36.64,83.54,36.46,83.14Z"/><path d="M52,83.06c.27.15.78.27,1,.59a.61.61,0,0,1-.58.93,1.47,1.47,0,0,1-1.12-.51C51,83.65,51.3,83.23,52,83.06Z"/><path d="M131.65,29.94a.59.59,0,0,1,.81-.1C132.21,30.13,132,30.37,131.65,29.94Z"/><path d="M67.12,70.21c.32-1,1.09-1,1.92-1l0,0c-.23,1-1,1.22-1.86,1Z"/><path d="M67.22,70.31c0,.6-.47.62-.92.57-.12,0-.22-.16-.33-.24l1.15-.43Z"/><path d="M87.19,22c-.15.24-.3.48-.44.72-.14-.23-.4-.47-.39-.7s.26-.47.41-.7Z"/><path d="M88.14,41.47c-.08-.31-.16-.63-.23-.94a1.92,1.92,0,0,0,.13-.17l.23.09.1.13A.55.55,0,0,1,88.14,41.47Z"/><path d="M69,69.23l.18-.29a3.09,3.09,0,0,1-.14.32Z"/><path d="M28.79,106.19c.18-.15.49-.46.54-.42.39.3.39.64,0,.93A2.68,2.68,0,0,1,28.79,106.19Z"/><path d="M88.27,40.45l.46-.72c.56.57.15.73-.36.85Z"/></svg>