<svg id="Layer_1" data-name="Layer 1" xmlns="http://www.w3.org/2000/svg" viewBox="0 0 740.09 742.76"><defs><style>.cls-1{fill:none;}.cls-2{fill:#ff5e47;}.cls-3{fill:#1a2952;}.cls-4{fill:#1b2a52;}.cls-5{fill:#24325a;}.cls-6{fill:#202f57;}.cls-7{fill:#1f2e56;}.cls-8{fill:#29375e;}.cls-9{fill:#303e63;}.cls-10{fill:#3f4b6e;}.cls-11{fill:#445071;}.cls-12{fill:#455173;}.cls-13{fill:#233159;}.cls-14{fill:#576381;}.cls-15{fill:#4a5677;}.cls-16{fill:#4c5878;}.cls-17{fill:#2c395f;}.cls-18{fill:#394669;}.cls-19{fill:#4a5676;}.cls-20{fill:#475374;}.cls-21{fill:#5b6684;}.cls-22{fill:#25345b;}.cls-23{fill:#707a93;}.cls-24{fill:#26355b;}.cls-25{fill:#223158;}.cls-26{fill:#202e56;}.cls-27{fill:#212f57;}.cls-28{fill:#27355b;}.cls-29{fill:#5e6886;}.cls-30{fill:#626c88;}.cls-31{fill:#5c6784;}.cls-32{fill:#545f7e;}.cls-33{fill:#25335b;}.cls-34{fill:#223159;}.cls-35{fill:#28365c;}.cls-36{fill:#2b395f;}.cls-37{fill:#27345b;}.cls-38{fill:#364367;}.cls-39{fill:#25345a;}.cls-40{fill:#25335a;}.cls-41{fill:#2d3b60;}.cls-42{fill:#838ba2;}.cls-43{fill:#828ba1;}.cls-44{fill:#7a829a;}.cls-45{fill:#303d62;}.cls-46{fill:#606b87;}.cls-47{fill:#1b2a53;}.cls-48{fill:#737c96;}.cls-49{fill:#707992;}.cls-50{fill:#1a2a53;}.cls-51{fill:#ff9e90;}.cls-52{fill:#1d2c55;}.cls-53{fill:#485475;}.cls-54{fill:#1d2d55;}.cls-55{fill:#9399ad;}.cls-56{fill:#79819a;}.cls-57{fill:#24335a;}.cls-58{fill:#535e7d;}.cls-59{fill:#ff5f44;}.cls-60{fill:#ffa092;}.cls-61{fill:#a0a6b8;}.cls-62{fill:#adb2c1;}.cls-63{fill:#6c7590;}.cls-64{fill:#778097;}.cls-65{fill:#7e869e;}.cls-66{fill:#1c2b54;}</style></defs><path class="cls-1" d="M470.19,325.05a1,1,0,0,0-.17.1,1.66,1.66,0,0,0,.06-.21h0Z"/><path class="cls-1" d="M463.37,257.28v0l0-.05h0Z"/><path class="cls-1" d="M463.42,257.38l0,0,0,0Z"/><path class="cls-1" d="M303.55,154l-.38.55h0A1.77,1.77,0,0,1,303.55,154Z"/><path class="cls-1" d="M476.76,313.27a5.48,5.48,0,0,1,1.46.35,5.72,5.72,0,0,0-.81.25A3.73,3.73,0,0,0,476.76,313.27Z"/><path class="cls-1" d="M463.42,257.35h0Z"/><path class="cls-2" d="M469,325.16a10.47,10.47,0,0,0-3.91,1.08,29.57,29.57,0,0,1-.68,6.47c-1.86,8.54-3.61,17.11-5.52,25.64q-4.07,18.12-8.33,36.21c-3.89,16.54-7.12,33.23-12.54,49.41-2.11,6.27-3.09,13-4.09,19.54-.77,5.13-1.73,10.25-2,15.48-.71,13.5,1.89,26.6,4.47,39.68,1.11,5.58,1.87,11.29,4.12,16.59,4.2,9.9,7.42,20.24,13.55,29.27a8.5,8.5,0,0,0,6.47,4.14c13.55,1.73,27.09,3.44,40.79,3.33,4.63,0,9.16-.86,13.73-1.37,3.77-.42,4.23-.25,5.71,3.25,1.26,3,1.44,6.22,1.65,9.37.79,12,.25,23.85-2.74,35.57-3.15,12.36-3,24.92-1.47,37.48.51,4.11,1.47,8.15,1.95,12.26,1,8.67,4.51,16.54,7.65,24.53a27.11,27.11,0,0,0,4.44,7.34c4,4.79,9.31,5.12,13.61.58,4.8-5,6.93-11.32,7.42-18.2A41.66,41.66,0,0,0,552,671c-2.72-12.61-1.76-24.88,2.13-37.2,6.06-19.16,16.89-35.21,30.74-49.44,9.25-9.51,17.69-19.64,24.48-31.1,4.47-7.55,6.61-15.84,8-24.36a20.63,20.63,0,0,0-1.77-12.59,3.43,3.43,0,0,1-.17-3.49c7-14.74,6.18-29.39-1.89-43.33-7.72-13.32-19-22.41-34.36-25.86a18.19,18.19,0,0,1-2.25-.79c-4-1.45-4-1.45-3.07-5.34,1.26-5.49,1.06-11,.62-16.57A62.46,62.46,0,0,0,553,378a53.07,53.07,0,0,0-19.28-11c-7.16-2.3-14.12-1.65-21.15-.05-7.27,1.67-14.55,3.34-21.34,6.58a2.92,2.92,0,0,1-2.4.25c-1.11-1.41-1-3.31-1.07-4.93-.81-11.88-2.94-23.65-2.62-35.64.14-5.36-1.51-10.63-2.78-15.86h0c-1.17-1.55-2.35-3.1-4.17-3.77a5.72,5.72,0,0,0-.81.25,4.83,4.83,0,0,1,1,3.2c0,7.14,1.54,14.22,1,21.4a36.2,36.2,0,0,0,.23,6.15c.94,9.63,2.08,19.25,3.65,28.8.31,1.92.33,3.49-1.48,5.06-10.57,9.17-20.28,19.16-28,30.94-.89,1.41-.89,3.34-2.77,4.44a9.48,9.48,0,0,1,1.62-6.62h0a14.77,14.77,0,0,1,.14-1.9c2.95-13.26,5.58-26.58,9.37-39.65a290.06,290.06,0,0,0,8.09-37.45l-1.14-1.08h0c-.25-.09-.66-.13-.7-.28-.17-.51.22-.66.62-.74,0-.33,0-.65,0-1Zm138.86,176.2a46.09,46.09,0,0,0-6.7-14.6c-2.25-3.45-5.43-6.31-6.85-10.35.57,8.68,2.26,17.45-2.24,25.7-.1-4.54-.21-9.05-.55-13.54-.41-5.19-.81-10.43-3.82-15h0c-.06.66-.28,1.44-1.05,1.18-4.5-1.52-9-3.13-13.43-4.73a5.24,5.24,0,0,1-2.08-1.89c-7-8.48-8.64-18.49-8.24-29.06.06-1.6.78-2.91,2.6-2.69a3,3,0,0,1,2.74,2.82,12.43,12.43,0,0,1-.52,2.3c-.22,1.74,0,3.17,2.26,3.36a28.63,28.63,0,0,1,3.21.84c5.88,1.21,11.35,3.62,17,5.61a9.52,9.52,0,0,1,3.57,2.3,16.53,16.53,0,0,0,4.49,3.5c6.58,3,8.85,9.77,13,14.87.51.63.26,1.84.46,2.77,1,4.48.61,9.15,1.82,13.62,1.26,4.69,1.43,9.4-1.24,13.71-.75,1.22.16,3.94-2.17,3.57C608.22,505.38,608.27,503,607.89,501.36ZM528.94,609.42c1.17-12.28,1.18-24.48-1.33-36.6-.79-3.83-.79-3.86,3.08-4.5A153.11,153.11,0,0,0,587,547.27a37.7,37.7,0,0,0,6.23-5.13,215.93,215.93,0,0,0,14.67-16.21,10.16,10.16,0,0,1,.65,6.35c-1,4.68-1.92,9.38-4,13.73a127.08,127.08,0,0,1-21.24,32.16c-6.12,6.71-12.73,13.05-18.21,20.24-7.86,10.31-13.23,22.14-17.45,34.35a82,82,0,0,0-3.9,18.14,106.34,106.34,0,0,0,.38,21.47c.5,5.06,1.17,10.12-.16,15.2-.59,2.28-.31,5.06-3.31,5.68-3.36.71-4.08-2.36-5.47-4.37a9.74,9.74,0,0,1-.93-1.67,104.1,104.1,0,0,1-8.84-36C524.74,637.15,527.62,623.35,528.94,609.42ZM502.16,375.26c.37-.34.68-.88,1.06-.93,5.33-.71,10.27-2.89,15.68-3.6s10.63-.63,15.37,1.42c8.53,3.69,16.13,8.54,22.27,16.15,6.64,8.24,9.7,17.65,12.73,27.31.35,1.1.61,2.4-.56,3a3.32,3.32,0,0,1-4-.47c-.53-.53-.65-1.46-1.14-2-1.18-1.38-2.5-1.08-3.71,0a2.86,2.86,0,0,0-.77,2.66c.45,3.39-.78,6.6-1.11,9.9a16.62,16.62,0,0,1-1.93,6.83c-1,1.77-2.53,3.3-4.63,2.42-2.86-1.19-5.83-2.13-8-4.89-2.32-3-4.22-6.55-8.25-9,.7,2.29.92,3.95,2.15,5.33,1.69,1.89,3.27,3.88,4.83,5.88,4.88,6.23,9,7.61,16.19,5.17,1,1.39.59,2.7.7,3.94.6,6.81,1.44,13.55,4.78,19.72.79,1.46,2.54,3.09,1.43,4.75s-3.52.75-5.35.81a15.27,15.27,0,0,1-2.76-.69c-1.57-.26-3.25-.55-4.67.32-2.62,1.59-4.48.52-6.28-1.38s-3.47-3.75-5.93-4.71c-1.38-.54-1.6-1.39-1.57-2.94.07-2.77,0-5.78-2.53-7.77-1-.82-.92-1.92-1-3-.62-5.34-1.31-10.66-1.92-16A165.26,165.26,0,0,0,530,416.2,82.55,82.55,0,0,0,527,405.28c-2.89-7.74-9.4-13.12-12.56-20.59-.21-.51-.94-.82-1.47-1.16-2.26-1.47-4.5-3-6.82-4.36C504.51,378.19,502.9,377.24,502.16,375.26Zm-49.91,75.32a1.89,1.89,0,0,1,2.1-.78,1.86,1.86,0,0,1,1.21,1.88c0,.8-.15,1.59-.25,2.37a253.5,253.5,0,0,0-2.18,48.63,28.77,28.77,0,0,1-.43,8.46c-3-4.49-3.47-8.63-4.18-12.66-2.48-14.17-1.69-28.24,1.37-42.23A12.59,12.59,0,0,1,452.25,450.58Z"/><path class="cls-3" d="M470.08,324.93c0-.17.05-.34.07-.51,0,.17,0,.34-.07.51Z"/><path class="cls-3" d="M460.62,322.14c-.07.48-.13.95-.19,1.43,1,1.92,3,2.06,4.69,2.67.69-1.62,1.94-2,3.52-1.57a1.5,1.5,0,0,1,.52.41l1-.66-.11-.24a1,1,0,0,1,.88-1h0l1.05-.83v0h0a.85.85,0,0,1,.16-.89h0a5.81,5.81,0,0,1,1.72-3,1.39,1.39,0,0,1,.8-1.19h0c0-.72.14-1.41,1-1.65.23-.85.15-1.84,1.09-2.36a5.48,5.48,0,0,1,1.46.35c2.76-.69,3.85,1,4.17,3.77h0c7.55,4.25,10.22,2.75,10.73-5.94a45.16,45.16,0,0,1,1-8.05c2.12-8.76,2-17.68,2.2-26.59a133.1,133.1,0,0,1,7-40.27c2.46-7.22,4.65-14.54,6.93-21.82a6.73,6.73,0,0,1,1.36-2.83A199.15,199.15,0,0,0,529.14,222a16.41,16.41,0,0,0,13.37,1.36c-.33-.41-.62-1.05-.89-1-7,.18-12.18-4.2-17.68-7.55-3.26-2-6.2-4.49-9.75-6-1.6-.67-2.2-1.69-1.77-3.36a5.37,5.37,0,0,1,.22-.92c3.55-6.92,1-12.93-2.71-18.8-2.38-3.76-4.6-7.63-7-11.36-9-13.76-16-28.58-23.16-43.33-3.61-7.45-7.62-14.68-11.6-21.93-.93.34-.7,1.25-.95,1.93,2.37,7.09,4.54,14.24,8,20.92a176.21,176.21,0,0,1,7.68,17.47c5.77,15,13.79,28.69,22.83,41.82,3,4.42,3.34,8.76,1.81,13.53-1.32,4.09-2.51,8.24-4.18,12.19-5.67,13.49-8.5,27.63-10.25,42.07q-1.26,10.44-1.74,20.93c-.08,1.82-.33,3-2.49,3.18-2.65.24-4.16,2.07-5.18,4.4a20.73,20.73,0,0,0-2.06,8.28c0,4.05,0,8.1-.39,12.21-2.34-2.9-4.45-5.71-4.47-9.6a55.07,55.07,0,0,0-4.81-21.77c-1.83-4.23-3.76-8.41-5.65-12.62a9.71,9.71,0,0,1-2.85-6.62l0,0h0v0l0-.05c-.84-.34-.9-1.09-.91-1.86h0a1.07,1.07,0,0,1-.95-1h0l-1-1.89c-.27-.67-1-1.15-.85-2-4.9-7.46-8.58-15.59-12.87-23.39a233.84,233.84,0,0,0-14.15-22.1,62.81,62.81,0,0,1-9.55-21.19c-.22-.88-.93-1.94.16-2.57,2.6-1.53,3.48-4.2,4.39-7.07,2.74,1.68,5,3.09,7.33,4.51a40.55,40.55,0,0,0,10,4.49c4,1.19,3.9,1.13,3.41,5-1.83,14.36,1,27.23,12.14,37.39.92.84,1.42,1.5,1,2.82-2.39,7.31-2,14.74-.78,22.19.91.36.79,1.19.87,1.92a2,2,0,0,1,.86,1.9c0,.32,0,.64,0,1h0a1.78,1.78,0,0,1,.92,1.88l.05,0,0,0,0,0v.06h0c.88.47,1.09,1.44,1.6,2.18,1.3,1.93,1-.21,1.42-.55a19.78,19.78,0,0,0-.53-4.25c-2.56-7.43-2.5-15-1.51-22.67.18-1.38-.49-3.37,2-3.64,1.17-.13,1-1.16.56-1.81a38,38,0,0,0-3-4.31c-9.7-11.68-12.55-25.16-10.06-39.82.44-2.6.05-3.49-2.23-4a13.32,13.32,0,0,0-1.37-.39c-12.85-1.4-21.24-9.21-28-19.39a8.49,8.49,0,0,1-1.44-6.28,120,120,0,0,1,4-17.68c.27-.91.57-1.82.85-2.74.4-1.31.42-2.54-.89-3.38s-2.44-.15-3.43.71a17.48,17.48,0,0,0-3.1,4.22c-6.17,10.07-6.61,21.09-5.27,32.37,1.87,15.62,7.54,29.72,15.94,43.05,11.79,18.72,23.34,37.63,33.25,57.45,4.13,8.25,8.18,16.68,9.18,26,.8,7.38,1.85,14.87-.45,22.24.08.94.16,2.2-1,2.21s-.42-1.51-.92-2.19h-.86c.7,4.19-1.7,6-5.3,6.89Zm-38-149a10.59,10.59,0,0,0-.47,2.8c0,.62,0,1.24,0,1.86s.41,1.16-.5,1.23a9.09,9.09,0,0,1-.24-1.21h0l-.12-1.84a17.47,17.47,0,0,1-.91-9.25C422.8,168.67,423.76,170.53,422.58,173.16Zm61.58,135a61,61,0,0,0,.09-9.07,21.54,21.54,0,0,1,1.38-7.47c.85-2.49,2.41-4.09,5.54-3.8,0,2.95-2.55,26.38-3.06,27.65C485.21,313.82,483.68,311.75,484.16,308.15Z"/><path class="cls-3" d="M463.36,257.27h0Z"/><path class="cls-3" d="M478.22,313.62c2.76-.69,3.85,1,4.17,3.77C481.22,315.84,480,314.29,478.22,313.62Z"/><path class="cls-3" d="M468.64,324.67a1.5,1.5,0,0,1,.52.41.57.57,0,0,0-.13.08h0a10.47,10.47,0,0,0-3.91,1.08C465.81,324.62,467.06,324.27,468.64,324.67Z"/><path class="cls-3" d="M40.42,58.52c5.25.12,10.51.43,15.76.55,22.62.51,45.25.32,67.87.51,19.29.16,38.56-.12,57.84-.15,6.38,0,12.78.08,19.12-.42,15.4-1.22,30.75-2.37,46.26-2.14,16.86.25,33.74-1.52,50.64-.94,13.53.47,27.08-.31,40.6.57,5.09.33,10.19.56,15.26,1,11.9,1.09,23.77,2.31,35.14,6.38,4.94,1.76,9.92,3.46,15,4.79,21.08,5.54,41.46,13.48,62.79,18.15,2.54.56,4.11,2,4.41,5.33-5.79-1.65-11.33-2.93-16.67-4.79-19.53-6.79-39.28-12.9-59.1-18.8-5.63-1.67-11.23-3.16-17.33-2.51-4.55.49-9.23-.07-13.83-.43-12.08-.94-24.18-1.82-36.27-1.57-21.51.44-43-.61-64.52.81-14.32.94-28.69-.63-43,.48A318.42,318.42,0,0,1,186,66c-29-.91-58-1.18-87-1.68C80.17,64,61.4,62.82,42.68,61c-2.21-.22-4.58-.24-7.18-1.52C37.33,58,39,58.48,40.42,58.52Z"/><path class="cls-3" d="M610.24,235.83c4.28-5,4.23-8.17-.53-12.73a44.93,44.93,0,0,0-11.57-7.51c-2-1-3.93-2-6.38-3.22,1.61-1.15,2.88-1.93,4-2.88,4-3.46,4.44-7,1.34-11.3a17.23,17.23,0,0,0-7-5.64,116.53,116.53,0,0,1-20.46-12.25c-14.25-10.45-28.7-20.65-42.49-31.72a334.89,334.89,0,0,1-43.27-41.76A96.23,96.23,0,0,1,476.3,97,25.23,25.23,0,0,0,474,94c-.61-.66-1.41-1.5-2.41-.56-.75.7-.23,1.42.18,2.12a110,110,0,0,0,9.35,13.26c15.68,19.48,34.14,36.05,53.85,51.29q14.17,11,28.44,21.8c1.81,1.37,2.88,2.74,2.49,5.13s.52,4.72,1,7.05h0c.62.3.92.86.6,1.42s-.65.25-.77-.26a52.55,52.55,0,0,1-9.09-6.07c-21.48-16.7-42.71-33.72-61.3-53.69-9.75-10.47-19.43-21-27.15-33.18a1.92,1.92,0,0,0-1.21,1.18h0c2.69,4.12,5.19,8.37,8.09,12.34a305.14,305.14,0,0,0,44.85,49.36C536.56,179,552.27,192.64,569.08,205c1.7,1.25,2.45,2.33,1.86,4.69-1,3.81-.09,5.64,2.88,8.71l1.69-7.89c1.58-.3,2.35.91,3.35,1.61A123.69,123.69,0,0,0,593.55,221a87.47,87.47,0,0,1,11,6.68c2.42,1.73,2.42,2.09.65,4.54a15.74,15.74,0,0,1-1.55,1.81c-3.08,3.09-3.44,3-7,.31-4.57-3.44-8.58-7.59-13.44-10.66L582,224.86c4.35,5.23,9.5,9.66,14.72,14.3a16.19,16.19,0,0,1-11.94,2.4,94,94,0,0,1-31.88-10.94,24.89,24.89,0,0,1-7.32-5.27c-.64-.74-1.66-1.19-2.49-.33s-.34,1.81.33,2.54a42.54,42.54,0,0,0,10.68,8.72A80.63,80.63,0,0,0,581,245.6c7.72,1.21,15.24.25,21.86-4.57C605.3,239.26,608.21,238.22,610.24,235.83ZM590.69,208c-1.51,2-3,2.24-5.16.63a75.3,75.3,0,0,0-10.21-6.95c-6.34-3.35-6.35-9-6.58-14.69a1.9,1.9,0,0,1,2.17.35c5.7,4,11.48,7.91,17.54,11.36a28.16,28.16,0,0,1,3.4,2.58c1.63,1.29,2,2.76.59,4.47C591.84,206.52,591.26,207.27,590.69,208Z"/><path class="cls-3" d="M50.13,224.8c2.52-1,5-2,7.57-2.84,22.77-7.14,45.47-14.49,67.87-22.74,28.52-10.5,57.11-20.77,86.24-29.52,21.06-6.32,42.65-10.4,64-15.41,1.24-.29,3.3-1.15,3.67.61s-1.86,1.73-3.12,2.13c-10.9,3.52-21.74,7.24-32.74,10.43q-57.09,16.6-112.76,37.44a506.59,506.59,0,0,1-61.65,18.58c-5.25,1.23-10.57,2.4-16,2.37C52.18,225.51,50.87,226,50.13,224.8Z"/><path class="cls-4" d="M315.09,184.84A85.8,85.8,0,0,0,326,194.11c12.66,8.83,25.86,16.81,39,24.95A371.46,371.46,0,0,1,402.58,246c16,12.94,28.85,28.67,40.72,45.3,3.09,4.33,4.07,4.69,9,2.36,2.86-1.36,5.51-3.16,8.26-4.76.84-.49,1.51-1.41,2.52-1.47.69,1.56-.64,2.35-.58,3.46a22.38,22.38,0,0,1-13.88,8.3c5.1,7.45,8.61,15.12,12,22.85a3.31,3.31,0,0,0-.33.32,1.28,1.28,0,0,0,.21,1.26c-2.39-.2-3.46-2.08-4.68-3.73-4.54-6.16-8-13-12.15-19.41a177.28,177.28,0,0,0-31.89-37.85c-17.94-15.86-37.32-29.71-57.47-42.62-18.22-11.68-36.5-23.35-50.13-40.78-4.8-6.15-9.73-12.15-13-19.31l1-1.09C298.84,168.31,306.79,176.71,315.09,184.84Z"/><path class="cls-4" d="M460.22,322.31a3.31,3.31,0,0,1,.33-.32,1,1,0,0,0,.07.15c-.07.48-.13.95-.19,1.43A1.28,1.28,0,0,1,460.22,322.31Z"/><path class="cls-5" d="M115.13,189.28l-.35.19h-.41a1.81,1.81,0,0,0-2.07.77c-18.37,7.25-37.67,11.25-56.67,16.3a14.31,14.31,0,0,1-2.37.22c-1-.35-2.32.13-3.1-1,1.22-.37,2.43-.75,3.65-1.1,15.12-4.39,30.51-7.74,45.49-12.61a104.4,104.4,0,0,1,13.8-3.7C113.82,188.55,114.67,188.5,115.13,189.28Z"/><path class="cls-6" d="M432.78,140.39c-.54.86-.75,2.48-2.22,2s-.67-1.89-.64-2.92a4.2,4.2,0,0,1,.28-1.4c3.5-9.19,9.54-16,18.55-20.14.61-.27,1.45-.73,2,.35a46.8,46.8,0,0,1-6.55,8.12A87,87,0,0,0,432.78,140.39Z"/><path class="cls-7" d="M473.92,159.67c.4,1.79-1.15,1.94-2.41,2.19-4.45.89-7.59,3.82-10.65,6.89-1.34,1.34-2.58,2.84-4.43,3.55-.74.28-1.53.68-2.26.09a2.31,2.31,0,0,1-.69-2.59,5.87,5.87,0,0,1,.64-1.79,22.72,22.72,0,0,1,16.55-10C472,158.29,473.58,158.14,473.92,159.67Z"/><path class="cls-8" d="M366.73,204.05a.85.85,0,0,0,1,.61h0a1,1,0,0,1,.78.31c-.37.31-.74.62-1.12.92h0l-1.59-.46a1,1,0,0,0-1.21-.6h0c-15.16-5-27.17-14.84-39-25l1.15-1.1C339.17,188.65,352.14,197.63,366.73,204.05Z"/><path class="cls-9" d="M468.06,308h0l-.26.31c-1.34-4.79-4.05-9.25-3.52-14.5a94.58,94.58,0,0,1,4,13.25h0C468.23,307.4,468.15,307.71,468.06,308Z"/><path class="cls-9" d="M467.8,308.33l-.68.81c-2-4.46-3-9.27-4.62-13.89-.57-1.66.43-1.89,1.78-1.42C463.75,299.08,466.46,303.54,467.8,308.33Z"/><path class="cls-10" d="M326.76,178.77c-1-.3-1.33.14-1.15,1.1a49.27,49.27,0,0,1-10.53-10.56l1-.92Z"/><path class="cls-10" d="M326.76,178.77l-1.15,1.1C325.43,178.91,325.75,178.47,326.76,178.77Z"/><path class="cls-11" d="M305.88,158.51a.34.34,0,0,0,.37-.38,2.24,2.24,0,0,0,.31-.38c2.62,2.81,5.46,5.44,7.62,8.66l-1,1a44.81,44.81,0,0,1-7.69-8.58l.37-.29Z"/><path class="cls-12" d="M115.13,189.28c0-1.79-1-1.29-2-.94a35.53,35.53,0,0,1,8.77-2.77c0,.43.06.86.1,1.29A20.86,20.86,0,0,1,115.13,189.28Z"/><path class="cls-12" d="M115.13,189.28c-.46-.78-1.31-.73-2-.94C114.09,188,115.14,187.49,115.13,189.28Z"/><path class="cls-13" d="M453.75,78.66h0c0-.36.05-.71.07-1.07,2.69.34,5.42.45,7.93,1.63l-1.2,1A21.72,21.72,0,0,1,453.75,78.66Z"/><path class="cls-14" d="M463.42,257.38v0h0a2.71,2.71,0,0,0,.24.35Z"/><path class="cls-14" d="M464.56,259.93c.41.55.57,1.66,1.6,1.1.85-.45.5-1.31.29-2,1.67,1.74.13,3.35-.18,5-.51-1.78-1.63-3.33-2.22-5.08A4,4,0,0,0,464.56,259.93Z"/><path class="cls-14" d="M463.92,258.48l.12.4Z"/><path class="cls-14" d="M463.39,257.34v0h0l0,0h0Z"/><path class="cls-14" d="M463.39,257.34h0Z"/><path class="cls-14" d="M463.67,257.71a.24.24,0,0,1,.06.08c.06.23.13.46.19.69l.12.4v0c.59,1.75,1.71,3.3,2.22,5.08a9.71,9.71,0,0,1-2.85-6.62Z"/><path class="cls-14" d="M463.92,258.48c-.06-.23-.13-.46-.19-.69a.24.24,0,0,0-.06-.08s.06.08.1.11A4.54,4.54,0,0,0,463.92,258.48Z"/><path class="cls-14" d="M464,258.88v0Z"/><path class="cls-14" d="M463.4,257.31l0,0v.06l0,0Z"/><path class="cls-14" d="M466.16,261c-1,.56-1.19-.55-1.6-1.1a4,4,0,0,1-.51-1v0l-.12-.4a4.54,4.54,0,0,1-.15-.66s-.06-.08-.1-.11a2.71,2.71,0,0,1-.24-.35c.88.47,1.09,1.44,1.6,2.18,1.3,1.93,1-.21,1.42-.55C466.66,259.72,467,260.58,466.16,261Z"/><path class="cls-15" d="M414.21,69h0l-1.55-.33a2.58,2.58,0,0,0-1.44-.63,4.36,4.36,0,0,1-3.49-1c.71-.25,1.56-.2,2-1,1.43-.18,2.61.63,3.91,1a2.31,2.31,0,0,0,1.48.67l1.36.2v.88Z"/><path class="cls-16" d="M401.08,65.1c.7-.23,1.54-.15,2-.92a10.84,10.84,0,0,1,5.09,1.6L407,66.89A12.75,12.75,0,0,1,401.08,65.1Z"/><path class="cls-17" d="M431.83,73.47a15.89,15.89,0,0,1-5.8-1.6c0-.36,0-.71.05-1.07a12.61,12.61,0,0,1,5.82,1.64h0C431.88,72.79,431.86,73.13,431.83,73.47Z"/><path class="cls-7" d="M468.79,314.38a1.31,1.31,0,0,0-.49.12c.71-1.82-.31-3.57-.29-5.36l-.09-.35a1.74,1.74,0,0,0,.32-.34c.19.6.2,1.28.82,1.67h0a.6.6,0,0,0,.12.77c0,1.21-.06,2.42-.1,3.62A.84.84,0,0,0,468.79,314.38Z"/><path class="cls-7" d="M468.79,314.38a.84.84,0,0,1,.29.13v.2h-.86a1.8,1.8,0,0,0,.08-.21A1.31,1.31,0,0,1,468.79,314.38Z"/><path class="cls-7" d="M467.12,309.14a1.62,1.62,0,0,0,.8-.35l.09.35c0,1.79,1,3.54.29,5.36a.52.52,0,0,0-.13.06A13.43,13.43,0,0,1,467.12,309.14Z"/><path class="cls-7" d="M468.3,314.5a1.8,1.8,0,0,1-.08.21s0-.1-.05-.15A.52.52,0,0,1,468.3,314.5Z"/><path class="cls-7" d="M468.06,308a2.05,2.05,0,0,1,.18.43,1.74,1.74,0,0,1-.32.34l-.12-.46Z"/><path class="cls-7" d="M467.12,309.14l.68-.81.12.46A1.62,1.62,0,0,1,467.12,309.14Z"/><path class="cls-18" d="M50.13,224.8c.34,2.36,1.89,1.18,3.07,1-2.08,1.12-4.27,1.13-7.32.71C47.62,225.4,48.66,224.66,50.13,224.8Z"/><path class="cls-18" d="M50.13,224.8c.74,1.18,2,.71,3.07,1C52,226,50.47,227.16,50.13,224.8Z"/><path class="cls-19" d="M582,224.86c-1.4-.86-2.69-1.79-2.83-3.9a7.28,7.28,0,0,1,4.05,2.71C582.16,223.43,581.79,223.86,582,224.86Z"/><path class="cls-19" d="M583.19,223.67,582,224.86C581.79,223.86,582.16,223.43,583.19,223.67Z"/><path class="cls-20" d="M53.26,206.76a7.67,7.67,0,0,1-5.87.69,2.44,2.44,0,0,1,2.77-1.7C50.57,208,52.11,206.79,53.26,206.76Z"/><path class="cls-20" d="M53.26,206.76c-1.15,0-2.69,1.27-3.1-1C50.94,206.89,52.23,206.41,53.26,206.76Z"/><path class="cls-21" d="M368.56,205c1.3.44,2.66.81,3.1,2.41-1.5-.36-3.09-.27-4.22-1.49C368.28,206.15,368.72,205.92,368.56,205Z"/><path class="cls-21" d="M368.56,205c.16.95-.28,1.18-1.12.92h0C367.82,205.59,368.19,205.28,368.56,205Z"/><path class="cls-22" d="M444.28,76.43c0-.38,0-.77,0-1.16h0c1.63.21,3.37,0,4.77,1.16,0,.34,0,.68,0,1C447.34,77.66,445.89,76.69,444.28,76.43Z"/><path class="cls-23" d="M149.52,177.72h0l-1-.92c1.12-1.13,2.67-1.14,4.07-1.54l1,.8C152.44,177.21,151,177.39,149.52,177.72Z"/><path class="cls-16" d="M303.17,154.58l-.12.18c0-.07.07-.13.1-.19Z"/><path class="cls-16" d="M306.56,157.75l-.4.08a1.56,1.56,0,0,0-.57.57l-.08.4a11.5,11.5,0,0,1-2.86-3.84l.4-.2,1.1.13h0A7.67,7.67,0,0,1,306.56,157.75Z"/><path class="cls-16" d="M306.16,157.83l.4-.08a2.24,2.24,0,0,1-.31.38l-.31.06-.06.32-.37.29.08-.4A1.56,1.56,0,0,1,306.16,157.83Z"/><path class="cls-24" d="M441.38,75.66h0a7.89,7.89,0,0,1-4.77-1.1v-.88c1.7-.25,3.14.8,4.76,1,0,.33,0,.66,0,1Z"/><path class="cls-25" d="M426,71.87c-1.34,0-2.72.1-3.86-.86h0l.09-1.21a5.83,5.83,0,0,1,3.82,1C425.54,71.13,425.52,71.49,426,71.87Z"/><path class="cls-25" d="M426.08,70.8c0,.36,0,.71-.05,1.07C425.52,71.49,425.54,71.13,426.08,70.8Z"/><path class="cls-26" d="M416.55,69.67c0-.21,0-.41,0-.61a2.26,2.26,0,0,0,.26-.16.13.13,0,0,0,0-.06l1.8-.11h0c1.05.14,2.17,0,3,.94l-1.21,1C419,70.85,417.82,70,416.55,69.67Z"/><path class="cls-26" d="M416.81,68.84a.13.13,0,0,1,0,.06,2.26,2.26,0,0,1-.26.16c0-.07,0-.14,0-.21Z"/><path class="cls-27" d="M401.08,65.1a3.79,3.79,0,0,1-2.84-1l1-.87h0c1.4-.23,2.53.61,3.8.94C402.54,64.77,401.49,64.26,401.08,65.1Z"/><path class="cls-27" d="M401.08,65.1c.41-.84,1.46-.33,2-.92C402.62,65,401.78,64.87,401.08,65.1Z"/><path class="cls-16" d="M123.74,186.37h0l-1.18-1c1.17-1.08,2.68-1.28,4.14-1.58l1.1.94C126.67,185.84,125.19,186.06,123.74,186.37Z"/><path class="cls-28" d="M292.13,158.78c-.91-.16-1.45,0-1,1.09a9,9,0,0,1-2.13-4h1.24C290.93,156.82,291.89,157.57,292.13,158.78Z"/><path class="cls-28" d="M292.13,158.78l-1,1.09C290.68,158.79,291.22,158.62,292.13,158.78Z"/><path class="cls-29" d="M303.15,154.57l-.09,0-.41.41a7.51,7.51,0,0,1-1.94-2.81l1-1c.62,1,1.66,1.65,1.88,2.88h0A1.77,1.77,0,0,0,303.15,154.57Z"/><path class="cls-29" d="M303.15,154.57c0,.06-.07.12-.1.19h0l-.4.2.41-.41Z"/><path class="cls-30" d="M467.18,111,466,109.52c-.61-.8-.41-1.6.4-1.92,1.22-.48,1.59.44,1.7,1.46C466.5,109.05,466.62,109.91,467.18,111Z"/><path class="cls-30" d="M467.18,111c-.56-1.08-.68-1.94.95-1.93C467.2,109.4,467.43,110.31,467.18,111Z"/><path class="cls-31" d="M463.44,81.31a2.59,2.59,0,0,1-2.14-.84c.71-.31,1.7-.09,2.08-1.07.83-.07,1.73,0,1.78,1C465.23,81.69,464.12,81.28,463.44,81.31Z"/><path class="cls-32" d="M444.05,76c.08.26.16.39.23.39-1.07.13-2.13.22-2.9-.77a.62.62,0,0,0,.22-.67c-.07-.21-.15-.32-.23-.32,1-.07,2.11-.39,2.93.6A.79.79,0,0,0,444.05,76Z"/><path class="cls-32" d="M444.28,76.43c-.07,0-.15-.13-.23-.39a.79.79,0,0,1,.25-.77h0C444.29,75.66,444.29,76.05,444.28,76.43Z"/><path class="cls-32" d="M441.6,75a.62.62,0,0,1-.22.67h0c0-.33,0-.66,0-1C441.45,74.67,441.53,74.78,441.6,75Z"/><path class="cls-33" d="M436.28,74.27c.11.19.22.29.33.29a5.44,5.44,0,0,1-3.83-1v-.91a6.39,6.39,0,0,1,3.83,1C436.28,73.88,436.18,74.07,436.28,74.27Z"/><path class="cls-33" d="M436.28,74.27c-.1-.2,0-.39.33-.59v.88C436.5,74.56,436.39,74.46,436.28,74.27Z"/><path class="cls-34" d="M394.52,63l.06-1.08h0a6.12,6.12,0,0,1,3.85,1.15l-1,.85A4.32,4.32,0,0,1,394.52,63Z"/><path class="cls-35" d="M137.17,181.7c0-.32,0-.64,0-1a5.55,5.55,0,0,1,3.78-1.14l.06,1C139.75,181.07,138.61,181.89,137.17,181.7Z"/><path class="cls-36" d="M394.31,62.63c.07.25.14.37.21.37-1.38.17-2.48-.76-3.76-1l1.13-1h0c.95.16,2,0,2.69,1A.72.72,0,0,0,394.31,62.63Z"/><path class="cls-36" d="M394.52,63c-.07,0-.14-.12-.21-.37a.72.72,0,0,1,.27-.71h0Z"/><path class="cls-37" d="M127.8,184.73h0c-.13-.59-.71-.65-1.1-.94,1.25-.41,2.36-1.29,3.78-1.11v1A3.78,3.78,0,0,1,127.8,184.73Z"/><path class="cls-37" d="M127.8,184.73h0l-1.1-.94C127.09,184.08,127.67,184.14,127.8,184.73Z"/><path class="cls-6" d="M451.92,78.27h0a3.73,3.73,0,0,1-2.87-.83c.33-.21.44-.44.34-.66s-.21-.35-.32-.35c1,0,2.12-.1,2.93.8h0Z"/><path class="cls-6" d="M449.39,76.78c.1.22,0,.45-.34.66,0-.33,0-.67,0-1C449.18,76.43,449.28,76.55,449.39,76.78Z"/><path class="cls-38" d="M149.52,177.72h0c-1.27.27-2.33,1.3-3.74,1.11,0-.31,0-.63,0-1a4.11,4.11,0,0,1,2.71-1.08C148.57,177.41,149.14,177.46,149.52,177.72Z"/><path class="cls-38" d="M148.5,176.8l1,.92C149.14,177.46,148.57,177.41,148.5,176.8Z"/><path class="cls-39" d="M136.84,181.38c.11.21.22.32.33.32a3.78,3.78,0,0,1-2.87.88c0-.32,0-.65,0-1,.77-1,1.84-.9,2.9-.87C136.84,181,136.73,181.17,136.84,181.38Z"/><path class="cls-39" d="M136.84,181.38c-.11-.21,0-.43.32-.64,0,.32,0,.64,0,1C137.06,181.7,137,181.59,136.84,181.38Z"/><path class="cls-40" d="M134,182.27c.12.21.24.31.35.31a4.81,4.81,0,0,1-2.87.89l-.09-1h0c.79-.91,1.86-.85,2.92-.82C133.93,181.84,133.83,182.06,134,182.27Z"/><path class="cls-40" d="M134,182.27c-.12-.21,0-.43.31-.66,0,.32,0,.65,0,1C134.19,182.58,134.07,182.48,134,182.27Z"/><path class="cls-41" d="M141,180.59c.25-.23.33-.46.23-.67s-.2-.32-.29-.32c.72-1,1.83-.88,2.86-1,0,.33,0,.67.07,1Z"/><path class="cls-41" d="M141.23,179.92c.1.21,0,.44-.23.67l-.06-1C141,179.6,141.13,179.7,141.23,179.92Z"/><path class="cls-42" d="M299.69,150.42a7.62,7.62,0,0,1-1.6-3.2l1.07,0h0c.78.2.79.83.8,1.46h0c-.09.57-.19,1.14-.28,1.71Z"/><path class="cls-43" d="M300.71,152.15a2.56,2.56,0,0,1-1-1.73h0a1.32,1.32,0,0,0,.28-1.71h0a5.39,5.39,0,0,1,1.7,2.44C300.81,151,300.31,151.12,300.71,152.15Z"/><path class="cls-43" d="M301.67,151.15l-1,1C300.31,151.12,300.81,151,301.67,151.15Z"/><path class="cls-43" d="M299.69,150.42c.09-.57.19-1.14.28-1.71A1.32,1.32,0,0,1,299.69,150.42Z"/><path class="cls-44" d="M155.65,174.92c-.52.2-.42.63-.3,1l-1-.07h0V174.8h0a1.49,1.49,0,0,1,2-.67c.62.25.32.72,0,1.09h0C156.11,175,155.85,174.85,155.65,174.92Z"/><path class="cls-44" d="M155.35,176c-.12-.41-.22-.84.3-1,.2-.07.46.08.71.3A.94.94,0,0,0,155.35,176Z"/><path class="cls-45" d="M145.46,178.52c.11.21.21.31.32.31h0a2.77,2.77,0,0,1-1.91.79c.24-.24.32-.47.21-.69s-.19-.31-.28-.31a1.82,1.82,0,0,1,2-.74C145.46,178.09,145.35,178.3,145.46,178.52Z"/><path class="cls-45" d="M145.78,178.83c-.11,0-.21-.1-.32-.31s0-.43.33-.64c0,.32,0,.64,0,1Z"/><path class="cls-45" d="M144.08,178.93c.11.22,0,.45-.21.69,0-.33-.05-.67-.07-1C143.89,178.62,144,178.72,144.08,178.93Z"/><path class="cls-6" d="M407.73,67.05h-.4l-.36-.17c.39-.38,1-.47,1.2-1.11l1.6.32C409.21,66.68,408.15,66.19,407.73,67.05Z"/><path class="cls-6" d="M407.73,67.05c.42-.86,1.48-.37,2-1C409.29,66.85,408.44,66.8,407.73,67.05Z"/><path class="cls-6" d="M407,66.89l1.2-1.11C408,66.42,407.36,66.51,407,66.89Z"/><path class="cls-46" d="M390.76,62c-.73,0-1.32-.46-1-1.07.6-1.15,1.43-.66,2.14,0C390.93,60.68,390.57,61,390.76,62Z"/><path class="cls-46" d="M390.76,62c-.19-1,.17-1.33,1.13-1h0Z"/><path class="cls-47" d="M461.3,80.47a.78.78,0,0,1-.75-.25c.4-.32,1-.38,1.2-1l1.63.18C462.86,80.1,461.71,79.57,461.3,80.47Z"/><path class="cls-47" d="M460.55,80.22l1.2-1C461.59,79.84,461,79.9,460.55,80.22Z"/><path class="cls-47" d="M461.3,80.47c.41-.9,1.56-.37,2.08-1.07C463,80.38,462,80.16,461.3,80.47Z"/><path class="cls-48" d="M468,103.46c-.8-.57-.93-1.29-.12-1.84.56-.39,1.16-.13,1.33.66C468.16,102,467.77,102.44,468,103.46Z"/><path class="cls-48" d="M468,103.46h0c-.2-1,.19-1.43,1.21-1.18A1.92,1.92,0,0,0,468,103.46Z"/><path class="cls-49" d="M288.62,154.62c1.05-.48,1.4.43,1.62,1.28a.77.77,0,0,0-1.24,0C288.31,155.62,288.16,154.82,288.62,154.62Z"/><path class="cls-49" d="M290.24,155.9H289A.77.77,0,0,1,290.24,155.9Z"/><path class="cls-50" d="M314.87,167.62l.18-.17a1.28,1.28,0,0,1,1,.94,1.7,1.7,0,0,0-1,.92,1.21,1.21,0,0,1-.88-1l.19-.18A.44.44,0,0,0,314.87,167.62Z"/><path class="cls-50" d="M316,168.39l-1,.92A1.7,1.7,0,0,1,316,168.39Z"/><path class="cls-50" d="M314.18,166.41a1.25,1.25,0,0,1,.87,1l-.42.12-.31.31-.12.41a1.26,1.26,0,0,1-1-.91A1.16,1.16,0,0,0,314.18,166.41Z"/><path class="cls-50" d="M313.2,167.38l1-1A1.16,1.16,0,0,1,313.2,167.38Z"/><path class="cls-50" d="M314.63,167.57l.42-.12-.18.17a.44.44,0,0,0-.48.49h0l-.19.18.12-.41Z"/><path class="cls-51" d="M165.61,515.44a3.53,3.53,0,0,1-.08.72l-.54-.27c.1-.24.21-.47.31-.71C165.41,515.27,165.61,515.35,165.61,515.44Z"/><path class="cls-52" d="M398.24,64.11l-.45,0-.38-.24a2,2,0,0,0,1-.85.71.71,0,0,1,.85.17h0C398.91,63.5,398.35,63.54,398.24,64.11Z"/><path class="cls-52" d="M399.28,63.24l-1,.87C398.35,63.54,398.91,63.5,399.28,63.24Z"/><path class="cls-52" d="M397.41,63.92l1-.85A2,2,0,0,1,397.41,63.92Z"/><path class="cls-19" d="M416.86,68.62a.71.71,0,0,0-.34-.65,2.26,2.26,0,0,1,2.09.76A1.8,1.8,0,0,0,416.86,68.62Z"/><path class="cls-19" d="M416.86,68.62a1.65,1.65,0,0,0-.33.23h0V68A.71.71,0,0,1,416.86,68.62Z"/><path class="cls-19" d="M416.81,68.84a1,1,0,0,0,.05-.22,1.8,1.8,0,0,1,1.75.11h0Z"/><path class="cls-19" d="M416.53,68.85h0a1.65,1.65,0,0,1,.33-.23,1,1,0,0,1-.05.22Z"/><path class="cls-53" d="M154.06,175.52c.1.24.2.36.3.37h0a1.32,1.32,0,0,1-.82.17,1.52,1.52,0,0,0-1-.8l1.79-.46Q153.91,175.16,154.06,175.52Z"/><path class="cls-53" d="M153.54,176.06l-1-.8A1.52,1.52,0,0,1,153.54,176.06Z"/><path class="cls-53" d="M154.36,175.89c-.1,0-.2-.13-.3-.37s0-.48.3-.72h0Z"/><path class="cls-19" d="M416.19,69.21a.29.29,0,0,0,0,.2c.11.17.22.26.33.26a2.79,2.79,0,0,1-2.34-.7,7.23,7.23,0,0,0,1.59.32A1.59,1.59,0,0,0,416.19,69.21Z"/><path class="cls-19" d="M416.52,68.85h0a.67.67,0,0,0-.34.36,1.59,1.59,0,0,1-.39.08,7.23,7.23,0,0,1-1.59-.32h0Z"/><path class="cls-19" d="M416.22,69.41a.29.29,0,0,1,0-.2,2.17,2.17,0,0,0,.35-.15c0,.2,0,.4,0,.61C416.44,69.67,416.33,69.58,416.22,69.41Z"/><path class="cls-19" d="M416.53,68.85h0c0,.07,0,.14,0,.21a2.17,2.17,0,0,1-.35.15A.67.67,0,0,1,416.53,68.85Z"/><polygon class="cls-19" points="416.52 68.85 416.53 68.85 416.52 68.86 416.52 68.85"/><polygon class="cls-19" points="416.53 68.85 416.53 68.86 416.52 68.86 416.53 68.85 416.53 68.85"/><polygon class="cls-19" points="416.53 68.86 416.53 68.86 416.53 68.85 416.53 68.86"/><polygon class="cls-19" points="416.53 68.85 416.52 68.86 416.53 68.85 416.53 68.85 416.53 68.85"/><path class="cls-36" d="M123.74,186.37l-1.77.49a.76.76,0,0,0-.1-1.29.7.7,0,0,1,.69-.2C122.7,186,123.32,186.07,123.74,186.37Z"/><path class="cls-36" d="M122,186.86c0-.43-.07-.86-.1-1.29A.76.76,0,0,1,122,186.86Z"/><path class="cls-36" d="M123.74,186.37c-.42-.3-1-.37-1.18-1l1.18,1Z"/><path class="cls-54" d="M422.17,71l-1.8-.39c.42-.3,1-.37,1.21-1a.46.46,0,0,1,.68.13A.68.68,0,0,0,422.17,71Z"/><path class="cls-54" d="M422.17,71a.68.68,0,0,1,.09-1.21L422.17,71Z"/><path class="cls-54" d="M420.37,70.62l1.21-1C421.39,70.25,420.79,70.32,420.37,70.62Z"/><path class="cls-55" d="M566.72,195.22c.06-.39.11-.78.17-1.16h0C567,194.47,567.46,194.93,566.72,195.22Z"/><path class="cls-55" d="M567.49,195.48c-.32.56-.65.25-.77-.26.74-.29.26-.75.17-1.16C567.51,194.36,567.81,194.92,567.49,195.48Z"/><path class="cls-52" d="M453.46,78.28c.09.25.19.38.29.38l-1.83-.39h0c.33-.21.45-.43.36-.67s-.18-.37-.28-.37l1.82.36Q453.34,77.91,453.46,78.28Z"/><path class="cls-52" d="M453.75,78.66c-.1,0-.2-.13-.29-.38s0-.48.36-.69c0,.36-.05.71-.07,1.07Z"/><path class="cls-52" d="M452.28,77.6c.09.24,0,.46-.36.67h0l.08-1h0C452.1,77.23,452.19,77.35,452.28,77.6Z"/><path class="cls-12" d="M112.3,190.24c.6-.5,1.44-.35,2.07-.77A2.16,2.16,0,0,1,112.3,190.24Z"/><path class="cls-12" d="M114.37,189.47c-.63.42-1.47.27-2.07.77A1.81,1.81,0,0,1,114.37,189.47Z"/><path class="cls-40" d="M432.54,73.3q.12.3.24.3l-.95-.13q.5-.31.36-.66c-.09-.24-.18-.37-.29-.37a.87.87,0,0,1,.88.25C432.54,72.89,432.46,73.09,432.54,73.3Z"/><path class="cls-40" d="M432.19,72.81q.13.34-.36.66c0-.34.05-.68.07-1h0C432,72.44,432.1,72.57,432.19,72.81Z"/><path class="cls-40" d="M432.54,73.3c-.08-.21,0-.41.24-.61v.91Q432.66,73.6,432.54,73.3Z"/><path class="cls-56" d="M32.31,59.44c.1,0,.23.15.35.24-.1.11-.19.3-.29.31s-.23-.16-.35-.24C32.12,59.64,32.2,59.45,32.31,59.44Z"/><path class="cls-21" d="M367.78,204.66a2.64,2.64,0,0,0-1-.61A1,1,0,0,1,367.78,204.66Z"/><path class="cls-21" d="M366.73,204.05a2.64,2.64,0,0,1,1,.61h0A.85.85,0,0,1,366.73,204.05Z"/><path class="cls-21" d="M364.64,204.83c.48.06.78.45,1.21.6A1.07,1.07,0,0,1,364.64,204.83Z"/><path class="cls-21" d="M365.85,205.43c-.43-.15-.73-.54-1.21-.6h0A1,1,0,0,1,365.85,205.43Z"/><path class="cls-19" d="M412.66,68.64a1.7,1.7,0,0,1-1.44-.63Z"/><path class="cls-24" d="M303.55,154h0l.6.86h0a2.56,2.56,0,0,0-1-.31Z"/><path class="cls-24" d="M303.05,154.76h0l.12-.18a2.56,2.56,0,0,1,1,.31l-1.1-.13Z"/><polygon class="cls-24" points="303.55 154.03 303.55 154.03 303.55 154.03 303.55 154.03"/><polygon class="cls-24" points="303.05 154.76 303.05 154.76 303.05 154.76 303.05 154.76 303.05 154.76"/><path class="cls-19" d="M415.16,67.77l-1.48-.67A1.7,1.7,0,0,1,415.16,67.77Z"/><path class="cls-57" d="M131.15,183.15c.1.21.2.32.28.32l-.94.21c.33-.23.44-.45.32-.67s-.22-.33-.33-.33a.77.77,0,0,1,.86-.25A.64.64,0,0,0,131.15,183.15Z"/><path class="cls-57" d="M130.81,183c.12.22,0,.44-.32.67v-1Q130.65,182.68,130.81,183Z"/><path class="cls-57" d="M131.43,183.47c-.08,0-.18-.11-.28-.32a.64.64,0,0,1,.19-.72h0Z"/><path class="cls-58" d="M298.09,147.22c.08-.24.12-.67.25-.7.52-.11.64.38.82.73A1,1,0,0,0,298.09,147.22Z"/><path class="cls-58" d="M298.09,147.22a1,1,0,0,1,1.07,0h0Z"/><path class="cls-59" d="M503.22,374.33c5.33-.71,10.27-2.89,15.68-3.6s10.63-.63,15.37,1.42c8.53,3.69,16.13,8.54,22.27,16.15,6.64,8.24,9.7,17.65,12.73,27.31.35,1.1.61,2.4-.56,3a3.32,3.32,0,0,1-4-.47c-.53-.53-.65-1.46-1.14-2-1.18-1.38-2.5-1.08-3.71,0a2.86,2.86,0,0,0-.77,2.66c.45,3.39-.78,6.6-1.11,9.9a16.62,16.62,0,0,1-1.93,6.83c-1,1.77-2.53,3.3-4.63,2.42-2.86-1.19-5.83-2.13-8-4.89-2.32-3-4.22-6.55-8.25-9,.7,2.29.92,3.95,2.15,5.33,1.69,1.89,3.27,3.88,4.83,5.88,4.88,6.23,9,7.61,16.19,5.17,1,1.39.59,2.7.7,3.94.6,6.81,1.44,13.55,4.78,19.72.79,1.46,2.54,3.09,1.43,4.75s-3.52.75-5.35.81a15.27,15.27,0,0,1-2.76-.69c-1.57-.26-3.25-.55-4.67.32-2.62,1.59-4.48.52-6.28-1.38s-3.47-3.75-5.93-4.71c-1.38-.54-1.6-1.39-1.57-2.94.07-2.77,0-5.78-2.53-7.77-1-.82-.92-1.92-1-3-.62-5.34-1.31-10.66-1.92-16A165.26,165.26,0,0,0,530,416.2,82.55,82.55,0,0,0,527,405.28c-2.89-7.74-9.4-13.12-12.56-20.59-.21-.51-.94-.82-1.47-1.16-2.26-1.47-4.5-3-6.82-4.36-1.67-1-3.28-1.93-4-3.91C502.53,374.92,502.84,374.38,503.22,374.33Z"/><path class="cls-59" d="M601.19,486.76c-2.25-3.45-5.43-6.31-6.85-10.35-2.22-6.82-5.74-12.67-11.91-16.71a19.42,19.42,0,0,0-12.61-3.49,1.87,1.87,0,0,0-1.84,1.12c3.58,3.13,9,3.33,12.24,7.15h0a8.64,8.64,0,0,0,4.8,5,1.32,1.32,0,0,0,.88,1.07c0,.83.13,1.57,1.05,1.85.12.45.53.71.75,1.09h0l0,.07h0c-.06.66-.28,1.44-1.05,1.18-4.5-1.52-9-3.13-13.43-4.73a5.24,5.24,0,0,1-2.08-1.89c-7-8.48-8.64-18.49-8.24-29.06.06-1.6.78-2.91,2.6-2.69a3,3,0,0,1,2.74,2.82,12.43,12.43,0,0,1-.52,2.3c-.22,1.74,0,3.17,2.26,3.36a28.63,28.63,0,0,1,3.21.84c5.88,1.21,11.35,3.62,17,5.61a9.52,9.52,0,0,1,3.57,2.3,16.53,16.53,0,0,0,4.49,3.5c6.58,3,8.85,9.77,13,14.87.51.63.26,1.84.46,2.77,1,4.48.61,9.15,1.82,13.62,1.26,4.69,1.43,9.4-1.24,13.71-.75,1.22.16,3.94-2.17,3.57-1.88-.3-1.83-2.7-2.21-4.32A46.09,46.09,0,0,0,601.19,486.76Z"/><path class="cls-60" d="M470,325.15a1,1,0,0,1,.17-.1,3.08,3.08,0,0,1,.66.88c-.06.2-.13.4-.2.6a8.57,8.57,0,0,0-.18.88,2.5,2.5,0,0,0-.34-.39c-.13-.42-1.05.24-.85-.63l.09-.34A1.4,1.4,0,0,0,470,325.15Z"/><path class="cls-60" d="M469.37,326.05l-.09.34c-.2.87.72.21.85.63a2.5,2.5,0,0,1,.34.39,8.21,8.21,0,0,1-.18.83l-1.14-1.08h0l0-1Z"/><path class="cls-60" d="M470.65,326.53c.07-.2.14-.4.2-.6a3.9,3.9,0,0,1,.36,1.2h0l-.52.62a1.52,1.52,0,0,0-.22-.34A8.57,8.57,0,0,1,470.65,326.53Z"/><path class="cls-60" d="M470.69,327.75c-.13.16-.27.32-.4.49a8.21,8.21,0,0,0,.18-.83A1.52,1.52,0,0,1,470.69,327.75Z"/><path class="cls-61" d="M473.11,321.32q.38-.75.81-1.47A1.55,1.55,0,0,1,473.11,321.32Z"/><path class="cls-61" d="M473.92,319.42h0c0,.15,0,.29,0,.43q-.44.72-.81,1.47l-.23.1a5.79,5.79,0,0,1-.72,0,5.81,5.81,0,0,1,1.72-3c0,.32,0,.64,0,.95Z"/><path class="cls-62" d="M460.87,251.9c-.19-.35-.4-.69-.59-1.05l.11,0a5.46,5.46,0,0,1,.62,1.29,2.74,2.74,0,0,0,.21.42h-.13A2.31,2.31,0,0,1,460.87,251.9Z"/><path class="cls-62" d="M460.28,250.85c.19.36.4.7.59,1.05a2.31,2.31,0,0,0,.22.64h-.59c-.27-.67-1-1.15-.85-2A.63.63,0,0,0,460.28,250.85Z"/><path class="cls-62" d="M461,252.11a5.46,5.46,0,0,0-.62-1.29,1,1,0,0,0,.31-.21c.91.36.79,1.19.87,1.92h-.35A2.74,2.74,0,0,1,461,252.11Z"/><path class="cls-62" d="M460.16,250.58h.11l.12.23-.11,0Z"/><path class="cls-62" d="M460.28,250.85a.63.63,0,0,1-.63-.29l.51,0Z"/><path class="cls-62" d="M460.27,250.59l.43,0a1,1,0,0,1-.31.21Z"/><path class="cls-63" d="M461.91,254.12a5.07,5.07,0,0,0-.69-1.35l.11,0a3.55,3.55,0,0,1,.66,1.66s0,0,0,0h0A1.54,1.54,0,0,1,461.91,254.12Z"/><path class="cls-63" d="M461.22,252.77a5.07,5.07,0,0,1,.69,1.35,1.54,1.54,0,0,0,0,.31h-.48l-1-1.89A.64.64,0,0,0,461.22,252.77Z"/><path class="cls-63" d="M462,254.39a3.55,3.55,0,0,0-.66-1.66,1.06,1.06,0,0,0,.24-.2,2,2,0,0,1,.86,1.9H462S462,254.41,462,254.39Z"/><path class="cls-63" d="M461.09,252.54h.13a1.28,1.28,0,0,0,.11.2l-.11,0Z"/><path class="cls-63" d="M461.22,252.53h.35a1.06,1.06,0,0,1-.24.2A1.28,1.28,0,0,1,461.22,252.53Z"/><path class="cls-63" d="M461.22,252.77a.64.64,0,0,1-.72-.22h.59Z"/><path class="cls-14" d="M463.36,257.27h0a5.12,5.12,0,0,1-.61-1.37C463,256.34,463.11,256.83,463.36,257.27Z"/><path class="cls-14" d="M463.39,257.31h0v0Z"/><polygon class="cls-14" points="462.44 255.39 462.44 255.4 462.44 255.39 462.44 255.39"/><path class="cls-14" d="M463.37,257.28h0l.05,0,0,0h0Z"/><path class="cls-14" d="M462.73,255.89l-.06-.17a3.71,3.71,0,0,0-.23-.32h0a1.78,1.78,0,0,1,.92,1.88h0C463.11,256.83,463,256.34,462.73,255.89Z"/><path class="cls-14" d="M462.44,255.4a3.71,3.71,0,0,1,.23.32l.06.17c-.07-.13-.13-.26-.21-.38S462.47,255.43,462.44,255.4Z"/><path class="cls-14" d="M462.44,255.39h0s.05.08.08.11.14.25.21.38a5.12,5.12,0,0,0,.61,1.37c-.84-.34-.9-1.09-.91-1.86h0Z"/><path class="cls-14" d="M463.37,257.33v0h0Z"/><path class="cls-14" d="M463.39,257.31Z"/><polygon class="cls-14" points="463.39 257.31 463.4 257.31 463.39 257.31 463.39 257.31"/><polygon class="cls-14" points="463.38 257.32 463.37 257.33 463.38 257.32 463.38 257.32"/><path class="cls-64" d="M422.13,177.82c0,.5.41,1.16-.5,1.23a9.09,9.09,0,0,1-.24-1.21h0C421.65,178.33,421.9,178.32,422.13,177.82Z"/><path class="cls-64" d="M421.39,177.84a3.64,3.64,0,0,0,.74,0C421.9,178.32,421.65,178.33,421.39,177.84Z"/><path class="cls-65" d="M470,324.18a1,1,0,0,1,.88-1A1.57,1.57,0,0,1,470,324.18Z"/><path class="cls-65" d="M470,324.18a1.57,1.57,0,0,0,.88-1h0C470.91,323.8,470.54,324.05,470,324.18Z"/><path class="cls-14" d="M462,254.67h0a2.29,2.29,0,0,0,.37.73h0A3.43,3.43,0,0,1,462,254.67Z"/><path class="cls-14" d="M462,254.67a3.43,3.43,0,0,0,.41.72h0a1.07,1.07,0,0,1-.95-1A.62.62,0,0,0,462,254.67Z"/><path class="cls-14" d="M462.07,254.66a.73.73,0,0,0,.36-.23c0,.32,0,.64,0,1h0A2.29,2.29,0,0,1,462.07,254.66Z"/><path class="cls-14" d="M462,254.43h0c0,.08.05.15.07.23h0A2.17,2.17,0,0,1,462,254.43Z"/><path class="cls-14" d="M462,254.43a2.17,2.17,0,0,0,.07.24.62.62,0,0,1-.55-.23H462Z"/><path class="cls-14" d="M462,254.43h.43a.73.73,0,0,1-.36.23C462.05,254.58,462,254.51,462,254.43Z"/><polygon class="cls-14" points="462.44 255.39 462.44 255.39 462.44 255.39 462.44 255.39 462.44 255.39"/><path class="cls-14" d="M462.44,255.39Z"/><path class="cls-14" d="M462.44,255.39h0Z"/><path class="cls-66" d="M305.88,158.51h0l.37-.38A.34.34,0,0,1,305.88,158.51Z"/><path class="cls-66" d="M305.88,158.51l.06-.32.31-.06-.37.38Z"/><path class="cls-50" d="M314.39,168.11h0a3.17,3.17,0,0,1,.48-.49A.44.44,0,0,1,314.39,168.11Z"/><path class="cls-50" d="M314.39,168.11h0a.44.44,0,0,1,.48-.49,3.17,3.17,0,0,0-.48.49Z"/><path class="cls-65" d="M473,321.83h.26c-.25.38-.52.75-.81,1.12a1.1,1.1,0,0,0,0-.18l-.1-.11.15-.22C472.88,322.48,473.05,322.27,473,321.83Z"/><path class="cls-65" d="M474.48,319.41l.2-.05-.13.26v0C474.54,319.53,474.5,319.47,474.48,319.41Z"/><path class="cls-65" d="M472,322.38v0h0Z"/><path class="cls-65" d="M472,322.37a1.71,1.71,0,0,0,.45.08l-.15.22Z"/><path class="cls-65" d="M472,322.36Z"/><path class="cls-65" d="M472.43,323c.29-.37.56-.74.81-1.12h.14a2.24,2.24,0,0,0,1.17-2.21l.13-.26a.67.67,0,0,0,.58-.94,1.26,1.26,0,0,0,.81.24A9.6,9.6,0,0,1,472,324.4,1.82,1.82,0,0,0,472.43,323Z"/><path class="cls-65" d="M472.43,323l-.45.56v-.37l.34-.48.1.11A1.1,1.1,0,0,1,472.43,323Z"/><path class="cls-65" d="M472,322.37l.3.3-.34.48v-.77l0,0Z"/><path class="cls-65" d="M472,323.52l.45-.56a1.82,1.82,0,0,1-.44,1.44h0Z"/><path class="cls-65" d="M475.23,318.31c0-.09-.08-.18-.12-.28l.1-.15.17.15Z"/><path class="cls-65" d="M474.84,317.54l.37.34-.1.15C475,317.88,475,317.71,474.84,317.54Z"/><path class="cls-65" d="M475.23,318.31l.15-.28.69.63h0a1.26,1.26,0,0,1-.81-.24A.45.45,0,0,1,475.23,318.31Z"/><path class="cls-65" d="M474.48,319.41c0,.06.06.12.08.19v0a21.54,21.54,0,0,1-1.31,2.22H473a1.77,1.77,0,0,0,0-.2l.1-.17.07-.14a1.55,1.55,0,0,0,.81-1.47l.27-.44Z"/><path class="cls-65" d="M473.92,319.85c0-.14,0-.28,0-.43h0a1.17,1.17,0,0,0,.27,0Z"/><path class="cls-65" d="M472.94,321.63q0-.09-.06-.21l.23-.1-.07.14Z"/><path class="cls-65" d="M473.38,321.83h-.14a21.54,21.54,0,0,0,1.31-2.22A2.24,2.24,0,0,1,473.38,321.83Z"/><path class="cls-65" d="M475.19,318.37l-.11.18c-.12.27-.26.54-.4.81l-.2.05q0-.14-.09-.24a1.17,1.17,0,0,0,.36-.6l.25-.38C475.06,318.26,475.13,318.31,475.19,318.37Z"/><path class="cls-65" d="M475,318.19l-.25.38a3.19,3.19,0,0,0,.08-.63A1.56,1.56,0,0,0,475,318.19Z"/><path class="cls-65" d="M475.19,318.37s0,0,.07.05a.67.67,0,0,1-.58.94c.14-.27.28-.54.4-.81Z"/><path class="cls-65" d="M475,318.19l.11-.16c0,.1.09.19.12.28l0,.06C475.13,318.31,475.06,318.26,475,318.19Z"/><path class="cls-65" d="M475,318.19a1.56,1.56,0,0,1-.17-.25c0-.13,0-.26,0-.4h0c.11.17.19.34.27.49Z"/><path class="cls-65" d="M475.23,318.31a.45.45,0,0,0,0,.11s-.05,0-.07-.05Z"/><path class="cls-65" d="M474.48,319.41h-.29a1.88,1.88,0,0,0,.12-.18l.08-.06Q474.44,319.27,474.48,319.41Z"/><path class="cls-65" d="M473.92,319.42a1.42,1.42,0,0,0,.39-.19,1.88,1.88,0,0,1-.12.18A1.17,1.17,0,0,1,473.92,319.42Z"/><path class="cls-65" d="M472.46,322.45h0c.14-.21.25-.42.37-.64l.14,0C473.05,322.27,472.88,322.48,472.46,322.45Z"/><path class="cls-65" d="M472.78,321.79h.06c-.12.22-.23.43-.37.64h0a1.71,1.71,0,0,1-.45-.08h0A.83.83,0,0,0,472.78,321.79Z"/><path class="cls-65" d="M472,322.36h0Z"/><path class="cls-65" d="M473,321.83l-.14,0,.1-.17A1.77,1.77,0,0,1,473,321.83Z"/><path class="cls-65" d="M472.84,321.8h-.06a2.8,2.8,0,0,0,.1-.37q0,.12.06.21Z"/><path class="cls-2" d="M585.06,469.5l0,0h0s0,0,0,0a8.64,8.64,0,0,1-4.8-5h0C581.76,466.22,583.53,467.74,585.06,469.5Z"/><path class="cls-2" d="M584.49,468.33c-.84-.86-1.66-1.72-2.42-2.63A9.35,9.35,0,0,1,584.49,468.33Z"/><path class="cls-2" d="M584.49,468.33a8.74,8.74,0,0,1,.61,1.18h0c-1.53-1.76-3.3-3.28-4.84-5a16.9,16.9,0,0,1,1.85,1.22C582.83,466.61,583.65,467.47,584.49,468.33Z"/><polygon class="cls-2" points="585.01 469.48 585.02 469.48 585.01 469.48 585.01 469.48"/><path class="cls-2" d="M586.94,472.41v0c-.92-.28-1.06-1-1.05-1.85l0,0C586.37,471.15,586.25,472,586.94,472.41Z"/><path class="cls-2" d="M586.91,471.79c-.12-.22-.23-.45-.34-.67A2.23,2.23,0,0,1,586.91,471.79Z"/><path class="cls-2" d="M587,472.43l0,0a.08.08,0,0,0,0,0Z"/><path class="cls-2" d="M586.92,472.36h0a.08.08,0,0,1,0,0c-.69-.39-.57-1.26-1-1.8h0v0a1.9,1.9,0,0,1,.64.54c.11.22.22.45.34.67a3.8,3.8,0,0,1,.11.62l-.09,0Z"/><polygon class="cls-2" points="586.92 472.36 586.93 472.37 586.92 472.37 586.92 472.36"/><path class="cls-2" d="M587,472.43l0,0h0v0Z"/><path class="cls-2" d="M585.9,470.58h0a1.32,1.32,0,0,1-.88-1.07h0A2,2,0,0,0,585.9,470.58Z"/><polygon class="cls-2" points="585.9 470.56 585.9 470.56 585.9 470.56 585.9 470.56"/><path class="cls-2" d="M585.93,470.58l0,0h0v0a2,2,0,0,1-.87-1.06l.09.05a.14.14,0,0,0,0-.06A1.19,1.19,0,0,1,585.93,470.58Z"/><path class="cls-2" d="M585,469.48l0,0,.06.07Z"/><path class="cls-2" d="M585,469.48l0,0h0s0,0,0,0Z"/><path class="cls-2" d="M585.06,469.5h0a.14.14,0,0,1,0,.06Z"/><path class="cls-2" d="M585,469.52l0,0h0l.1.09Z"/><path class="cls-2" d="M585.94,470.61h0l0,0h0Z"/><path class="cls-2" d="M585.93,470.58v0l0-.05Z"/><path class="cls-2" d="M585.91,470.56l0,.05,0,0v0Z"/><path class="cls-2" d="M585.91,470.56l0,.05h0l0-.05Z"/><polygon class="cls-2" points="585.94 470.61 585.94 470.61 585.94 470.61 585.94 470.61"/><polygon class="cls-2" points="587.7 473.53 587.7 473.53 587.7 473.53 587.7 473.53"/><path class="cls-2" d="M587,472.47s0,0,0-.06a1.12,1.12,0,0,1,.68,1.12h0l-.72-1.08Z"/><path class="cls-2" d="M586.93,472.37l.09,0s0,0,0,.06Z"/><path class="cls-2" d="M586.92,472.36h0l.1.1-.07,0,0-.06Z"/><path class="cls-2" d="M587,472.45l0,0,.07,0Z"/><polygon class="cls-2" points="586.92 472.36 586.92 472.37 586.92 472.37 586.92 472.36"/></svg>