<svg id="Layer_1" data-name="Layer 1" xmlns="http://www.w3.org/2000/svg" viewBox="0 0 350 350"><defs><style>.cls-1{fill:none;stroke:#ff5d47;stroke-linecap:round;stroke-linejoin:round;stroke-width:4px;}.cls-2{fill:#ff5d47;}</style></defs><title>iconen-hygiene-afstand</title><path d="M94.45,138.26h.19A13.23,13.23,0,0,0,107.87,125v-4.4A13.25,13.25,0,0,0,94.64,107.4h-.19a13.24,13.24,0,0,0-13.23,13.23V125A13.23,13.23,0,0,0,94.45,138.26Zm-7.62-17.63A7.63,7.63,0,0,1,94.45,113h.19a7.64,7.64,0,0,1,7.62,7.62V125a7.62,7.62,0,0,1-7.62,7.62h-.19A7.62,7.62,0,0,1,86.83,125Z"/><path d="M110.11,142.49h-5.54a2.8,2.8,0,0,0-1.92.76L95,150.48l-7.4-7.2a2.82,2.82,0,0,0-2-.79H79.71a13.74,13.74,0,0,0-13.68,15v32.21a8.61,8.61,0,0,0,8.6,8.61h.11a8.55,8.55,0,0,0,3.34-.74l1.48,58.24A9.09,9.09,0,0,0,94.94,262a9.1,9.1,0,0,0,15.39-6.27l1.47-58.16a8.62,8.62,0,0,0,12-7.93v-32.2a13.74,13.74,0,0,0-13.69-15Zm-8.88,116.45a3.48,3.48,0,0,1-3.48-3.49V197.11H92.13v58.34a3.48,3.48,0,0,1-7,.16L83.5,189.78h22.89l-1.67,65.8A3.48,3.48,0,0,1,101.23,258.94Zm17-101.9a2.83,2.83,0,0,0,0,.29v32.33a3,3,0,0,1-6,0v-6.85l0-1.3h0V168h-5.62v14.72l0,1.43H83.35l-.07-2.81h0V168H77.64v21.49a3.1,3.1,0,0,1-3,3.16,3,3,0,0,1-3-3V157.33a2.53,2.53,0,0,0,0-.28,8.14,8.14,0,0,1,8.08-9h4.74l8.5,8.27s0,0,0,0l.27.22h0a2.14,2.14,0,0,0,.32.2l.07,0L94,157h0a2,2,0,0,0,.35.09h.08l.32,0h0a2.06,2.06,0,0,0,.35,0h.09l.35-.07h0A2.65,2.65,0,0,0,96,157s0,0,0,0l0,0a2.88,2.88,0,0,0,.65-.39l.07-.06.08-.07,8.86-8.31h4.43A8.13,8.13,0,0,1,118.2,157Z"/><path d="M261.3,138.26h.19A13.23,13.23,0,0,0,274.72,125v-4.4a13.24,13.24,0,0,0-13.23-13.23h-.19a13.25,13.25,0,0,0-13.23,13.23V125A13.23,13.23,0,0,0,261.3,138.26Zm-7.62-17.63A7.64,7.64,0,0,1,261.3,113h.19a7.63,7.63,0,0,1,7.62,7.62V125a7.62,7.62,0,0,1-7.62,7.62h-.19a7.62,7.62,0,0,1-7.62-7.62Z"/><path d="M277,142.49h-5.53a2.78,2.78,0,0,0-1.92.76l-7.71,7.23-7.4-7.2a2.8,2.8,0,0,0-2-.79h-5.88a13.74,13.74,0,0,0-13.68,15v32.21a8.62,8.62,0,0,0,8.61,8.61h.1a8.55,8.55,0,0,0,3.34-.74l1.48,58.24A9.09,9.09,0,0,0,261.79,262a9.1,9.1,0,0,0,15.39-6.27l1.48-58.16a8.62,8.62,0,0,0,12-7.93v-32.2a13.74,13.74,0,0,0-13.69-15Zm-8.88,116.45a3.48,3.48,0,0,1-3.48-3.49V197.11H259v58.34a3.49,3.49,0,0,1-7,.16l-1.67-65.83h22.89l-1.67,65.8A3.47,3.47,0,0,1,268.08,258.94Zm17-101.9a2.83,2.83,0,0,0,0,.29v32.33a3,3,0,0,1-6,0v-6.85l0-1.3h0V168h-5.61v14.72l0,1.43H250.21l-.07-2.81h0V168h-5.61v21.49a3.09,3.09,0,0,1-3,3.16,3,3,0,0,1-3-3V157.33a2.53,2.53,0,0,0,0-.28,8.14,8.14,0,0,1,8.08-9h4.74l8.5,8.27.05,0a2.75,2.75,0,0,0,.26.22h0a2.14,2.14,0,0,0,.32.2l.07,0,.31.14h0a2,2,0,0,0,.35.09h.08l.32,0h.05a2.17,2.17,0,0,0,.36,0h.08l.35-.07h0a2.29,2.29,0,0,0,.37-.12h0l0,0a2.81,2.81,0,0,0,.64-.39l.07-.06.09-.07,8.85-8.31H277a8.13,8.13,0,0,1,8.08,8.94Z"/><line class="cls-1" x1="139.18" y1="189.21" x2="220.62" y2="189.21"/><polygon class="cls-2" points="152.44 205.57 155.16 202.64 140.72 189.22 155.16 175.78 152.44 172.85 134.84 189.22 152.44 205.57"/><polygon class="cls-2" points="207.36 205.57 204.63 202.64 219.08 189.22 204.63 175.78 207.36 172.85 224.95 189.22 207.36 205.57"/></svg>