<svg id="Layer_1" data-name="Layer 1" xmlns="http://www.w3.org/2000/svg" viewBox="0 0 740.09 669.08"><defs><style>.cls-1{fill:#161630;}.cls-2{fill:#757584;}.cls-3{fill:#696a7a;}.cls-4{fill:#787887;}.cls-5{fill:#7d7e8c;}.cls-6{fill:#8a8a96;}.cls-7{fill:#6a6b7b;}.cls-8{fill:#807f8d;}.cls-9{fill:#878694;}.cls-10{fill:#6b6c7c;}.cls-11{fill:#717180;}.cls-12{fill:#7e7e8d;}.cls-13{fill:#737483;}.cls-14{fill:#727282;}.cls-15{fill:#81828f;}.cls-16{fill:#a5a5af;}.cls-17{fill:#787987;}.cls-18{fill:#797988;}.cls-19{fill:#6b6a7b;}.cls-20{fill:#ff5e47;}.cls-21{fill:#fe6f5b;}.cls-22{fill:#ff715d;}.cls-23{fill:#6a697a;}.cls-24{fill:#8d8d9a;}.cls-25{fill:#9695a1;}.cls-26{fill:#676677;}.cls-27{fill:#6b6b7c;}.cls-28{fill:#9d9ca7;}.cls-29{fill:#6c6c7d;}.cls-30{fill:#9c9ba7;}.cls-31{fill:#ff8a7a;}.cls-32{fill:#e0b1ad;}.cls-33{fill:#fd715d;}.cls-34{fill:#adadb7;}.cls-35{fill:#ff7662;}.cls-36{fill:#676778;}.cls-37{fill:none;stroke:#161630;stroke-miterlimit:10;stroke-width:3px;}</style></defs><path class="cls-1" d="M271.24,557.74c10.93-4.13,21.84-8.32,32.39-13.37,1.47-.71,2.92-1.45,4.37-2.17a2.85,2.85,0,0,1,1.62-1.14c.31,0,.44-.11.34-.39a.82.82,0,0,1-.66.38c-1,.32-2.17-.37-3.15.33-3.69.11-7.26,1.85-11.57.77,3-2,6.1-2.47,9-3.18,13.4-3.27,25.5-9.35,37.09-16.59,4.57-2.85,9.14-5.75,13.43-9,19.65-14.81,35-33,43.11-56.58,3.48-10.09,4.46-20.73,5-31.35.16-3,.19-6,.37-9a1.73,1.73,0,0,1,1.64-1.8,1.67,1.67,0,0,1,1.77,1.64,26.69,26.69,0,0,1,.24,3.58c.05,7,.11,14.07-1.82,21.22,3.57,1.18,7.16.88,10.61,1.12,14.34,1,28.56,2.9,42.74,5.12a170.3,170.3,0,0,1,17.64,3.21,12.89,12.89,0,0,1,7.19,4.26c10.7,13.63,18.53,28.56,20.63,46.05a11.8,11.8,0,0,1-.05,1.78c.86,5.75.39,11.55.24,17.3-.05,2,.46,2.13,1.93,2.2,3.1.15,6.22-.37,9.3.28.78,2.41-1.27,2.66-2.63,3.24a30.59,30.59,0,0,1-6.07,1.57c-1.31.26-3.07.4-3,2.06,0,1.5,1.82,1.17,2.89,1.52,1.82.59,3.92.2,5.53,1.58a2.35,2.35,0,0,1-1,2.48c-8.06,1.22-9,8.63-12.8,14.57,17.16,0,33.24-4.35,45.27-5.05-6.06.5-16.52.17-27-.08-4.28-.1-5.1-2.18-2.63-5.83,1.06-1.57,1.17-3.8,3.17-4.74a2.48,2.48,0,0,1,2.1.48c1.22,2.16,1.22,2.16,1.19,5.42a28.75,28.75,0,0,0,7.06.63c7.33.23,14.67.38,22,.55.74,0,1.65.26,2.2-.07,2.51-1.51,3.94-1,4.31,2,.08.7.38,1.07,1.15.91,1.09-.23,1.8.24,1.85,1.33a2.18,2.18,0,0,1-1.43,2.09,11.18,11.18,0,0,1-2.82,1.14q-32.68,6-65.69,9.85a6.79,6.79,0,0,1-3.55-.16,2.06,2.06,0,0,1-1.43-1.57,2,2,0,0,1,1.13-2.23,16.05,16.05,0,0,1,4.3-1.18c1.34-.3,2.46-.68,2.6-2.5.41-5.18,3-9.69,4.74-14.44.15-.42.53-.78.6-1.2,2-11,5.92-21.66,4.35-33.43-2.34-17.68-10.41-32.23-21.53-45.56a7.82,7.82,0,0,0-5.23-2.91c-22.48-3.38-44.89-7.32-67.59-9.15-2.28-.19-3,.45-3.58,2.67-5.95,23.71-18.65,43.55-35.47,61-1.77,1.84-3,4-4.82,5.86-6.93,7.25-15.54,12.16-23.9,17.4a236,236,0,0,1-63.62,27.48c-1,.27-2.05.35-3.08.52C271.28,559.13,271.14,558.57,271.24,557.74Z"/><path class="cls-1" d="M356.6,374.35c-1.82-.65-1.58-2.33-1.75-3.71-1.19-9.47-2.37-18.95-3.47-28.43-1-8.74-2-17.48-2.93-26.23a14,14,0,0,0-1.77-2.62c-1-1.84-2.75-2.68-4.51-3.51a231.73,231.73,0,0,1-29.47-16c-4.34-2.88-8.37-3.08-12.93-.52-14.13,7.92-26.75,17.43-35.34,31.54-.81,1.32-1.35,3.14-3.48,3-.65-.34-1.1-.77-.7-1.57,4.06-8.84,10.29-16.06,17.19-23.06l-14.27-16.37c-1.48,1.79-2.84,3.34-4.09,5-14,18.41-22,39.25-24.8,62.15a139,139,0,0,0,1.15,40.67c0,1,2.13.47,1.59,2-1.17,1.05-.43,2.18-.19,3.32,1.37,6.3,3.94,12.21,5.91,18.32a38.71,38.71,0,0,1,1.69,6.91c.31,1.07-.17,1.4-1.16,1.27-.12-.1-.32-.18-.34-.29-.91-5.27-5-8.16-8.68-11.23-12.33-10.22-22.66-22.52-34.64-33.1-1.45-1.28-3.11-2.62-1.23-4.8-.45-.88.11-1.1.81-1.23C210,386.6,221.54,396.62,232,407.73c1.53,1.62,3.29,3,4.23,5.13a16.44,16.44,0,0,1,1.16,1.86c.55-.51-.41-.43-.29-.77a7.08,7.08,0,0,1-1.11-2.17c-3.72-10-5.26-20.53-6.55-31.1-.87-7.13-.25-14.36-1.68-21.43.05-.86.27-1.54,1.37-1.25,1.91-.06,1.44-1.58,1.54-2.64a132.36,132.36,0,0,1,17.92-54.48c6.06-10.38,13.08-20,22-28.2.2-.71-.15-1.61.73-2.08,2,.2,2.85-1.46,4-2.48C287,258.05,299.85,250,314.66,245.33c2.84-.89,5.76-1.53,8.66-2.27a3.84,3.84,0,0,1,4.58,1.75c2.15,3.05,4.69,5.83,6.9,8.84,5.21,7.08,12.22,11.77,20,15.44.3.91-.24,1.2-1,1.32-4.48.31-7.85-1.73-10.63-5-5.06-3.65-9.93-7.49-13.73-12.52-1.86-2.47-3.86-4.85-4.67-7.83-1.3-.28-2.1.68-3.14.75-.47.62-1.39.3-1.89.87-12.33,5.33-24.17,11.54-35,19.62-3.69,2.77-7.16,5.82-10.63,8.87-1.49,1.32-1.8,2.43-.64,4.17,2.05,3.09,3.88,6.33,5.8,9.51a3,3,0,0,1,.62,1l.3.84a.85.85,0,0,1-1.14.14c-3.93-2.89-6.48-6.94-8.88-11.1-2.92,2.35-2.89,2.33-1,5,2.86,4,5.05,8.49,8.25,12.28,1,1.14,1.87,2.32,3.06,3.79,3.13-2.44,6.17-4.8,9.41-6.85a76.19,76.19,0,0,1,14.4-7.25c1.53-.57,3.1-1.2,4.78-.84.65.14,2,.3,1.55,1.12-1.46,2.94,1.35,2.78,2.49,3.34,10.76,5.25,21.33,10.83,31.82,16.6a9.28,9.28,0,0,1,5.37,8.28c1.06,13.11,3.18,26.11,4.92,39.14.63,4.74,1.64,9.44,1.48,14.26C357.13,370.5,357.44,372.44,356.6,374.35Z"/><path class="cls-1" d="M578,314c-5-7-11.3-12.78-17.88-18.12a291.5,291.5,0,0,0-30.47-22.1,246.63,246.63,0,0,0-47.51-22.59,176,176,0,0,1-7.11,22.76c6.19,1.64,12.11,3.06,17.88,5a120.66,120.66,0,0,1,16.23,6.43c15.38,7.66,30.67,15.48,45.11,24.85a63,63,0,0,1,6.91,5c1.9,1.64,3.22,2,5.2,0a9.32,9.32,0,0,1,8.13-3c1.17.15,1.45.8,1.27,1.83-2.7,1.82-5.72,3.23-7.71,5.89,0,1.13.84,1.65,1.51,2.2,2,1.64,2.27,3.41,1.4,5.93a11.12,11.12,0,0,0,2.75,12.26,16.88,16.88,0,0,1,1.24,1.3c.6.78,1.86,1.36,1.26,2.59s-1.83,1.44-3.09,1.36a4.52,4.52,0,0,1-4.17-2.92c-1.8-4.58-3.88-9.13-1.86-14.26,1-2.52-.39-4.22-2.28-5.71-7.05-5.54-14.11-11.07-21.67-15.92a200.27,200.27,0,0,0-28-15c-11-4.77-21.83-9.69-33.36-13-.58-.16-1.13-.42-1.7-.55-2-.48-4.19-1.58-6-1.19s-2,3.11-3,4.76c-2.3,3.85-5.24,6.05-10,6.43-7.14.56-14.25,1.56-21.43,1.74-1,.42-1.38,0-1.25-1,8-2.58,16.33-3.46,24.59-4.6a6,6,0,0,0,5.28-3.7,99.58,99.58,0,0,0,9.29-27,19,19,0,0,0,.39-3.1c0-1.49-1.37-1.4-2.25-1.71s-1.21.49-1.43,1.25c-1.2,4.15-2.4,8.3-3.64,12.45a14.74,14.74,0,0,1-.94,2c-.85.12-1.26-.14-.9-1,.4-3.9,1.78-7.56,2.7-11.33,1-4.18.84-4.36-3.26-5.59-12.36-3.7-25.08-5.66-37.73-8a102.45,102.45,0,0,0-21-1.94,14.3,14.3,0,0,1-5.17-.35c.1-1.66,1.3-1.15,2-1.21,9.91-.82,19.7.15,29.5,1.72,11.38,1.81,22.72,3.66,33.91,6.53a204.61,204.61,0,0,1,34.92,12.78A277.21,277.21,0,0,1,553.28,285c9.39,6.93,17.2,15.31,24.42,24.34a35.24,35.24,0,0,0,6.47,6.78c4.32,3.15,6.54,8.15,10.28,11.81a3.18,3.18,0,0,1,.71,2.54c-.33,4.47-.06,9.05-1.6,13.32a45.07,45.07,0,0,0-2.35,11.84c-.17,2.16-.21,4.23-3,4.73a7,7,0,0,1-6.73-2.63,12.06,12.06,0,0,1-1.67-5.08c-.72-4.73-1.38-9.47-1.82-14.23-.21-2.18-.33-4.13-2.57-5.28a1.34,1.34,0,0,1-.52-2.22,2,2,0,0,1,2.44-.51,4.94,4.94,0,0,1,2.9,4.72c.15,4.2,1.31,8.29,1.08,12.51a14.32,14.32,0,0,0,1,6.17,3.66,3.66,0,0,0,3.27,2.63c1.73.18,2.72-.11,3.22-2.07a85.61,85.61,0,0,0,2.61-15c.51-1-.4-2-.11-3a3.25,3.25,0,0,1,.81-1.65,7.35,7.35,0,0,0-1.72-6.5c-2.71-3.5-5.29-7-8.78-9.85C580.14,317.2,579.19,315.44,578,314Z"/><path class="cls-1" d="M514.84,523.42c-1.68-1.5-3.72-.68-5.59-.79-2.22-.13-4.46,0-6.61,0,1.05-6.73.23-13.35.57-19.93,1.4,4.67.82,9.48,1,14.23.06,1.45-.46,2.93.2,4.72,3.37,0,6.77,0,10.18,0,2.86,0,4.44-1.1,5.17-3.84,3.89-14.61,7.84-29.22,7.33-44.54a104.71,104.71,0,0,0-3.22-24.4,36.37,36.37,0,0,0-9-16.33q-4.25-4.32-8.37-8.76a11.5,11.5,0,0,0-3.25-2.34c-20.09-10.47-41.44-17.77-62.78-25.11a22,22,0,0,1-2.58-.77c-1.55-.75-2.07.05-2.61,1.34-1,2.4-1.67,5-4.28,7.45.63-4.63.64-8.69,1.84-12.35,1.27-3.85,1.1-7.59,1.19-11.39-.45-.11-.8-.33-1-.23-9.91,5.87-20.82,9-31.87,11.74-13.8,3.37-27.7,6.23-42,7-8.68.47-17.34.59-26,.28-1.05,0-2.11-.06-2.85-1a.44.44,0,0,1-.09-.34,1.17,1.17,0,0,1,.28-.35c4.63-.88,9.5.1,14-1.84a31.32,31.32,0,0,1,6-.28,14.72,14.72,0,0,0,4.9-.41,8.06,8.06,0,0,1,1.38-.29,41.12,41.12,0,0,1,4.15-.16,13.83,13.83,0,0,0,4.66-.51,17.15,17.15,0,0,1,4-.36,12.18,12.18,0,0,0,3.75-.38,12.61,12.61,0,0,1,2.45-.37c.41,0,.82,0,1.22,0s.8,0,1.2,0,.79,0,1.19,0a6.58,6.58,0,0,0,4-.77,7.91,7.91,0,0,1,1.74-.82c17.36-3.65,34.31-8.52,50.1-16.84A15.37,15.37,0,0,1,439,373a1.66,1.66,0,0,1,1.31.35h0c.4.52,1.41.75.82,1.73a6.79,6.79,0,0,1-1.39,1.1c-2,.91-2.74,2.15-2.15,4.52a20.11,20.11,0,0,1-.23,9.35c-.5,2.16.08,2.68,2.08,3.35q21,7,41.67,15.13c7.64,3,15.07,6.56,22.81,9.31a20.59,20.59,0,0,1,7.47,4.82c8.74,8.41,14.74,18.3,17,30.41,3.88,21.16,3.23,42-4.58,62.23-2.15,5.57-4.49,11-5.36,17-.19.39-.47.8.08,1.14a2.37,2.37,0,0,0,.11.84h-2C514.39,530.89,515.94,527,514.84,523.42Z"/><path class="cls-1" d="M271.24,557.74l1.05.89c-1.64,1.11-3.6,1.22-5.46,1.55-1.37.25-2,1-2.78,2.3a61.3,61.3,0,0,0,10.13,3.41,5.93,5.93,0,0,0,2.6.2c5-.83,5.28-.65,8,3.93.44.82,0,1.26-.67,1.62-7.92-.84-15.94-1-23.56-3.79-4.82-1.75-5.37-3.67-1.9-7.49.91-1,1.55-1.88.41-3-1.5-1.47-3-3-5.45-2.12-2.78,1-5.09,3.22-8.28,3-.69-.23-1.23-.57-1.07-1.43,4.53-3.41,9-6.82,13.58-10.21a13.09,13.09,0,0,1,2.26-1.44,134.17,134.17,0,0,0,49.8-40c8.75-11.41,15.77-23.61,17.46-38.27,1-8.34.44-16.36-3.75-23.93-2.82-5.09-5.27-10.39-7.92-15.58a66.92,66.92,0,0,1-6-18.71c-.2-.65-1.28-1-.71-1.92l1.65-1.07c.34-.24.68-.47,1-.68l.82-.43c1,.78.07,2.13.85,3,2.21,9.76,6.55,18.64,11.95,26.89C336.2,451,334.74,468,327,484.85a111,111,0,0,1-30.7,40.32c-10,8.18-20.95,14.85-31.87,21.6-1.27.78-2.56,1.52-4.05,2.4,1.63,3.36,4.47,5.59,6.69,8.32C268.39,559.11,269.87,557.36,271.24,557.74Z"/><path class="cls-1" d="M283.59,571.24l1.23-1.22c1.54,1.69,2.36,3.47.75,5.59-.68.71-1.57.37-2.37.48a7.58,7.58,0,0,0-1.94.72,11,11,0,0,1,2.07-.68,4.82,4.82,0,0,1,2.44.25c30.91-1.17,61.82-1.83,92.75-1.24-6.59,1.63-13.32,1.27-20,1.49-30.08,1-60.17,1.8-90.24,2.86-19,.66-38,1.66-57,2.49-2.09.09-4.19.07-6.28.11-2.25,0-4.71,1.42-6.58-1,12.72-1.47,25.51-2,38.3-2.92-1.07-5.72-1.22-11.16.45-16.55,3.25-2.21,5.18-1.65,6.19,1.81a14.72,14.72,0,0,1,.36,3.57c.16,5.52.49,6.07,5.92,5.44,10.77-1.25,21.53-.73,32.31-.6A2.17,2.17,0,0,0,283.59,571.24Z"/><path class="cls-1" d="M417.52,146.83a70.08,70.08,0,0,0,2.25-22.11,29.08,29.08,0,0,0-3.86-13.18c-8.56-15.34-21.62-24.68-38.41-29.4-17.34-4.87-32.7,0-47.45,8.73-1.67,1-3.3,2-4.95,3.08a30.07,30.07,0,0,0-14.2,20.8,1.5,1.5,0,0,1-1.18,1.48c-1.69-2.06-.93-4.37-.32-6.55a31.22,31.22,0,0,1,11.29-16.36c10.27-8,21.62-13.82,34.63-16A42.43,42.43,0,0,1,369.17,77c11.28,1.82,22.16,5.12,31.58,11.93,10.54,7.62,18.13,17.67,20.94,30.33,2,9.19,1.59,18.76-3.13,27.51A.64.64,0,0,1,417.52,146.83Z"/><path class="cls-1" d="M432.15,571.21c14.07-.3,28.13-.82,42.2-.85q63.12-.11,126.23.13c7.78,0,15.56.4,23.34.65a11.26,11.26,0,0,1,6.4,1.66c-4.36.31-7.82.71-11.28.78-30.39.69-60.78.83-91.17-.32-8.23-.31-16.47-.29-24.7-.43-1.58-.67-3.25-.34-4.87-.34-21.83,0-43.66,0-65.49-.06C432.11,572.29,431.88,571.88,432.15,571.21Z"/><path class="cls-1" d="M406,323.84c1.38-5.66,2.78-11.31,4.13-17a31.38,31.38,0,0,0,.5-10.27c-.22-2.42-1-2.76-3.3-1.82-3.44,1.41-5.29,4.24-6.65,7.5-2.38,5.71-2.41,5.74-6.76,1.07a23.22,23.22,0,0,0-6.73-5.15c-1.81-.88-2.47-.43-2.48,1.62a17.74,17.74,0,0,0,1.81,7.35,31.74,31.74,0,0,0,12.85,14.57c1.4.85,2.76,1.78,4.09,2.74a1.86,1.86,0,0,1,.67,2.39c-.44.89-1.38,1-2.31,1-1.42,0-2.43-1.1-3.72-1.46-2-1.81-3.95-3.6-5.88-5.44a30.07,30.07,0,0,1-9.77-20.49c-.31-5,1.85-6.41,6.62-4.46a16.94,16.94,0,0,1,6.63,5.42c1.21-1,1.15-2.39,1.7-3.5,2.08-4.2,4.95-7.47,9.9-8.19,4-.58,5.57.68,6,4.64a48.44,48.44,0,0,1-1.08,15.56,96.46,96.46,0,0,1-5.38,17.5,8.81,8.81,0,0,1-.61,1.08,1.34,1.34,0,0,1-.3.65c-.86.27-1.15,0-.85-.88.06-.55.13-1.1.19-1.65C406,325.86,405.34,324.67,406,323.84Z"/><path class="cls-1" d="M256.8,398.69c1.83,1.32,4,1.73,6,2.42.92-1.07.13-2.42.91-3.53,2.17,1.34,1.14,4.22,3,5.38a16.09,16.09,0,0,1,4.37,4.45,34.45,34.45,0,0,1,4.27,7.35c.75,1.82,1.36,3.85-.18,5.49a5.17,5.17,0,0,1-5.4,1.27,5,5,0,0,0-2.82-.37,32.32,32.32,0,0,0,.09,10.69c8.59-5.34,16.85-10.31,25.48-14.6,1-.33,1.2.18,1.14,1-8.38,5.19-16.77,10.36-25.11,15.6-2.09,1.3-3.82,1.65-6-.12a40.73,40.73,0,0,0-7.27-4.39,4.56,4.56,0,0,1-2.8-5c.35-3.11.55-6.25,1.14-9.31s1.1-3.28,4.72-2.84a2.43,2.43,0,0,1,1.18.79h0c.46.55,1.38.36,1.74,1.08,2,1.86,4.4,3,6.66,4.38a5.19,5.19,0,0,0,5.41.37c-3.49-5.53-6-11.48-12.58-14.05a19.61,19.61,0,0,1-5.92-3.93c-.7-.63-2.13-1.11-1.31-2.39.66-1,1.58.08,2.38.18C256.22,398.6,256.51,398.65,256.8,398.69Z"/><path class="cls-1" d="M317.13,135.16c-1.92,7.64-5,14.85-7.79,22.21-2.48,6.66-2,14-1.79,21.18.1,3.27.59,6.51.9,9.77.2,1.06,1.12,1.76,1.43,2.77.61,2.24,1.22,4.49,1.75,6.76a15.2,15.2,0,0,1,.25,1.9,10.08,10.08,0,0,0,.64,3.11c1.7,4.42,3,8.92,5,13.26,1.09,2.4,2.64,4.56,3.66,7a9.92,9.92,0,0,1,.94,3.24c0,.57-.4,3.7-1.49,2.32-5.59-7.09-8.72-15.31-10.9-24,.08-2-2.53-1.23-2.92-2.77A37.13,37.13,0,0,0,305,191.38c-.49-1.63-.82-3.63-3.16-3.77-1.65,1.29.43,4.47-2.56,5a14.8,14.8,0,0,1-.69-5.28c.45-3.8,1.4-4.57,5.22-4.32.44,0,.88.13,1.54.22V162.75c-1.26-.44-2,1-3.22,1-.11-2.47,1.64-3.65,2.71-5.17,6.29-8.86,10.5-18.37,9.53-29.55-.22-1.12-1.26-2.52.95-2.82C317.46,128.84,316.75,132.11,317.13,135.16Z"/><path class="cls-1" d="M382.46,121.79c-1.19-1.11-2.45-.53-3.76-.23-9.14,2.06-18.22,4.44-27.44,6-10.08,1.69-20.14,4.17-30.52,3.09-.91-.89-2.55-1-2.82-2.56-.05-1.65.82-1.58,1.95-1.05,13.06,1,25.79-1.57,38.5-3.89,7-1.28,13.9-3.23,20.83-5a33.58,33.58,0,0,1,15.91-.23c3.74.86,7,2.57,8.7,6.3a1.4,1.4,0,0,1-1.69.28,22.55,22.55,0,0,0-14.84-3.92,2.28,2.28,0,0,0-2.51.25C384.12,121.46,383.59,122.35,382.46,121.79Z"/><path class="cls-1" d="M286.48,170.24c-6.52-10.11-8.19-20.9-4.39-32.37a29.45,29.45,0,0,1,14.17-17.12c2.16-1.18,1.92-2.84,2-4.44a31.44,31.44,0,0,1,3.37-14.17,28.52,28.52,0,0,1,2-2.93.66.66,0,0,1,1.11,0c-.43,1.42-.74,2.89-1.31,4.26-1.92,4.63-1.7,9.24-.3,14,1.27,4.27,1.18,4.34-2.71,6.06-12.31,5.43-18.78,21.49-17,30.8a79.3,79.3,0,0,0,4,15C287.78,170.22,287.35,170.45,286.48,170.24Z"/><path class="cls-1" d="M342.29,392.08c17.48-3.94,35.27-6.25,52.78-10a150.85,150.85,0,0,0,25.92-8.5c2.75-1.14,5.53-2.21,8.29-3.31,1-.35,1.25.25,1.3,1.06-.84,2.16-2.86,2.9-4.68,3.89-12.54,6.81-26.19,10.24-40,13-1.46.29-2.83.89-4.3,1.06a26.06,26.06,0,0,0-3.84.52,7.57,7.57,0,0,1-1.83.27l-1.22,0a6.5,6.5,0,0,0-2.31.73,13.34,13.34,0,0,1-2.52.16,33.72,33.72,0,0,0-5.74.87,9.74,9.74,0,0,0-3.22.42c-1.32.1-2.65,0-4,.06a6.72,6.72,0,0,0-1.34.1,16.74,16.74,0,0,1-4.66.79h-5.55c-.93,0-1.86,0-2.79-.06A.73.73,0,0,1,342.29,392.08Z"/><path class="cls-1" d="M368.16,101.16c-4.34-1-8.57-2.54-13.1-2.73-16.88-.7-30.15,5.79-39.77,19.71a7.31,7.31,0,0,1-2.3,2.67c-1.24-.38-.93-1.15-.74-2.11a14,14,0,0,1,3.43-6.71c9.63-10.62,21.23-17.27,35.94-17.45a28.78,28.78,0,0,1,17.61,5.54C369.42,101,369.15,101.43,368.16,101.16Z"/><path class="cls-1" d="M239.77,244.05c13.82-1.23,27.64-2.49,41.47-3.67,7.88-.68,15.71-2,23.65-1.88,1.87,0,3.86-.29,5.8,1.09-1.1,1.34-2.44,1.36-3.67,1.45q-21.22,1.54-42.45,3c-10.27.71-20.52,1.85-30.84,1.82a18.19,18.19,0,0,1-5.26.19.75.75,0,0,1-.38-1.19l5-.22C235.3,243.94,237.62,244.9,239.77,244.05Z"/><path class="cls-1" d="M248.77,274.52c-7.4,6.46-14.83,12.88-22.19,19.39q-16.76,14.82-33.43,29.7a8.33,8.33,0,0,1-2.83,2.12l-.33-.09a1.54,1.54,0,0,1-.48-.47l-.08-.33c4.71-5.19,10.17-9.58,15.36-14.25,13-11.66,25.46-23.83,39.3-34.49,1.18-.9,2.4-1.73,3.6-2.6C248.65,273.21,248.92,273.63,248.77,274.52Z"/><path class="cls-1" d="M434.08,352.67c-2.82-9.46-4.58-19.15-6.32-28.83-1.64-9.1-3-18.26-4.38-27.4a18.31,18.31,0,0,1-.19-4.9c.13-1.16,1.07-1.2,1.9-.36s-.06,2.17.68,3.08c1.76,17.63,5.11,35,8.65,52.32.26,1.31.38,2.64.56,4C435.1,351.43,435.84,352.58,434.08,352.67Z"/><path class="cls-1" d="M251.31,361.37c-1.15,7.1-.84,14.22-.32,21.34.18,2.52.41,5,.62,7.56,0,1.6,1.46,3.52-1,4.63a103.81,103.81,0,0,1-2.8-25.15c.23-9.62,2.5-18.77,5.48-27.82,1.42-.06,1.55,1.05,1.83,2C254.42,349.87,253.76,355.82,251.31,361.37Z"/><path class="cls-1" d="M356.6,374.35c.06-1.93.11-3.86.17-5.8,1.44,1.86-.1,4.38,1.45,6.31.63.79-.38,1.71-1.11,2.14-13.8,7.94-25.93,18.4-39.84,26.17-1,.4-1.21-.15-1.09-1,12.89-8.35,24.95-17.94,38.27-25.64A4.49,4.49,0,0,0,356.6,374.35Z"/><path class="cls-1" d="M432.23,571.9q32.88.11,65.75.25c1.74,0,3.6-.55,5.19.68-.89.08-1.77.22-2.66.22l-80.14-.11c-.74,0-1.48-.07-3-.14,4-2.13,7.62-1.68,11.19-1.55C429.7,572,431.1,571.21,432.23,571.9Z"/><path class="cls-1" d="M145.38,389.61q26.88-.76,53.77-1.5c.36,0,.89.25.84,1.45-7.11,1.35-14.44,1.17-21.77,1a234.91,234.91,0,0,1-27.83,0,15.55,15.55,0,0,1-5-.21c-.3-.16-.4-.33-.3-.5S145.28,389.61,145.38,389.61Z"/><path class="cls-1" d="M382.46,121.79l2.18-1.84c.49.45.31,1.23.82,1.67l5.23,3.79a.82.82,0,0,1,.47.77c0,.48,0,1,0,1.45a2.9,2.9,0,0,0,.43,1.34,110.27,110.27,0,0,1,9.5,16,13.59,13.59,0,0,1,1.53,4.14c.37,1,0,1.45-1.07,1.31h0c-.53-.48-.34-1.29-.84-1.78-3.8-7.45-7.53-14.94-13.22-21.21C385.82,125.57,384.15,123.67,382.46,121.79Z"/><path class="cls-1" d="M243.27,426.46l1.16-1.27c1.74,2.41,3.56,4.76,5.19,7.23a15.57,15.57,0,0,0,12.68,7.25c2.68.18,5.37.21,8.05.3.87.83,2.37-.27,3.09,1C259.94,444.56,249.29,439.43,243.27,426.46Z"/><path class="cls-1" d="M243.14,536.51c6.74-.84,13.35-2.37,20.15-2.5a6.7,6.7,0,0,1,.89,0c1.23.14,2.52.38,2.43,2-.07,1.27-1.24,1.64-2.28,1.68C257.25,537.9,250.16,538.16,243.14,536.51Z"/><path class="cls-1" d="M381.92,260.28a16.14,16.14,0,0,1-3.69,5.24c-.89.13-1.33-.14-1-1.12,1.93-3.4,4.41-6.63,3.59-11-1.72-.51-2.82,1.33-4.43,1.17-.57-.53-1.7-.06-2-1.11,3.27-3.13,7.62-4.51,11.31-6.95a3.14,3.14,0,0,1,1.21-.23,2.08,2.08,0,0,1,1,.66c.07.19.14.39.2.58a15.87,15.87,0,0,1-2.27,2c-1.77,1.06-2.74,2.27-2.28,4.55.35,1.72-.56,3.4-1.08,5.07C382.3,259.53,382.11,259.91,381.92,260.28Z"/><path class="cls-1" d="M195.83,368c-2.71-8.62-5.27-17.29-7.27-26.12-.67-1.07-.87-2.07.48-2.81a1.61,1.61,0,0,1,1.08.77c.47.79.83,1.64,1.23,2.47,2.78,7.75,5.5,15.51,6.26,23.79C197.34,367,197.18,368,195.83,368Z"/><path class="cls-1" d="M210.13,549.66c9.68-.72,19.35-1.45,29.4-1.12-3.29,2.05-6,2.36-16.43,2.05-3.83.63-7.7.19-11.55.28C210.75,550.89,210.09,550.67,210.13,549.66Z"/><path class="cls-1" d="M210.13,549.66c1.35,1.34,3.05.72,4.61.79,2.78.11,5.57.1,8.36.14a16.79,16.79,0,0,1-3,.59c-9.61.19-19.22.68-28.84.07-.3-.17-.4-.34-.31-.52s.2-.27.3-.27A114.76,114.76,0,0,1,210.13,549.66Z"/><path class="cls-1" d="M254.3,344c-.19-.75-.19-1.58-1-2.05a51.25,51.25,0,0,1,6.92-15.64l1.07,1.23C260.15,333.51,258.23,339.17,254.3,344Z"/><path class="cls-1" d="M144.9,379c-7,1-14.07.51-21.11.61-3.49-.83-7-.11-10.54-.4-1.4-.12-3,.62-4.2-.6,5.49-1.09,11-.55,16.57-.62,5,.85,10,.11,15,.39C142.08,378.44,143.63,377.79,144.9,379Z"/><path class="cls-1" d="M353.07,255.47c-5.45-1-10.07-3.76-14.43-7-.25-.88.29-1.24,1-1.51a88.68,88.68,0,0,1,16.31,7.39C355.42,255.8,353.88,254.72,353.07,255.47Z"/><path class="cls-1" d="M144.9,379c-5-.07-10.05-.11-15.08-.22-1.42,0-3,.47-4.2-.79,7-.52,14.11-.36,21.17-.24,4.72-.62,9.47-.15,14.21-.26.8,0,1.47.19,1.43,1.2C156.59,379.09,150.74,379,144.9,379Z"/><path class="cls-1" d="M271.3,270.6c-.05.76.09,1.59-.73,2.08-3.1-3.22-7.74-3.54-11.27-6-.89-.61-1.63.41-2.47.57l-.38-.1c-.09-.25-.19-.49-.3-.74.9-2.57,2.67-2.37,4.62-1.4A86,86,0,0,1,271.3,270.6Z"/><path class="cls-1" d="M162.43,378.66c-1.39-1.24-3.08-.69-4.64-.74-3.67-.13-7.33-.14-11-.2a44.92,44.92,0,0,1,11.1-.63A136.12,136.12,0,0,1,177,378.66Z"/><path class="cls-1" d="M307.2,201.79c.86,1,3.1.73,2.53,2.92-.4-.4-.77-1.11-1.22-1.17-6.52-.74-8.25-5.5-9.28-10.89,1.16-1.22.53-2.73.67-4.11.11-1.12-.16-2.37,1.28-2.88a3.66,3.66,0,0,1,.8,2.5C301.55,193.54,303.57,198,307.2,201.79Z"/><path class="cls-1" d="M320.63,228.67c.77-.35.81-1.07.92-1.76,2.41-.19,2.57,2.08,3.51,3.38,1.83,2.54,3.83,5,5.51,7.61a3,3,0,0,1,.31,1.18,1.82,1.82,0,0,1-.61,1l-.58.21A39.67,39.67,0,0,1,320.63,228.67Z"/><path class="cls-1" d="M294.74,142.37c2.41-6.66,5.5-10.26,11-11.73-4,4.23-7.37,7.71-10,11.77C295.37,142.8,295.05,142.77,294.74,142.37Z"/><path class="cls-1" d="M372.23,255.77a25.83,25.83,0,0,1-17.64,0c.7-.66,1.65-.93,2.35-1.59,4-.53,8.09.63,12.13-.12C370.29,254.31,371.51,254.58,372.23,255.77Z"/><path class="cls-1" d="M109.05,378.58c3.52.07,7,.09,10.57.21,1.41,0,3-.47,4.17.79a73.71,73.71,0,0,1-13,.14c-4.49.82-9,.2-13.51.35-.81,0-1.42-.25-1.38-1.22A114.53,114.53,0,0,1,109.05,378.58Z"/><path class="cls-1" d="M401.59,150.43c.35-.44.71-.87,1.07-1.31a39,39,0,0,1,4.19,12.14c-.75.49-.74,1.31-.91,2.06C404,159.18,403,154.73,401.59,150.43Z"/><path class="cls-1" d="M150.39,390.57l27.82,0c-6.45,1.3-13,.62-19.49.7C156,391.27,153.08,391.82,150.39,390.57Z"/><path class="cls-1" d="M354,270.84a5.83,5.83,0,0,1-.32-.72l1.11-1a41.92,41.92,0,0,0,13.26.82c.91-.29,1.93-.83,2,.85L365.61,272c-.2,0-.39,0-.58,0a8.28,8.28,0,0,0-2.22.15,8.19,8.19,0,0,1-1.09.25,1.85,1.85,0,0,1-1.52-.51Z"/><path class="cls-1" d="M93.28,380.34c-5.67.72-11.18-.75-16.78-1.46H93.27a1.05,1.05,0,0,1,.46.73A.92.92,0,0,1,93.28,380.34Z"/><path class="cls-1" d="M330.53,259.43a20.61,20.61,0,0,1-8.22-8.9c-.38-1,.06-1.27,1-1.18l7.39,8.81A.86.86,0,0,1,330.53,259.43Z"/><path class="cls-1" d="M198.44,581.08c2,1.66,4.45.2,6.58,1-5.42,1.38-10.93.35-17.18,1.09C191.08,581.31,192.68,581,198.44,581.08Z"/><path class="cls-1" d="M229.15,358l-1.05.92c-4.45-.21-7.21-2.9-9.4-6.42.24-.71.58-1.26,1.47-.79A43.42,43.42,0,0,1,229.15,358Z"/><path class="cls-1" d="M402.36,228.62a29.45,29.45,0,0,1-6.07,10.16A1.89,1.89,0,0,1,395,237.5a23,23,0,0,1,6-10C401.81,227.49,402.15,228,402.36,228.62Z"/><path class="cls-1" d="M191.73,269.8c4.12-1.09,8.34-.79,12.54-.88,2.2-.66,4.54.21,6.73-.59h.91a1.1,1.1,0,0,1,.49.78,1.12,1.12,0,0,1-.51.78,18.24,18.24,0,0,1-5.85.21c-2.48.85-5.13-.2-7.61.67l-.93,0C195.7,269.74,193.45,271.28,191.73,269.8Z"/><path class="cls-1" d="M583.8,338.78c1.89,3.47.91,7.22.94,10.87C582.48,346.21,583.14,342.5,583.8,338.78Z"/><path class="cls-1" d="M228.12,245.69l5.61.21c-4.24,1.28-8.58.64-12.88.64-.5-.58-1.5-.13-1.9-.92,2.37-1.13,4.88-.8,7.38-.66C226.83,245.43,227.65,245.13,228.12,245.69Z"/><path class="cls-1" d="M370.09,270.76c-.48-.72-1.27-.73-2-.85a27.47,27.47,0,0,0,9.12-5.51l1,1.12A13.45,13.45,0,0,1,370.09,270.76Z"/><path class="cls-1" d="M93.43,379.72a5.67,5.67,0,0,1-.16-.84l2.68,0c1.06,1.17,2.48.78,3.77.8,3.7.06,7.41.05,11.12.07-5.54,1.26-11.15.7-16.74.57A.9.9,0,0,1,93.43,379.72Z"/><path class="cls-1" d="M175.77,270.77c2.69-1.23,5.52-.7,8.31-.66,2.08,1.07,4.56-.53,6.57,1-3.07,1.08-6.22.67-9.35.55-1.22-.61-2.53-.19-3.79-.32C176.87,271.31,176.2,271.42,175.77,270.77Z"/><path class="cls-1" d="M273.44,441c-1.06-.24-2.29,0-3.09-1,2.79-.46,3.55-2.64,3.92-5.23C276.73,437.71,276.54,438.73,273.44,441Z"/><path class="cls-1" d="M393.54,242.19a15.18,15.18,0,0,1-5.42,5.35.78.78,0,0,1-.41-.26l-.31-.31a1,1,0,0,1-.25-.4c-.06-2.89,2.35-3.9,4.1-5.42a2.72,2.72,0,0,1,1.16-.22,2.14,2.14,0,0,1,1,.69C393.43,241.81,393.48,242,393.54,242.19Z"/><path class="cls-1" d="M190.65,271.1c-2.13-.73-4.57.63-6.57-1a37.62,37.62,0,0,1,7.65-.31c1.88.6,4.06-.54,5.77,1A29.64,29.64,0,0,1,190.65,271.1Z"/><path class="cls-1" d="M218.8,268c3.23-1.14,6.49-.7,10.34-.51-1.58,1.91-3.15,1.67-4.7,1.51C222.68,268,220.47,269.48,218.8,268Z"/><path class="cls-1" d="M218.8,268c1.81.73,4-.63,5.64,1a24,24,0,0,1-5.86.3c-2.24.28-4.48.6-6.68-.2,0-.26,0-.51,0-.76A31.18,31.18,0,0,1,218.8,268Z"/><path class="cls-1" d="M293.68,418.25l-1.14-1a19.39,19.39,0,0,1,5.68-3.35c.38.26.92.34,1,.92A17.37,17.37,0,0,1,293.68,418.25Z"/><path class="cls-1" d="M438.45,368.88l-.35-.11-.36,0c-.35-2.07-.71-4.14-1.06-6.21.31-.52.66-.54,1-.06,1.13,1.64.79,3.75,1.73,5.46a.89.89,0,0,1,0,1.07A.77.77,0,0,1,438.45,368.88Z"/><path class="cls-1" d="M434.08,352.67c.72-.53.73-1.37.9-2.13a16.79,16.79,0,0,1,1.59,6.67c-.32.36-.4.93-1,1.09A13.48,13.48,0,0,1,434.08,352.67Z"/><path class="cls-1" d="M237,396.64c-.35-.8-1.85-.68-1.59-2,2.11.8,3.23-1.6,5.1-1.58,1-.39,1.2.14,1,1A17.75,17.75,0,0,1,237,396.64Z"/><path class="cls-1" d="M339.79,247.4l-1.15,1a13.46,13.46,0,0,1-4.48-3.62l.21-.59a1.89,1.89,0,0,1,1.05-.62l.62.07C337.69,244.52,339.6,245.09,339.79,247.4Z"/><path class="cls-1" d="M195.83,368c.75-.46.74-1.27.92-2,2.48,1.05,2.15,3.28,2.27,5.34a3.14,3.14,0,0,1-1.59,2.23A16.71,16.71,0,0,1,195.83,368Z"/><path class="cls-1" d="M316.18,402.16l1.09,1a5.2,5.2,0,0,1-2.41,1.67,2.36,2.36,0,0,0-1.47,2.71c-1.18-.74-.81-1.92-.85-3A7.62,7.62,0,0,1,316.18,402.16Z"/><path class="cls-1" d="M248.77,274.52l-1.08-1a20.82,20.82,0,0,1,5.59-4.37c.12.13.24.25.35.38a3.92,3.92,0,0,1-.31,1A15.92,15.92,0,0,1,248.77,274.52Z"/><path class="cls-1" d="M425.77,294.26c-1.06-.84-.77-2-.68-3.08,2.14,1.07,3.94-.92,6-.65.95-.39,1.14.06,1,.89a46.32,46.32,0,0,1-4.78,1.05C426.08,292.62,425.9,293.35,425.77,294.26Z"/><path class="cls-1" d="M250.65,394.9c1.55-1.29.14-3.19,1-4.63l.9,3.78c-.11,1.23-.23,2.46-.36,3.86A2.43,2.43,0,0,1,250.65,394.9Z"/><path class="cls-1" d="M163.59,271.94c-2.24,1.21-4.61.54-7,.51a9.54,9.54,0,0,1,5.88-1.4C162.89,271.31,163.45,271.37,163.59,271.94Z"/><path class="cls-1" d="M381.86,264.64a11.39,11.39,0,0,1,2-4.56c.82,2.84.82,2.84-1.2,5.36C382.39,265.18,382.12,264.91,381.86,264.64Z"/><path class="cls-1" d="M363.82,274.51c-2,.9-3.95,1.64-5.38-.88a7.58,7.58,0,0,1,4.31-.84,3.15,3.15,0,0,1,1.16.57A.89.89,0,0,1,363.82,274.51Z"/><path class="cls-1" d="M186.66,333.85c-.18-.23-.46-.43-.53-.68-.25-.84-.81-2,0-2.5,1-.7,1.89.17,2.5,1.09a1.51,1.51,0,0,1,.33,1,2.59,2.59,0,0,1-.51.92,2.71,2.71,0,0,1-.89.57A.88.88,0,0,1,186.66,333.85Z"/><path class="cls-1" d="M175.77,270.77l1.74.28c.37,0,.52.14.46.32s-.15.32-.25.32a42.6,42.6,0,0,1-9,.1c-.3-.19-.4-.38-.29-.56s.2-.27.3-.27Z"/><path class="cls-1" d="M212.8,246.61l-7.6.35,0-1a37.48,37.48,0,0,1,7.64-.16c.28.18.37.37.27.54S212.9,246.61,212.8,246.61Z"/><path class="cls-1" d="M438.44,288.91l1.25,1c-1.79,1.05-3.81.68-5.73,1a.75.75,0,0,1-.23-.73c.07-.24.14-.37.22-.37C435.43,289.43,436.83,288.64,438.44,288.91Z"/><path class="cls-1" d="M197.43,373.53c.23-.67.19-1.45.85-1.93,1.69,1.21,2.36,2.62.93,4.48l-.83,1A4.85,4.85,0,0,1,197.43,373.53Z"/><path class="cls-1" d="M395.35,237.64l.94,1.14a7.66,7.66,0,0,1-2.75,3.41,2.69,2.69,0,0,0-.3-.37l-.33-.34a2.16,2.16,0,0,0-.37-.29C392.33,239.1,393.6,238.18,395.35,237.64Z"/><path class="cls-1" d="M212.8,246.61c0-.26,0-.53,0-.8a25.68,25.68,0,0,1,6.13-.19l1.9.92A33.87,33.87,0,0,1,212.8,246.61Z"/><path class="cls-1" d="M299.88,412.86a9.66,9.66,0,0,1,3.75-2.51c.38.22.9.28,1,.84a9,9,0,0,1-3.74,2.58C300.51,413.51,300,413.43,299.88,412.86Z"/><path class="cls-1" d="M198.43,270.77c2.42-1.53,5.07-.52,7.61-.67C203.58,271.13,201,270.85,198.43,270.77Z"/><path class="cls-1" d="M323.27,249.35l-1,1.18q-1.28-1.93-2.53-3.87a1.66,1.66,0,0,1,1.89-.87C321.58,247.26,323.05,248,323.27,249.35Z"/><path class="cls-1" d="M191.23,550.46c0,.26,0,.53,0,.79h-6.86C186.64,549.94,188.93,550.21,191.23,550.46Z"/><path class="cls-1" d="M192.81,333.91c.08.26.15.51.22.77s-.12.4-.19.6a1.83,1.83,0,0,1-1,.65c-1.59-.44-3.27-.77-3.31-2.94a.41.41,0,0,1,0-.56.93.93,0,0,0,.85-.33Z"/><path class="cls-1" d="M309,406.75l.71,1.92c-1.44-.17-2.23,1.2-3.49,1.45-.37-.21-.88-.28-.95-.83A8.5,8.5,0,0,1,309,406.75Z"/><path class="cls-1" d="M248.78,427.67c-2.18-1.89-2.94-3.28-2.54-5.53C248,423.53,248,425.2,248.78,427.67Z"/><path class="cls-1" d="M372.23,255.77c-1-.2-2.19,0-3-.88a3.84,3.84,0,0,1,4.3-1.48,4.78,4.78,0,0,1,1.4,1.5A3,3,0,0,1,372.23,255.77Z"/><path class="cls-1" d="M220.17,351.71l-1.08,1c-2,.44-3-.76-3.78-2.24a1.94,1.94,0,0,1,.91-1.53.8.8,0,0,1,1,.29Z"/><path class="cls-1" d="M402.12,124.53l1.69-.28c1.15,1.34,2.41,2.64,2.19,4.63-.25.34-.46.34-.64-.06Z"/><path class="cls-1" d="M194.78,335.76l1.84.63a.34.34,0,0,0,.45.24,2.14,2.14,0,0,1,1.35.79,1.16,1.16,0,0,1,0,.78.76.76,0,0,1,.27.71c-.05.26-.1.39-.17.39-2,.35-3.16-.82-4.09-2.36A1.49,1.49,0,0,1,194.78,335.76Z"/><path class="cls-1" d="M211.9,269.09l6.68.2c-2.15,1.07-4.44.66-6.69.6C211.9,269.62,211.9,269.35,211.9,269.09Z"/><path class="cls-1" d="M168.77,271c0,.28,0,.55,0,.83a16.61,16.61,0,0,1-5.17.15l-1.09-.89Z"/><path class="cls-1" d="M211,268.33c-2.14,1.34-4.46.66-6.73.59C206.44,267.89,208.73,268.21,211,268.33Z"/><path class="cls-1" d="M211.89,345.54c.25.67.85.82,1.45,1a.75.75,0,0,1,.6.88,2,2,0,0,1-1.42,1.12c-1.67-.41-3.25-.93-3.48-3a1.4,1.4,0,0,1,1.11-.45A2.23,2.23,0,0,1,211.89,345.54Z"/><path class="cls-1" d="M245.4,557.84c-1.31,1.19-2.76,2-4.62,1.58a7.15,7.15,0,0,1,3.52-2.58Z"/><path class="cls-1" d="M342,266.52a2.36,2.36,0,0,0,.28.75c-.09.55-.61.64-1,.91-1.31-.4-2.09-1.38-3.21-2.55C340,264.87,340.84,266.49,342,266.52Z"/><path class="cls-1" d="M437.71,362.53l-1,.06a5.6,5.6,0,0,1-.9-3.6q.5-.74,1.11-.09C437.76,360,437.65,361.27,437.71,362.53Z"/><path class="cls-1" d="M239.77,244.05c-2.09,1.44-4.39.71-6.63.63C235.27,243.62,237.54,244,239.77,244.05Z"/><path class="cls-1" d="M250.68,402.94a8.37,8.37,0,0,1,2.64,2.31.78.78,0,0,1,0,1.23,7.18,7.18,0,0,1-3.89-3.42A.89.89,0,0,1,250.68,402.94Z"/><path class="cls-2" d="M581.5,322.11a5,5,0,0,1,2.55,2.73l-.23.38a4.93,4.93,0,0,1-.82-.35,4.61,4.61,0,0,1-2.4-2.77A.59.59,0,0,1,581.5,322.11Z"/><path class="cls-1" d="M315.27,126.17c-1.12.67-.69,1.86-.95,2.82a4.66,4.66,0,0,1-.94-2.82c-.06-.63-.37-1.63.73-1.56C314.83,124.65,315.24,125.38,315.27,126.17Z"/><path class="cls-3" d="M293.7,149.54l-.15,5.35h-.62a12.63,12.63,0,0,1,0-5.37C293.19,149.13,293.45,149.15,293.7,149.54Z"/><path class="cls-4" d="M241.69,400.23a5.35,5.35,0,0,1,.47.7c.38.77.75,2,0,2.23-1.09.28-1.52-.85-1.46-1.93C241,400.9,241.1,400.31,241.69,400.23Z"/><path class="cls-1" d="M468.75,267.23c-.37.9-.35,2-1.82,2.72-.07-1.52-.05-2.76.95-3.85C468.52,266.2,468.56,266.78,468.75,267.23Z"/><path class="cls-1" d="M439.4,373.4c-.5-1.16-1.23-2.27-.94-3.63a.73.73,0,0,1,.89-.24,4.29,4.29,0,0,1,.83,1.27c0,.85.06,1.7.08,2.55l-.43.09Z"/><path class="cls-5" d="M390.76,125.89a.36.36,0,0,1-.07-.48c1.25.48,2.39,1.07,2.81,2.48.22.18.29.35.23.53s-.14.28-.22.28l-1.82-.75a2.32,2.32,0,0,1-1.22-1A2.88,2.88,0,0,1,390.76,125.89Z"/><path class="cls-1" d="M341.35,268.18l1-.91a6.14,6.14,0,0,1,2.82,1.73c-.13.58-.67.66-1.08.9A6,6,0,0,1,341.35,268.18Z"/><path class="cls-6" d="M292.93,154.9h.62c.07,1.5.14,3,.22,4.5l-.85.81C292.92,158.43,292.93,156.67,292.93,154.9Z"/><path class="cls-1" d="M189.34,339.22c-1,.65-.65,1.71-.78,2.61a5.2,5.2,0,0,1-.88-3.53c.33-.51.57-1.13,1.35-1.09C189.9,337.76,190.08,338.42,189.34,339.22Z"/><path class="cls-1" d="M295.47,143.24c.08,1.31-.73,2.36-1.08,3.54-.87.09-1.2-.24-.83-1.1.12-.88-.15-1.89.85-2.47A.68.68,0,0,1,295.47,143.24Z"/><path class="cls-1" d="M344.06,269.9l1.08-.9,2.45,1.17c.08,1-.36,1.21-1.22.9A3.22,3.22,0,0,1,344.06,269.9Z"/><path class="cls-1" d="M186.66,333.85l.88,0a2,2,0,0,1,1.41,2.44,2.88,2.88,0,0,1-1.36,1.24A4.78,4.78,0,0,1,186.66,333.85Z"/><path class="cls-1" d="M366.51,273.58q.06-.4.15-.78c1.06.13,2.19-.65,3.3.27a4.37,4.37,0,0,1-3.47,1.31c-.29-.19-.39-.37-.28-.55S366.41,273.58,366.51,273.58Z"/><path class="cls-7" d="M293.71,179.29a4.85,4.85,0,0,1-2.62-2.82,1.07,1.07,0,0,1,1.2,0,3.37,3.37,0,0,1,1.48,1.78.66.66,0,0,1,.19.71C293.87,179.18,293.79,179.29,293.71,179.29Z"/><path class="cls-1" d="M286.48,170.24l1-1a5.45,5.45,0,0,1,1.68,2.79.86.86,0,0,1-1.33,0A2.14,2.14,0,0,1,286.48,170.24Z"/><path class="cls-1" d="M468.75,267.23l-.87-1.13c.16-.93,0-2,.95-2.62l.9,1Z"/><path class="cls-1" d="M240.54,400.49c-.74-.82-1.4-1.86-.06-2.47.78-.36,1.15.61,1.06,1.44C241.2,399.79,241.11,400.37,240.54,400.49Z"/><path class="cls-1" d="M434,289.79v1.1a1.52,1.52,0,0,1-1.89.53l-1-.89A3,3,0,0,1,434,289.79Z"/><path class="cls-1" d="M332.38,243a2.83,2.83,0,0,1-1.76-1.75c-.46-1.38,1.95-1.15,2.47-.55A1.34,1.34,0,0,1,332.38,243Z"/><path class="cls-1" d="M241.57,394.08l-1-1a3.89,3.89,0,0,1,2.66-1c.95-.34,1.2.08,1,1Z"/><path class="cls-1" d="M293.56,145.68l.83,1.1-.69,2.76h-.77A4.43,4.43,0,0,1,293.56,145.68Z"/><path class="cls-1" d="M198.46,339a1.35,1.35,0,0,0,0-.82l1.39.24a2.18,2.18,0,0,1,1.28.78h0l.36.49a1.27,1.27,0,0,1-.79.85C199.51,340.67,198.66,340.31,198.46,339Z"/><path class="cls-1" d="M590.56,338.33c-.25.72-.73,1.76-1.4,1.4-1.2-.65-.74-1.69.14-2.48.59.09.64.65.88,1Z"/><path class="cls-8" d="M255.87,406.81c.63.39,2,.62,1.46,1.45s-1.73.17-2.41-.62C255,407.08,255.47,407,255.87,406.81Z"/><path class="cls-1" d="M299.88,412.86l1,.91-1.63,1-1-.92Z"/><path class="cls-9" d="M385.46,121.62c-1.07-.16-.92-.93-.82-1.67a3.35,3.35,0,0,1,2.64.66C386.72,121,385.74,120.69,385.46,121.62Z"/><path class="cls-1" d="M305.31,409.29l.95.83-1.64,1.07-1-.84Z"/><path class="cls-1" d="M202.91,341l1.48.11a3.21,3.21,0,0,1,1.24.74l.05,0,.31.5a1.27,1.27,0,0,1-.72.86,2.3,2.3,0,0,1-2.55-1.12A1.26,1.26,0,0,1,202.91,341Z"/><path class="cls-1" d="M432.23,571.9c-1.26.05-2.59.47-3.64-.65a7.92,7.92,0,0,1,3.56,0A3.25,3.25,0,0,0,432.23,571.9Z"/><path class="cls-1" d="M210.56,345.37l-1.41.17c-.92.38-1.48-.13-2-.82a1.23,1.23,0,0,1,.26-1.09l1.5.17a3.7,3.7,0,0,1,1.18.77l0,0A1.35,1.35,0,0,1,210.56,345.37Z"/><path class="cls-1" d="M319.87,127a2,2,0,0,0-1.95,1.05c-.66-.42-1.1-1.12-.52-1.68C318.39,125.46,319.13,126.47,319.87,127Z"/><path class="cls-1" d="M368.16,101.16l1.07-1.08c.79.13,1.8.75,1.46,1.3C370,102.5,369,101.94,368.16,101.16Z"/><path class="cls-1" d="M346.37,271.07l1.22-.9,1.82.81c.1.82,0,1.37-1.05.92A2.22,2.22,0,0,1,346.37,271.07Z"/><path class="cls-1" d="M177.72,271.69a1.25,1.25,0,0,0-.21-.64c1.3-.08,2.68-.56,3.79.6A8.47,8.47,0,0,1,177.72,271.69Z"/><path class="cls-1" d="M348.36,271.9l1.05-.92c1,.11,1.71.54,1.74,1.67A3.69,3.69,0,0,1,348.36,271.9Z"/><path class="cls-1" d="M356.61,254.85c-.49.7-1.3.7-2,.9l-1.52-.28c.72-.95,1.83-.56,2.75-.8A.49.49,0,0,1,356.61,254.85Z"/><path class="cls-1" d="M189.36,326.61a1.07,1.07,0,0,1-.8.94c-.94.27-1.27-.06-1-1a1.19,1.19,0,0,1,1-.82A1.53,1.53,0,0,1,189.36,326.61Z"/><path class="cls-1" d="M189.36,326.61l-.83-.88a1,1,0,0,1,.9-.89l.2.29.4.39.29.21A1.15,1.15,0,0,1,189.36,326.61Z"/><path class="cls-10" d="M285.77,576.38a6,6,0,0,1-2.82.08c-.25-.2-.32-.38-.21-.53a.43.43,0,0,1,.32-.21l2.51-.11A1.16,1.16,0,0,1,285.77,576.38Z"/><path class="cls-11" d="M304.72,99.2h-1.11c.15-.84.46-1.69,1.49-1.23C305.52,98.17,305.41,99,304.72,99.2Z"/><path class="cls-1" d="M331.43,240.42l-.81.79a1.24,1.24,0,0,1-.93-.89.33.33,0,0,0,.43-.16l.28-.28a.36.36,0,0,0,.16-.45C331.39,239.29,331.78,239.54,331.43,240.42Z"/><path class="cls-1" d="M332.38,243l.81-.81c.7-.44,1,0,1.21.58a1.26,1.26,0,0,1-1.12,1.12A1,1,0,0,1,332.38,243Z"/><path class="cls-1" d="M417.52,146.83l1,0a2.2,2.2,0,0,1-.22.79c-.31.39-.64,1.24-1.14.9C416.46,148,416.82,147.28,417.52,146.83Z"/><path class="cls-1" d="M333.28,243.85l.81-.8c.86-.33,1.1.07,1,.86l-.3,0-.24.18-.27.26a.37.37,0,0,0-.13.51A1.26,1.26,0,0,1,333.28,243.85Z"/><path class="cls-1" d="M374.92,254.91l-1.19-1a.46.46,0,0,1,.74-.18c.69.17,1.44.17,1.9.84Z"/><path class="cls-1" d="M407,129.76c-.11.5-.26,1-.93.92l-.7-1.86a1,1,0,0,1,.64.06Z"/><path class="cls-1" d="M207.44,343.63l0,.8c-1.48.71-1.8-.26-2-1.38a1.45,1.45,0,0,0,.39-.43,1.19,1.19,0,0,1,1.6.27A1.85,1.85,0,0,1,207.44,343.63Z"/><path class="cls-1" d="M253.28,269.13a2.05,2.05,0,0,1,1.7-1l.28.28a1.39,1.39,0,0,1-1.15,1.45,2.49,2.49,0,0,1-.54-.43Z"/><path class="cls-1" d="M366.51,273.58c0,.26,0,.53,0,.8a4.59,4.59,0,0,1-2.67.13,2.18,2.18,0,0,0,0-.72Z"/><path class="cls-1" d="M202.91,341c0,.23,0,.46,0,.69-1.47.66-1.82-.24-1.95-1.42l.2-.22a1.08,1.08,0,0,1,1.7.19A2.75,2.75,0,0,1,202.91,341Z"/><path class="cls-1" d="M255.87,406.81l-1,.83c-.4-.08-.8-.17-.83-.69a.79.79,0,0,1,0-1.13Z"/><path class="cls-1" d="M290.86,175.73c-1-.28-1.32-1.09-1.62-1.93a.55.55,0,0,1,.91,0,1.51,1.51,0,0,1,1,1.61Z"/><path class="cls-1" d="M441.07,375.07c-.27-.57-.54-1.15-.82-1.73.55.13,1.37.1,1.58.45S441.73,374.87,441.07,375.07Z"/><path class="cls-1" d="M187.56,326.55l1,1c-.39.67-1,1.3-1.64.63S186.86,326.91,187.56,326.55Z"/><path class="cls-12" d="M244.2,393l-1-1c.63-.23,1.31-1.12,1.9-.23C245.41,392.35,244.9,392.93,244.2,393Z"/><path class="cls-13" d="M405,328.29l.85.88c-.14.64-.7,1-1.16.76s-.31-1-.45-1.51A4,4,0,0,1,405,328.29Z"/><path class="cls-1" d="M591.22,336.51l-.39,0h-.4c-.29.42-.58.42-.89,0,0-1.11.5-1.8,1.69-1.82A1.14,1.14,0,0,1,591.22,336.51Z"/><path class="cls-1" d="M187.59,337.5l.8-1c.24.1.35.25.34.43s0,.3-.11.3l-.94,1A.73.73,0,0,1,187.59,337.5Z"/><path class="cls-1" d="M228.12,245.69a1.78,1.78,0,0,1-1.79-.73l1.76-.06C228.09,245.16,228.1,245.43,228.12,245.69Z"/><path class="cls-1" d="M436.89,358.9l-1.11.09a.55.55,0,0,1-.17-.69l1-1.09C436.68,357.77,436.79,358.33,436.89,358.9Z"/><path class="cls-1" d="M144.51,390.34c-.57.14-1.39.1-1.39-.41s.79-.59,1.37-.36c.22.16.29.33.23.5S144.58,390.34,144.51,390.34Z"/><path class="cls-1" d="M330.53,259.43c0-.43.09-.85.13-1.27.65.22,1,.7.74,1.33S330.79,259.92,330.53,259.43Z"/><path class="cls-1" d="M589.54,336.55a8.81,8.81,0,0,0,.89,0l-.25,1.76-.88-1A1,1,0,0,1,589.54,336.55Z"/><path class="cls-14" d="M395.23,129.13c.51.22,1.14.54.76,1.13-.28.44-.65.05-.72-.42-.19-.15-.26-.3-.21-.46S395.17,129.13,395.23,129.13Z"/><path class="cls-1" d="M407.73,164.82a1.92,1.92,0,0,1-.62-2.13A1.92,1.92,0,0,1,407.73,164.82Z"/><path class="cls-1" d="M255,268.12c-.1-.51.08-.83.63-.88a2.76,2.76,0,0,1,1-.28l.24.32a2.25,2.25,0,0,1-1.57,1.12Z"/><path class="cls-15" d="M584.05,324.84c.49.38,1.05.74.48,1.47l-.49-.44a2.17,2.17,0,0,1-.31-.86Z"/><path class="cls-16" d="M293.71,179.29l.06-1c.48.28.9.7.64,1.23S293.86,179.68,293.71,179.29Z"/><path class="cls-1" d="M279.13,290.81l1.14-.14c.5.19.7.55.15.82A.86.86,0,0,1,279.13,290.81Z"/><path class="cls-1" d="M342.31,395.69l-1.67-.05c.35-.77,1-.72,1.65-.56C342.3,395.28,342.31,395.48,342.31,395.69Z"/><path class="cls-17" d="M250.68,402.94l-1.29.12c-.47-.3-.43-.65.05-.81A.91.91,0,0,1,250.68,402.94Z"/><path class="cls-1" d="M290.15,173.8h-.91c-.45-.12-.77-.36-.73-.9a.66.66,0,0,1,1-.09A.79.79,0,0,1,290.15,173.8Z"/><path class="cls-1" d="M240.54,400.49l1-1a1.29,1.29,0,0,1,.15.77c-.3.37-.4.94-1,1A1.59,1.59,0,0,1,240.54,400.49Z"/><path class="cls-1" d="M579.48,320.42c-.41,0-.7-.2-.71-.64,0-.09.17-.27.26-.26.44,0,.6.33.62.74Z"/><path class="cls-1" d="M289.51,172.81l-1,.09-.7-.83,1.33,0A1,1,0,0,1,289.51,172.81Z"/><path class="cls-1" d="M580.4,321.32c-.64,0-.94-.27-.92-.9l.17-.16c.65,0,.9.34.86.95Z"/><path class="cls-1" d="M581.5,322.11h-.9a.51.51,0,0,1-.2-.78l.11-.11C581.16,321.16,581.37,321.59,581.5,322.11Z"/><path class="cls-1" d="M583.73,325c.11.29.21.58.31.86a1.21,1.21,0,0,1-1-1Z"/><path class="cls-1" d="M254.13,405.82l0,1.13-.81-.47c0-.41,0-.82,0-1.23Z"/><path class="cls-1" d="M292.29,176.47h-1.2a.63.63,0,0,1-.23-.74,1.62,1.62,0,0,0,.32-.32C291.8,175.51,292.05,176,292.29,176.47Z"/><path class="cls-1" d="M280,289.83a.76.76,0,0,1-.62-1C279.8,289,280.09,289.29,280,289.83Z"/><path class="cls-1" d="M253.57,269.42a.62.62,0,0,1,.54.43l-.79.65C253.4,270.14,253.49,269.78,253.57,269.42Z"/><path class="cls-1" d="M256.59,267l-1,.28.54-.8A.72.72,0,0,1,256.59,267Z"/><path class="cls-13" d="M406.16,328.52a.83.83,0,0,1,.61-1.08A.85.85,0,0,1,406.16,328.52Z"/><path class="cls-1" d="M381.86,264.64c.5,0,.67.4.8.8C381.83,265.74,381.79,265.24,381.86,264.64Z"/><path class="cls-18" d="M688.22,475.41l-.32.28c-.09-.11-.26-.22-.26-.32s.2-.19.3-.29Z"/><path class="cls-1" d="M381.92,260.28a.92.92,0,0,1,.57-1.11A.92.92,0,0,1,381.92,260.28Z"/><path class="cls-1" d="M395.23,129.13a1.42,1.42,0,0,0,0,.71c-.61-.06-1.07-.25-.85-1l-.05.06Z"/><path class="cls-1" d="M189.39,332.1c-.18.37-.42.61-.85.34,0-.23.07-.46.09-.68A.86.86,0,0,1,189.39,332.1Z"/><path class="cls-19" d="M393.51,128.7a5.48,5.48,0,0,0,0-.81c.55.11.9.39.87,1l.05-.06Z"/><path class="cls-1" d="M144.51,390.34c0-.26,0-.52,0-.77l.89,0c0,.25,0,.5,0,.76Z"/><path class="cls-1" d="M93.43,379.72l.67.57-.4.14-.42-.09C93.32,380.13,93.37,379.93,93.43,379.72Z"/><path class="cls-1" d="M295.47,143.24l-1.06,0,.33-.84,1,0A1.05,1.05,0,0,1,295.47,143.24Z"/><path class="cls-20" d="M326.37,202.39c1.14.4,2.05,1.41,3.15-.55,4.91-8.72,11.92-11.61,21.85-9.32,2.93.68,2.93.68,4.29-2.52a2,2,0,0,1,1-1.75c3.49-4.16,7.4-7.66,12.86-9.18,7.5-2.08,13.86-.79,18.8,5.55l4.07,5.26c.91-.35,1.39.22,1.83.87a30.77,30.77,0,0,1,2.29,11.45,26.4,26.4,0,0,0-.07,3.55c.11,1-1.67,2.87,1.12,2.83,1.05,3.81-1.19,7-2.14,10.36-4,14.19-12.7,24.87-25.05,32.74-3.47,2.21-6.64,2.34-10.52.6-12.28-5.53-21.1-15-29.58-24.95a5.72,5.72,0,0,1-1.14-2.41c-.23-1.22.17-2.49-.37-3.68a22.57,22.57,0,0,1-.92-2.41c-1.55-5.06-.48-10.63-3.07-15.48C325,202.59,325.46,202.09,326.37,202.39Z"/><path class="cls-21" d="M393.48,190.88l-1.09-1c4.83-6.1,9.07-12.66,14.56-18.23a2.33,2.33,0,0,1,.64,2.17,70.54,70.54,0,0,1-12.13,16.51A1.6,1.6,0,0,1,393.48,190.88Z"/><path class="cls-22" d="M326.37,202.39l-1.23,1.16a33.49,33.49,0,0,1-16-12.71c-.45-.78-1-1.54-.65-2.52Z"/><path class="cls-1" d="M340.67,161c0,1.24,0,3-1.91,3.7-1.29.48-3.05-1.27-3.5-3.41-.35-1.67-.32-3.31,1-4.6a2,2,0,0,1,2.46-.38C340,156.94,340.64,158.27,340.67,161Z"/><path class="cls-1" d="M373.32,152.69a14.45,14.45,0,0,1-.61,2.5c-.66,1.56-1.94,1.77-3.18.6a7.33,7.33,0,0,1-1.89-4,3.28,3.28,0,0,1,2.1-3.92c1.39-.29,2.92,1,3.34,2.92A18.61,18.61,0,0,1,373.32,152.69Z"/><path class="cls-1" d="M356.66,188.25a2.4,2.4,0,0,1-1,1.75,7.86,7.86,0,0,1-1.62-6.32c1.07-3.9-.47-8,.89-11.89,1.41,2.65.46,5.51.67,8.26s-.24,5.34.7,7.92l.11.07Z"/><path class="cls-1" d="M330.62,144.4a.66.66,0,0,1,.79-.15c.53.51.64,1,0,1.46-2.05,2-2.84,4.71-3.64,7.37-.92.12-1.28-.25-1-1.16a9,9,0,0,1,2.91-6.89A2.37,2.37,0,0,1,330.62,144.4Z"/><path class="cls-1" d="M354.93,171.79c0,2.84-.06,5.69-.11,8.52,0,1.17.25,2.43-.78,3.37a78.41,78.41,0,0,1-.07-14.22C355.34,170.13,355,171,354.93,171.79Z"/><path class="cls-1" d="M376.27,138.83l-5.75-3.2c4-1.26,5.4,1,6.92,3.1A.7.7,0,0,1,376.27,138.83Z"/><path class="cls-1" d="M326.73,151.92l1,1.16-.87,4C326.05,155.27,325.6,153.56,326.73,151.92Z"/><path class="cls-23" d="M376.27,138.83l1.17-.1c.91.27,1.09,1.08,1.36,1.83h-.59A2.68,2.68,0,0,1,376.27,138.83Z"/><path class="cls-24" d="M379.2,141.44c.95.26,1,1,.88,1.77l-.11.08c-1-.22-1.28-1.07-1.57-1.9A.46.46,0,0,1,379.2,141.44Z"/><path class="cls-25" d="M380.08,143.21a.8.8,0,0,1,.69,1c0,.14-.32.26-.49.39-.1-.43-.21-.85-.31-1.27Z"/><path class="cls-1" d="M400.74,148.65a1.76,1.76,0,0,1,.84,1.78A2,2,0,0,1,400.74,148.65Z"/><path class="cls-1" d="M331.37,145.71c0-.49,0-1,0-1.46.42-.09.95-.05,1,.35C332.46,145.21,331.92,145.52,331.37,145.71Z"/><polygon class="cls-20" points="356.41 188.04 356.29 187.97 356.44 187.84 356.41 188.04"/><path class="cls-1" d="M330.62,144.4a.82.82,0,0,1-1,.63A.84.84,0,0,1,330.62,144.4Z"/><path class="cls-26" d="M379.2,141.44a3.55,3.55,0,0,0-.8-.05,1,1,0,0,1-.19-.84h.59C378.93,140.85,379.07,141.14,379.2,141.44Z"/><path class="cls-1" d="M286.48,404.77c4.07-7,9.32-13.13,14-19.66,1.37-1.89,2.79-3.75,4.87-6.55-14.75,1.53-28.5,2.32-42.26,2.92-.57-.5-1.37-.91-.8-1.9.73-.91,1.88-.22,2.72-.72,12.82-1,25.64-2.09,38.47-3.07a9.66,9.66,0,0,0,7.52-4c7-9,14.3-17.68,21.51-26.48.75-.91,1.62-1.73,2.44-2.6.91-.18,1.39.06,1.07,1.09-4.15,9-10.79,16.34-16.73,24.13-1.5,2-3.11,3.87-5.12,6.37a117.24,117.24,0,0,0,12.91-.62,64.15,64.15,0,0,1,13.36-.29c.91,1.15,3.24-.71,3.57,1.67-9.83.86-19.65,1.81-29.49,2.5a7.13,7.13,0,0,0-5.57,3c-5.77,7.27-11.79,14.34-17.24,21.86a31.09,31.09,0,0,1-5.45,5.95,1.6,1.6,0,0,1-.71.81l-.05.06a6,6,0,0,1-.81.93h0c-.88.07-1.41-.18-1.07-1.21a.53.53,0,0,1,.34-.57,5.43,5.43,0,0,1,.74-.92h0a2.36,2.36,0,0,0,.81-1.09.72.72,0,0,1,.33-.69A4.59,4.59,0,0,1,286.48,404.77Z"/><path class="cls-1" d="M281.15,364.48c3.93-3,7.91-5.85,11.79-8.87q21.51-16.78,43-33.64c.81-.63,1.72-1.14,2.59-1.71.94-.28,1.23.13,1.06,1-7.23,6.69-15.49,12.09-23,18.44-10.25,8.66-21,16.64-32,24.32-.73.51-1.52.93-2.28,1.38C281.3,365.79,281.1,365.27,281.15,364.48Z"/><path class="cls-1" d="M258.63,378.85c.65,1,1.2-.25,1.81-.08.68-.36,1.05,0,1.37.55a3.45,3.45,0,0,0,.69,2.12c-.93,3.05,1.13,5.83.81,8.82,0,1.28,1.36,2.88-.84,3.65-.63-2.11-1.38-4.2-1.85-6.35-1-4.54-.92-4.55-3.76-8.05a.7.7,0,0,1,.08-1A1.48,1.48,0,0,1,258.63,378.85Z"/><path class="cls-1" d="M336,343.85,335,342.76a34.12,34.12,0,0,1,4.66-7.12c.87-.09,1.38.13.95,1.14A34.07,34.07,0,0,1,336,343.85Z"/><path class="cls-1" d="M344,375.11c-.81-1.37-2.76-.29-3.57-1.67l10.78-.08c.3.2.39.39.28.57s-.21.27-.32.27C348.81,374.45,346.5,375.39,344,375.11Z"/><path class="cls-1" d="M283.63,409l1.07,1.21c-1,2.18-2.8,3.6-4.59,5.11C280.06,412.51,282,410.86,283.63,409Z"/><path class="cls-1" d="M342,317.53a30,30,0,0,1,5.63-4.39c.4.91,1.23,1.7.81,2.84-.51-.42-.94-1.05-1.73-.32a14.65,14.65,0,0,1-3.56,2.91A1.33,1.33,0,0,1,342,317.53Z"/><path class="cls-1" d="M340.58,336.78l-.95-1.14a21.8,21.8,0,0,1,3.5-5.44,1.14,1.14,0,0,1,.71.88A22,22,0,0,1,340.58,336.78Z"/><path class="cls-1" d="M281.15,364.48l1.1.94a13.65,13.65,0,0,1-4.75,3.37c-.38-.23-.9-.31-1-.86A17.27,17.27,0,0,1,281.15,364.48Z"/><path class="cls-1" d="M271.39,370.75l3.47-1.8c.37.25.9.33,1,.9a20.18,20.18,0,0,1-5.5,3.55,1.67,1.67,0,0,1-.47-1A1.84,1.84,0,0,1,271.39,370.75Z"/><path class="cls-1" d="M342,317.53l1.15,1a9.88,9.88,0,0,1-3.59,2.71l-1.06-1A10.16,10.16,0,0,1,342,317.53Z"/><path class="cls-27" d="M262.47,393.91c1.23-1,.31-2.49.84-3.65a8.1,8.1,0,0,1,.64,5.24C262.51,395.82,262.65,394.72,262.47,393.91Z"/><path class="cls-1" d="M344.25,327.6c.33-.87.67-1.75,1.29-3.39.77,2.16.64,3.33-.48,4.38C344.51,328.5,344.47,328,344.25,327.6Z"/><path class="cls-1" d="M257,378.52l-.09,1a6.4,6.4,0,0,1-2.71-1.74c-.26-.18-.35-.36-.26-.54s.17-.27.26-.27l1.4.13a2.36,2.36,0,0,1,1.31.75h0c.23.13.32.27.26.42S257,378.52,257,378.52Z"/><path class="cls-1" d="M344.25,327.6l.81,1a4.65,4.65,0,0,1-1.22,2.49l-.71-.88C343.5,329.33,343.87,328.47,344.25,327.6Z"/><path class="cls-1" d="M265.89,376.54,264.15,378a1,1,0,0,1-1.17-.07,1.82,1.82,0,0,1,0-1.26c.81-1,1.51-2.3,3.16-1.35A1.26,1.26,0,0,1,265.89,376.54Z"/><path class="cls-1" d="M268.6,374.6a2.57,2.57,0,0,1-1.89,1.38,1.72,1.72,0,0,1-.4-1.21c.46-1.1,1-2,2.46-1.33A.89.89,0,0,1,268.6,374.6Z"/><path class="cls-1" d="M275.84,369.85l-1-.9,1.65-1,1,.86Z"/><path class="cls-1" d="M268.6,374.6l-.05-1.16a1.46,1.46,0,0,1,1.74-1.21c0,.39,0,.78,0,1.17Z"/><path class="cls-1" d="M254.15,377q0,.41,0,.81a2.93,2.93,0,0,1-.79-.26c-.42-.3-1.15-.64-.83-1.22s1,0,1.55,0C254.09,376.5,254.12,376.73,254.15,377Z"/><path class="cls-1" d="M351.2,374.2a7.87,7.87,0,0,0,0-.84c.6-.25,1.41-.21,1.42.38S351.8,374.32,351.2,374.2Z"/><path class="cls-1" d="M286.48,404.77a.8.8,0,0,1-.64,1A.83.83,0,0,1,286.48,404.77Z"/><path class="cls-1" d="M311.72,405a.85.85,0,0,1-1,.68A.9.9,0,0,1,311.72,405Z"/><path class="cls-1" d="M285.51,406.44a1.09,1.09,0,0,1-.81,1.09A1.11,1.11,0,0,1,285.51,406.44Z"/><path class="cls-1" d="M284.71,407.52a.84.84,0,0,1-.74.92A.8.8,0,0,1,284.71,407.52Z"/><path class="cls-1" d="M285.57,409.23a.78.78,0,0,1,.71-.81A.74.74,0,0,1,285.57,409.23Z"/><path class="cls-1" d="M284.71,410.22a1,1,0,0,1,.81-.93A.94.94,0,0,1,284.71,410.22Z"/><path class="cls-1" d="M266.67,374.81c0,.39,0,.78,0,1.17l-.82.56c0-.41,0-.81,0-1.21A.77.77,0,0,1,266.67,374.81Z"/><path class="cls-1" d="M511.19,532.6c.72-.22,1.79-.39,2,.22.37,1.09-.82,1.22-1.56,1.44a4.3,4.3,0,0,1-1.29,0Z"/><path class="cls-28" d="M309.88,541.45l0-1.21a2.56,2.56,0,0,1,.68-.48c.54-.15,1.31-.38,1.55.22s-.63.74-1,1A4.65,4.65,0,0,1,309.88,541.45Z"/><path class="cls-29" d="M238,415.72l.18-1.11c.45.33.79.79.53,1.3S238.13,416.12,238,415.72Z"/><path class="cls-1" d="M379.47,393.32l2.34-.29a1.3,1.3,0,0,1,1.79.19c-1.35,1.4-3.06.68-4.63.77C378.85,393.55,379,393.34,379.47,393.32Z"/><path class="cls-30" d="M356.67,395.12q0,.35,0,.69l-.87.15q0-.43,0-.87Z"/><path class="cls-1" d="M283.06,575.72a2.08,2.08,0,0,0-.11.74c-1.5,1.55-3.17,1-5.34.52C279.39,574.86,281.37,575.91,283.06,575.72Z"/><path class="cls-1" d="M245.87,577.67c-1.35,1-2.8.53-4.64.72C242.91,576.56,244.45,578,245.87,577.67Z"/><path class="cls-13" d="M406,323.84a2.56,2.56,0,0,1-.76,2.8A2.66,2.66,0,0,1,406,323.84Z"/><path class="cls-31" d="M310.73,197.63a7.38,7.38,0,0,1,2.57,3.18,1.24,1.24,0,0,1-1.1.34,2.2,2.2,0,0,1-1.3-1.2A3.77,3.77,0,0,1,310.73,197.63Z"/><path class="cls-32" d="M310.9,200l1.59.86q.75.51-.06.93l-.84.83A2.52,2.52,0,0,1,310.9,200Z"/><path class="cls-1" d="M435.75,370.74a1,1,0,0,0-.05-.68c.26,0,.73-.06.74,0C436.61,370.65,436.12,370.65,435.75,370.74Z"/><path class="cls-1" d="M439.18,368.89l.15.89-.43,0-.44,0c0-.3,0-.6,0-.89Z"/><path class="cls-1" d="M190,325.52a.38.38,0,0,1-.4-.39l.33.07Z"/><path class="cls-33" d="M395.35,202.44c1.07,1,.38,2.61,1.23,3.87,3.66-8.15,5.69-16.79,9.14-24.9.64-1.49,1-3.1,2.08-4.38a5,5,0,0,1,.71,3.11c-.22.55-.11,1.26-.76,1.61-3.85,8.36-6.21,17.28-9.71,25.77a13.41,13.41,0,0,1-.84,1.53c-.29-1-2.5,1-2-1.44A28.65,28.65,0,0,0,395.35,202.44Z"/><path class="cls-34" d="M390.79,127.12c0,.31,0,.62-.05.92-1.05-.73-1.46-1.45,0-2.15Z"/><path class="cls-1" d="M387.4,247l.3,0v.29A.33.33,0,0,1,387.4,247Z"/><path class="cls-1" d="M189.5,340a2.41,2.41,0,0,1,.68,2A1.83,1.83,0,0,1,189.5,340Z"/><path class="cls-1" d="M421.24,166.36c-.62-2.21-1.74-4-4.3-4.62s-4,.68-5.4,2.26a40.2,40.2,0,0,0-2.41,3.26c-1.18-.62-1-1.68-1.4-2.44a9.82,9.82,0,0,1-.62-2.13c-.08-.47-.17-.95-.26-1.43-1.74.05-1.1,1.16-.91,2.06-.22,2.84,1.61,5.44,1,8.33.07.84-.2,1.64-.18,2.47a20.67,20.67,0,0,0,.22,3.15c.22,1.06.52,2.09.79,3.13a3.2,3.2,0,0,0,1,1.6c-1.5,1.45-1.26,3.41-1.3,5.22-.07,3.38-.06,6.77,0,10.15q.09,2.59.24,5.16A9,9,0,0,1,407,207a26,26,0,0,0-1.28,3.92,6.56,6.56,0,0,0,.15,3.92,3.39,3.39,0,0,0-1.74,3.66,1.93,1.93,0,0,1,.11,1,1.87,1.87,0,0,1-.57.74,5.18,5.18,0,0,0-1.4,2.33c-.26.89,0,1.86-.34,2.7-.11.27-.28.52-.4.79a2,2,0,0,0,.68,2.33.37.37,0,0,0,.26.08c.11,0,.18-.13.23-.22a67.25,67.25,0,0,0,3-7.05,29.85,29.85,0,0,0,1.49-5.79,13.85,13.85,0,0,0,1.72-7.1,3.92,3.92,0,0,0,.68-3.08c.4-3.29,1.18-6.54.94-9.89a30.2,30.2,0,0,0,.2-4.45c-.24-2.58.44-4.09,3-5.55C420.13,181.65,423.2,173.32,421.24,166.36Zm-6.71,13.18a20.84,20.84,0,0,1-3.22,2.47c.91-3.21,1.27-6.41-.17-9.55a5,5,0,0,1,.22-.61,25.3,25.3,0,0,1,1.91-3.51c.66-1,1.35-2.11,2.78-1.77s1.5,1.7,1.71,2.84A11,11,0,0,1,414.53,179.54Z"/><polygon class="cls-1" points="330.4 239.88 330.12 240.17 330.1 239.86 330.4 239.88"/><path class="cls-1" d="M365.64,271.59a7.72,7.72,0,0,1-3.64,0A2.66,2.66,0,0,1,365.64,271.59Z"/><path class="cls-1" d="M392.91,241.48a.3.3,0,0,1,.33.34l-.29,0Z"/><path class="cls-1" d="M407.1,209.75a2.33,2.33,0,0,1,.64-2.19A2.14,2.14,0,0,1,407.1,209.75Z"/><polygon class="cls-1" points="334.29 244.32 334.56 244.06 334.62 244.37 334.29 244.32"/><path class="cls-1" d="M194.77,336.8c-.69-.22-1.45-.34-1.76-1.15v-.51a.45.45,0,0,0,0-.46l1.75,1.08Z"/><path class="cls-1" d="M193,335.14a4.34,4.34,0,0,0,0,.51l-.44,0-.38-.23C192.37,335.12,192.62,335,193,335.14Z"/><path class="cls-1" d="M215.61,348.83a.78.78,0,0,1,.75.37l-.85.79,0-.07A.62.62,0,0,1,215.61,348.83Z"/><path class="cls-1" d="M215.61,348.83l-.07,1.09a7.76,7.76,0,0,1-2.7-1.82l.83-.77a3.37,3.37,0,0,0,.84.08,1,1,0,0,0,1,.76A1.07,1.07,0,0,1,215.61,348.83Z"/><path class="cls-35" d="M312.43,201.74l.06-.93h.81q6.1,8.12,12.22,16.22c.7.94,1.55,1.76,2.33,2.63a5.59,5.59,0,0,1,1.82,1.8c1.48,1,.14,1.9-.1,2.83-5.94-5.66-10.18-12.64-14.95-19.21C313.84,204,313.16,202.85,312.43,201.74Z"/><path class="cls-36" d="M260.58,378.17l2.57-1.14,0,1.18-.95,1.52-.41-.05-.42.06-1-1A4,4,0,0,1,260.58,378.17Z"/><path class="cls-37" d="M315.27,217.12s22.58,45.64,57.2,36.63c38.51-10,37.34-68.09,37.34-68.09"/></svg>