<svg id="Laag_1" data-name="Laag 1" xmlns="http://www.w3.org/2000/svg" viewBox="0 0 1077 2633.98"><defs><style>.cls-1{fill:#fff;}.cls-2{fill:#e54f50;}</style></defs><g id="Tekengebied_4" data-name="Tekengebied 4"><path class="cls-1" d="M631.29,2480.05a135,135,0,0,1,13.63-30.1c18.8-31.6,38-63,56.74-94.61q35.19-59.49,70.34-119c21.58-36.58,38.17-75.64,53.16-115.36,6.15-16.32,14.05-32.07,16.91-49.47,8-48.32,8.4-96.42-4.24-144.2-7.12-26.92-17.33-52.72-27.1-78.69-18-47.94-38.14-95-58.81-141.85-12.31-27.88-20.13-57-27.61-86.3-4.94-19.32-10.67-38.49-12.51-58.48-1.21-13.09-2.65-26.13-2.89-39.33-.73-38.79,3.77-77.1,8.83-115.45,3.53-26.73,5.18-53.7,6.37-80.66,1.18-26.79,3-53.55,2.5-80.41-.34-18.9-5.14-36.83-10-54.81a29,29,0,0,0-6.41-11.2c-8.61-9.77-17.94-18.68-29.76-24.73-19.09-9.78-37.41-5-54.78,3.7-11.4,5.71-21,14.65-29.8,24.07-11.33,12.16-16.4,27.57-21.54,42.92-5.91,17.67-7.15,36.15-9.7,54.4-6.53,46.75-14,93.31-25.58,139.13-3.78,15-2.67,30-1.53,45.17,2.56,34.08,3.77,68.21,2.42,102.38-1,25.14-1.39,50.29-3.44,75.39-2.92,35.82-4.85,71.76-14,106.75a72.27,72.27,0,0,1-4.56,13.12c-.46,1-.92,2.4-2.51,1.61-1.19-.58-.5-1.63-.52-2.58-.66-35,5.64-69.32,8.55-104,3.36-39.87,5.66-79.79,5.51-119.78-.1-27.79.68-55.66-2.33-83.39-2-18.21,1.79-35.75,5.93-53.26.31-1.29.9-2.51.4-4.15a146.9,146.9,0,0,1-20.22,7.77,25.69,25.69,0,0,1-14.67.51c-2.69-.75-3.49,0-4.06,2.8-2.63,13-6,25.89-8.33,39a69.35,69.35,0,0,0,1,29,359.18,359.18,0,0,1,9.73,64.54c0,.62-.07,1.26-.14,2.37-3.08-2.07-3.08-5.28-3.85-7.85-6.4-21.16-9.6-43.07-15.06-64.46-13.2-51.67-30.24-101.93-52.76-150.34-13.52-29.08-27.45-58-33.86-89.86-4.25-21.06-6.39-42.46-10.49-63.54-4.89-25.11-9.7-50.24-15.48-75.67-3,1.82-3.48,5.17-5.31,7.46-2.28,2.85-4.49,5.76-6.76,8.62-.63.8-1.46,1.58-2.51.85s0-1.81.22-2.5c2.78-8.15,5.59-16.28,8.62-24.34,4.64-12.3,5.55-25.21,7.16-38.1,4.6-36.88,2.32-73.84,2-110.77A188.05,188.05,0,0,0,359,877a33.63,33.63,0,0,0-4.78-10.35c-.74-1-1.62-2-.69-3s2.29-.66,3.31-.27a14.33,14.33,0,0,1,7.66,6.8c1.48,2.73,2.83,5.54,4.39,8.63,1.85-1.59,1.13-3.49,1.14-5.1.05-14.16,0-28.33,0-42.49,0-15.36,2.67-30.51,3.51-45.81,1.42-25.65,1.62-51.24-1.79-76.79-1.92-14.34-2.12-29-6.55-42.87-5.43-17-12.46-33.31-25.38-46.34a43.31,43.31,0,0,0-16.38-10.11,89,89,0,0,1-9.22-3.75c-9.95-4.93-19.44-2.89-28.53,2.06s-11.58,13.75-7.66,24a1.69,1.69,0,0,1,.09,1.31c-3.54,5-1.81,10.68-1.79,16,.05,16-.67,32-1.11,48,0,1.38-1.2,3.51.36,4.07a6.9,6.9,0,0,0,6.18-.47c4.82-3,7.25-7.8,9.12-12.71a47.56,47.56,0,0,0,3.2-20c-1-14.78-1.07-29.61-3.52-44.28A20.83,20.83,0,0,1,292,610.55c2.4,5.59,3,11,3.95,16.22a195.94,195.94,0,0,1,2.32,51.63,51.78,51.78,0,0,1-7,21.06c-3.62,6.33-9.47,8.72-16.78,6.83-1.87,13.65-3.45,27.3-5.65,40.85-3.23,19.88-7.6,39.59-10.22,59.54-4.3,32.68-9.09,65.28-13.63,97.92a980.54,980.54,0,0,1-20.73,107.28c-9.56,37.51-9.47,75.79-9.05,114.19.54,50.66,11.09,99.78,20.64,149.14,7.61,39.36,15.7,78.65,20.35,118.53,2.72,23.34,5.05,46.68,5.11,70.21,0,10.67-1.23,21.24-2,31.85-.07,1,.1,2.28-1.28,2.24s-1.62-1.34-1.75-2.57c-1.32-13.22-3-26.42-3.92-39.68-1.5-22.45-4.54-44.71-7.45-67-2.83-21.63-7.2-43-10.89-64.49-.23-1.28-.61-2.54-1.21-5-2.4,10.75-4.58,20.33-6.68,29.92-6.46,29.47-16.85,57.75-26.12,86.37-9.47,29.22-16.64,58.87-17.5,89.75-.53,18.9,3.61,36.91,9.59,54.75,16.8,50.12,35.29,99.62,54.06,149,24.38,64.17,48.63,128.38,72.18,192.86,20,54.68,36.46,110.26,45.59,167.81,6.63,41.82,11.31,83.86,10.28,126.33a200.81,200.81,0,0,1-1.7,22.73c-9.1-36.11-11.21-73.36-19.42-109.77-1.12,6.89-2.46,13.74-3.32,20.66-5,40.24-15.21,79.22-28.17,117.54-13.42,39.68-24,80.25-37.26,120-3.18,9.52-6.42,19-10.88,28.07-.58,1.16-.76,2.57-3.19,2.74,1.72-5.23,3.56-10.12,5-15.14,9.54-34.3,18-68.87,26.94-103.34,6-23.2,14.68-45.58,21.93-68.4a462.61,462.61,0,0,0,19.09-91.44c1.25-11.88,3-23.71,4.58-35.55,1.71-12.77-2.38-24.77-5.09-36.87-13.43-60-31.85-118.43-52.62-176.28-21.73-60.53-44.21-120.77-66-181.26-15.84-43.92-31.32-88-45.42-132.51-5.86-18.48-7.34-37.41-6.07-56.76,2.72-41.76,15.41-81.11,28-120.56,7.83-24.53,15.73-49.08,20.1-74.55,2.13-12.43,4.53-24.84,5.88-37.36.87-8.12-2.17-16.09-3.71-24.06-5.71-29.58-11.26-59.19-14.3-89.2a552.18,552.18,0,0,1-2.56-58.38c.13-27.49-.09-55,4.12-82.26,2.58-16.65,7.21-32.79,11.09-49.13,6.74-28.37,10.61-57.25,14.93-86,3.54-23.54,7.86-47,10.34-70.64,2.94-28.09,9.89-55.32,15.22-82.9,5.11-26.49,8.62-53.1,7.9-80.25-.41-15.77.94-31.6,1.81-47.38.5-9,12.71-19.65,23.62-21.66,8.1-1.49,15.38-.32,23.17,2.85,15.33,6.25,29,14.07,37.86,28.59,10.28,16.86,18.37,34.43,21.53,54.3a459.42,459.42,0,0,1,3.17,124.43c-3.79,33.37-1.91,66.9-2.09,100.36a6.61,6.61,0,0,0,.53,1.65c9.31-7,18.24-14.16,27.59-20.69,23.6-16.48,47.95-31.81,72.16-47.35,12.45-8,24.22-17,36.63-25.11a139.27,139.27,0,0,1,78.8-23.24c36.19.39,70.16-8,103.61-20.35a337.72,337.72,0,0,1,57.6-15.87c14.4-2.58,19.46,0,27.59,12.11,7.11,10.59,8.3,22.62,10.21,34.59a96.37,96.37,0,0,1-1.2,36.73c-3.59,15.82-12.35,28.66-24.58,39.05a176.42,176.42,0,0,1-59.17,33.24c-29.29,9.8-59.4,16-89.26,23.29a47.16,47.16,0,0,1-9.87,1.46c-8.68.23-14.67,4.53-20.22,11a377.18,377.18,0,0,1-80.83,70.93c-13.82,9-27.51,18.14-41.35,27.09-7.89,5.11-12.41,12.67-16.47,21.17,2.41.46,3.72-1,5.14-1.86,28.73-17.75,58.18-34.29,87.46-51.11,15.89-9.13,32.54-16.75,49.41-23.78,31.95-13.3,62.88-28.75,93.82-44.14,24.58-12.22,50.34-20.91,76.86-27.25,19.42-4.65,37.29-13,55.44-20.68,19.59-8.32,39.79-14.87,59.81-22,22.85-8.11,39.81,2.75,47.82,23,12.28,31,9.43,59.68-13.27,85.59-19.7,22.48-44.38,36.5-72.2,46.21-33.39,11.64-66.9,23.06-98.7,38.78a135.35,135.35,0,0,0-30.34,20c-18.18,16.18-36.8,31.78-56.72,45.8-.77.55-1.83.88-2.05,2.54,3,.37,6,.56,9,1.12,18.19,3.45,32.83,13.22,47.13,24.61,15.92,12.67,19.76,30.26,24.31,48.26,6.42,25.36,4.66,50.92,3.46,76.53-.82,17.46-1.67,34.91-2.48,51.9,28.48-3.53,57.08-4.75,85.38-8.76,8.57-1.21,17.23-1.8,25.78-3.08,14.71-2.2,29.27.32,43.83,1.34s28.45-.7,42.58-3.53c20-4,39.61-10.06,59.83-13.16a81.91,81.91,0,0,1,22.92-.42c13.2,1.7,20.11,9.7,21.6,24,2.78,26.77-6.82,49.51-24.2,68.85-17.6,19.61-40,32.19-65.2,39.88-35.81,10.94-72.22,18.23-109.76,19.37-16.18.49-31.23,6.07-46.34,11.28-13.66,4.71-27.28,9.67-41.65,11.82-7.39,1.11-14.83,2.06-22.28,2.6-3.17.24-4.2,1-4.31,4.3a409.11,409.11,0,0,0,12,112.83c8.77,35,21,68.51,35.45,101.51,21.19,48.42,40.56,97.61,59.32,147,9.56,25.19,19.81,50,25.5,76.55,7,32.56,7.47,65.37,6,98.44-1.51,33.6-10.62,65.17-23.52,95.93-12.47,29.71-22.53,60.42-37.68,89-7.32,13.83-14.89,27.48-22.94,40.88C748.5,2303.51,723,2352.05,692,2397.24c-18.62,27.16-38.3,53.6-57.47,80.4-.5.7-1.63,1.2-1.22,2.41Zm-188-1424.9c-5.54,1-10.58,4-16.31,4.18-2.72.09-6.53,1.19-7.45-2.08-1.06-3.76,3.2-4.06,5.55-5.07,18.62-8,37.78-15.11,54.21-27.22,18.89-13.93,38.4-27.05,56.42-42.12,12.13-10.14,24.56-20,34.79-32.2a192.49,192.49,0,0,0,26.62-40.9c3.8-7.94,8.21-15.59,12.64-23.21,1.36-2.33,2.5-6.78,6.16-5s.7,5.39.1,8a44.56,44.56,0,0,1-3.46,8.8c-4.29,9.14-7,18.91-12.08,28.37,6.06-.75,11.5-1.33,16.92-2.11,12.86-1.87,25.26-5.86,37.93-8.58,32.22-6.9,63.48-16.27,90.66-35.93,10.4-7.53,21-14.94,28.08-25.95,10.23-15.83,12.34-33.44,10.58-51.77-1.15-11.87-3.42-23.33-10.94-33.17-3.2-4.17-6.6-6.64-12.2-5.79a226.73,226.73,0,0,0-44.92,11.23c-39.38,14.55-79.22,25.19-122,24.46-24.64-.43-48.47,7.06-70,20.55-13.55,8.5-26.35,18.08-39.8,26.64-33.94,21.6-68.47,42.27-101.14,65.83-4.18,3-5.21,5.95-5,10.63,1.22,24.32.57,48.65-.5,72.94-1,21.76-3,43.49-4.89,65.2-1.73,19.91,2.34,39.09,6.47,58.32,5.7,26.51,11.81,53,15.16,79.91a172.71,172.71,0,0,0,4.72,25.33c3.41-9.51,6.65-18.4,9.78-27.32,11.49-32.72,18.53-66,12.4-100.9a10.32,10.32,0,0,1,2.52-9.26c8.4-9.2,14.39-19.9,19.4-31.22.42-.37.62-.76.11-1.22ZM727.7,1065.6c34-17.28,69.64-30.58,105.88-42.24,21.49-6.91,41.55-16.65,58.77-31,32.9-27.38,39.3-59.17,21.66-97.73-4.9-10.72-14.92-17.23-28.77-12.47-19.33,6.64-38.43,13.84-57.38,21.46-20.62,8.28-40.68,18-62.35,23.62-25.58,6.69-50.41,15.46-74.2,27.32-26.48,13.19-52.3,27.84-79.63,39.18-45,18.67-87.57,41.79-128.76,67.67-16,10.07-32.59,19.34-48.92,28.95-2.43,1.43-2.66,3.4-2.17,6a129.64,129.64,0,0,1,2.66,17.76c2.06,40.29-8.83,77.67-25.59,113.72-.92,2-1.92,4.57-3.95,4.9-4,.66-2.71,2.79-2.22,5.08,5.18,24.14,16.06,46.11,26.28,68.28,16.73,36.29,31.76,73.21,42.93,111.63,2.53,8.73,4.91,17.52,7.6,27.12,2.44-5.5,2.3-10.53,3.39-15.3a458,458,0,0,0,7.73-45.66c.7-5.68.19-11.5,1.34-17,4.4-21.08,11.23-41.53,16.76-62.32,6.5-24.44,6.75-49.76,10.28-74.62,2.61-18.33.88-36.85-3.3-55-.59-2.53-3.88-6.83.18-8.28,3.42-1.21,4.73,3.49,6.13,6.12,10.94,20.51,12.41,42.41,9.28,65-.15,1.09-2.33,2.46-.24,3.3s2.28-1.54,2.79-2.72c16.46-37.58,44-65.51,77.56-87.84,21.63-14.4,43.19-28.87,63.43-45.18,10.2-8.22,21.66-15.06,29.56-25.93,8.81-12.12,16.71-24.82,24.51-37.6a87.76,87.76,0,0,1,11.77-15.48c.94,1.73.41,2.82-.16,4-2.48,5.41-4.78,10.9-7.27,16.3-1.21,2.64-3.47,5.24,1.85,7.05-5.38.66-5.34.67-6.73,5.44-.55,1.9-1.32,3.74-2,5.61-.12.42-.47,1.07-.33,1.21C726.66,1066.47,727.22,1066.07,727.7,1065.6Zm91.94,391.65c12.18-1.64,24.3-1.78,36.36-2.69,23.53-1.77,46.26-7.66,68.9-13.76,18.3-4.93,36.5-10.41,52.58-21,20-13.18,36.72-29.2,45.31-52.3,3-8.09,6.45-16,5.69-25-1.64-19.38-5.56-23.11-25.18-22.94-15.63.14-30.58,4.28-45.49,8.28-27.82,7.45-55.81,12.51-84.77,8.55-10.78-1.47-21.6-.87-32.37.39-25.28,3-50.44,7-75.85,8.85-8.79.65-17.64.2-26.41,1.55-3.44.53-4.92,1.52-5.12,5.52q-1.42,28.44-3.7,56.84c-1.57,19.42-3.74,38.79-5.35,58.21-.38,4.59-3.32,10.75.3,13.51s9.62.44,14.58-.21c31.22-4.11,59.89-13.77,82.17-37.45.12-.12.25-.22.38-.33,5.88-5.45,12.83-9.46,19.28-14.13.73-.53,1.67-1.54,2.62-.53s-.2,1.76-.74,2.49c-1.28,1.74-2.61,3.44-4,5.13C833.05,1443.62,825.79,1449.72,819.64,1457.25ZM571.36,1200c-2.54,1-3.43,2.65-4.59,4-9.11,10.55-15.24,22.93-21.32,35.31-13.53,27.58-22.74,56.63-30.26,86.36-5.34,21.12-11.05,42.13-13.73,63.8-.65,5.23.09,5.84,5.34,5,6.22-1.05,12.39-2.39,18.6-3.48,3.17-.55,7.37,2,9.38-.75,1.86-2.58,1.64-6.66,2.33-10.07.22-1.14.39-2.29.61-3.43,4.16-21,9-41.83,11.59-63.14,2-16.33,3.58-32.77,6.47-48.89,3.76-21,7-42.31,15.31-62.26A10.38,10.38,0,0,0,571.36,1200Zm247.76,257.48c-.12-.11-.24-.31-.36-.31s-.24.2-.37.31l.54.33Z"/><path class="cls-2" d="M223,219.55C229.6,169,254,126.78,281.93,86.2c13.66-19.85,28.9-38.41,49-52.16,15.61-10.66,32.47-18.53,51.84-18.75,22.31-.26,38.07,10.26,47.46,30.34,7.44,15.93,10.55,33,11.67,50.33,1.83,28.28,2.79,56.58-2.65,84.69-3.4,17.57-9.44,34.37-14.61,51.39A853.28,853.28,0,0,1,375,358.91c-9.45,19.32-17.84,39.1-25.36,59.23-13.4,35.92-33.06,68.25-55.83,98.86-3.39,4.56-7.5,6.16-13,5.28-7.23-1.16-13.64-4.24-19.82-7.92-18.72-11.16-35.14-25.36-50.9-40.19-19.15-18-39.61-35-55.33-56.23-22-29.71-45.74-58.33-63.17-91.09-23-43.28-41-88.54-48.77-137.34-4.17-26.14-4.57-51.71,8.66-75.92,8.57-15.67,22.35-23.76,38.92-27.7,8-1.91,15.86.75,23.27,4a140.72,140.72,0,0,1,36.13,23c24.61,21.25,45.2,45.63,58.52,75.67C213,198.94,218.09,209.2,223,219.55Z"/><path class="cls-1" d="M661.16,1294.1c-10-.34-25.21-.39-40.17-3-8-1.37-14.92-5.57-21.06-10.73s-8.43-14.85-5.61-22.3c.51-1.36,1-3.06,2.89-2.86s2.34,1.74,2.12,3.32c-2.14,15.64,11.95,22.27,23.48,25.5,8.88,2.49,18.17,1.87,27.25,2.79,10.24,1,20.46,2.53,30.79,2.58,3.82,0,7.56-.13,11.23-1.54,6.53-2.5,8.45-7.86,9.18-14.08.13-1-.44-2.66,1.4-2.54,1,.07,1.35,1.2,1.64,2.23,2.08,7.21-.89,13.49-7.8,16.76C686.81,1294.85,676.5,1294.24,661.16,1294.1Z"/><path class="cls-1" d="M704.09,1207.16c-2.21-5.79-4.18-11.65-6.25-17.44-3.93-11-12.2-16.09-22.59-19-21-6-39.2-.13-55.58,13.22-3.25,2.65-5.3,6.38-7.91,9.6-1,1.24-2,3.5-3.78,2.37s-.17-3,.57-4.33c4.15-7.14,9.46-13.32,16.51-17.7,19.39-12,39.49-16.95,61.16-5.74C699.36,1174.9,707.77,1192.38,704.09,1207.16Z"/><path class="cls-1" d="M685.26,1449.44c-1.23,2.31-2.9,1.77-4.26,1.54-11.89-2-23.73-4.31-35.65-6.08-13.14-1.94-26.34-3.42-39.52-5.09-1.91-.25-4.44.25-4.61-2.55-.19-3.11,2.42-3,4.58-3.19,8.1-.63,15.8,2,23.61,3.3C648.08,1440.54,666.59,1444.62,685.26,1449.44Z"/><path class="cls-1" d="M596.17,1424.13a34.68,34.68,0,0,1-15.31-2.27c-1.65-.69-3.68-1.76-3.13-3.88s2.82-2,4.64-1.81c8.06,1,15.8,3.77,24,4.2.88.05,2.11.35,2,1.71-.12,1.1-1.15.88-1.92,1.1A31.45,31.45,0,0,1,596.17,1424.13Z"/><path class="cls-1" d="M443.32,1055.15l.56-.65c.51.46.31.85-.11,1.23A6.41,6.41,0,0,1,443.32,1055.15Z"/><path class="cls-1" d="M727.7,1065.6c-.48.47-1,.87-1.62.32-.14-.14.21-.79.33-1.21Z"/><path class="cls-1" d="M819.12,1457.47l-.19.33-.54-.33c.13-.11.25-.31.37-.31S819,1457.36,819.12,1457.47Z"/></g></svg>