<svg id="Laag_1" data-name="Laag 1" xmlns="http://www.w3.org/2000/svg" viewBox="0 0 710 1160"><defs><style>.cls-1{fill:#fff;}</style></defs><path class="cls-1" d="M697,232.24a93.51,93.51,0,0,0-51.29-22c-27.11-3-54.12-.52-80.86,4.29a345.87,345.87,0,0,0-51,13.24,339,339,0,0,0-45.47,19.49c-12.3,6.33-24.07,13.56-36.41,20.91.31-1,.32-1.51.59-1.8,11.75-12.53,23.57-25,34.74-38,13.95-16.35,27.3-33.15,40.29-50.25,12-15.81,22.37-32.65,29.69-51.11,4.79-12.07,8.84-24.61,10.39-37.48a88.61,88.61,0,0,0-5.83-44.37c-4.06-10-10.6-17.74-21.87-18.9-16.24-1.68-31.49,3.11-45.55,10.54C451.07,49.13,434.31,69.05,418,89.17c-9.6,11.83-17.79,24.66-25.81,37.65a326.9,326.9,0,0,0-35.11,79.67c-3.26,11-5.83,22.26-8.71,33.4-.85-6.86-.57-13.69-.9-20.5-1.12-22.91-2.41-45.82-5.44-68.59-2.06-15.41-3.4-30.91-6.56-46.17a200.25,200.25,0,0,0-21.32-58C307.07,34,298.6,22.84,286.78,14.23,277.69,7.61,268.19,2.2,257,.11h-4c-3.08,1.5-6.63,1.29-9.68,3.28-11.91,7.8-18.68,19.43-24.4,31.88-6.84,14.87-8.58,30.74-9.09,46.88-.32,10,.92,20,1.28,29.94.47,13.09,2.64,26.1,5.39,38.84A381.6,381.6,0,0,0,228,193.76a348.09,348.09,0,0,0,20.24,47.4c6.29,12.17,13.47,23.83,20.21,35.79a12.06,12.06,0,0,1-3.34-2.18c-11.31-10.43-22.38-21.1-34.09-31.13q-29.18-25-60.17-47.67a195.17,195.17,0,0,0-70.91-32.66,87.9,87.9,0,0,0-53.24,3.87c-12.55,4.95-20.38,12.27-19.78,28.5a83.13,83.13,0,0,0,1.91,14.24,97.34,97.34,0,0,0,15.59,36c13.09,18.69,30.33,33.34,48.05,47.35a348.9,348.9,0,0,0,50.17,32.53,333.16,333.16,0,0,0,71,28.27c8.26,2.28,16.6,4.21,26,6.59-5.46,1.62-9.81,1.46-14.1,1.38a283.33,283.33,0,0,0-37.9,1.61c-13.35,1.54-26.77,2.37-40.12,4.15-16.39,2.18-32.83,3.95-49,7.64a188.9,188.9,0,0,0-59.17,24.7c-17.57,11.09-30,26.42-36.76,46a22.52,22.52,0,0,0,1.31,18.71c3.67,6.79,9.11,11.46,15.15,15.88a94,94,0,0,0,50.49,18.14,315.46,315.46,0,0,0,95.7-9.13,357.15,357.15,0,0,0,52.8-17.25A314.79,314.79,0,0,0,252,455.72c8.62-4.93,17.14-10,26.73-15.67-1.43,1.92-2,2.91-2.81,3.75-13.51,14.53-27.2,28.89-39.75,44.3-16.25,19.94-32.53,39.78-46.6,61.41-12,18.44-19.93,38.42-25.26,59.48-4.54,18-2.72,35.84,3.54,53.21,2.86,7.93,7.48,14.76,15.5,18.19,7.09,3,14.85,2.5,22.12,1.28,21.79-3.65,40.55-13.67,56.45-29A330,330,0,0,0,302.14,606,368,368,0,0,0,336,548.06a359.17,359.17,0,0,0,17.86-47.73c-.58,8.41-1.55,16.76-2.4,25.12q-3.36,33-6.63,66.06c-2.21,22.86-3.49,45.8-5.37,68.68-2.67,32.54-4.72,65.09-5.32,97.72-.45,25-.42,50-.82,75a585.8,585.8,0,0,0,2.9,70.86c4.42,42,12,83.58,20.77,124.91,3.32,15.62,6.76,31.21,9.93,46.87,5.73,28.3,16.61,54.94,26.06,82,.33,1,.87,1.72,1.61,1.26,2-1.26,7.25,0,4.49-5.4a5.07,5.07,0,0,1,0-3c4.46-23.27,10.79-46,20.51-67.65,10.09-22.47,22.76-43.65,34.13-65.48C473.21,980,490.9,941.82,508.5,903.6c10-21.83,13.32-44.47,5.91-68-8-25.46-29.45-36.18-54.51-27-18.26,6.67-32.42,18.81-44.47,33.63-20.27,24.95-34.16,53.44-45.51,83.28-5.63,14.81-9.08,30.24-12.46,46.82-.62-2.23-1-3.32-1.23-4.45a825,825,0,0,1-13.43-155c.37-48.47.31-96.92,4.44-145.27,1.59-18.57,2.58-37.19,4.21-55.75,2.43-27.68,5.17-55.33,7.81-83,.9-9.47,1.89-18.92,2.84-28.38,2.54,21,4,42.06,6.77,63,2,14.75,3.63,29.49,6.82,44.09,4.28,19.58,11.52,37.73,21,55.36,10,18.52,24.17,32.21,42.83,41.13,12,5.73,23.81,5.94,33.74-4,16.72-16.78,24.89-37.7,26.37-60.6a294,294,0,0,0-8.35-90.83c-4-16.1-8.38-32-14.21-47.56a327,327,0,0,0-23.63-48.92c-3.79-6.57-7.67-13.1-12.2-20.84,2.58,1.9,4.13,2.8,5.4,4,10.95,10.37,21.79,20.86,33.43,30.47,27.3,22.56,53.84,46.09,85.46,62.85a169.1,169.1,0,0,0,52.84,18.07,81.22,81.22,0,0,0,48-6.67c10.15-4.81,16.81-12.16,16.61-24.34a81.74,81.74,0,0,0-3-22.51,102.81,102.81,0,0,0-13.25-28.92c-6.08-9-13.38-16.79-21.1-24.4a309.35,309.35,0,0,0-33.84-29,384.13,384.13,0,0,0-54.65-33.43,326,326,0,0,0-54.89-21.24c-10.78-3.19-21.75-5.75-32.63-8.59,8.07-1,16.08-.61,24-1.09,18.25-1.1,36.49-2.09,54.7-4.12,15.32-1.71,30.7-3.27,45.87-5.69,18.92-3,37.55-7.84,55-16.41,9.23-4.55,18.46-9.15,26.73-15.25a88.62,88.62,0,0,0,28.33-34.42C712.12,253.6,709.32,242.73,697,232.24ZM373.08,962c9.79-41.14,27.08-78.84,53.23-112.21,9.43-12,20.74-22.07,35-28.29a43.26,43.26,0,0,1,11.89-3.6c14.19-1.79,24.41,4.06,29.6,17.37,6.43,16.47,6.36,33.13.85,49.85A215.38,215.38,0,0,1,493.53,910c-24.66,52-49.7,103.72-76.58,154.58-6.78,12.83-11.52,26.49-16,40.24-2.46,7.52-5,15-7.86,23.76-10.42-31-16.87-61.58-24.25-91.94C362.56,1010.94,367.23,986.55,373.08,962Zm-117-722.73c-12.93-23.08-21.67-47.8-28.36-73.44-8.42-32.28-11.86-64.92-9.48-98.07a84.34,84.34,0,0,1,22.05-51.5C248.83,6.78,258,6.4,270,13.05c19.48,10.76,31.74,27.38,41.08,47a204,204,0,0,1,16.53,48.81c2.69,13.79,3.94,27.86,5.55,41.85,1.28,11,1.92,22.16,3.58,33.14,1.4,9.27,1.49,18.59,1.94,27.87,2,42.06,3.66,84.14,4.25,126.25,0,1.16,0,2.33,0,4.55-5.09-4.29-7.73-9.33-10.65-14.11-11.42-18.73-19.41-38.89-25.58-59.92-4.83-16.46-11-32.52-16-48.91-6.89-22.26-8.83-45.35-10.62-68.43-.25-3.13-1.79-6.09-1-9.35a2,2,0,0,0-1.69-2.61,2.87,2.87,0,0,0-3.08,2.67c-.37,2.6-.72,5.48,0,7.92,2.84,9.34,2.23,19.07,3.58,28.57,3,20.87,6.61,41.5,14.29,61.31,3.84,9.9,6.36,20.3,9.51,30.47,5.75,18.62,12.13,37,22.27,53.79.12.19-.07.57-.22,1.42-6.09-3.62-10.43-8.94-15.58-13.26C284.56,292.26,270.72,265.41,256.07,239.24ZM196.58,340.92a320.07,320.07,0,0,1-51.81-22.48,339.61,339.61,0,0,1-57.34-38.67c-12.72-10.72-25-21.94-34.84-35.45C42.1,229.94,35.47,214,35.15,196c-.21-12.32,4.37-18.28,16.25-22.06,12.84-4.09,26.11-5.74,39.29-3.6,12.11,2,23.76,6.3,35.26,10.75a190.54,190.54,0,0,1,46,26.14c12.27,9.27,24.21,19,36.34,28.46,26,20.29,49.13,43.85,74.11,65.31,12.71,10.92,24,23.46,36.07,35.13,6.38,6.18,13,12.06,20.3,18.75-9,.5-16.69-2.38-24.38-4.38a172.75,172.75,0,0,1-32.25-11.76c-13-6.38-26.15-12.65-39-19.32-11.88-6.14-24-11.82-35.53-18.62-11.08-6.54-21.12-14.44-31.24-22.24-8.69-6.7-16.91-14-25.3-21.07-1.12-1-2.1-1.85-3.29-.37a2.86,2.86,0,0,0,0,4,60,60,0,0,0,6.39,6.17c13.55,10.46,26.91,21.17,40.87,31.05,10.67,7.55,22.35,13.55,34.16,19.27s23.26,11.8,34.77,17.94a239.49,239.49,0,0,0,50.13,20.06c-22.15,3.09-43.57,3.56-65-1.18C231.38,350.56,213.73,346.63,196.58,340.92Zm59,103.82a303.11,303.11,0,0,1-82.74,35.37c-10.21,2.58-20.39,5.38-30.75,7.16-10.6,1.83-21.36,2.82-32.08,3.84C90.39,493,70.8,493.17,51.63,488c-13.46-3.67-25.88-9.93-35.51-20.1-10-10.6-8.86-14.92-2.19-28,8.82-17.27,22.72-29.33,40.25-38.09,15.31-7.65,30.91-14.16,47.43-18.31a243.44,243.44,0,0,1,32.72-5.39c11.54-1.26,23-2.79,34.59-4,17.85-1.87,35.73-3.57,53.68-4,18.47-.4,36.86-1.88,55.29-2.81,5.62-.28,11.29.54,16.94.66,15,.33,29.94-1.25,44.9-1.88,1,0,2,0,4.31,0-5.92,5.62-11.73,9.15-17.58,12.59-19.43,11.45-40.42,19-61.95,25.49-15.66,4.69-30.92,10.7-46.58,15.38-9.58,2.86-19.59,4.12-29.51,5.73-12.11,2-24.4,2.14-36.44,4.49a43.83,43.83,0,0,1-7.95.41c-1.8,0-4.05-.72-4,2.18.07,2.43,2.28,2.47,4,2.64,5.18.51,10.22-.93,15.33-1.36,14.18-1.18,28.24-3.36,42.27-5.68a188.92,188.92,0,0,0,32.36-8.43c10.65-3.79,21.46-7,32.22-10.36,18.87-5.95,37.71-11.93,55-21.93,1.53-.89,3.22-1.49,5.78-2.64-4.9,7.51-11,12.67-16.07,18.76C295.85,421.63,275.22,432.59,255.56,444.74Zm97,28.1a362,362,0,0,1-14.78,51.54,304.47,304.47,0,0,1-21.22,45.08c-7.9,13.79-16,27.39-25.77,39.91-14.26,18.32-29.16,36.21-48.52,49.43-15.21,10.38-32,16.68-50.93,15.26a15.61,15.61,0,0,1-13.29-8.95,71.16,71.16,0,0,1-7.37-40.47c2.13-20.07,9.31-38.86,18.38-56.85,12.72-25.22,31.49-46.13,48.74-68.14,19.12-24.41,41.44-46,61.37-69.65,14-16.68,30.93-30.55,45.17-47,3.51-4.06,7.22-7.95,11.52-12.67.1,9.19-2.64,16.91-4.61,24.69a166.47,166.47,0,0,1-11.52,31.72q-9.56,19.65-19.39,39.16-7.71,15.35-15.67,30.54c-7.08,13.5-16.56,25.36-25.91,37.29-5.64,7.2-11.41,14.3-17.13,21.43a14.28,14.28,0,0,1-2.36,2.54c-1.17.87-3.11,1.48-1.76,3.28s3.28,1.63,4.81.17a56,56,0,0,0,6-6.39c10.14-13.23,20.25-26.48,30.21-39.83C306.42,504.4,312.17,492.66,318,481c8.53-16.94,17.35-33.74,25.81-50.71,5.62-11.27,9.24-23.31,13-36,.76,10.38,1.59,20.15,2.14,29.93C359.9,440.85,356,456.82,352.58,472.84Zm-.33-119.11a2.47,2.47,0,0,1,2.74-2.3c1.83,0,2.57,1.21,2.74,2.71-.27,1.95-1.37,2.91-3.07,2.75A2.6,2.6,0,0,1,352.25,353.73Zm2.65-16.27c0-13.9,4.47-25.85,8.28-37.89,4.52-14.24,11.72-27.34,18.31-40.68,5.91-12,12.57-23.58,18.22-35.67,8-17.09,18.88-32.18,30.41-46.91,6.95-8.89,14-17.67,21.74-25.9.81-.86,1.53-2.25.27-3.56s-2.24-.83-3.51-.15c-2.36,1.29-3.94,3.38-5.46,5.42-13.5,18-28.51,35-40.07,54.5-5.5,9.27-9.92,19.07-14.93,28.57-7.92,15.05-15.73,30.16-23,45.52a142.6,142.6,0,0,0-10.08,28.64,15.55,15.55,0,0,1-1.6,4.13c-2.34-12-1.34-23.85-2.26-35.61-.58-7.45,1-15.2,2.45-22.65,1.94-9.85,3.78-19.73,6.27-29.48,6.26-24.53,14-48.43,25.43-71.16a356,356,0,0,1,28.85-48.41c15-20.79,31.46-40.33,52.18-55.62a81.91,81.91,0,0,1,45.78-16.44c12.57-.5,18.28,2.5,22.94,16.27,4.88,14.43,6.2,29.33,2.69,44.08a199.25,199.25,0,0,1-18.06,48.67C505.45,169.66,485.64,192,467,215.21c-20.25,25.17-43,48.17-64.32,72.35-12,13.63-25.91,25.54-37.92,39.24C361.75,330.2,358.61,333.45,354.9,337.46ZM461.32,482.87a244.57,244.57,0,0,1,10.55,24.79,339.73,339.73,0,0,1,14.6,51.65c4.81,24.82,7.87,49.93,6.27,75.24-1.3,20.51-7.74,39.48-20.8,55.75-9.19,11.45-19.89,12.41-33.77,4.09-17.4-10.44-29.1-25.37-37.81-43.47a219.13,219.13,0,0,1-17-47.58c-3.36-15.06-4.26-30.47-6.44-45.7-2.58-18.11-3.71-36.34-5.3-54.54-.48-5.46-.55-11-.63-16.46-.26-17.81-1.65-35.55-2.88-53.3-.42-6,.69-12,.75-17.95.14-15-1.52-29.94-1.84-44.93,0-1.39,0-2.79,0-5.31,7.06,7.83,11.62,15.84,16,23.91,9.79,17.91,16,37.18,22.16,56.55,4.89,15.4,10.6,30.55,15.13,46.07,2.72,9.32,4.17,18.93,5.76,28.52,2.09,12.61,2.11,25.45,4.57,38,.5,2.58.22,5.31.3,8,0,1.3-.25,2.75,1.76,2.93,2.32.21,2.84-1.45,3.1-3.09.77-4.86-.67-9.59-1.24-14.34-1.71-14.46-3.54-28.9-5.7-43.3A187.78,187.78,0,0,0,420.64,476c-3.54-10.39-6.78-20.86-10.08-31.31-6.45-20.43-13.09-40.81-23.88-59.51-.3-.53-.5-1.12-1.12-2.51,4.73,2.77,7.9,6,11.24,9.08s6.73,6.24,10.25,9.19c12.06,10.08,19.81,23.54,28.34,36.35A411.57,411.57,0,0,1,461.32,482.87Zm22.22-123.75c19,4.86,37.78,10.46,55.91,18.34a362.88,362.88,0,0,1,48.49,25.71,288.81,288.81,0,0,1,39.55,29.72c10.78,9.69,21.44,19.46,30,31.18,11,15.08,17.58,31.78,17.62,50.81,0,8.74-4,14.91-11.62,17.75-17.53,6.58-35.46,8.43-53.91,3-11.18-3.31-22.25-6.75-32.94-11.44-14.8-6.51-28.33-15.12-41.1-24.93q-18.09-13.9-35.93-28.15c-15.23-12.22-29.61-25.4-43.93-38.68-10.74-10-21.77-19.63-32.89-29.18-7.22-6.2-13-13.75-20-20.17-10.15-9.34-20.05-18.94-30.36-28.71,6.42-1.14,12.43.76,18.28,2.26a218.83,218.83,0,0,1,37,12.82c9.22,4.24,18.19,9,27.26,13.61,10.95,5.52,21.83,11.18,32.83,16.58,17.7,8.71,33.53,20.13,48.68,32.65,7.72,6.38,15.85,12.26,23.14,19.16a1.62,1.62,0,0,0,2.23.26,2.67,2.67,0,0,0,.82-3.55c-1.1-2.7-3.38-4.52-5.6-6.06-13.3-9.23-25.32-20.12-38.59-29.42a221.66,221.66,0,0,0-32.28-19.23c-12.58-5.94-24.69-12.74-37.07-19-16.32-8.32-32.68-16.35-50.67-20.45a17.87,17.87,0,0,1-3-1.35c12.15-2.28,23.85-1.21,35.46-2.29,7.54-.7,15.19,1,22.67,2.41C463.62,354.65,473.66,356.59,483.54,359.12Zm215.05-94.88c-6.45,13.27-15,25.33-27.52,33.59A210.45,210.45,0,0,1,631.37,318,193.94,193.94,0,0,1,583,329.58c-17.11,2-34.29,3.82-51.41,5.76-20.4,2.31-40.84,2.17-61.25,3.44-18.25,1.15-36.48,3.07-54.84,2.32-16-.65-32,.41-49.16,1.2,6.71-7.12,14.3-10.8,21.49-14.85,16.68-9.41,34.53-16,52.85-21.56,16.55-5,32.78-11.12,49.36-16.16,19.42-5.9,39.43-7.84,59.46-9.79q8.88-.85,17.79-1.51c1.3-.1,2.35-.37,2.56-1.77a2.84,2.84,0,0,0-2.06-3.06,12,12,0,0,0-7.87-.17c-9.5,2.74-19.38,2.15-29,3.58-20.68,3.05-41.19,6.56-60.87,14.1-9.59,3.68-19.68,6.05-29.49,9.18-19,6-37.78,12.45-55,22.79-.56.34-1.21.52-3.31,1.4,3-3.51,5.12-6,7.22-8.39,2.24-2.6,4.61-5.09,6.72-7.79,10-12.9,23-22.51,36.54-31.15,14.76-9.42,29.83-18.35,45.51-26.3A321.16,321.16,0,0,1,536,228.58c33.9-9.61,68.58-14,103.76-11.31,22.41,1.68,42.59,9.46,57.61,27.44C702.66,251,701.59,258.06,698.59,264.24Z"/></svg>