<svg id="Laag_1" data-name="Laag 1" xmlns="http://www.w3.org/2000/svg" viewBox="0 0 2135.71 3500.1"><defs><style>.cls-1,.cls-3{fill:#fff;}.cls-2{fill:#e54f50;}.cls-3{stroke:#000;stroke-miterlimit:10;}</style></defs><path class="cls-1" d="M2113.66,714.09c-15.94-16.29-33.53-29.05-52.65-40.53-38.06-22.86-79.38-35.24-123.39-40-41.23-4.47-82.31-1.74-123.52-.14-43.73,1.7-87,8-129.44,16.77-58.14,12-115.79,27-171.3,49.18-40.88,16.32-81.06,34-119.44,55.53-31.06,17.45-61.85,35.37-94.17,53.89,1.34-2.84,1.66-4.35,2.56-5.32,35.19-37.44,71-74.31,103.76-114,68-82.27,138.44-162.53,189-257.81a526.84,526.84,0,0,0,54-159.89c8-47.13.66-95-18.41-139.76-12-28.24-31.81-50.36-63.86-53.71-49.54-5.18-95.7,9.84-139,32-49.9,25.53-88.82,65.07-125.93,106.25a1058.54,1058.54,0,0,0-121.44,164.85c-34.47,57.46-63.78,117-86.51,179.83-19.24,53.19-33.05,108-47.44,163-1.36-20.51-.23-41-1.58-61.42-3.85-58.14-6.21-116.33-12.7-174.37-5.22-46.8-10.46-93.68-17.17-140.2-7.08-49-19.56-97.53-38.65-143.59-15.22-36.72-33.72-72.3-56.63-104.6C890.33,58.54,850.59,27.94,803.4,8.38,774.23-3.71,744.9-4.27,719,17.06c-30.16,24.79-49.47,57.67-64.37,93-13.84,32.78-20.47,67.35-23.35,103-4.6,57.05.09,113.67,6.64,170,5,42.45,13.93,84.46,24.57,126.13,8.49,33.26,17.92,66.22,29.47,98.35,28.93,80.47,69.62,155.27,115.87,228-7,.29-9.75-4.66-13.07-7.72-20.79-19.16-40.69-39.3-61.79-58.09-71-63.27-144.42-123.54-221.94-178.82-58.59-41.78-121.74-72.7-191.06-92.49-59.8-17.08-118.8-16.89-176.92,3.15-43.22,14.9-69.74,39.78-66.16,93.76.87,13.11,3.35,25.64,6,38.45A285.69,285.69,0,0,0,130,742.3c39.69,56.33,91.68,100.68,145.22,143,47.37,37.44,98.46,69.32,151.54,98.24,67.68,36.87,139,64.28,212.92,85.06,25.29,7.11,51,12.74,79.06,19.67-14.67,5.35-27.25,4.38-39.6,4.46-44.26.29-88.49,1.16-132.45,6.63-35.32,4.39-70.84,6.37-106.19,10.93-50,6.45-100.06,12.06-149.27,23.63a588,588,0,0,0-141.41,53c-65.07,34.46-116.66,80.86-143.19,152.11-13.69,36.79-5.43,65.39,18.34,88.8,48.92,48.18,109.94,72.78,176.68,78,85.22,6.67,170.29-.86,254.2-18.5a1147.27,1147.27,0,0,0,156.08-44c36.24-13.16,71.24-29.24,105.68-46.67,39.9-20.21,78-43.41,117.6-64.24-10,10.84-20,21.79-30.12,32.51-37.59,39.65-74.09,80.31-108.39,122.83-45.31,56.16-91,112-129.93,173.08-35.91,56.35-59.88,117.22-75.61,181.65-7.43,30.44-7.83,61.15-3.71,92.54,3.87,29.47,9.59,57.75,24.26,83.78,14.12,25.06,34.25,39.59,64.21,41.23,58.81,3.21,111.44-16.41,158.64-47.47,59.92-39.44,105.51-94.77,149.88-150.69,25.9-32.66,48.5-67.46,70.28-102.84a989.66,989.66,0,0,0,66-127.62c16.95-39.33,30.61-79.78,43.54-120.69a97.8,97.8,0,0,1-.64,18c-7.82,72.47-16.71,144.84-23.22,217.43-7.37,82.12-13.58,164.36-19.73,246.6-7.5,100.37-14.36,200.7-16.08,301.32-1.18,68.46-.43,137-2,205.39-1.83,77.13.43,154.14,8.46,230.72,13.48,128.5,37.85,255.28,63.34,381.9,26.21,130.2,57.35,258.74,107.24,382.27,5.86,14.49,14.38-4.37,17.91,4.91,2.27-1.15,5-2.68,3.63-5.49-7.35-15.5,1.33-29.59,4-44,15.26-82.15,43.13-159.92,82.54-233.58,56.42-105.48,113.77-210.49,163.16-319.56,29.83-65.89,65.23-129.22,90.22-197.36,23.46-64,24.92-127.91.31-191.66-20.13-52.14-64.76-79.41-119.86-74.35-41.55,3.82-76.63,23.2-109.09,47.62-46.13,34.7-81.08,79.53-111,128.27C1141.61,2709.87,1096,2817,1075.52,2937.57c-2.07-7.13-3.5-10.85-4.21-14.7-28.17-153.82-42.15-308.8-40.36-465.29,1.48-129.82-1-259.69,10-389.29,5.28-62.62,7.6-125.49,13-188.1,9.13-105.68,19.63-211.23,29.64-316.83,1.64-17.27,3.75-34.49,5.64-51.74,6.72,24,4.49,48.31,7.42,72.26,5,40.82,9.2,81.73,13.19,122.66,3.79,38.87,8.49,77.72,16.7,115.81,12,55.77,30.07,109.52,56.19,160.84,32.09,63.06,76.13,113.58,140.67,143.41,36.12,16.7,71.45,17.81,101.88-12.87,49.61-50,74.4-112.27,79-180.27,6.33-92.79-2.34-185-24.78-276-14.14-57.35-30.19-113.74-52.52-168.44-19.67-48.19-43.91-93.93-70.77-138.4-9-14.85-17.32-30.08-26-45.15a50,50,0,0,1,15.76,10c32.17,30.84,64.53,61.42,98.6,90.19,71.25,60.15,142.58,120.14,221.69,170a529.93,529.93,0,0,0,195.81,75,245,245,0,0,0,146.48-20.21c30.62-14.49,50.07-37.2,49.78-74-.21-26.35-3.77-51.68-11.92-76.59-9.28-28.37-21.45-55.12-38.58-79.83-18.39-26.53-40-49.86-62.87-72.51a922.52,922.52,0,0,0-102.25-87.68,1159.69,1159.69,0,0,0-165.09-101c-53.25-26.89-108.81-47.29-165.84-64-32.24-9.43-64.95-17.25-97.45-25.8,23.91-3,47.61-1.73,71.14-3.25,55.1-3.54,110.22-6.35,165.21-12.49,46.26-5.16,92.68-10,138.55-17.1,58.18-9.05,115.42-24.14,168.76-50.42,27.37-13.48,54.52-27.66,79.27-45.72a270.1,270.1,0,0,0,87.81-107.89C2139.13,781.33,2142.79,743.85,2113.66,714.09ZM1107,2978.52c20.44-126.14,64.91-243.21,132.45-351.53,24.31-39,52.09-75.27,86.89-105.67,25.25-22.06,53.19-39.59,85.83-48.53,46.88-12.83,85.23,6.77,102.61,52.18,21.66,56.58,16.06,112.25-4.89,167.74-22.06,58.44-53.77,112.31-78.81,169.34-51.73,117.82-114,230.42-172.06,345.07-21.88,43.18-39.23,88-53.69,134-6.75,21.52-14.32,42.78-22.88,68.21-21.42-66-39.87-128.41-53.76-192.11-10.47-48-20.58-96.1-29.19-144.45C1093.86,3041.09,1101.93,3009.78,1107,2978.52ZM721.24,621.58a1042.15,1042.15,0,0,1-37-114.24,1017.45,1017.45,0,0,1-25.86-133.53,837.12,837.12,0,0,1-6-133.91c1.15-32,4.14-63.76,13.68-94.65,11.56-37.42,30.31-70.87,56.95-99.2,25.52-27.15,52.54-27.42,87.74-7.88C869.9,71,907.17,121.44,935.41,181.28c22.16,46.95,39.51,95.36,49.5,146,7.82,39.66,11.41,80.18,16.15,120.4s9,80.68,12.73,121.08c2.38,25.49,5.36,51.13,4.85,76.63-1.49,74,11.51,147.35,9.74,221.34-.13,5.52-.34,11-.51,16.57-4.5,2.61-7.61-.64-10.58-2.92-18.62-14.32-38.82-16.21-60.44-8.22-4.63,1.71-9.3,3.69-14.44,2-12.17-10.17-13.12-25.78-17.38-39.18-19.33-60.82-41.16-120.83-59-182.15-10.45-35.93-15.11-72.68-20.18-109.55-4.73-34.36-7.23-68.92-11.45-103.31-.41-3.37-.28-6.95-3.56-11.2-4.68,7-4.28,14.06-2.68,20.35,7.25,28.46,6.84,57.81,10.68,86.65,8.4,62.93,20.72,124.73,42.33,184.73,17.36,48.2,30,98,47.34,146.3A57.82,57.82,0,0,1,932,882.9,136.69,136.69,0,0,1,909.61,927c-36.56-30.63-60.33-71.39-85.81-110.49C783.61,754.78,748.07,690.24,721.24,621.58ZM706,1060.78c-68.92-15.28-136.42-35.19-201-63.8-42.45-18.8-83.23-40.9-123.15-65a968.08,968.08,0,0,1-136.38-99.39c-51.73-45.19-100.94-93.12-127-159-12-30.48-18.54-62.19-16.92-95.16,1.48-30.08,21.77-44.7,47-53.16,39.44-13.25,80.68-18.35,121.52-11.5,36,6,70.89,18.64,105.09,32.09a556.6,556.6,0,0,1,136.45,77.39c37.6,28.94,74.87,58.33,112.45,87.31C695.5,765.54,758,830.79,827,888.67c28.68,24.06,57,49.05,81.09,78.18,4.42,1.49,5.86,5.34,6.84,9.25a406.6,406.6,0,0,0,23.31,66.8c1.86,4.16,3.32,8.51.39,12.9-53.7-14.54-103.53-38-152.43-64.18C749.69,972.12,712,954.88,675,936.45,631.92,915,591.06,890.14,553.45,860c-30.15-24.16-60.66-47.88-90.9-71.94-3.45-2.74-5.95-6.67-9.32-9.55-3-2.6-5.86-8.47-11-3.11-3.92,4.13-4.17,8.94.1,13.23,6.31,6.34,12,13.61,19.24,18.65,52.12,36.28,98.52,80.33,153.51,112.71,28.52,16.79,58.17,31.33,87.7,46.17,44.53,22.38,88.61,45.66,133.13,68.05,34,17.11,70.49,28.06,107.42,39.59-38.13,5.49-75.77,8.48-113.43,7.16C787.93,1079.49,747,1069.86,706,1060.78Zm56.48,284.33c-62.74,38.28-129.11,68.24-198.89,91-46.36,15.1-93.48,28.74-141.45,35.69-77.79,11.27-155.92,21.47-235.15,8.6-52.51-8.52-99-27.54-137.93-63.7-37.59-35-30.41-51.44-12.5-87,26.53-52.63,68.63-90,122.16-116.58,46.29-23,93.31-42.88,143.25-55.35,32.88-8.2,66.56-12.81,100.32-16.47s67.56-8.6,101.45-11.76c49.47-4.62,99-10,148.57-11.65,61.27-2.05,122.38-7.73,183.57-8.66,42.13-.63,84.37,2.38,126.56-.8,3-.22,6-.49,9-.74,13.35,4.36,19.37,14.44,21.45,27.58-23,16.39-48.49,28.18-74,39.94-49.11,22.62-101,37.16-152.13,54.06-41.26,13.65-82,28.87-124.11,39.85-56.2,14.66-113.79,20.06-171.36,25.58-15.39,1.47-30.54,5.68-46.23,3.78-3.31-.4-6,1.34-6.58,4.81-.61,3.67.31,6.12,4.49,8.09,7.87,3.7,16,2.65,23.66,1.74,59-7,118.21-12.89,176.52-24.32,39.76-7.79,77.86-22.31,116.49-34.55,27.8-8.8,55.56-17.72,83.43-26.32,54.39-16.8,107.18-37.43,159.92-68.47-7.26,14.47-15.9,22.44-24,30.94-8.66,9.06-16.82,18.6-25,28.12C886.55,1273.93,823.42,1307.93,762.49,1345.11ZM1060,1428.56a1096,1096,0,0,1-44.21,154.29,918.19,918.19,0,0,1-63.92,136.27c-23.8,41.7-48.45,82.7-77.79,120.6-43.24,55.87-88.64,110.31-147.47,150.45-45,30.68-94.93,49.33-151.09,45.73-22-1.41-36.77-13-44.72-32-22.23-53.12-27-107.56-11.75-163.91,23.77-87.74,63.9-166.54,120.41-237.84,40.25-50.78,80.16-101.85,121.65-151.59,27-32.35,56.85-62.29,85.12-93.58,25.78-28.53,51.69-57,76.56-86.3,17.57-20.71,39.89-36.29,57.8-56.54,13.93-15.73,28.4-31,42.63-46.45,17.41,3.41,26.2,15.9,32.63,30.93-2.22,29.27-15.22,55.12-27,81.11q-56.37,124.4-123,243.67c-24.43,43.48-57.69,81.11-88.94,119.85-12.29,15.24-25,30.11-36.59,46.14,9.42-1.48,9.78-1.2,18-11.79q40.7-52.45,81.5-104.83c38-48.43,62.36-104.35,91.1-157.92,14.74-27.49,28.14-55.68,43-83.06,22-40.43,36.62-83.72,51.82-126.87,2-2.48,4.14-4.68,7.72-2.73,2,27.06,4.62,54.09,6,81.19C1082.14,1332.94,1070.18,1380.67,1060,1428.56Zm22.15-488.9c-4.36-5.82-1.24-11.3.42-17.11,16.09-56,44-106.84,70.11-158.4,21.81-43.07,41.53-87.21,65.52-129.17,32.35-56.58,72.69-107.3,115.14-156.45,8.14-9.41,14.1-20.39,25.35-31.17-11.23.29-14.78,6-18.71,10.75-32.87,40-64.93,80.72-95.34,122.61-23.92,33-43.34,68.82-60.93,105.71-26.39,55.37-58,108.13-82.87,164.27a636.34,636.34,0,0,0-28.33,78c-1.61,5.49-1.7,12.44-9.47,13.92-10-6-1.08-15-3.59-22.23-.85-48-7.33-96.27,2.42-144,10.73-52.58,22.09-105,37.48-156.56C1114,570.71,1131.6,523,1153.87,477c33.65-69.59,73.29-135.32,122-195.6,37.74-46.67,77-91.66,125.61-127.32,35.66-26.14,75-44,119.42-49.23,8-.94,15.91-3.27,23.81-3.06,37,1,52.09,7.86,66.19,47.5,15.58,43.8,19.38,89.41,8.8,134.59-12,51.08-29.22,100.41-54.33,147.14-43.07,80.14-103.31,147.3-159.16,217.88-56,70.79-121.78,132.94-178.6,203-3,3.74-9.19,4.73-9.44,10.79-11.14,4.26-22.1-2.86-33.88.68-33.4,10-59.84,29.3-82.11,55.54C1096,926.17,1093.64,937.41,1082.18,939.66Zm307,519.06c18.7,37.56,33.81,77,46,117.19,12.83,42.32,24.18,85,32.1,128.73,12.76,70.4,20.72,141.25,16.23,212.63-3.87,61.37-23.31,118.16-62.45,167.05-27.92,34.88-60.14,37.63-102.94,12.16-52.9-31.49-87.62-77.11-114-131.59-22.15-45.81-39.58-92.87-50.66-142.44-10.29-46-13-93.07-19.65-139.58-7.75-54.22-10.67-108.87-16.11-163.29-1.81-18.1-1-36.21-1.85-54.29-2.59-52.2-6.1-104.36-8.1-156.57-.89-23.06,1.59-46.22,1.46-69.33-.12-20.61-1.73-41.22-2.69-61.83,4.91-15.23,15.66-24.73,30.06-30.64,30.56,51.1,53.73,105.31,71.15,162.31,14.86,48.64,32.37,96.46,48.17,144.83,21.33,65.31,30.8,132.82,35.41,201.1,1.21,18,7.6,35.44,5.92,53.79-.39,4.27-1.39,9.43,5.94,9.61,6.27.15,7.51-4.28,8.44-8.63,2.46-11.62-1.08-22.93-2.49-34.32-4.92-39.72-9.54-79.48-15.05-119.12a648,648,0,0,0-27-114.29c-21.58-65.27-41.52-131.09-64.15-196-10-28.76-24.28-56.14-39.3-82.86-1.19-2.12-3.33-3.93-1-7.49,53.16,43.8,102.17,90.42,138.79,150.08C1332.23,1356.08,1363,1406.13,1389.17,1458.72Zm58.76-376.58c49.64,11.77,98.9,25.25,146.28,44.24,58.21,23.33,113.74,51.92,167.29,84.94,64.77,39.94,123.33,87.2,177.34,140.36,47.72,47,82.09,101.87,94.1,168.74,3,16.73,3.62,34.49-.1,51.06-4.71,21-21,33.37-40.53,40-46.74,15.81-95,21.66-143.08,9.67-64.08-16-125.85-38.8-181.51-75.56-71.89-47.49-138.71-101.65-203.71-158-68.28-59.16-136.09-118.93-202.28-180.41-31.75-29.5-60.48-62.35-92.81-91.43,4-16.16,14.41-27,28.67-34.71,25,1.82,47.39,12.35,69.69,22.35,83,37.23,164.44,77.63,243.84,121.92,48.82,27.23,91.82,63.23,134.62,99.07,13.45,11.27,27.4,21.82,43.38,34-.3-10.1-5.75-14.44-11-18.34-49.49-37-96.21-77.75-148.31-111.19-24.5-15.73-50.26-29.26-76.71-41.73-32.66-15.41-64-33.53-96-50.48-47.57-25.24-96.75-46.69-148-63.43-4.9-5.55-4.9-9.67,3.34-11.35,6-3.73,12.83-2.28,19.07-1.78,30.07,2.37,59.78-4.84,90.12-1.25C1364.37,1063.91,1406.27,1072.25,1447.93,1082.14Zm657.49-285c-19.29,40.24-45.4,76.57-83,101.55-37.84,25.1-78.79,44.8-121.28,61.39-47.18,18.43-96.38,29-146,34.87-51.67,6.07-103.64,11.1-155.27,17.3-87.51,10.51-175.7,5.24-263.13,16-33.7,4.16-68.33.75-102.54.79a6.87,6.87,0,0,1-.23-7.19c15.53-24.06,20.77-51.88,29-78.62,10.15-10.12,24-12.77,36.72-16.51,63.68-18.66,125.51-43,189.53-60.7,35.56-9.82,71.85-14.08,108.16-19.3,30.38-4.37,61-5.94,91.36-9.4,6.19-.7,12.6-1.2,19-4.6-6.06-5.74-12.29-4.73-18-3.67C1640.81,838.17,1591,840,1542,848.8c-33.7,6-67.08,13.47-99.29,25-55.38,19.85-112.4,34.56-167.89,54-4.31,1.51-8.74,2.5-13.22.43-7.75-15.6-14.85-31.45-17.76-48.82,30.55-26.11,64.79-46.91,98.73-68.07,39.49-24.61,80.06-47.46,122.16-67.22,31-14.53,63.06-26.62,95.48-37.7,47.12-16.09,95.27-28.21,144.12-37.51,61.77-11.75,124.18-16,187.05-15.21,36.72.47,72.89,3.88,107.6,16.29,38.25,13.67,72.83,33.17,100.18,64.38C2116.63,754.33,2115.25,776.67,2105.42,797.17Z"/><path class="cls-2" d="M1243.84,879.44c8.62,14.87,16,30.24,18.31,47.54,6,5.33,6,11.3,1.86,17.69-2,30.94-14.82,58.08-29.86,84.41l-21.64,32.81c-3,2.18-5.87,4.39-4.38,8.79-1.25,6.31-6.48,9-11.11,12.28-10.31,10.13-20.3,20.54-28.08,32.83-12.44,8.66-22.56,19.71-32.33,31.13-11.67,8.6-20.47,20-30.06,30.64-11.34,7.74-18.13,21.58-33,24.64l-4.46,2.16c-6.24.85-11.45-.93-15.31-6.07a118.24,118.24,0,0,0-30.57-30.59c-8.52-12.29-19.59-22.21-30.33-32.43a131,131,0,0,0-21.45-27.58l-32.88-51.9c-11.56-29.17-23.17-58.33-30.53-88.95.28-13.29-2.14-26.69,1.56-39.86,3.36-15.42,11.64-28.51,19.69-41.71,3.31-5.85,7.63-10.49,14.5-12,30.23-15.12,58.51-13.93,84.07,10,10.37,11.52,19.75,23.73,26.08,38,3.43,7.74,4.35,3,5.53-.95,5.13,6.52-.8,15.57,5.07,21.88,6.89,11,11.15,1.82,16.09-2.11,3.35-4,7.09-7.7,10-12,18.16-26.79,42.39-46.41,71.08-60.81,18.18-9.12,36.9-12.29,56.49-4.63Q1231,871,1243.84,879.44Z"/><path class="cls-1" d="M1053.81,1198.29c5.27,1.6,10.9,2.29,15.3,6.08-14.85,51.44-36,100.22-61.09,147.46-23.87,44.91-47.41,90-70,135.6-26.29,53.11-63.53,98.56-99,145.23-14.93,19.63-31,38.42-46.43,57.63-3.64,4.51-7.73,7.73-14,6.82-2.7-.4-4.86-1.54-6.07-3.88-1.36-2.62,0-4.65,1.92-6.58,27.26-28,51-58.91,74.85-89.65,25-32.25,49.75-64.89,68.28-101.66,19.35-38.39,40.08-76.09,58.75-114.79,16.11-33.37,34.59-65.56,48.72-99.93C1036.1,1253.66,1048.09,1227.09,1053.81,1198.29Z"/><path class="cls-1" d="M1197,1083c2.32-5.35,4.31-11,11.12-12.27,43.38,10.7,83.86,28.91,123.56,48.87,44.42,22.34,88.34,45.69,132.77,68,48,24.12,92.63,53.4,134.83,86.52,28.39,22.27,56.88,44.41,85.25,66.71,3.49,2.74,6.64,5.66,8.83,10,2.6,5.17,3.95,9.62-1.39,13-4.74,3-6.37-2-9.35-4.49-28.32-23.43-56.62-46.9-85.52-69.6-32.12-25.23-65-49.57-101-69.12-28.15-15.32-57.25-28.9-85.84-43.42-37.87-19.22-75.18-39.62-113.63-57.58C1264.62,1104.6,1231.58,1091.5,1197,1083Z"/><path class="cls-1" d="M1080.64,940.09c-1.83,6-3.3,12.18-8.71,16.74-5.93-3.08-5.8-9.31-7.38-14.63,10.3-33.47,21.07-66.68,35.57-98.73,21.21-46.88,46.65-91.52,69.76-137.38,16.82-33.38,32.24-67.53,52.84-98.9,31.2-47.52,66.27-92.12,102.34-136,7.73-9.39,13.15-20.62,23.88-27.6,4.69-3.06,8.36-5.79,12.51,0,3.59,5-.14,8.41-3,11.6-27.35,30.5-53,62.38-78.24,94.65a754.81,754.81,0,0,0-88.45,143.83c-31.29,66.45-68.85,129.88-95.51,198.53C1090.17,907.81,1085.79,924.1,1080.64,940.09Z"/><path class="cls-1" d="M943.8,873.22c-4.32,4.64-8.68,9.23-14.51,12-22-64.53-40.59-130.19-62.81-194.7-13.07-37.94-19.6-77.77-26.34-117.59-6.85-40.49-5.83-81.86-16.19-121.8-2-7.51-1.07-16.09.11-23.93.57-3.77,3.84-8.91,9.49-7.72,4.89,1,4.48,5.4,4.88,9.62,4.1,42.82,7.61,85.66,13.79,128.31,3.65,25.2,7.19,50.28,13.09,75,8.48,35.61,20.56,70.12,31.61,104.94,9.13,28.75,19.32,57.15,28.78,85.79C931.26,840.08,935.53,857.38,943.8,873.22Z"/><path class="cls-1" d="M1264,944.67q-.93-8.85-1.87-17.69c52.7-16.83,105.48-33.4,158.06-50.55A938,938,0,0,1,1567.42,841c40.49-6.31,81.85-5.69,121.73-16.25,7-1.85,15.1-2.48,22.15,1.38,3.58,2,6.63,5,5.07,9.77-1.33,4.07-4.68,3.9-8.47,4.21-41.83,3.47-83.61,7.13-125.25,13-24.69,3.48-49.28,6.81-73.59,12.42-36.62,8.45-72.07,20.71-107.72,32.31q-47.91,15.58-95.6,31.82C1291.75,934.41,1277.11,937.42,1264,944.67Z"/><path class="cls-3" d="M88,1318.27l-.6,1.9c.33-.4.68-.79,1-1.19C88.27,1318.74,88.13,1318.51,88,1318.27Z"/></svg>